G04*
G04 #@! TF.GenerationSoftware,Altium Limited,Altium Designer,22.4.2 (48)*
G04*
G04 Layer_Physical_Order=2*
G04 Layer_Color=16711680*
%FSLAX25Y25*%
%MOIN*%
G70*
G04*
G04 #@! TF.SameCoordinates,9D7DA267-A193-428E-9E10-CD2539F38239*
G04*
G04*
G04 #@! TF.FilePolarity,Positive*
G04*
G01*
G75*
%ADD22C,0.02500*%
%ADD23C,0.03500*%
%ADD24C,0.05906*%
%ADD25R,0.05906X0.05906*%
%ADD26C,0.07000*%
%ADD27R,0.05906X0.05906*%
%ADD28C,0.04724*%
%ADD29C,0.06000*%
%ADD30C,0.05512*%
%ADD31C,0.05000*%
G36*
X701000Y499817D02*
X700834Y499706D01*
X698166D01*
X695702Y498685D01*
X693815Y496798D01*
X692795Y494334D01*
Y491666D01*
X693815Y489202D01*
X695702Y487315D01*
X698166Y486295D01*
X700834D01*
X701000Y486183D01*
Y100136D01*
X700500Y99808D01*
X698334Y100706D01*
X695666D01*
X693202Y99685D01*
X691315Y97798D01*
X690295Y95334D01*
Y92666D01*
X691315Y90202D01*
X691555Y89962D01*
X691364Y89500D01*
X111136D01*
X110945Y89962D01*
X111685Y90702D01*
X112706Y93166D01*
Y95834D01*
X111685Y98298D01*
X109798Y100185D01*
X107334Y101206D01*
X105500D01*
Y487794D01*
X106334D01*
X108798Y488815D01*
X110685Y490702D01*
X111706Y493166D01*
Y495834D01*
X110685Y498298D01*
X108983Y500000D01*
X109190Y500500D01*
X701000D01*
Y499817D01*
D02*
G37*
%LPC*%
G36*
X122747Y487689D02*
X122500D01*
Y484433D01*
X125756D01*
Y484680D01*
X125184Y486060D01*
X124127Y487117D01*
X122747Y487689D01*
D02*
G37*
G36*
X121500D02*
X121253D01*
X119872Y487117D01*
X118816Y486060D01*
X118244Y484680D01*
Y484433D01*
X121500D01*
Y487689D01*
D02*
G37*
G36*
X499288Y495431D02*
X320279D01*
X318710Y494781D01*
X311985Y488056D01*
X310860D01*
X309553Y487514D01*
X308553Y486514D01*
X308011Y485207D01*
Y483793D01*
X308553Y482486D01*
X309553Y481486D01*
X310860Y480944D01*
X312274D01*
X313581Y481486D01*
X314581Y482486D01*
X315123Y483793D01*
Y484918D01*
X321198Y490993D01*
X369402D01*
X369593Y490531D01*
X362462Y483400D01*
X361644D01*
X361341Y483275D01*
X360988Y483628D01*
X361056Y483793D01*
Y485207D01*
X360514Y486514D01*
X359514Y487514D01*
X358207Y488056D01*
X356793D01*
X355486Y487514D01*
X354486Y486514D01*
X353944Y485207D01*
Y483793D01*
X354486Y482486D01*
X355281Y481690D01*
Y478050D01*
X355931Y476481D01*
X357494Y474918D01*
X357303Y474456D01*
X292085D01*
X291507Y475035D01*
X290294Y475537D01*
X288981D01*
X287768Y475035D01*
X286840Y474107D01*
X286337Y472894D01*
Y471581D01*
X286840Y470368D01*
X287768Y469440D01*
X288981Y468937D01*
X290294D01*
X291507Y469440D01*
X292085Y470018D01*
X367198D01*
X367389Y469556D01*
X367102Y469269D01*
X366600Y468056D01*
Y466744D01*
X367102Y465531D01*
X367152Y465481D01*
X366961Y465019D01*
X356448D01*
X355769Y465698D01*
X354556Y466200D01*
X353244D01*
X352031Y465698D01*
X351102Y464769D01*
X350600Y463556D01*
Y462244D01*
X350904Y461509D01*
X350560Y461034D01*
X242420D01*
X242330Y461251D01*
X241121Y462460D01*
X239540Y463115D01*
X237830D01*
X236249Y462460D01*
X235040Y461251D01*
X234385Y459670D01*
Y457960D01*
X235040Y456379D01*
X236249Y455170D01*
X237830Y454515D01*
X239540D01*
X241121Y455170D01*
X242330Y456379D01*
X242420Y456596D01*
X350150D01*
X351335Y456105D01*
X551033D01*
X555886Y451253D01*
X555679Y450753D01*
X548747D01*
Y443247D01*
X556253D01*
Y450179D01*
X556753Y450386D01*
X565381Y441758D01*
X566950Y441108D01*
X592875D01*
X594444Y441758D01*
X597119Y444434D01*
X624614D01*
X624805Y443972D01*
X624802Y443969D01*
X624300Y442756D01*
Y441938D01*
X613581Y431219D01*
X522848D01*
X522269Y431798D01*
X521056Y432300D01*
X519744D01*
X518531Y431798D01*
X517602Y430869D01*
X517100Y429656D01*
Y428344D01*
X517602Y427131D01*
X518531Y426202D01*
X519744Y425700D01*
X521056D01*
X522269Y426202D01*
X522848Y426781D01*
X614500D01*
X616069Y427431D01*
X627438Y438800D01*
X628256D01*
X629469Y439302D01*
X630398Y440231D01*
X630900Y441444D01*
Y442756D01*
X630398Y443969D01*
X630395Y443972D01*
X630586Y444434D01*
X673428D01*
X678033Y439829D01*
X677750Y439405D01*
X677129Y439662D01*
X675871D01*
X674709Y439181D01*
X673819Y438291D01*
X673338Y437129D01*
Y435871D01*
X673819Y434709D01*
X674709Y433819D01*
X675871Y433338D01*
X677129D01*
X678291Y433819D01*
X679181Y434709D01*
X679662Y435871D01*
Y437129D01*
X679405Y437750D01*
X679829Y438033D01*
X681338Y436524D01*
Y435871D01*
X681819Y434709D01*
X682709Y433819D01*
X683871Y433338D01*
X685129D01*
X686291Y433819D01*
X687181Y434709D01*
X687662Y435871D01*
Y437129D01*
X687181Y438291D01*
X686291Y439181D01*
X685129Y439662D01*
X684476D01*
X675916Y448222D01*
X674347Y448872D01*
X635174D01*
X634967Y449371D01*
X635514Y449919D01*
X636056Y451226D01*
Y452640D01*
X635514Y453947D01*
X634514Y454948D01*
X633207Y455489D01*
X631793D01*
X630486Y454948D01*
X629690Y454152D01*
X594106D01*
X592537Y453502D01*
X590518Y451483D01*
X590056Y451674D01*
Y452140D01*
X589514Y453447D01*
X588514Y454448D01*
X587207Y454989D01*
X585793D01*
X584486Y454448D01*
X583690Y453652D01*
X580486D01*
X555300Y478838D01*
Y480256D01*
X554721Y481652D01*
X554455Y481919D01*
X554646Y482381D01*
X558354D01*
X558545Y481919D01*
X558279Y481652D01*
X557700Y480256D01*
Y478744D01*
X558279Y477348D01*
X559347Y476278D01*
X560744Y475700D01*
X562162D01*
X580431Y457431D01*
X582000Y456781D01*
X686552D01*
X687131Y456202D01*
X688344Y455700D01*
X689656D01*
X690869Y456202D01*
X691798Y457131D01*
X692300Y458344D01*
Y459656D01*
X691798Y460869D01*
X690869Y461798D01*
X689656Y462300D01*
X688344D01*
X687131Y461798D01*
X686552Y461219D01*
X582919D01*
X565300Y478838D01*
Y480256D01*
X564721Y481652D01*
X564455Y481919D01*
X564646Y482381D01*
X568354D01*
X568545Y481919D01*
X568279Y481652D01*
X567700Y480256D01*
Y478744D01*
X568279Y477348D01*
X569347Y476278D01*
X570744Y475700D01*
X572256D01*
X573653Y476278D01*
X574721Y477348D01*
X575300Y478744D01*
Y480256D01*
X574876Y481278D01*
X575300Y481562D01*
X584031Y472831D01*
X585600Y472181D01*
X670400D01*
X671969Y472831D01*
X674838Y475700D01*
X676256D01*
X677653Y476278D01*
X678722Y477348D01*
X679300Y478744D01*
Y480256D01*
X678722Y481652D01*
X677653Y482722D01*
X676256Y483300D01*
X674744D01*
X673348Y482722D01*
X672278Y481652D01*
X671700Y480256D01*
Y478838D01*
X669481Y476619D01*
X668646D01*
X668455Y477081D01*
X668721Y477348D01*
X669300Y478744D01*
Y480256D01*
X668721Y481652D01*
X667653Y482722D01*
X666256Y483300D01*
X664744D01*
X663347Y482722D01*
X662279Y481652D01*
X661700Y480256D01*
Y478744D01*
X662279Y477348D01*
X662545Y477081D01*
X662354Y476619D01*
X650646D01*
X650455Y477081D01*
X650722Y477348D01*
X651300Y478744D01*
Y480256D01*
X650722Y481652D01*
X649793Y482581D01*
X649992Y483081D01*
X657952D01*
X658531Y482502D01*
X659744Y482000D01*
X661056D01*
X662269Y482502D01*
X663198Y483431D01*
X663700Y484644D01*
Y485956D01*
X663198Y487169D01*
X662269Y488098D01*
X661056Y488600D01*
X659744D01*
X658531Y488098D01*
X657952Y487519D01*
X605300D01*
X603731Y486869D01*
X600162Y483300D01*
X598744D01*
X597347Y482722D01*
X596278Y481652D01*
X595700Y480256D01*
Y478744D01*
X596278Y477348D01*
X596545Y477081D01*
X596354Y476619D01*
X592646D01*
X592455Y477081D01*
X592722Y477348D01*
X593300Y478744D01*
Y480256D01*
X592722Y481652D01*
X591652Y482722D01*
X590256Y483300D01*
X588744D01*
X587348Y482722D01*
X586278Y481652D01*
X585700Y480256D01*
Y478744D01*
X586124Y477722D01*
X585700Y477438D01*
X576969Y486169D01*
X575400Y486819D01*
X547200D01*
X545631Y486169D01*
X536730Y477268D01*
X536306Y477551D01*
X536800Y478744D01*
Y480256D01*
X536222Y481652D01*
X535152Y482722D01*
X533756Y483300D01*
X532244D01*
X530848Y482722D01*
X529778Y481652D01*
X529200Y480256D01*
Y478744D01*
X529778Y477348D01*
X530848Y476278D01*
X532244Y475700D01*
X533756D01*
X534949Y476194D01*
X535232Y475770D01*
X529081Y469619D01*
X381139D01*
X380948Y470081D01*
X380998Y470131D01*
X381500Y471344D01*
Y471443D01*
X382648Y471918D01*
X382911Y472181D01*
X517900D01*
X519469Y472831D01*
X522338Y475700D01*
X523756D01*
X525152Y476278D01*
X526222Y477348D01*
X526800Y478744D01*
Y480256D01*
X526222Y481652D01*
X525152Y482722D01*
X523756Y483300D01*
X522244D01*
X520848Y482722D01*
X519778Y481652D01*
X519200Y480256D01*
Y478838D01*
X516981Y476619D01*
X516146D01*
X515955Y477081D01*
X516222Y477348D01*
X516800Y478744D01*
Y480256D01*
X516222Y481652D01*
X515153Y482722D01*
X513756Y483300D01*
X512338D01*
X500857Y494781D01*
X499288Y495431D01*
D02*
G37*
G36*
X125756Y483433D02*
X122500D01*
Y480177D01*
X122747D01*
X124127Y480749D01*
X125184Y481806D01*
X125756Y483186D01*
Y483433D01*
D02*
G37*
G36*
X121500D02*
X118244D01*
Y483186D01*
X118816Y481806D01*
X119872Y480749D01*
X121253Y480177D01*
X121500D01*
Y483433D01*
D02*
G37*
G36*
X265800Y493419D02*
X175767D01*
X174198Y492769D01*
X168418Y486989D01*
X167293D01*
X165986Y486447D01*
X164986Y485447D01*
X164444Y484140D01*
Y482726D01*
X164986Y481419D01*
X165986Y480418D01*
X167293Y479877D01*
X168707D01*
X170014Y480418D01*
X171014Y481419D01*
X171556Y482726D01*
Y483851D01*
X176686Y488981D01*
X264881D01*
X274033Y479829D01*
X273750Y479405D01*
X273129Y479662D01*
X271871D01*
X270709Y479181D01*
X269819Y478291D01*
X269338Y477129D01*
Y475871D01*
X269819Y474709D01*
X270709Y473819D01*
X271871Y473338D01*
X273129D01*
X274291Y473819D01*
X275181Y474709D01*
X275662Y475871D01*
Y477129D01*
X275405Y477750D01*
X275829Y478033D01*
X277338Y476524D01*
Y475871D01*
X277819Y474709D01*
X278709Y473819D01*
X279871Y473338D01*
X281129D01*
X282291Y473819D01*
X283181Y474709D01*
X283662Y475871D01*
Y477129D01*
X283181Y478291D01*
X282291Y479181D01*
X281129Y479662D01*
X280476D01*
X267369Y492769D01*
X265800Y493419D01*
D02*
G37*
G36*
X686256Y483300D02*
X684744D01*
X683348Y482722D01*
X682278Y481652D01*
X681700Y480256D01*
Y478744D01*
X682278Y477348D01*
X683348Y476278D01*
X684744Y475700D01*
X686256D01*
X687652Y476278D01*
X688722Y477348D01*
X689300Y478744D01*
Y480256D01*
X688722Y481652D01*
X687652Y482722D01*
X686256Y483300D01*
D02*
G37*
G36*
X219855Y482800D02*
X218145D01*
X216564Y482145D01*
X215355Y480936D01*
X214700Y479355D01*
Y477645D01*
X215355Y476064D01*
X216564Y474855D01*
X218145Y474200D01*
X219855D01*
X221436Y474855D01*
X222645Y476064D01*
X223300Y477645D01*
Y479355D01*
X222645Y480936D01*
X221436Y482145D01*
X219855Y482800D01*
D02*
G37*
G36*
X200210Y463315D02*
X199815D01*
Y459315D01*
X203815D01*
Y459710D01*
X203130Y461364D01*
X201864Y462630D01*
X200210Y463315D01*
D02*
G37*
G36*
X198815D02*
X198420D01*
X196766Y462630D01*
X195500Y461364D01*
X194815Y459710D01*
Y459315D01*
X198815D01*
Y463315D01*
D02*
G37*
G36*
X203815Y458315D02*
X199815D01*
Y454315D01*
X200210D01*
X201864Y455000D01*
X203130Y456266D01*
X203815Y457920D01*
Y458315D01*
D02*
G37*
G36*
X198815D02*
X194815D01*
Y457920D01*
X195500Y456266D01*
X196766Y455000D01*
X198420Y454315D01*
X198815D01*
Y458315D01*
D02*
G37*
G36*
X543247Y450753D02*
X541753D01*
X540374Y450181D01*
X539319Y449126D01*
X538747Y447747D01*
Y446253D01*
X539319Y444874D01*
X540374Y443819D01*
X541753Y443247D01*
X543247D01*
X544626Y443819D01*
X545681Y444874D01*
X546253Y446253D01*
Y447747D01*
X545681Y449126D01*
X544626Y450181D01*
X543247Y450753D01*
D02*
G37*
G36*
X533247D02*
X531753D01*
X530374Y450181D01*
X529319Y449126D01*
X528747Y447747D01*
Y446253D01*
X529319Y444874D01*
X530374Y443819D01*
X531753Y443247D01*
X533247D01*
X534626Y443819D01*
X535681Y444874D01*
X536253Y446253D01*
Y447747D01*
X535681Y449126D01*
X534626Y450181D01*
X533247Y450753D01*
D02*
G37*
G36*
X523246D02*
X521754D01*
X520374Y450181D01*
X519319Y449126D01*
X518747Y447747D01*
Y446253D01*
X519319Y444874D01*
X520374Y443819D01*
X521754Y443247D01*
X523246D01*
X524626Y443819D01*
X525681Y444874D01*
X526253Y446253D01*
Y447747D01*
X525681Y449126D01*
X524626Y450181D01*
X523246Y450753D01*
D02*
G37*
G36*
X456814Y446162D02*
X455556D01*
X454394Y445681D01*
X453504Y444791D01*
X453023Y443629D01*
Y442371D01*
X453504Y441209D01*
X454394Y440319D01*
X455556Y439838D01*
X456814D01*
X457976Y440319D01*
X458866Y441209D01*
X459347Y442371D01*
Y443629D01*
X458866Y444791D01*
X457976Y445681D01*
X456814Y446162D01*
D02*
G37*
G36*
X146747Y441756D02*
X146500D01*
Y438500D01*
X149756D01*
Y438747D01*
X149184Y440128D01*
X148127Y441184D01*
X146747Y441756D01*
D02*
G37*
G36*
X145500D02*
X145253D01*
X143872Y441184D01*
X142816Y440128D01*
X142244Y438747D01*
Y438500D01*
X145500D01*
Y441756D01*
D02*
G37*
G36*
X122707Y441556D02*
X121293D01*
X119986Y441014D01*
X118985Y440014D01*
X118444Y438707D01*
Y437293D01*
X118985Y435986D01*
X119986Y434985D01*
X121293Y434444D01*
X122707D01*
X124014Y434985D01*
X125014Y435986D01*
X125556Y437293D01*
Y438707D01*
X125014Y440014D01*
X124014Y441014D01*
X122707Y441556D01*
D02*
G37*
G36*
X149756Y437500D02*
X146500D01*
Y434244D01*
X146747D01*
X148127Y434816D01*
X149184Y435873D01*
X149756Y437253D01*
Y437500D01*
D02*
G37*
G36*
X145500D02*
X142244D01*
Y437253D01*
X142816Y435873D01*
X143872Y434816D01*
X145253Y434244D01*
X145500D01*
Y437500D01*
D02*
G37*
G36*
X146707Y487489D02*
X145293D01*
X143986Y486947D01*
X142985Y485947D01*
X142444Y484640D01*
Y483226D01*
X142985Y481919D01*
X143986Y480919D01*
X145293Y480377D01*
X146418D01*
X158864Y467931D01*
X160433Y467281D01*
X208181D01*
X228531Y446931D01*
X230100Y446281D01*
X254690D01*
X255486Y445485D01*
X256793Y444944D01*
X257918D01*
X261231Y441631D01*
X262800Y440981D01*
X328700D01*
X330269Y441631D01*
X332976Y444338D01*
X333629D01*
X334791Y444819D01*
X335681Y445709D01*
X336162Y446871D01*
Y448129D01*
X335681Y449291D01*
X335291Y449681D01*
X335498Y450181D01*
X352248D01*
X361511Y440918D01*
Y439793D01*
X362052Y438486D01*
X362719Y437819D01*
X362512Y437319D01*
X354763D01*
X354184Y437898D01*
X352971Y438400D01*
X351659D01*
X350446Y437898D01*
X349517Y436969D01*
X349015Y435756D01*
Y434444D01*
X349517Y433231D01*
X350446Y432302D01*
X351659Y431800D01*
X352971D01*
X354184Y432302D01*
X354763Y432881D01*
X373200D01*
X374769Y433531D01*
X384819Y443581D01*
X408345D01*
X408552Y443081D01*
X407985Y442514D01*
X407444Y441207D01*
Y440082D01*
X384581Y417219D01*
X301310D01*
X300514Y418014D01*
X299207Y418556D01*
X297793D01*
X296486Y418014D01*
X295485Y417014D01*
X294944Y415707D01*
Y414293D01*
X295485Y412986D01*
X296486Y411985D01*
X297793Y411444D01*
X299207D01*
X300514Y411985D01*
X301310Y412781D01*
X385500D01*
X387069Y413431D01*
X410582Y436944D01*
X411418D01*
X416531Y431831D01*
X418100Y431181D01*
X474215D01*
X475784Y431831D01*
X482976Y439023D01*
X483629D01*
X484791Y439504D01*
X485681Y440394D01*
X486162Y441556D01*
Y442814D01*
X485681Y443976D01*
X484791Y444866D01*
X483629Y445347D01*
X482371D01*
X481209Y444866D01*
X480319Y443976D01*
X479838Y442814D01*
Y442161D01*
X473296Y435619D01*
X419019D01*
X414556Y440082D01*
Y441207D01*
X414014Y442514D01*
X413448Y443081D01*
X413655Y443581D01*
X432781D01*
X433338Y443024D01*
Y442371D01*
X433819Y441209D01*
X434709Y440319D01*
X435871Y439838D01*
X437129D01*
X438291Y440319D01*
X439181Y441209D01*
X439662Y442371D01*
Y443629D01*
X439181Y444791D01*
X438291Y445681D01*
X437129Y446162D01*
X436476D01*
X435269Y447369D01*
X433700Y448019D01*
X383900D01*
X382331Y447369D01*
X372281Y437319D01*
X367622D01*
X367415Y437819D01*
X368081Y438486D01*
X368623Y439793D01*
Y441207D01*
X368081Y442514D01*
X367081Y443514D01*
X365774Y444056D01*
X364649D01*
X354736Y453969D01*
X353167Y454619D01*
X307333D01*
X305764Y453969D01*
X303851Y452056D01*
X302726D01*
X301419Y451514D01*
X300418Y450514D01*
X299877Y449207D01*
Y447793D01*
X300418Y446486D01*
X300985Y445919D01*
X300778Y445419D01*
X263719D01*
X261056Y448082D01*
Y449207D01*
X260514Y450514D01*
X259514Y451514D01*
X258207Y452056D01*
X256793D01*
X255486Y451514D01*
X254690Y450719D01*
X231019D01*
X210669Y471069D01*
X209100Y471719D01*
X161352D01*
X149556Y483515D01*
Y484640D01*
X149014Y485947D01*
X148014Y486947D01*
X146707Y487489D01*
D02*
G37*
G36*
X168707Y441056D02*
X167293D01*
X165986Y440515D01*
X164986Y439514D01*
X164444Y438207D01*
Y436793D01*
X164986Y435486D01*
X165986Y434485D01*
X167293Y433944D01*
X168418D01*
X170031Y432331D01*
X171600Y431681D01*
X284252D01*
X284831Y431102D01*
X286044Y430600D01*
X287356D01*
X288569Y431102D01*
X289498Y432031D01*
X290000Y433244D01*
Y434556D01*
X289498Y435769D01*
X288569Y436698D01*
X287356Y437200D01*
X286044D01*
X284831Y436698D01*
X284252Y436119D01*
X172519D01*
X171556Y437082D01*
Y438207D01*
X171014Y439514D01*
X170014Y440515D01*
X168707Y441056D01*
D02*
G37*
G36*
X333629Y430977D02*
X332371D01*
X331209Y430496D01*
X330747Y430034D01*
X242815D01*
X241246Y429384D01*
X225918Y414056D01*
X224793D01*
X223486Y413515D01*
X222690Y412719D01*
X184000D01*
X182431Y412069D01*
X167715Y397353D01*
X167253Y397544D01*
Y403753D01*
X159747D01*
Y396247D01*
X165956D01*
X166147Y395785D01*
X164115Y393753D01*
X162753D01*
X161374Y393181D01*
X160319Y392126D01*
X159747Y390746D01*
Y389253D01*
X160319Y387874D01*
X161374Y386819D01*
X162753Y386247D01*
X164246D01*
X165626Y386819D01*
X166681Y387874D01*
X167253Y389253D01*
Y390615D01*
X184919Y408281D01*
X222690D01*
X223486Y407485D01*
X224793Y406944D01*
X226207D01*
X227514Y407485D01*
X228515Y408486D01*
X229056Y409793D01*
Y410918D01*
X243734Y425596D01*
X330747D01*
X331209Y425134D01*
X332371Y424653D01*
X333629D01*
X334791Y425134D01*
X335681Y426024D01*
X336162Y427186D01*
Y428444D01*
X335681Y429606D01*
X334791Y430496D01*
X333629Y430977D01*
D02*
G37*
G36*
X483629Y425662D02*
X482371D01*
X481209Y425181D01*
X480747Y424719D01*
X480433D01*
X478864Y424069D01*
X465851Y411056D01*
X464726D01*
X463419Y410514D01*
X462623Y409719D01*
X431600D01*
X430031Y409069D01*
X427162Y406200D01*
X426344D01*
X425131Y405698D01*
X424202Y404769D01*
X423700Y403556D01*
Y402244D01*
X424202Y401031D01*
X424814Y400419D01*
X424607Y399919D01*
X417819D01*
X407169Y410569D01*
X405600Y411219D01*
X374253D01*
X373791Y411681D01*
X372629Y412162D01*
X371371D01*
X370209Y411681D01*
X369319Y410791D01*
X368838Y409629D01*
Y408371D01*
X369319Y407209D01*
X370209Y406319D01*
X371371Y405838D01*
X372629D01*
X373791Y406319D01*
X374253Y406781D01*
X404681D01*
X415331Y396131D01*
X416900Y395481D01*
X437652D01*
X438231Y394902D01*
X439444Y394400D01*
X440756D01*
X441969Y394902D01*
X442898Y395831D01*
X443400Y397044D01*
Y398356D01*
X442898Y399569D01*
X441969Y400498D01*
X440756Y401000D01*
X439444D01*
X438231Y400498D01*
X437652Y399919D01*
X429393D01*
X429186Y400419D01*
X429798Y401031D01*
X430300Y402244D01*
Y403062D01*
X432519Y405281D01*
X462623D01*
X463419Y404486D01*
X464726Y403944D01*
X466140D01*
X467447Y404486D01*
X468447Y405486D01*
X468989Y406793D01*
Y407918D01*
X481049Y419979D01*
X481209Y419819D01*
X482371Y419338D01*
X483629D01*
X484791Y419819D01*
X485681Y420709D01*
X486162Y421871D01*
Y423129D01*
X485681Y424291D01*
X484791Y425181D01*
X483629Y425662D01*
D02*
G37*
G36*
X543247Y420753D02*
X541753D01*
X540374Y420181D01*
X539412Y419219D01*
X535588D01*
X534626Y420181D01*
X533247Y420753D01*
X531753D01*
X530374Y420181D01*
X529319Y419126D01*
X528747Y417746D01*
Y416254D01*
X529319Y414874D01*
X530374Y413819D01*
X531753Y413247D01*
X533247D01*
X534626Y413819D01*
X535588Y414781D01*
X539412D01*
X540374Y413819D01*
X541753Y413247D01*
X543247D01*
X544626Y413819D01*
X545681Y414874D01*
X546253Y416254D01*
Y417746D01*
X545681Y419126D01*
X544626Y420181D01*
X543247Y420753D01*
D02*
G37*
G36*
X253314Y418756D02*
X253067D01*
Y415500D01*
X256323D01*
Y415747D01*
X255751Y417128D01*
X254695Y418184D01*
X253314Y418756D01*
D02*
G37*
G36*
X252067D02*
X251820D01*
X250439Y418184D01*
X249383Y417128D01*
X248811Y415747D01*
Y415500D01*
X252067D01*
Y418756D01*
D02*
G37*
G36*
X523246Y420753D02*
X521754D01*
X520374Y420181D01*
X519319Y419126D01*
X518747Y417746D01*
Y416254D01*
X519319Y414874D01*
X520374Y413819D01*
X521754Y413247D01*
X523246D01*
X524626Y413819D01*
X525681Y414874D01*
X526253Y416254D01*
Y417746D01*
X525681Y419126D01*
X524626Y420181D01*
X523246Y420753D01*
D02*
G37*
G36*
X256323Y414500D02*
X253067D01*
Y411244D01*
X253314D01*
X254695Y411816D01*
X255751Y412873D01*
X256323Y414253D01*
Y414500D01*
D02*
G37*
G36*
X252067D02*
X248811D01*
Y414253D01*
X249383Y412873D01*
X250439Y411816D01*
X251820Y411244D01*
X252067D01*
Y414500D01*
D02*
G37*
G36*
X352944Y412162D02*
X351686D01*
X350524Y411681D01*
X349634Y410791D01*
X349153Y409629D01*
Y408371D01*
X349634Y407209D01*
X350524Y406319D01*
X351686Y405838D01*
X352944D01*
X354106Y406319D01*
X354996Y407209D01*
X355477Y408371D01*
Y409629D01*
X354996Y410791D01*
X354106Y411681D01*
X352944Y412162D01*
D02*
G37*
G36*
X420207Y411056D02*
X418793D01*
X417486Y410514D01*
X416486Y409514D01*
X415944Y408207D01*
Y406793D01*
X416486Y405486D01*
X417486Y404486D01*
X418793Y403944D01*
X420207D01*
X421514Y404486D01*
X422514Y405486D01*
X423056Y406793D01*
Y408207D01*
X422514Y409514D01*
X421514Y410514D01*
X420207Y411056D01*
D02*
G37*
G36*
X587207Y409056D02*
X585793D01*
X584486Y408514D01*
X583690Y407719D01*
X550600D01*
X549031Y407069D01*
X511431Y369469D01*
X510781Y367900D01*
Y361200D01*
X511431Y359631D01*
X513631Y357431D01*
X515200Y356781D01*
X521000D01*
X522569Y357431D01*
X525476Y360338D01*
X526129D01*
X527291Y360819D01*
X528181Y361709D01*
X528662Y362871D01*
Y364129D01*
X528181Y365291D01*
X527291Y366181D01*
X526129Y366662D01*
X524871D01*
X524250Y366405D01*
X523967Y366829D01*
X546919Y389781D01*
X592581D01*
X613247Y369115D01*
Y367754D01*
X613819Y366374D01*
X614874Y365319D01*
X616254Y364747D01*
X617746D01*
X619126Y365319D01*
X620181Y366374D01*
X620753Y367754D01*
Y369247D01*
X620181Y370626D01*
X619126Y371681D01*
X617746Y372253D01*
X616385D01*
X595069Y393569D01*
X593500Y394219D01*
X546000D01*
X544431Y393569D01*
X517524Y366662D01*
X516871D01*
X515709Y366181D01*
X515681Y366153D01*
X515219Y366344D01*
Y366981D01*
X551519Y403281D01*
X583690D01*
X584486Y402486D01*
X585793Y401944D01*
X587207D01*
X588514Y402486D01*
X589514Y403486D01*
X590056Y404793D01*
Y406207D01*
X589514Y407514D01*
X588514Y408514D01*
X587207Y409056D01*
D02*
G37*
G36*
X121129Y413662D02*
X119871D01*
X118709Y413181D01*
X117819Y412291D01*
X117338Y411129D01*
Y409871D01*
X117819Y408709D01*
X118281Y408247D01*
Y399100D01*
X118931Y397531D01*
X122590Y393872D01*
X122291Y393496D01*
X121129Y393977D01*
X119871D01*
X118709Y393496D01*
X117819Y392606D01*
X117338Y391444D01*
Y390186D01*
X117819Y389024D01*
X118709Y388134D01*
X119871Y387653D01*
X121129D01*
X122291Y388134D01*
X123181Y389024D01*
X123662Y390186D01*
Y391444D01*
X123181Y392606D01*
X123557Y392905D01*
X183531Y332931D01*
X185100Y332281D01*
X205623D01*
X206419Y331486D01*
X207726Y330944D01*
X209140D01*
X210447Y331486D01*
X211448Y332486D01*
X211989Y333793D01*
Y335207D01*
X211448Y336514D01*
X210447Y337514D01*
X209140Y338056D01*
X207726D01*
X206419Y337514D01*
X205623Y336719D01*
X186019D01*
X122719Y400019D01*
Y408247D01*
X123181Y408709D01*
X123662Y409871D01*
Y411129D01*
X123181Y412291D01*
X122291Y413181D01*
X121129Y413662D01*
D02*
G37*
G36*
X396207Y399556D02*
X394793D01*
X393486Y399014D01*
X392485Y398014D01*
X391944Y396707D01*
Y395293D01*
X392485Y393986D01*
X393486Y392986D01*
X394793Y392444D01*
X396207D01*
X397514Y392986D01*
X398515Y393986D01*
X399056Y395293D01*
Y396707D01*
X398515Y398014D01*
X397514Y399014D01*
X396207Y399556D01*
D02*
G37*
G36*
X685129Y396162D02*
X683871D01*
X682709Y395681D01*
X681819Y394791D01*
X681338Y393629D01*
Y392371D01*
X681819Y391209D01*
X682709Y390319D01*
X683871Y389838D01*
X685129D01*
X686291Y390319D01*
X687181Y391209D01*
X687662Y392371D01*
Y393629D01*
X687181Y394791D01*
X686291Y395681D01*
X685129Y396162D01*
D02*
G37*
G36*
X677129D02*
X675871D01*
X674709Y395681D01*
X673819Y394791D01*
X673338Y393629D01*
Y392371D01*
X673819Y391209D01*
X674709Y390319D01*
X675871Y389838D01*
X677129D01*
X678291Y390319D01*
X679181Y391209D01*
X679662Y392371D01*
Y393629D01*
X679181Y394791D01*
X678291Y395681D01*
X677129Y396162D01*
D02*
G37*
G36*
X194246Y393753D02*
X192754D01*
X191374Y393181D01*
X190319Y392126D01*
X189747Y390746D01*
Y389253D01*
X190319Y387874D01*
X191374Y386819D01*
X192754Y386247D01*
X194246D01*
X195626Y386819D01*
X196681Y387874D01*
X197253Y389253D01*
Y390746D01*
X196681Y392126D01*
X195626Y393181D01*
X194246Y393753D01*
D02*
G37*
G36*
X488456Y410100D02*
X487144D01*
X485931Y409598D01*
X485002Y408669D01*
X484500Y407456D01*
Y406638D01*
X463881Y386019D01*
X457193D01*
X456986Y386519D01*
X457498Y387031D01*
X458000Y388244D01*
Y389556D01*
X457498Y390769D01*
X456569Y391698D01*
X455356Y392200D01*
X454044D01*
X452831Y391698D01*
X452633Y391500D01*
X311900D01*
X310905Y391302D01*
X310062Y390739D01*
X307076Y387753D01*
X306924D01*
X292839Y401838D01*
X291995Y402402D01*
X291000Y402600D01*
X196207D01*
X195626Y403181D01*
X194246Y403753D01*
X192754D01*
X191374Y403181D01*
X190319Y402126D01*
X189747Y400746D01*
Y399254D01*
X190319Y397874D01*
X191374Y396819D01*
X192754Y396247D01*
X194246D01*
X195626Y396819D01*
X196207Y397400D01*
X289923D01*
X303247Y384076D01*
Y383254D01*
X303819Y381874D01*
X304874Y380819D01*
X306254Y380247D01*
X307747D01*
X309126Y380819D01*
X310181Y381874D01*
X310753Y383254D01*
Y384076D01*
X312977Y386300D01*
X326172D01*
X326272Y385800D01*
X325231Y385369D01*
X307615Y367753D01*
X306385D01*
X290000Y384138D01*
Y384956D01*
X289498Y386169D01*
X288569Y387098D01*
X287356Y387600D01*
X286044D01*
X284831Y387098D01*
X283902Y386169D01*
X283400Y384956D01*
Y383644D01*
X283902Y382431D01*
X284831Y381502D01*
X286044Y381000D01*
X286862D01*
X303247Y364615D01*
Y363253D01*
X303819Y361874D01*
X304874Y360819D01*
X306254Y360247D01*
X307747D01*
X309126Y360819D01*
X310181Y361874D01*
X310753Y363253D01*
Y364615D01*
X327426Y381288D01*
X327531Y381267D01*
X327695Y380724D01*
X327485Y380514D01*
X326944Y379207D01*
Y377793D01*
X327485Y376486D01*
X328486Y375485D01*
X329793Y374944D01*
X331207D01*
X332514Y375485D01*
X333514Y376486D01*
X334056Y377793D01*
Y379207D01*
X333514Y380514D01*
X332948Y381081D01*
X333155Y381581D01*
X373778D01*
X373985Y381081D01*
X373418Y380514D01*
X372877Y379207D01*
Y377793D01*
X373418Y376486D01*
X374419Y375485D01*
X375726Y374944D01*
X376851D01*
X378864Y372931D01*
X380433Y372281D01*
X423247D01*
Y370747D01*
X430753D01*
Y378253D01*
X423247D01*
Y376719D01*
X381352D01*
X379989Y378082D01*
Y379207D01*
X379448Y380514D01*
X378881Y381081D01*
X379088Y381581D01*
X464800D01*
X466369Y382231D01*
X487638Y403500D01*
X488456D01*
X489669Y404002D01*
X490598Y404931D01*
X491100Y406144D01*
Y407456D01*
X490598Y408669D01*
X489669Y409598D01*
X488456Y410100D01*
D02*
G37*
G36*
X164286Y383953D02*
X164000D01*
Y380500D01*
X167453D01*
Y380786D01*
X166851Y382239D01*
X165739Y383351D01*
X164286Y383953D01*
D02*
G37*
G36*
X163000D02*
X162714D01*
X161261Y383351D01*
X160149Y382239D01*
X159547Y380786D01*
Y380500D01*
X163000D01*
Y383953D01*
D02*
G37*
G36*
X280753Y387753D02*
X273247D01*
Y380247D01*
X280753D01*
Y387753D01*
D02*
G37*
G36*
X194246Y383753D02*
X192754D01*
X191374Y383181D01*
X190319Y382126D01*
X189747Y380747D01*
Y379254D01*
X190319Y377874D01*
X191374Y376819D01*
X192754Y376247D01*
X194246D01*
X195626Y376819D01*
X196681Y377874D01*
X197253Y379254D01*
Y380747D01*
X196681Y382126D01*
X195626Y383181D01*
X194246Y383753D01*
D02*
G37*
G36*
X167453Y379500D02*
X164000D01*
Y376047D01*
X164286D01*
X165739Y376649D01*
X166851Y377761D01*
X167453Y379214D01*
Y379500D01*
D02*
G37*
G36*
X163000D02*
X159547D01*
Y379214D01*
X160149Y377761D01*
X161261Y376649D01*
X162714Y376047D01*
X163000D01*
Y379500D01*
D02*
G37*
G36*
X553246Y420753D02*
X551754D01*
X550374Y420181D01*
X549319Y419126D01*
X548747Y417746D01*
Y416924D01*
X508923Y377100D01*
X489791D01*
X489629Y377600D01*
X490515Y378486D01*
X491056Y379793D01*
Y381207D01*
X490515Y382514D01*
X489514Y383514D01*
X488207Y384056D01*
X486793D01*
X485486Y383514D01*
X484485Y382514D01*
X483944Y381207D01*
Y379793D01*
X484485Y378486D01*
X485371Y377600D01*
X485209Y377100D01*
X459707D01*
X459126Y377681D01*
X457747Y378253D01*
X456253D01*
X454874Y377681D01*
X453819Y376626D01*
X453247Y375247D01*
Y373753D01*
X453819Y372374D01*
X454874Y371319D01*
X456253Y370747D01*
X457747D01*
X459126Y371319D01*
X459707Y371900D01*
X510000D01*
X510995Y372098D01*
X511838Y372661D01*
X552424Y413247D01*
X553246D01*
X554626Y413819D01*
X555207Y414400D01*
X613323D01*
X614400Y413323D01*
Y381207D01*
X613819Y380626D01*
X613247Y379246D01*
Y377753D01*
X613819Y376374D01*
X614874Y375319D01*
X616254Y374747D01*
X617746D01*
X619126Y375319D01*
X620181Y376374D01*
X620753Y377753D01*
Y379246D01*
X620181Y380626D01*
X619600Y381207D01*
Y414400D01*
X619402Y415395D01*
X618839Y416238D01*
X616238Y418839D01*
X615395Y419402D01*
X614400Y419600D01*
X555207D01*
X554626Y420181D01*
X553246Y420753D01*
D02*
G37*
G36*
X552707Y385056D02*
X551293D01*
X549986Y384514D01*
X548985Y383514D01*
X548444Y382207D01*
Y380793D01*
X548985Y379486D01*
X549986Y378485D01*
X551293Y377944D01*
X552418D01*
X553431Y376931D01*
X555000Y376281D01*
X583247D01*
Y374747D01*
X590753D01*
Y382253D01*
X583247D01*
Y380719D01*
X555919D01*
X555556Y381082D01*
Y382207D01*
X555015Y383514D01*
X554014Y384514D01*
X552707Y385056D01*
D02*
G37*
G36*
X194286Y373953D02*
X194000D01*
Y370500D01*
X197453D01*
Y370786D01*
X196851Y372239D01*
X195739Y373351D01*
X194286Y373953D01*
D02*
G37*
G36*
X193000D02*
X192714D01*
X191261Y373351D01*
X190149Y372239D01*
X189547Y370786D01*
Y370500D01*
X193000D01*
Y373953D01*
D02*
G37*
G36*
X307747Y377753D02*
X306254D01*
X304874Y377181D01*
X303819Y376126D01*
X303247Y374746D01*
Y373253D01*
X303819Y371874D01*
X304874Y370819D01*
X306254Y370247D01*
X307747D01*
X309126Y370819D01*
X310181Y371874D01*
X310753Y373253D01*
Y374746D01*
X310181Y376126D01*
X309126Y377181D01*
X307747Y377753D01*
D02*
G37*
G36*
X277747D02*
X276254D01*
X274874Y377181D01*
X273819Y376126D01*
X273247Y374746D01*
Y373253D01*
X273819Y371874D01*
X274874Y370819D01*
X276254Y370247D01*
X277747D01*
X279126Y370819D01*
X280181Y371874D01*
X280753Y373253D01*
Y374746D01*
X280181Y376126D01*
X279126Y377181D01*
X277747Y377753D01*
D02*
G37*
G36*
X587746Y372253D02*
X586253D01*
X584874Y371681D01*
X583819Y370626D01*
X583247Y369247D01*
Y367754D01*
X583819Y366374D01*
X584874Y365319D01*
X586253Y364747D01*
X587746D01*
X589126Y365319D01*
X590181Y366374D01*
X590753Y367754D01*
Y369247D01*
X590181Y370626D01*
X589126Y371681D01*
X587746Y372253D01*
D02*
G37*
G36*
X277786Y367953D02*
X277500D01*
Y364500D01*
X280953D01*
Y364786D01*
X280351Y366239D01*
X279239Y367351D01*
X277786Y367953D01*
D02*
G37*
G36*
X276500D02*
X276214D01*
X274761Y367351D01*
X273649Y366239D01*
X273047Y364786D01*
Y364500D01*
X276500D01*
Y367953D01*
D02*
G37*
G36*
X643956Y396000D02*
X642644D01*
X641431Y395498D01*
X640502Y394569D01*
X640000Y393356D01*
Y392538D01*
X623631Y376169D01*
X622981Y374600D01*
Y344719D01*
X621281Y343019D01*
X486800D01*
X485439Y342455D01*
X485156Y342879D01*
X488177Y345900D01*
X584293D01*
X584874Y345319D01*
X586253Y344747D01*
X587746D01*
X589126Y345319D01*
X590181Y346374D01*
X590753Y347754D01*
Y349247D01*
X590181Y350626D01*
X589126Y351681D01*
X587746Y352253D01*
X586253D01*
X584874Y351681D01*
X584293Y351100D01*
X487100D01*
X486105Y350902D01*
X485261Y350339D01*
X475235Y340312D01*
X458525D01*
X458425Y340812D01*
X459239Y341149D01*
X460351Y342261D01*
X460953Y343714D01*
Y344000D01*
X453047D01*
Y343714D01*
X453649Y342261D01*
X454761Y341149D01*
X455575Y340812D01*
X455475Y340312D01*
X434865D01*
X430753Y344424D01*
Y345247D01*
X430181Y346626D01*
X429126Y347681D01*
X427746Y348253D01*
X426254D01*
X424874Y347681D01*
X423819Y346626D01*
X423247Y345247D01*
Y344424D01*
X419123Y340300D01*
X294377D01*
X280753Y353924D01*
Y354747D01*
X280181Y356126D01*
X279126Y357181D01*
X277747Y357753D01*
X276254D01*
X274874Y357181D01*
X274293Y356600D01*
X180577D01*
X176409Y360768D01*
X176617Y361267D01*
X177723D01*
X178936Y361769D01*
X179515Y362348D01*
X222690D01*
X223486Y361553D01*
X224793Y361011D01*
X226207D01*
X227514Y361553D01*
X228515Y362553D01*
X229056Y363860D01*
Y365274D01*
X228515Y366581D01*
X227514Y367582D01*
X226207Y368123D01*
X224793D01*
X223486Y367582D01*
X222690Y366786D01*
X196529D01*
X196338Y367248D01*
X196851Y367761D01*
X197453Y369214D01*
Y369500D01*
X189547D01*
Y369214D01*
X190149Y367761D01*
X190662Y367248D01*
X190471Y366786D01*
X179515D01*
X178936Y367365D01*
X177723Y367867D01*
X176411D01*
X175198Y367365D01*
X174269Y366436D01*
X173767Y365223D01*
Y364117D01*
X173267Y363909D01*
X167253Y369924D01*
Y370746D01*
X166681Y372126D01*
X165626Y373181D01*
X164246Y373753D01*
X162753D01*
X161374Y373181D01*
X160319Y372126D01*
X159747Y370746D01*
Y369253D01*
X160319Y367874D01*
X161374Y366819D01*
X162753Y366247D01*
X163576D01*
X177662Y352162D01*
X178505Y351598D01*
X179500Y351400D01*
X274293D01*
X274874Y350819D01*
X276254Y350247D01*
X277076D01*
X291461Y335861D01*
X292305Y335298D01*
X293300Y335100D01*
X334408D01*
X334612Y334636D01*
X334361Y334319D01*
X246700D01*
X245131Y333669D01*
X226881Y315419D01*
X192948D01*
X192369Y315998D01*
X191156Y316500D01*
X189844D01*
X188631Y315998D01*
X187702Y315069D01*
X187200Y313856D01*
Y312544D01*
X187702Y311331D01*
X188631Y310402D01*
X189844Y309900D01*
X191156D01*
X192369Y310402D01*
X192948Y310981D01*
X227800D01*
X229369Y311631D01*
X247619Y329881D01*
X251202D01*
X251409Y329381D01*
X250819Y328791D01*
X250338Y327629D01*
Y326371D01*
X250819Y325209D01*
X251709Y324319D01*
X252871Y323838D01*
X254129D01*
X254408Y323954D01*
X254692Y323530D01*
X233681Y302519D01*
X223300D01*
X221731Y301869D01*
X183918Y264056D01*
X182793D01*
X181486Y263514D01*
X180485Y262514D01*
X179944Y261207D01*
Y259793D01*
X180485Y258486D01*
X181486Y257486D01*
X182793Y256944D01*
X184207D01*
X185514Y257486D01*
X186514Y258486D01*
X187056Y259793D01*
Y260918D01*
X224219Y298081D01*
X234600D01*
X236169Y298731D01*
X262219Y324781D01*
X328052D01*
X328631Y324202D01*
X329844Y323700D01*
X331156D01*
X332369Y324202D01*
X333298Y325131D01*
X333800Y326344D01*
Y327656D01*
X333298Y328869D01*
X332786Y329381D01*
X332993Y329881D01*
X334452D01*
X335031Y329302D01*
X336244Y328800D01*
X337556D01*
X338769Y329302D01*
X339698Y330231D01*
X340200Y331444D01*
Y332756D01*
X339698Y333969D01*
X339067Y334600D01*
X339274Y335100D01*
X364054D01*
X364100Y334619D01*
X362531Y333969D01*
X333381Y304819D01*
X313848D01*
X313269Y305398D01*
X312056Y305900D01*
X310744D01*
X309531Y305398D01*
X308602Y304469D01*
X308100Y303256D01*
Y301944D01*
X308602Y300731D01*
X309531Y299802D01*
X310744Y299300D01*
X312056D01*
X313269Y299802D01*
X313848Y300381D01*
X334300D01*
X335869Y301031D01*
X365019Y330181D01*
X404790D01*
X404981Y329719D01*
X360581Y285319D01*
X346748D01*
X346169Y285898D01*
X344956Y286400D01*
X343644D01*
X342431Y285898D01*
X341502Y284969D01*
X341000Y283756D01*
Y282444D01*
X341502Y281231D01*
X342431Y280302D01*
X343644Y279800D01*
X344956D01*
X346169Y280302D01*
X346748Y280881D01*
X361500D01*
X363069Y281531D01*
X408419Y326881D01*
X426632D01*
X426823Y326419D01*
X426418Y326014D01*
X425877Y324707D01*
Y323293D01*
X426418Y321986D01*
X427419Y320986D01*
X428726Y320444D01*
X429851D01*
X453364Y296931D01*
X453807Y296747D01*
X453823Y296709D01*
X454713Y295819D01*
X455875Y295338D01*
X457133D01*
X458295Y295819D01*
X459185Y296709D01*
X459666Y297871D01*
Y298524D01*
X465135Y303993D01*
X482902D01*
X483093Y303531D01*
X469281Y289719D01*
X401253D01*
X400791Y290181D01*
X399629Y290662D01*
X398371D01*
X397209Y290181D01*
X396319Y289291D01*
X395838Y288129D01*
Y286871D01*
X396319Y285709D01*
X397209Y284819D01*
X398371Y284338D01*
X399629D01*
X400791Y284819D01*
X401253Y285281D01*
X470200D01*
X471769Y285931D01*
X484376Y298538D01*
X484838Y298346D01*
Y297871D01*
X485319Y296709D01*
X486209Y295819D01*
X487371Y295338D01*
X488024D01*
X500631Y282731D01*
X502200Y282081D01*
X523412D01*
X523619Y281581D01*
X523053Y281014D01*
X522511Y279707D01*
Y278293D01*
X523053Y276986D01*
X523457Y276581D01*
X523266Y276119D01*
X508333D01*
X506764Y275469D01*
X502351Y271056D01*
X501226D01*
X499919Y270514D01*
X498918Y269514D01*
X498377Y268207D01*
Y266793D01*
X498918Y265486D01*
X499685Y264719D01*
X499478Y264219D01*
X489919D01*
X476569Y277569D01*
X475000Y278219D01*
X322753D01*
X322291Y278681D01*
X321129Y279162D01*
X319871D01*
X318709Y278681D01*
X317819Y277791D01*
X317338Y276629D01*
Y275371D01*
X317819Y274209D01*
X318709Y273319D01*
X319871Y272838D01*
X321129D01*
X322291Y273319D01*
X322753Y273781D01*
X427490D01*
X427681Y273319D01*
X425524Y271162D01*
X424871D01*
X423709Y270681D01*
X422819Y269791D01*
X422338Y268629D01*
Y267371D01*
X422819Y266209D01*
X423709Y265319D01*
X424871Y264838D01*
X426129D01*
X427291Y265319D01*
X428181Y266209D01*
X428662Y267371D01*
Y268024D01*
X430171Y269533D01*
X430595Y269250D01*
X430338Y268629D01*
Y267371D01*
X430819Y266209D01*
X431709Y265319D01*
X432871Y264838D01*
X433524D01*
X444581Y253781D01*
Y236359D01*
X444119Y236168D01*
X444106Y236181D01*
X442944Y236662D01*
X442291D01*
X410384Y268569D01*
X408815Y269219D01*
X370938D01*
X370476Y269681D01*
X369314Y270162D01*
X368056D01*
X366894Y269681D01*
X366004Y268791D01*
X365523Y267629D01*
Y266371D01*
X366004Y265209D01*
X366894Y264319D01*
X368056Y263838D01*
X369314D01*
X370476Y264319D01*
X370938Y264781D01*
X407896D01*
X439153Y233524D01*
Y232871D01*
X439634Y231709D01*
X440524Y230819D01*
X441686Y230338D01*
X442944D01*
X443710Y230655D01*
X443993Y230231D01*
X438781Y225019D01*
X356644D01*
X356453Y225481D01*
X356681Y225709D01*
X357162Y226871D01*
Y227524D01*
X364919Y235281D01*
X381747D01*
X382209Y234819D01*
X383371Y234338D01*
X384629D01*
X385791Y234819D01*
X386681Y235709D01*
X387162Y236871D01*
Y238129D01*
X386681Y239291D01*
X385791Y240181D01*
X384629Y240662D01*
X383371D01*
X382209Y240181D01*
X381747Y239719D01*
X364000D01*
X362431Y239069D01*
X354024Y230662D01*
X353371D01*
X352209Y230181D01*
X351319Y229291D01*
X350838Y228129D01*
Y226871D01*
X351319Y225709D01*
X351547Y225481D01*
X351356Y225019D01*
X328123D01*
X325666Y227476D01*
Y228129D01*
X325185Y229291D01*
X324295Y230181D01*
X323133Y230662D01*
X321875D01*
X320713Y230181D01*
X320251Y229719D01*
X311419D01*
X294819Y246319D01*
X295010Y246781D01*
X403077D01*
X412334Y237524D01*
Y236871D01*
X412815Y235709D01*
X413705Y234819D01*
X414867Y234338D01*
X416125D01*
X417287Y234819D01*
X418177Y235709D01*
X418658Y236871D01*
Y238129D01*
X418177Y239291D01*
X417287Y240181D01*
X416125Y240662D01*
X415472D01*
X405565Y250569D01*
X403996Y251219D01*
X295119D01*
X292704Y253634D01*
X292895Y254096D01*
X318247D01*
X318709Y253634D01*
X319871Y253153D01*
X321129D01*
X322291Y253634D01*
X323181Y254524D01*
X323662Y255686D01*
Y256944D01*
X323548Y257220D01*
X323594Y257282D01*
X323951Y257552D01*
X325044Y257100D01*
X326356D01*
X327569Y257602D01*
X328498Y258531D01*
X329000Y259744D01*
Y261056D01*
X328498Y262269D01*
X327569Y263198D01*
X326356Y263700D01*
X325538D01*
X308169Y281069D01*
X306600Y281719D01*
X282088D01*
X281126Y282681D01*
X279747Y283253D01*
X278254D01*
X276874Y282681D01*
X275819Y281626D01*
X275789Y281554D01*
X275199Y281436D01*
X265566Y291069D01*
X263997Y291719D01*
X252088D01*
X251126Y292681D01*
X249746Y293253D01*
X248253D01*
X246874Y292681D01*
X245819Y291626D01*
X245247Y290247D01*
Y288754D01*
X245819Y287374D01*
X246874Y286319D01*
X248253Y285747D01*
X249746D01*
X251126Y286319D01*
X252088Y287281D01*
X263078D01*
X271778Y278581D01*
Y266710D01*
X271316Y266519D01*
X256766Y281069D01*
X255197Y281719D01*
X252088D01*
X251126Y282681D01*
X249746Y283253D01*
X248253D01*
X246874Y282681D01*
X245819Y281626D01*
X245247Y280246D01*
Y278753D01*
X245819Y277374D01*
X246874Y276319D01*
X248253Y275747D01*
X249746D01*
X251126Y276319D01*
X252088Y277281D01*
X254278D01*
X271931Y259628D01*
X273500Y258978D01*
X275884D01*
X294519Y240343D01*
X294273Y239882D01*
X293580Y240020D01*
X292642D01*
X292498Y240369D01*
X291569Y241298D01*
X290356Y241800D01*
X289044D01*
X287831Y241298D01*
X287252Y240719D01*
X256633Y271339D01*
X255789Y271902D01*
X254794Y272100D01*
X251707D01*
X251126Y272681D01*
X249746Y273253D01*
X248253D01*
X246874Y272681D01*
X245819Y271626D01*
X245247Y270247D01*
Y269424D01*
X230223Y254400D01*
X169450D01*
X166638Y257211D01*
X165795Y257775D01*
X164800Y257973D01*
X158400D01*
X157405Y257775D01*
X156562Y257211D01*
X138950Y239600D01*
X123774D01*
X123152Y240222D01*
X121756Y240800D01*
X120244D01*
X118848Y240222D01*
X117779Y239153D01*
X117200Y237756D01*
Y236244D01*
X117779Y234847D01*
X118848Y233779D01*
X120244Y233200D01*
X121756D01*
X123152Y233779D01*
X123774Y234400D01*
X149423D01*
X156800Y227023D01*
Y226744D01*
X157302Y225531D01*
X158231Y224602D01*
X159444Y224100D01*
X160756D01*
X161969Y224602D01*
X162898Y225531D01*
X163400Y226744D01*
Y228056D01*
X162898Y229269D01*
X161969Y230198D01*
X160756Y230700D01*
X160477D01*
X152338Y238839D01*
X151495Y239402D01*
X150500Y239600D01*
X146957D01*
X146766Y240062D01*
X157444Y250740D01*
X157944Y250533D01*
Y249360D01*
X158485Y248053D01*
X159486Y247053D01*
X160793Y246511D01*
X161918D01*
X174498Y233931D01*
X176067Y233281D01*
X227690D01*
X228486Y232486D01*
X229793Y231944D01*
X231207D01*
X232514Y232486D01*
X233514Y233486D01*
X234056Y234793D01*
Y236207D01*
X233514Y237514D01*
X232514Y238514D01*
X231871Y238781D01*
X231970Y239281D01*
X272081D01*
X285944Y225418D01*
Y224293D01*
X286486Y222986D01*
X287486Y221986D01*
X288793Y221444D01*
X290207D01*
X291514Y221986D01*
X292514Y222986D01*
X293056Y224293D01*
Y225707D01*
X292514Y227014D01*
X291514Y228014D01*
X290207Y228556D01*
X289082D01*
X274569Y243069D01*
X273000Y243719D01*
X204948D01*
X204369Y244298D01*
X203156Y244800D01*
X201844D01*
X200631Y244298D01*
X199702Y243369D01*
X199200Y242156D01*
Y240844D01*
X199702Y239631D01*
X200631Y238702D01*
X201844Y238200D01*
X201798Y237719D01*
X176986D01*
X165056Y249649D01*
Y250733D01*
X165286Y250928D01*
X165455Y251041D01*
X166534Y249961D01*
X167378Y249398D01*
X168373Y249200D01*
X231300D01*
X232295Y249398D01*
X233138Y249961D01*
X248924Y265747D01*
X249746D01*
X251126Y266319D01*
X251707Y266900D01*
X253717D01*
X285036Y235582D01*
X285429Y235319D01*
X285813Y235046D01*
X285849Y235038D01*
X285879Y235018D01*
X286342Y234926D01*
X286803Y234821D01*
X286839Y234827D01*
X286874Y234820D01*
X292503D01*
X340747Y186576D01*
Y185754D01*
X341319Y184374D01*
X342374Y183319D01*
X343754Y182747D01*
X345247D01*
X346626Y183319D01*
X347207Y183900D01*
X431500D01*
X432495Y184098D01*
X433338Y184662D01*
X455924Y207247D01*
X456076D01*
X462964Y200359D01*
X463808Y199795D01*
X464803Y199597D01*
X471183D01*
X471282Y199097D01*
X470731Y198869D01*
X456615Y184753D01*
X452247D01*
Y177247D01*
X459753D01*
Y181615D01*
X473219Y195081D01*
X477309D01*
X477400Y194619D01*
X475831Y193969D01*
X466615Y184753D01*
X465253D01*
X463874Y184181D01*
X462819Y183126D01*
X462247Y181746D01*
Y180254D01*
X462819Y178874D01*
X463874Y177819D01*
X465253Y177247D01*
X466747D01*
X468126Y177819D01*
X469181Y178874D01*
X469753Y180254D01*
Y181615D01*
X478319Y190181D01*
X516100D01*
X517669Y190831D01*
X520944Y194106D01*
X521444Y193899D01*
Y192793D01*
X521985Y191486D01*
X522986Y190486D01*
X524293Y189944D01*
X525418D01*
X538931Y176431D01*
X540500Y175781D01*
X594912D01*
X595874Y174819D01*
X597254Y174247D01*
X598746D01*
X600126Y174819D01*
X601181Y175874D01*
X601753Y177253D01*
Y178746D01*
X601181Y180126D01*
X600126Y181181D01*
X598746Y181753D01*
X597254D01*
X595874Y181181D01*
X594912Y180219D01*
X541419D01*
X528556Y193082D01*
Y194207D01*
X528015Y195514D01*
X527710Y195819D01*
X527901Y196281D01*
X559692D01*
X559791Y195781D01*
X558986Y195448D01*
X557985Y194447D01*
X557444Y193140D01*
Y191726D01*
X557985Y190419D01*
X558986Y189418D01*
X560293Y188877D01*
X561707D01*
X563014Y189418D01*
X564014Y190419D01*
X564556Y191726D01*
Y193140D01*
X564014Y194447D01*
X563014Y195448D01*
X562209Y195781D01*
X562308Y196281D01*
X607181D01*
X607900Y195562D01*
Y194744D01*
X608402Y193531D01*
X609331Y192602D01*
X610544Y192100D01*
X611856D01*
X613069Y192602D01*
X613998Y193531D01*
X614500Y194744D01*
Y196056D01*
X613998Y197269D01*
X613069Y198198D01*
X611856Y198700D01*
X611038D01*
X610300Y199438D01*
X610491Y199900D01*
X612423D01*
X624247Y188076D01*
Y187253D01*
X624819Y185874D01*
X625874Y184819D01*
X627253Y184247D01*
X628747D01*
X630126Y184819D01*
X631181Y185874D01*
X631753Y187253D01*
Y188747D01*
X631181Y190126D01*
X630126Y191181D01*
X628747Y191753D01*
X627924D01*
X615339Y204338D01*
X614495Y204902D01*
X613500Y205100D01*
X495106D01*
X494111Y204902D01*
X494053Y204864D01*
X493771Y204923D01*
X493603Y205462D01*
X501269Y213128D01*
X501919Y214697D01*
Y215449D01*
X502498Y216028D01*
X503000Y217241D01*
Y218554D01*
X502498Y219766D01*
X501569Y220695D01*
X500356Y221197D01*
X499044D01*
X497831Y220695D01*
X496902Y219766D01*
X496400Y218554D01*
Y217241D01*
X496902Y216028D01*
X497398Y215533D01*
X490081Y208216D01*
X489459D01*
X489268Y208678D01*
X489351Y208761D01*
X489953Y210214D01*
Y210500D01*
X486000D01*
X482047D01*
Y210214D01*
X482649Y208761D01*
X482732Y208678D01*
X482541Y208216D01*
X479177D01*
X478985Y208678D01*
X479181Y208874D01*
X479753Y210254D01*
Y211747D01*
X479181Y213126D01*
X478126Y214181D01*
X476747Y214753D01*
X475253D01*
X473874Y214181D01*
X472819Y213126D01*
X472247Y211747D01*
Y210254D01*
X472819Y208874D01*
X473015Y208678D01*
X472823Y208216D01*
X471922D01*
X469753Y210385D01*
Y211747D01*
X469181Y213126D01*
X468126Y214181D01*
X466747Y214753D01*
X465253D01*
X463874Y214181D01*
X462819Y213126D01*
X462247Y211747D01*
Y210254D01*
X462819Y208874D01*
X463874Y207819D01*
X465253Y207247D01*
X466615D01*
X468603Y205259D01*
X468411Y204797D01*
X465880D01*
X459753Y210924D01*
Y211747D01*
X459181Y213126D01*
X458126Y214181D01*
X456746Y214753D01*
X455254D01*
X453874Y214181D01*
X452819Y213126D01*
X452247Y211747D01*
Y210924D01*
X430423Y189100D01*
X347207D01*
X346626Y189681D01*
X345247Y190253D01*
X344424D01*
X309539Y225138D01*
X309822Y225562D01*
X310500Y225281D01*
X320251D01*
X320713Y224819D01*
X321875Y224338D01*
X322528D01*
X325635Y221231D01*
X350935Y195931D01*
X352504Y195281D01*
X370190D01*
X370986Y194485D01*
X372293Y193944D01*
X373707D01*
X375014Y194485D01*
X376014Y195486D01*
X376556Y196793D01*
Y198207D01*
X376014Y199514D01*
X375014Y200515D01*
X373707Y201056D01*
X372293D01*
X370986Y200515D01*
X370190Y199719D01*
X353423D01*
X333023Y220119D01*
X333214Y220581D01*
X439700D01*
X441269Y221231D01*
X448369Y228331D01*
X449019Y229900D01*
Y254700D01*
X448369Y256269D01*
X436662Y267976D01*
Y268629D01*
X436181Y269791D01*
X436153Y269819D01*
X436344Y270281D01*
X453099D01*
X453290Y269819D01*
X452985Y269514D01*
X452444Y268207D01*
Y266793D01*
X452985Y265486D01*
X453986Y264486D01*
X455293Y263944D01*
X456707D01*
X458014Y264486D01*
X459015Y265486D01*
X459556Y266793D01*
Y268207D01*
X459015Y269514D01*
X458710Y269819D01*
X458901Y270281D01*
X459781D01*
X472931Y257131D01*
X474500Y256481D01*
X481190D01*
X481381Y256019D01*
X462024Y236662D01*
X461371D01*
X460209Y236181D01*
X459319Y235291D01*
X458838Y234129D01*
Y232871D01*
X459319Y231709D01*
X460209Y230819D01*
X461371Y230338D01*
X462629D01*
X463791Y230819D01*
X464681Y231709D01*
X465162Y232871D01*
Y233524D01*
X484819Y253181D01*
X524283D01*
X524474Y252719D01*
X524383Y252628D01*
X523811Y251247D01*
Y251000D01*
X531323D01*
Y251247D01*
X530751Y252628D01*
X530659Y252719D01*
X530851Y253181D01*
X551981D01*
X560600Y244562D01*
Y243744D01*
X561102Y242531D01*
X562031Y241602D01*
X563244Y241100D01*
X564556D01*
X565769Y241602D01*
X566698Y242531D01*
X567200Y243744D01*
Y244359D01*
X567662Y244550D01*
X571181Y241031D01*
X572750Y240381D01*
X670473D01*
X670664Y239919D01*
X670650Y239904D01*
X670138Y238669D01*
Y238500D01*
X676862D01*
Y238669D01*
X676350Y239904D01*
X676336Y239919D01*
X676527Y240381D01*
X678756D01*
X678947Y239919D01*
X678819Y239791D01*
X678338Y238629D01*
Y237371D01*
X678819Y236209D01*
X679709Y235319D01*
X680871Y234838D01*
X682129D01*
X683291Y235319D01*
X684181Y236209D01*
X684662Y237371D01*
Y238629D01*
X684181Y239791D01*
X684053Y239919D01*
X684244Y240381D01*
X686985D01*
X687564Y239802D01*
X688777Y239300D01*
X690089D01*
X691302Y239802D01*
X692231Y240731D01*
X692733Y241944D01*
Y243256D01*
X692231Y244469D01*
X691302Y245398D01*
X690089Y245900D01*
X688777D01*
X687564Y245398D01*
X686985Y244819D01*
X573669D01*
X571585Y246903D01*
X571868Y247327D01*
X572793Y246944D01*
X574207D01*
X575514Y247485D01*
X576514Y248486D01*
X577056Y249793D01*
Y251207D01*
X576514Y252514D01*
X575514Y253515D01*
X574207Y254056D01*
X573082D01*
X563569Y263569D01*
X562000Y264219D01*
X504388D01*
X504181Y264719D01*
X504948Y265486D01*
X505489Y266793D01*
Y267918D01*
X509252Y271681D01*
X540349D01*
X540514Y271181D01*
X539702Y270369D01*
X539200Y269156D01*
Y267844D01*
X539702Y266631D01*
X540631Y265702D01*
X541844Y265200D01*
X543156D01*
X544369Y265702D01*
X544948Y266281D01*
X606247D01*
X606709Y265819D01*
X607871Y265338D01*
X609129D01*
X610291Y265819D01*
X611181Y266709D01*
X611662Y267871D01*
Y269129D01*
X611181Y270291D01*
X610291Y271181D01*
X610290Y271181D01*
X610390Y271681D01*
X614610D01*
X614710Y271181D01*
X614709Y271181D01*
X613819Y270291D01*
X613338Y269129D01*
Y267871D01*
X613819Y266709D01*
X614709Y265819D01*
X615871Y265338D01*
X617129D01*
X618291Y265819D01*
X619181Y266709D01*
X619662Y267871D01*
Y269129D01*
X619181Y270291D01*
X618291Y271181D01*
X618291Y271181D01*
X618390Y271681D01*
X647900D01*
X649469Y272331D01*
X651582Y274444D01*
X652707D01*
X654014Y274986D01*
X655015Y275986D01*
X655556Y277293D01*
Y278707D01*
X655015Y280014D01*
X654014Y281014D01*
X652707Y281556D01*
X651293D01*
X649986Y281014D01*
X648985Y280014D01*
X648444Y278707D01*
Y277582D01*
X646981Y276119D01*
X574801D01*
X574610Y276581D01*
X575014Y276986D01*
X575556Y278293D01*
Y279707D01*
X575014Y281014D01*
X574014Y282014D01*
X572707Y282556D01*
X571582D01*
X568269Y285869D01*
X566700Y286519D01*
X503119D01*
X491162Y298476D01*
Y299129D01*
X490721Y300193D01*
X490932Y300693D01*
X491481D01*
X497543Y294631D01*
X499112Y293981D01*
X624267D01*
X625836Y294631D01*
X651582Y320377D01*
X652707D01*
X654014Y320918D01*
X655015Y321919D01*
X655556Y323226D01*
Y324640D01*
X655015Y325947D01*
X654543Y326419D01*
X654734Y326881D01*
X676914D01*
X678944Y324851D01*
Y323726D01*
X679486Y322419D01*
X680486Y321418D01*
X681793Y320877D01*
X683207D01*
X684514Y321418D01*
X685514Y322419D01*
X686056Y323726D01*
Y325140D01*
X685514Y326447D01*
X684514Y327448D01*
X683207Y327989D01*
X682082D01*
X679402Y330669D01*
X677833Y331319D01*
X605748D01*
X605169Y331898D01*
X603956Y332400D01*
X602644D01*
X601431Y331898D01*
X600502Y330969D01*
X600000Y329756D01*
Y328444D01*
X600502Y327231D01*
X601431Y326302D01*
X602644Y325800D01*
X603956D01*
X605169Y326302D01*
X605748Y326881D01*
X649266D01*
X649457Y326419D01*
X648985Y325947D01*
X648444Y324640D01*
Y323515D01*
X623348Y298419D01*
X587860D01*
X587761Y298919D01*
X588273Y299131D01*
X594480Y305338D01*
X595133D01*
X596295Y305819D01*
X597185Y306709D01*
X597666Y307871D01*
Y309129D01*
X597185Y310291D01*
X596295Y311181D01*
X595133Y311662D01*
X593875D01*
X592713Y311181D01*
X591823Y310291D01*
X591342Y309129D01*
Y308476D01*
X585785Y302919D01*
X574155D01*
X573948Y303419D01*
X574514Y303986D01*
X575056Y305293D01*
Y306707D01*
X574514Y308014D01*
X573514Y309015D01*
X572207Y309556D01*
X570793D01*
X569486Y309015D01*
X568485Y308014D01*
X567944Y306707D01*
Y305293D01*
X568485Y303986D01*
X569052Y303419D01*
X568845Y302919D01*
X531786D01*
X529123Y305582D01*
Y306707D01*
X528581Y308014D01*
X527581Y309015D01*
X526274Y309556D01*
X524860D01*
X523553Y309015D01*
X522757Y308219D01*
X496224D01*
X495712Y308431D01*
X464216D01*
X462647Y307781D01*
X456528Y301662D01*
X455875D01*
X455192Y301379D01*
X432989Y323582D01*
Y324707D01*
X432447Y326014D01*
X432043Y326419D01*
X432234Y326881D01*
X545533D01*
X547102Y327531D01*
X551582Y332011D01*
X552707D01*
X554014Y332553D01*
X555015Y333553D01*
X555556Y334860D01*
Y336274D01*
X555015Y337581D01*
X554477Y338119D01*
X554668Y338581D01*
X622200D01*
X623769Y339231D01*
X626769Y342231D01*
X627419Y343800D01*
Y373681D01*
X643138Y389400D01*
X643956D01*
X645169Y389902D01*
X646098Y390831D01*
X646600Y392044D01*
Y393356D01*
X646098Y394569D01*
X645169Y395498D01*
X643956Y396000D01*
D02*
G37*
G36*
X457747Y368253D02*
X456253D01*
X454874Y367681D01*
X453819Y366626D01*
X453247Y365247D01*
Y363754D01*
X453819Y362374D01*
X454874Y361319D01*
X456253Y360747D01*
X457747D01*
X459126Y361319D01*
X460181Y362374D01*
X460753Y363754D01*
Y365247D01*
X460181Y366626D01*
X459126Y367681D01*
X457747Y368253D01*
D02*
G37*
G36*
X427746D02*
X426254D01*
X424874Y367681D01*
X423819Y366626D01*
X423247Y365247D01*
Y363754D01*
X423819Y362374D01*
X424874Y361319D01*
X426254Y360747D01*
X427746D01*
X429126Y361319D01*
X430181Y362374D01*
X430753Y363754D01*
Y365247D01*
X430181Y366626D01*
X429126Y367681D01*
X427746Y368253D01*
D02*
G37*
G36*
X280953Y363500D02*
X277500D01*
Y360047D01*
X277786D01*
X279239Y360649D01*
X280351Y361761D01*
X280953Y363214D01*
Y363500D01*
D02*
G37*
G36*
X276500D02*
X273047D01*
Y363214D01*
X273649Y361761D01*
X274761Y360649D01*
X276214Y360047D01*
X276500D01*
Y363500D01*
D02*
G37*
G36*
X587786Y362453D02*
X587500D01*
Y359000D01*
X590953D01*
Y359286D01*
X590351Y360739D01*
X589239Y361851D01*
X587786Y362453D01*
D02*
G37*
G36*
X586500D02*
X586214D01*
X584761Y361851D01*
X583649Y360739D01*
X583047Y359286D01*
Y359000D01*
X586500D01*
Y362453D01*
D02*
G37*
G36*
X427786Y358453D02*
X427500D01*
Y355000D01*
X430953D01*
Y355286D01*
X430351Y356739D01*
X429239Y357851D01*
X427786Y358453D01*
D02*
G37*
G36*
X426500D02*
X426214D01*
X424761Y357851D01*
X423649Y356739D01*
X423047Y355286D01*
Y355000D01*
X426500D01*
Y358453D01*
D02*
G37*
G36*
X617746Y362253D02*
X616254D01*
X614874Y361681D01*
X613819Y360626D01*
X613247Y359246D01*
Y357753D01*
X613819Y356374D01*
X614874Y355319D01*
X616254Y354747D01*
X617746D01*
X619126Y355319D01*
X620181Y356374D01*
X620753Y357753D01*
Y359246D01*
X620181Y360626D01*
X619126Y361681D01*
X617746Y362253D01*
D02*
G37*
G36*
X590953Y358000D02*
X587500D01*
Y354547D01*
X587786D01*
X589239Y355149D01*
X590351Y356261D01*
X590953Y357714D01*
Y358000D01*
D02*
G37*
G36*
X586500D02*
X583047D01*
Y357714D01*
X583649Y356261D01*
X584761Y355149D01*
X586214Y354547D01*
X586500D01*
Y358000D01*
D02*
G37*
G36*
X307786Y357953D02*
X307500D01*
Y354500D01*
X310953D01*
Y354786D01*
X310351Y356239D01*
X309239Y357351D01*
X307786Y357953D01*
D02*
G37*
G36*
X306500D02*
X306214D01*
X304761Y357351D01*
X303649Y356239D01*
X303047Y354786D01*
Y354500D01*
X306500D01*
Y357953D01*
D02*
G37*
G36*
X633207Y409556D02*
X631793D01*
X630486Y409015D01*
X629486Y408014D01*
X628944Y406707D01*
Y405293D01*
X629486Y403986D01*
X630486Y402985D01*
X631793Y402444D01*
X633207D01*
X634514Y402985D01*
X635310Y403781D01*
X639581D01*
X685944Y357418D01*
Y356293D01*
X686485Y354986D01*
X687486Y353986D01*
X688793Y353444D01*
X690207D01*
X691514Y353986D01*
X692515Y354986D01*
X693056Y356293D01*
Y357707D01*
X692515Y359014D01*
X691514Y360015D01*
X690207Y360556D01*
X689082D01*
X642069Y407569D01*
X640500Y408219D01*
X635310D01*
X634514Y409015D01*
X633207Y409556D01*
D02*
G37*
G36*
X644274Y360556D02*
X642860D01*
X641553Y360015D01*
X640553Y359014D01*
X640011Y357707D01*
Y356293D01*
X640553Y354986D01*
X641553Y353986D01*
X642860Y353444D01*
X644274D01*
X645581Y353986D01*
X646582Y354986D01*
X647123Y356293D01*
Y357707D01*
X646582Y359014D01*
X645581Y360015D01*
X644274Y360556D01*
D02*
G37*
G36*
X117944Y359162D02*
X116686D01*
X115524Y358681D01*
X114634Y357791D01*
X114153Y356629D01*
Y355371D01*
X114634Y354209D01*
X115524Y353319D01*
X116686Y352838D01*
X117944D01*
X119106Y353319D01*
X119996Y354209D01*
X120477Y355371D01*
Y356629D01*
X119996Y357791D01*
X119106Y358681D01*
X117944Y359162D01*
D02*
G37*
G36*
X457747Y358253D02*
X456253D01*
X454874Y357681D01*
X453819Y356626D01*
X453247Y355246D01*
Y353753D01*
X453819Y352374D01*
X454874Y351319D01*
X456253Y350747D01*
X457747D01*
X459126Y351319D01*
X460181Y352374D01*
X460753Y353753D01*
Y355246D01*
X460181Y356626D01*
X459126Y357681D01*
X457747Y358253D01*
D02*
G37*
G36*
X396247Y353823D02*
X396000D01*
Y350567D01*
X399256D01*
Y350814D01*
X398684Y352194D01*
X397628Y353251D01*
X396247Y353823D01*
D02*
G37*
G36*
X395000D02*
X394753D01*
X393372Y353251D01*
X392316Y352194D01*
X391744Y350814D01*
Y350567D01*
X395000D01*
Y353823D01*
D02*
G37*
G36*
X430953Y354000D02*
X427500D01*
Y350547D01*
X427786D01*
X429239Y351149D01*
X430351Y352261D01*
X430953Y353714D01*
Y354000D01*
D02*
G37*
G36*
X426500D02*
X423047D01*
Y353714D01*
X423649Y352261D01*
X424761Y351149D01*
X426214Y350547D01*
X426500D01*
Y354000D01*
D02*
G37*
G36*
X310953Y353500D02*
X307500D01*
Y350047D01*
X307786D01*
X309239Y350649D01*
X310351Y351761D01*
X310953Y353214D01*
Y353500D01*
D02*
G37*
G36*
X306500D02*
X303047D01*
Y353214D01*
X303649Y351761D01*
X304761Y350649D01*
X306214Y350047D01*
X306500D01*
Y353500D01*
D02*
G37*
G36*
X617786Y352453D02*
X617500D01*
Y349000D01*
X620953D01*
Y349286D01*
X620351Y350739D01*
X619239Y351851D01*
X617786Y352453D01*
D02*
G37*
G36*
X616500D02*
X616214D01*
X614761Y351851D01*
X613649Y350739D01*
X613047Y349286D01*
Y349000D01*
X616500D01*
Y352453D01*
D02*
G37*
G36*
X399256Y349567D02*
X396000D01*
Y346311D01*
X396247D01*
X397628Y346883D01*
X398684Y347939D01*
X399256Y349320D01*
Y349567D01*
D02*
G37*
G36*
X395000D02*
X391744D01*
Y349320D01*
X392316Y347939D01*
X393372Y346883D01*
X394753Y346311D01*
X395000D01*
Y349567D01*
D02*
G37*
G36*
X457786Y348453D02*
X457500D01*
Y345000D01*
X460953D01*
Y345286D01*
X460351Y346739D01*
X459239Y347851D01*
X457786Y348453D01*
D02*
G37*
G36*
X456500D02*
X456214D01*
X454761Y347851D01*
X453649Y346739D01*
X453047Y345286D01*
Y345000D01*
X456500D01*
Y348453D01*
D02*
G37*
G36*
X620953Y348000D02*
X617500D01*
Y344547D01*
X617786D01*
X619239Y345149D01*
X620351Y346261D01*
X620953Y347714D01*
Y348000D01*
D02*
G37*
G36*
X616500D02*
X613047D01*
Y347714D01*
X613649Y346261D01*
X614761Y345149D01*
X616214Y344547D01*
X616500D01*
Y348000D01*
D02*
G37*
G36*
X254129Y349847D02*
X252871D01*
X251709Y349366D01*
X250819Y348476D01*
X250338Y347314D01*
Y346056D01*
X250819Y344894D01*
X251709Y344004D01*
X252871Y343523D01*
X254129D01*
X255291Y344004D01*
X256181Y344894D01*
X256662Y346056D01*
Y347314D01*
X256181Y348476D01*
X255291Y349366D01*
X254129Y349847D01*
D02*
G37*
G36*
X345707Y348556D02*
X344293D01*
X342986Y348014D01*
X341986Y347014D01*
X341444Y345707D01*
Y344293D01*
X341986Y342986D01*
X342986Y341986D01*
X344293Y341444D01*
X345707D01*
X347014Y341986D01*
X348014Y342986D01*
X348556Y344293D01*
Y345707D01*
X348014Y347014D01*
X347014Y348014D01*
X345707Y348556D01*
D02*
G37*
G36*
X137629Y359162D02*
X136371D01*
X135209Y358681D01*
X134319Y357791D01*
X133838Y356629D01*
Y355371D01*
X134319Y354209D01*
X135209Y353319D01*
X136371Y352838D01*
X137629D01*
X138791Y353319D01*
X139253Y353781D01*
X140081D01*
X158944Y334918D01*
Y333793D01*
X159485Y332486D01*
X160486Y331486D01*
X161793Y330944D01*
X163207D01*
X164514Y331486D01*
X165515Y332486D01*
X166056Y333793D01*
Y335207D01*
X165515Y336514D01*
X164514Y337514D01*
X163207Y338056D01*
X162082D01*
X142569Y357569D01*
X141000Y358219D01*
X139253D01*
X138791Y358681D01*
X137629Y359162D01*
D02*
G37*
G36*
X122207Y337556D02*
X120793D01*
X119486Y337015D01*
X118485Y336014D01*
X117944Y334707D01*
Y333293D01*
X118485Y331986D01*
X119486Y330985D01*
X120793Y330444D01*
X122207D01*
X123514Y330985D01*
X124514Y331986D01*
X125056Y333293D01*
Y334707D01*
X124514Y336014D01*
X123514Y337015D01*
X122207Y337556D01*
D02*
G37*
G36*
X384247Y327756D02*
X384000D01*
Y324500D01*
X387256D01*
Y324747D01*
X386684Y326128D01*
X385628Y327184D01*
X384247Y327756D01*
D02*
G37*
G36*
X383000D02*
X382753D01*
X381372Y327184D01*
X380316Y326128D01*
X379744Y324747D01*
Y324500D01*
X383000D01*
Y327756D01*
D02*
G37*
G36*
X387256Y323500D02*
X384000D01*
Y320244D01*
X384247D01*
X385628Y320816D01*
X386684Y321872D01*
X387256Y323253D01*
Y323500D01*
D02*
G37*
G36*
X383000D02*
X379744D01*
Y323253D01*
X380316Y321872D01*
X381372Y320816D01*
X382753Y320244D01*
X383000D01*
Y323500D01*
D02*
G37*
G36*
X305629Y322662D02*
X304371D01*
X303209Y322181D01*
X302319Y321291D01*
X301838Y320129D01*
Y318871D01*
X302319Y317709D01*
X303209Y316819D01*
X304371Y316338D01*
X305629D01*
X306791Y316819D01*
X307681Y317709D01*
X308162Y318871D01*
Y320129D01*
X307681Y321291D01*
X306791Y322181D01*
X305629Y322662D01*
D02*
G37*
G36*
X297629D02*
X296371D01*
X295209Y322181D01*
X294319Y321291D01*
X293838Y320129D01*
Y318871D01*
X294319Y317709D01*
X295209Y316819D01*
X296371Y316338D01*
X297629D01*
X298791Y316819D01*
X299681Y317709D01*
X300162Y318871D01*
Y320129D01*
X299681Y321291D01*
X298791Y322181D01*
X297629Y322662D01*
D02*
G37*
G36*
X626629Y311662D02*
X625371D01*
X624209Y311181D01*
X623319Y310291D01*
X622838Y309129D01*
Y307871D01*
X623319Y306709D01*
X624209Y305819D01*
X625371Y305338D01*
X626629D01*
X627791Y305819D01*
X628681Y306709D01*
X629162Y307871D01*
Y309129D01*
X628681Y310291D01*
X627791Y311181D01*
X626629Y311662D01*
D02*
G37*
G36*
X249786Y303453D02*
X249500D01*
Y300000D01*
X252953D01*
Y300286D01*
X252351Y301739D01*
X251239Y302851D01*
X249786Y303453D01*
D02*
G37*
G36*
X248500D02*
X248214D01*
X246761Y302851D01*
X245649Y301739D01*
X245047Y300286D01*
Y300000D01*
X248500D01*
Y303453D01*
D02*
G37*
G36*
X211129Y303162D02*
X209871D01*
X208709Y302681D01*
X207819Y301791D01*
X207338Y300629D01*
Y299371D01*
X207819Y298209D01*
X208709Y297319D01*
X209871Y296838D01*
X211129D01*
X212291Y297319D01*
X213181Y298209D01*
X213662Y299371D01*
Y300629D01*
X213181Y301791D01*
X212291Y302681D01*
X211129Y303162D01*
D02*
G37*
G36*
X203129D02*
X201871D01*
X200709Y302681D01*
X199819Y301791D01*
X199338Y300629D01*
Y299371D01*
X199819Y298209D01*
X200709Y297319D01*
X201871Y296838D01*
X203129D01*
X204291Y297319D01*
X205181Y298209D01*
X205662Y299371D01*
Y300629D01*
X205181Y301791D01*
X204291Y302681D01*
X203129Y303162D01*
D02*
G37*
G36*
X279747Y303253D02*
X278254D01*
X276874Y302681D01*
X275819Y301626D01*
X275247Y300247D01*
Y298753D01*
X275819Y297374D01*
X276874Y296319D01*
X278254Y295747D01*
X279747D01*
X281126Y296319D01*
X282181Y297374D01*
X282753Y298753D01*
Y300247D01*
X282181Y301626D01*
X281126Y302681D01*
X279747Y303253D01*
D02*
G37*
G36*
X252953Y299000D02*
X249500D01*
Y295547D01*
X249786D01*
X251239Y296149D01*
X252351Y297261D01*
X252953Y298714D01*
Y299000D01*
D02*
G37*
G36*
X248500D02*
X245047D01*
Y298714D01*
X245649Y297261D01*
X246761Y296149D01*
X248214Y295547D01*
X248500D01*
Y299000D01*
D02*
G37*
G36*
X345707Y302623D02*
X344293D01*
X342986Y302081D01*
X341986Y301081D01*
X341444Y299774D01*
Y298360D01*
X341986Y297053D01*
X342986Y296053D01*
X344293Y295511D01*
X345707D01*
X347014Y296053D01*
X348014Y297053D01*
X348556Y298360D01*
Y299774D01*
X348014Y301081D01*
X347014Y302081D01*
X345707Y302623D01*
D02*
G37*
G36*
X162207Y299556D02*
X160793D01*
X159486Y299014D01*
X158485Y298014D01*
X157944Y296707D01*
Y295293D01*
X158485Y293986D01*
X159486Y292986D01*
X160793Y292444D01*
X162207D01*
X163514Y292986D01*
X164515Y293986D01*
X165056Y295293D01*
Y296707D01*
X164515Y298014D01*
X163514Y299014D01*
X162207Y299556D01*
D02*
G37*
G36*
X279786Y293453D02*
X279500D01*
Y290000D01*
X282953D01*
Y290286D01*
X282351Y291739D01*
X281239Y292851D01*
X279786Y293453D01*
D02*
G37*
G36*
X278500D02*
X278214D01*
X276761Y292851D01*
X275649Y291739D01*
X275047Y290286D01*
Y290000D01*
X278500D01*
Y293453D01*
D02*
G37*
G36*
X137696Y291500D02*
X137500D01*
Y288500D01*
X140500D01*
Y288696D01*
X139967Y289983D01*
X138983Y290967D01*
X137696Y291500D01*
D02*
G37*
G36*
X136500D02*
X136304D01*
X135017Y290967D01*
X134033Y289983D01*
X133500Y288696D01*
Y288500D01*
X136500D01*
Y291500D01*
D02*
G37*
G36*
X282953Y289000D02*
X279500D01*
Y285547D01*
X279786D01*
X281239Y286149D01*
X282351Y287261D01*
X282953Y288714D01*
Y289000D01*
D02*
G37*
G36*
X278500D02*
X275047D01*
Y288714D01*
X275649Y287261D01*
X276761Y286149D01*
X278214Y285547D01*
X278500D01*
Y289000D01*
D02*
G37*
G36*
X122207Y291623D02*
X120793D01*
X119486Y291082D01*
X118485Y290081D01*
X117944Y288774D01*
Y287360D01*
X118485Y286053D01*
X119486Y285052D01*
X120793Y284511D01*
X122207D01*
X123514Y285052D01*
X124514Y286053D01*
X125056Y287360D01*
Y288774D01*
X124514Y290081D01*
X123514Y291082D01*
X122207Y291623D01*
D02*
G37*
G36*
X140500Y287500D02*
X137500D01*
Y284500D01*
X137696D01*
X138983Y285033D01*
X139967Y286017D01*
X140500Y287304D01*
Y287500D01*
D02*
G37*
G36*
X136500D02*
X133500D01*
Y287304D01*
X134033Y286017D01*
X135017Y285033D01*
X136304Y284500D01*
X136500D01*
Y287500D01*
D02*
G37*
G36*
X391629Y290662D02*
X390371D01*
X389209Y290181D01*
X388319Y289291D01*
X387838Y288129D01*
Y286871D01*
X388319Y285709D01*
X389209Y284819D01*
X390371Y284338D01*
X391629D01*
X392791Y284819D01*
X393681Y285709D01*
X394162Y286871D01*
Y288129D01*
X393681Y289291D01*
X392791Y290181D01*
X391629Y290662D01*
D02*
G37*
G36*
X683207Y282056D02*
X681793D01*
X680486Y281515D01*
X679486Y280514D01*
X678944Y279207D01*
Y277793D01*
X679486Y276486D01*
X680486Y275485D01*
X681793Y274944D01*
X683207D01*
X684514Y275485D01*
X685514Y276486D01*
X686056Y277793D01*
Y279207D01*
X685514Y280514D01*
X684514Y281515D01*
X683207Y282056D01*
D02*
G37*
G36*
X349629Y270162D02*
X348371D01*
X347209Y269681D01*
X346319Y268791D01*
X345838Y267629D01*
Y266371D01*
X346319Y265209D01*
X347209Y264319D01*
X348371Y263838D01*
X349629D01*
X350791Y264319D01*
X351681Y265209D01*
X352162Y266371D01*
Y267629D01*
X351681Y268791D01*
X350791Y269681D01*
X349629Y270162D01*
D02*
G37*
G36*
X230180Y264256D02*
X229933D01*
Y261000D01*
X233189D01*
Y261247D01*
X232617Y262628D01*
X231561Y263684D01*
X230180Y264256D01*
D02*
G37*
G36*
X228933D02*
X228686D01*
X227306Y263684D01*
X226249Y262628D01*
X225677Y261247D01*
Y261000D01*
X228933D01*
Y264256D01*
D02*
G37*
G36*
X233189Y260000D02*
X229933D01*
Y256744D01*
X230180D01*
X231561Y257316D01*
X232617Y258372D01*
X233189Y259753D01*
Y260000D01*
D02*
G37*
G36*
X228933D02*
X225677D01*
Y259753D01*
X226249Y258372D01*
X227306Y257316D01*
X228686Y256744D01*
X228933D01*
Y260000D01*
D02*
G37*
G36*
X121756Y260800D02*
X120244D01*
X118848Y260222D01*
X117779Y259153D01*
X117200Y257756D01*
Y256244D01*
X117779Y254848D01*
X118848Y253779D01*
X120244Y253200D01*
X121756D01*
X123152Y253779D01*
X124222Y254848D01*
X124800Y256244D01*
Y257756D01*
X124222Y259153D01*
X123152Y260222D01*
X121756Y260800D01*
D02*
G37*
G36*
X121796Y251000D02*
X121500D01*
Y247500D01*
X125000D01*
Y247796D01*
X124391Y249266D01*
X123266Y250391D01*
X121796Y251000D01*
D02*
G37*
G36*
X120500D02*
X120204D01*
X118734Y250391D01*
X117609Y249266D01*
X117000Y247796D01*
Y247500D01*
X120500D01*
Y251000D01*
D02*
G37*
G36*
X531323Y250000D02*
X528067D01*
Y246744D01*
X528314D01*
X529695Y247316D01*
X530751Y248372D01*
X531323Y249753D01*
Y250000D01*
D02*
G37*
G36*
X527067D02*
X523811D01*
Y249753D01*
X524383Y248372D01*
X525440Y247316D01*
X526820Y246744D01*
X527067D01*
Y250000D01*
D02*
G37*
G36*
X125000Y246500D02*
X121500D01*
Y243000D01*
X121796D01*
X123266Y243609D01*
X124391Y244734D01*
X125000Y246204D01*
Y246500D01*
D02*
G37*
G36*
X120500D02*
X117000D01*
Y246204D01*
X117609Y244734D01*
X118734Y243609D01*
X120204Y243000D01*
X120500D01*
Y246500D01*
D02*
G37*
G36*
X676862Y237500D02*
X674000D01*
Y234638D01*
X674169D01*
X675405Y235150D01*
X676350Y236095D01*
X676862Y237331D01*
Y237500D01*
D02*
G37*
G36*
X673000D02*
X670138D01*
Y237331D01*
X670650Y236095D01*
X671595Y235150D01*
X672831Y234638D01*
X673000D01*
Y237500D01*
D02*
G37*
G36*
X262169Y231862D02*
X262000D01*
Y229000D01*
X264862D01*
Y229169D01*
X264350Y230404D01*
X263404Y231350D01*
X262169Y231862D01*
D02*
G37*
G36*
X261000D02*
X260831D01*
X259595Y231350D01*
X258650Y230404D01*
X258138Y229169D01*
Y229000D01*
X261000D01*
Y231862D01*
D02*
G37*
G36*
X635207Y232556D02*
X633793D01*
X632486Y232014D01*
X631486Y231014D01*
X630944Y229707D01*
Y228293D01*
X631486Y226986D01*
X632486Y225986D01*
X633793Y225444D01*
X635207D01*
X636514Y225986D01*
X637514Y226986D01*
X638056Y228293D01*
Y229707D01*
X637514Y231014D01*
X636514Y232014D01*
X635207Y232556D01*
D02*
G37*
G36*
X589274D02*
X587860D01*
X586553Y232014D01*
X585553Y231014D01*
X585011Y229707D01*
Y228293D01*
X585553Y226986D01*
X586553Y225986D01*
X587860Y225444D01*
X589274D01*
X590581Y225986D01*
X591581Y226986D01*
X592123Y228293D01*
Y229707D01*
X591581Y231014D01*
X590581Y232014D01*
X589274Y232556D01*
D02*
G37*
G36*
X264862Y228000D02*
X262000D01*
Y225138D01*
X262169D01*
X263404Y225650D01*
X264350Y226595D01*
X264862Y227831D01*
Y228000D01*
D02*
G37*
G36*
X261000D02*
X258138D01*
Y227831D01*
X258650Y226595D01*
X259595Y225650D01*
X260831Y225138D01*
X261000D01*
Y228000D01*
D02*
G37*
G36*
X516129Y229162D02*
X514871D01*
X513709Y228681D01*
X512819Y227791D01*
X512338Y226629D01*
Y225371D01*
X512819Y224209D01*
X513709Y223319D01*
X514871Y222838D01*
X516129D01*
X517291Y223319D01*
X518181Y224209D01*
X518662Y225371D01*
Y226629D01*
X518181Y227791D01*
X517291Y228681D01*
X516129Y229162D01*
D02*
G37*
G36*
X508129D02*
X506871D01*
X505709Y228681D01*
X504819Y227791D01*
X504338Y226629D01*
Y225371D01*
X504819Y224209D01*
X505709Y223319D01*
X506871Y222838D01*
X508129D01*
X509291Y223319D01*
X510181Y224209D01*
X510662Y225371D01*
Y226629D01*
X510181Y227791D01*
X509291Y228681D01*
X508129Y229162D01*
D02*
G37*
G36*
X191207Y220556D02*
X189793D01*
X188486Y220015D01*
X187486Y219014D01*
X186944Y217707D01*
Y216293D01*
X187486Y214986D01*
X188486Y213985D01*
X189793Y213444D01*
X191207D01*
X192514Y213985D01*
X193515Y214986D01*
X194056Y216293D01*
Y217707D01*
X193515Y219014D01*
X192514Y220015D01*
X191207Y220556D01*
D02*
G37*
G36*
X145274D02*
X143860D01*
X142553Y220015D01*
X141552Y219014D01*
X141011Y217707D01*
Y216293D01*
X141552Y214986D01*
X142553Y213985D01*
X143860Y213444D01*
X145274D01*
X146581Y213985D01*
X147582Y214986D01*
X148123Y216293D01*
Y217707D01*
X147582Y219014D01*
X146581Y220015D01*
X145274Y220556D01*
D02*
G37*
G36*
X486786Y214953D02*
X486500D01*
Y211500D01*
X489953D01*
Y211786D01*
X489351Y213239D01*
X488239Y214351D01*
X486786Y214953D01*
D02*
G37*
G36*
X485500D02*
X485214D01*
X483761Y214351D01*
X482649Y213239D01*
X482047Y211786D01*
Y211500D01*
X485500D01*
Y214953D01*
D02*
G37*
G36*
X656747Y201189D02*
X656500D01*
Y197933D01*
X659756D01*
Y198180D01*
X659184Y199560D01*
X658127Y200617D01*
X656747Y201189D01*
D02*
G37*
G36*
X655500D02*
X655253D01*
X653872Y200617D01*
X652816Y199560D01*
X652244Y198180D01*
Y197933D01*
X655500D01*
Y201189D01*
D02*
G37*
G36*
X685247Y200689D02*
X685000D01*
Y197433D01*
X688256D01*
Y197680D01*
X687684Y199060D01*
X686627Y200117D01*
X685247Y200689D01*
D02*
G37*
G36*
X684000D02*
X683753D01*
X682373Y200117D01*
X681316Y199060D01*
X680744Y197680D01*
Y197433D01*
X684000D01*
Y200689D01*
D02*
G37*
G36*
X419640Y201056D02*
X418226D01*
X416919Y200515D01*
X415918Y199514D01*
X415377Y198207D01*
Y196793D01*
X415918Y195486D01*
X416919Y194485D01*
X418226Y193944D01*
X419640D01*
X420947Y194485D01*
X421947Y195486D01*
X422489Y196793D01*
Y198207D01*
X421947Y199514D01*
X420947Y200515D01*
X419640Y201056D01*
D02*
G37*
G36*
X262129Y200166D02*
X260871D01*
X259709Y199685D01*
X258819Y198795D01*
X258338Y197633D01*
Y196375D01*
X258819Y195213D01*
X259709Y194323D01*
X260871Y193842D01*
X262129D01*
X263291Y194323D01*
X264181Y195213D01*
X264662Y196375D01*
Y197633D01*
X264181Y198795D01*
X263291Y199685D01*
X262129Y200166D01*
D02*
G37*
G36*
X659756Y196933D02*
X656500D01*
Y193677D01*
X656747D01*
X658127Y194249D01*
X659184Y195305D01*
X659756Y196686D01*
Y196933D01*
D02*
G37*
G36*
X655500D02*
X652244D01*
Y196686D01*
X652816Y195305D01*
X653872Y194249D01*
X655253Y193677D01*
X655500D01*
Y196933D01*
D02*
G37*
G36*
X688256Y196433D02*
X685000D01*
Y193177D01*
X685247D01*
X686627Y193749D01*
X687684Y194805D01*
X688256Y196186D01*
Y196433D01*
D02*
G37*
G36*
X684000D02*
X680744D01*
Y196186D01*
X681316Y194805D01*
X682373Y193749D01*
X683753Y193177D01*
X684000D01*
Y196433D01*
D02*
G37*
G36*
X231207Y193123D02*
X229793D01*
X228486Y192581D01*
X227485Y191581D01*
X226944Y190274D01*
Y188860D01*
X227485Y187553D01*
X228486Y186553D01*
X229793Y186011D01*
X231207D01*
X232514Y186553D01*
X233514Y187553D01*
X234056Y188860D01*
Y190274D01*
X233514Y191581D01*
X232514Y192581D01*
X231207Y193123D01*
D02*
G37*
G36*
X601753Y191753D02*
X594247D01*
Y184247D01*
X601753D01*
Y191753D01*
D02*
G37*
G36*
X318253Y190253D02*
X310747D01*
Y182747D01*
X318253D01*
Y190253D01*
D02*
G37*
G36*
X476786Y184953D02*
X476500D01*
Y181500D01*
X479953D01*
Y181786D01*
X479351Y183239D01*
X478239Y184351D01*
X476786Y184953D01*
D02*
G37*
G36*
X475500D02*
X475214D01*
X473761Y184351D01*
X472649Y183239D01*
X472047Y181786D01*
Y181500D01*
X475500D01*
Y184953D01*
D02*
G37*
G36*
X166746Y179253D02*
X165253D01*
X163874Y178681D01*
X162912Y177719D01*
X159088D01*
X158126Y178681D01*
X156746Y179253D01*
X155254D01*
X153874Y178681D01*
X152819Y177626D01*
X152247Y176247D01*
Y174885D01*
X126648Y149286D01*
X123810D01*
X123014Y150082D01*
X121707Y150623D01*
X120293D01*
X118986Y150082D01*
X117985Y149081D01*
X117444Y147774D01*
Y146360D01*
X117985Y145053D01*
X118986Y144053D01*
X120293Y143511D01*
X121707D01*
X123014Y144053D01*
X123810Y144848D01*
X127567D01*
X129136Y145498D01*
X155385Y171747D01*
X156746D01*
X158126Y172319D01*
X159088Y173281D01*
X162912D01*
X163874Y172319D01*
X165253Y171747D01*
X166746D01*
X168126Y172319D01*
X169181Y173374D01*
X169753Y174753D01*
Y176247D01*
X169181Y177626D01*
X168126Y178681D01*
X166746Y179253D01*
D02*
G37*
G36*
X479953Y180500D02*
X476500D01*
Y177047D01*
X476786D01*
X478239Y177649D01*
X479351Y178761D01*
X479953Y180214D01*
Y180500D01*
D02*
G37*
G36*
X475500D02*
X472047D01*
Y180214D01*
X472649Y178761D01*
X473761Y177649D01*
X475214Y177047D01*
X475500D01*
Y180500D01*
D02*
G37*
G36*
X628747Y181753D02*
X627253D01*
X625874Y181181D01*
X624819Y180126D01*
X624247Y178746D01*
Y177253D01*
X624819Y175874D01*
X625874Y174819D01*
X627253Y174247D01*
X628747D01*
X630126Y174819D01*
X631181Y175874D01*
X631753Y177253D01*
Y178746D01*
X631181Y180126D01*
X630126Y181181D01*
X628747Y181753D01*
D02*
G37*
G36*
X121707Y196556D02*
X120293D01*
X118986Y196014D01*
X117985Y195014D01*
X117444Y193707D01*
Y192293D01*
X117985Y190986D01*
X118986Y189986D01*
X120293Y189444D01*
X121707D01*
X123014Y189986D01*
X123810Y190781D01*
X202681D01*
X215964Y177498D01*
X217533Y176848D01*
X286690D01*
X287486Y176052D01*
X288793Y175511D01*
X289918D01*
X290498Y174931D01*
X292067Y174281D01*
X311412D01*
X312374Y173319D01*
X313754Y172747D01*
X315247D01*
X316626Y173319D01*
X317681Y174374D01*
X318253Y175753D01*
Y177246D01*
X317681Y178626D01*
X316626Y179681D01*
X315247Y180253D01*
X313754D01*
X312374Y179681D01*
X311412Y178719D01*
X293056D01*
Y179774D01*
X292514Y181081D01*
X291514Y182081D01*
X290207Y182623D01*
X288793D01*
X287486Y182081D01*
X286690Y181286D01*
X218452D01*
X205169Y194569D01*
X203600Y195219D01*
X123810D01*
X123014Y196014D01*
X121707Y196556D01*
D02*
G37*
G36*
X146747Y179253D02*
X145254D01*
X143874Y178681D01*
X142819Y177626D01*
X142247Y176247D01*
Y174753D01*
X142819Y173374D01*
X143874Y172319D01*
X145254Y171747D01*
X146747D01*
X148126Y172319D01*
X149181Y173374D01*
X149753Y174753D01*
Y176247D01*
X149181Y177626D01*
X148126Y178681D01*
X146747Y179253D01*
D02*
G37*
G36*
X315286Y170453D02*
X315000D01*
Y167000D01*
X318453D01*
Y167286D01*
X317851Y168739D01*
X316739Y169851D01*
X315286Y170453D01*
D02*
G37*
G36*
X314000D02*
X313714D01*
X312261Y169851D01*
X311149Y168739D01*
X310547Y167286D01*
Y167000D01*
X314000D01*
Y170453D01*
D02*
G37*
G36*
X205629Y184162D02*
X204371D01*
X203209Y183681D01*
X202747Y183219D01*
X181500D01*
X179931Y182569D01*
X176615Y179253D01*
X175253D01*
X173874Y178681D01*
X172819Y177626D01*
X172247Y176247D01*
Y174753D01*
X172819Y173374D01*
X173874Y172319D01*
X175253Y171747D01*
X176746D01*
X178126Y172319D01*
X179181Y173374D01*
X179753Y174753D01*
Y176115D01*
X182419Y178781D01*
X202747D01*
X203209Y178319D01*
X204371Y177838D01*
X205024D01*
X215431Y167431D01*
X217000Y166781D01*
X269252D01*
X269831Y166202D01*
X271044Y165700D01*
X272356D01*
X273569Y166202D01*
X274498Y167131D01*
X275000Y168344D01*
Y169656D01*
X274498Y170869D01*
X273569Y171798D01*
X272356Y172300D01*
X271044D01*
X269831Y171798D01*
X269252Y171219D01*
X217919D01*
X208162Y180976D01*
Y181629D01*
X207681Y182791D01*
X206791Y183681D01*
X205629Y184162D01*
D02*
G37*
G36*
X628747Y171753D02*
X627253D01*
X625874Y171181D01*
X624819Y170126D01*
X624247Y168746D01*
Y167253D01*
X624819Y165874D01*
X625874Y164819D01*
X627253Y164247D01*
X628747D01*
X630126Y164819D01*
X631181Y165874D01*
X631753Y167253D01*
Y168746D01*
X631181Y170126D01*
X630126Y171181D01*
X628747Y171753D01*
D02*
G37*
G36*
X345247Y170253D02*
X343754D01*
X342374Y169681D01*
X341319Y168626D01*
X340747Y167246D01*
Y165753D01*
X341319Y164374D01*
X342374Y163319D01*
X343754Y162747D01*
X345247D01*
X346626Y163319D01*
X347681Y164374D01*
X348253Y165753D01*
Y167246D01*
X347681Y168626D01*
X346626Y169681D01*
X345247Y170253D01*
D02*
G37*
G36*
X318453Y166000D02*
X315000D01*
Y162547D01*
X315286D01*
X316739Y163149D01*
X317851Y164261D01*
X318453Y165714D01*
Y166000D01*
D02*
G37*
G36*
X314000D02*
X310547D01*
Y165714D01*
X311149Y164261D01*
X312261Y163149D01*
X313714Y162547D01*
X314000D01*
Y166000D01*
D02*
G37*
G36*
X628786Y161953D02*
X628500D01*
Y158500D01*
X631953D01*
Y158786D01*
X631351Y160239D01*
X630239Y161351D01*
X628786Y161953D01*
D02*
G37*
G36*
X627500D02*
X627214D01*
X625761Y161351D01*
X624649Y160239D01*
X624047Y158786D01*
Y158500D01*
X627500D01*
Y161953D01*
D02*
G37*
G36*
X406129Y164662D02*
X404871D01*
X403709Y164181D01*
X402819Y163291D01*
X402338Y162129D01*
Y160871D01*
X402819Y159709D01*
X403709Y158819D01*
X404871Y158338D01*
X406129D01*
X407291Y158819D01*
X408181Y159709D01*
X408662Y160871D01*
Y162129D01*
X408181Y163291D01*
X407291Y164181D01*
X406129Y164662D01*
D02*
G37*
G36*
X345247Y180253D02*
X343754D01*
X342374Y179681D01*
X341319Y178626D01*
X340747Y177246D01*
Y175753D01*
X341319Y174374D01*
X342374Y173319D01*
X343754Y172747D01*
X345115D01*
X357931Y159931D01*
X359500Y159281D01*
X395247D01*
X395709Y158819D01*
X396871Y158338D01*
X398129D01*
X399291Y158819D01*
X400181Y159709D01*
X400662Y160871D01*
Y162129D01*
X400181Y163291D01*
X399291Y164181D01*
X398129Y164662D01*
X396871D01*
X395709Y164181D01*
X395247Y163719D01*
X360419D01*
X348253Y175885D01*
Y177246D01*
X347681Y178626D01*
X346626Y179681D01*
X345247Y180253D01*
D02*
G37*
G36*
X345286Y160453D02*
X345000D01*
Y157000D01*
X348453D01*
Y157286D01*
X347851Y158739D01*
X346739Y159851D01*
X345286Y160453D01*
D02*
G37*
G36*
X344000D02*
X343714D01*
X342261Y159851D01*
X341149Y158739D01*
X340547Y157286D01*
Y157000D01*
X344000D01*
Y160453D01*
D02*
G37*
G36*
X486747Y184753D02*
X485253D01*
X483874Y184181D01*
X482819Y183126D01*
X482247Y181746D01*
Y180924D01*
X471123Y169800D01*
X424800D01*
X423805Y169602D01*
X422962Y169038D01*
X406423Y152500D01*
X346479D01*
X346379Y153000D01*
X346739Y153149D01*
X347851Y154261D01*
X348453Y155714D01*
Y156000D01*
X340547D01*
Y155714D01*
X341149Y154261D01*
X342261Y153149D01*
X342621Y153000D01*
X342521Y152500D01*
X322177D01*
X318253Y156424D01*
Y157246D01*
X317681Y158626D01*
X316626Y159681D01*
X315247Y160253D01*
X313754D01*
X312374Y159681D01*
X311319Y158626D01*
X310747Y157246D01*
Y156424D01*
X297323Y143000D01*
X182177D01*
X179753Y145424D01*
Y146247D01*
X179181Y147626D01*
X178126Y148681D01*
X176746Y149253D01*
X175253D01*
X173874Y148681D01*
X172819Y147626D01*
X172247Y146247D01*
Y144754D01*
X172819Y143374D01*
X173874Y142319D01*
X175253Y141747D01*
X176076D01*
X179262Y138562D01*
X180105Y137998D01*
X181100Y137800D01*
X298400D01*
X299395Y137998D01*
X300238Y138562D01*
X314424Y152747D01*
X314576D01*
X319262Y148062D01*
X320105Y147498D01*
X321100Y147300D01*
X407500D01*
X408495Y147498D01*
X409339Y148062D01*
X425877Y164600D01*
X472200D01*
X473195Y164798D01*
X474039Y165362D01*
X485924Y177247D01*
X486076D01*
X507162Y156162D01*
X508005Y155598D01*
X509000Y155400D01*
X595293D01*
X595874Y154819D01*
X597254Y154247D01*
X598746D01*
X600126Y154819D01*
X601181Y155874D01*
X601753Y157254D01*
Y158747D01*
X601181Y160126D01*
X600126Y161181D01*
X598746Y161753D01*
X597254D01*
X595874Y161181D01*
X595293Y160600D01*
X510077D01*
X489753Y180924D01*
Y181746D01*
X489181Y183126D01*
X488126Y184181D01*
X486747Y184753D01*
D02*
G37*
G36*
X458129Y157162D02*
X456871D01*
X455709Y156681D01*
X454819Y155791D01*
X454338Y154629D01*
Y153371D01*
X454819Y152209D01*
X455709Y151319D01*
X456871Y150838D01*
X458129D01*
X459291Y151319D01*
X460181Y152209D01*
X460662Y153371D01*
Y154629D01*
X460181Y155791D01*
X459291Y156681D01*
X458129Y157162D01*
D02*
G37*
G36*
X598746Y171753D02*
X597254D01*
X595874Y171181D01*
X594819Y170126D01*
X594247Y168746D01*
Y167253D01*
X594819Y165874D01*
X595874Y164819D01*
X597254Y164247D01*
X598615D01*
X612931Y149931D01*
X614500Y149281D01*
X614827D01*
X615094Y148781D01*
X615053Y148719D01*
X563810D01*
X563014Y149514D01*
X561707Y150056D01*
X560293D01*
X558986Y149514D01*
X557985Y148514D01*
X557444Y147207D01*
Y145793D01*
X557985Y144486D01*
X558986Y143485D01*
X560293Y142944D01*
X561707D01*
X563014Y143485D01*
X563810Y144281D01*
X615452D01*
X616031Y143702D01*
X617244Y143200D01*
X618556D01*
X619769Y143702D01*
X620698Y144631D01*
X621200Y145844D01*
Y147156D01*
X620698Y148369D01*
X620248Y148819D01*
X620439Y149281D01*
X653190D01*
X653986Y148486D01*
X655293Y147944D01*
X656099D01*
X656306Y147444D01*
X628418Y119556D01*
X627293D01*
X625986Y119015D01*
X624986Y118014D01*
X624444Y116707D01*
Y115582D01*
X609581Y100719D01*
X570153D01*
X570053Y101219D01*
X570686Y101481D01*
X581649Y112444D01*
X582774D01*
X584081Y112986D01*
X585081Y113986D01*
X585623Y115293D01*
Y116707D01*
X585081Y118014D01*
X584081Y119015D01*
X582774Y119556D01*
X581360D01*
X580053Y119015D01*
X579052Y118014D01*
X578511Y116707D01*
Y115582D01*
X568198Y105269D01*
X384936D01*
X374123Y116082D01*
Y117207D01*
X373582Y118514D01*
X372815Y119281D01*
X373022Y119781D01*
X387681D01*
X400831Y106631D01*
X402400Y105981D01*
X549133D01*
X550702Y106631D01*
X556515Y112444D01*
X557640D01*
X558947Y112986D01*
X559947Y113986D01*
X560489Y115293D01*
Y116707D01*
X559947Y118014D01*
X558947Y119015D01*
X557640Y119556D01*
X556226D01*
X556172Y119534D01*
X528556Y147149D01*
Y148274D01*
X528015Y149581D01*
X527014Y150582D01*
X525707Y151123D01*
X524293D01*
X522986Y150582D01*
X521985Y149581D01*
X521444Y148274D01*
Y146860D01*
X521985Y145553D01*
X522986Y144553D01*
X524293Y144011D01*
X525418D01*
X553377Y116052D01*
Y115582D01*
X548214Y110419D01*
X403319D01*
X390169Y123569D01*
X388600Y124219D01*
X345300D01*
X343731Y123569D01*
X331381Y111219D01*
X261344D01*
X261153Y111681D01*
X261181Y111709D01*
X261662Y112871D01*
Y114129D01*
X261181Y115291D01*
X260291Y116181D01*
X259129Y116662D01*
X258476D01*
X246369Y128769D01*
X244800Y129419D01*
X175219D01*
X159753Y144885D01*
Y146247D01*
X159181Y147626D01*
X158126Y148681D01*
X156746Y149253D01*
X155254D01*
X153874Y148681D01*
X152819Y147626D01*
X152247Y146247D01*
Y144754D01*
X152819Y143374D01*
X153874Y142319D01*
X155254Y141747D01*
X156615D01*
X172731Y125631D01*
X174300Y124981D01*
X198974D01*
X199074Y124481D01*
X198631Y124298D01*
X197702Y123369D01*
X197200Y122156D01*
Y120844D01*
X197702Y119631D01*
X198631Y118702D01*
X199844Y118200D01*
X201156D01*
X202369Y118702D01*
X202948Y119281D01*
X240381D01*
X252231Y107431D01*
X253800Y106781D01*
X332300D01*
X333869Y107431D01*
X346219Y119781D01*
X368112D01*
X368319Y119281D01*
X367552Y118514D01*
X367011Y117207D01*
Y115793D01*
X367552Y114486D01*
X368553Y113486D01*
X369860Y112944D01*
X370985D01*
X382448Y101481D01*
X384017Y100831D01*
X385511D01*
X385687Y100331D01*
X385200Y99156D01*
Y97844D01*
X385702Y96631D01*
X386631Y95702D01*
X387844Y95200D01*
X389156D01*
X390369Y95702D01*
X390948Y96281D01*
X610500D01*
X612069Y96931D01*
X627582Y112444D01*
X628707D01*
X630014Y112986D01*
X631014Y113986D01*
X631556Y115293D01*
Y116418D01*
X663919Y148781D01*
X681690D01*
X682486Y147985D01*
X683793Y147444D01*
X685207D01*
X686514Y147985D01*
X687514Y148986D01*
X688056Y150293D01*
Y151707D01*
X687514Y153014D01*
X686514Y154015D01*
X685207Y154556D01*
X683793D01*
X682486Y154015D01*
X681690Y153219D01*
X663000D01*
X661431Y152569D01*
X660056Y151194D01*
X659556Y151401D01*
Y152207D01*
X659015Y153514D01*
X658014Y154515D01*
X656707Y155056D01*
X655293D01*
X653986Y154515D01*
X653190Y153719D01*
X629300D01*
X629201Y154219D01*
X630239Y154649D01*
X631351Y155761D01*
X631953Y157214D01*
Y157500D01*
X624047D01*
Y157214D01*
X624649Y155761D01*
X625761Y154649D01*
X626799Y154219D01*
X626700Y153719D01*
X615419D01*
X601753Y167385D01*
Y168746D01*
X601181Y170126D01*
X600126Y171181D01*
X598746Y171753D01*
D02*
G37*
G36*
X286707Y154556D02*
X285293D01*
X283986Y154015D01*
X282985Y153014D01*
X282444Y151707D01*
Y150293D01*
X282985Y148986D01*
X283986Y147985D01*
X285293Y147444D01*
X286707D01*
X288014Y147985D01*
X289015Y148986D01*
X289556Y150293D01*
Y151707D01*
X289015Y153014D01*
X288014Y154015D01*
X286707Y154556D01*
D02*
G37*
G36*
X240774D02*
X239360D01*
X238053Y154015D01*
X237052Y153014D01*
X236511Y151707D01*
Y150293D01*
X237052Y148986D01*
X238053Y147985D01*
X239360Y147444D01*
X240774D01*
X242081Y147985D01*
X243081Y148986D01*
X243623Y150293D01*
Y151707D01*
X243081Y153014D01*
X242081Y154015D01*
X240774Y154556D01*
D02*
G37*
G36*
X205629Y152666D02*
X204371D01*
X203209Y152185D01*
X202319Y151295D01*
X201838Y150133D01*
Y148875D01*
X202319Y147713D01*
X203209Y146823D01*
X204371Y146342D01*
X205629D01*
X206791Y146823D01*
X207681Y147713D01*
X208162Y148875D01*
Y150133D01*
X207681Y151295D01*
X206791Y152185D01*
X205629Y152666D01*
D02*
G37*
G36*
X166786Y149453D02*
X166500D01*
Y146000D01*
X169953D01*
Y146286D01*
X169351Y147739D01*
X168239Y148851D01*
X166786Y149453D01*
D02*
G37*
G36*
X165500D02*
X165214D01*
X163761Y148851D01*
X162649Y147739D01*
X162047Y146286D01*
Y146000D01*
X165500D01*
Y149453D01*
D02*
G37*
G36*
X169953Y145000D02*
X166500D01*
Y141547D01*
X166786D01*
X168239Y142149D01*
X169351Y143261D01*
X169953Y144714D01*
Y145000D01*
D02*
G37*
G36*
X165500D02*
X162047D01*
Y144714D01*
X162649Y143261D01*
X163761Y142149D01*
X165214Y141547D01*
X165500D01*
Y145000D01*
D02*
G37*
G36*
X328680Y120756D02*
X328433D01*
Y117500D01*
X331689D01*
Y117747D01*
X331117Y119128D01*
X330061Y120184D01*
X328680Y120756D01*
D02*
G37*
G36*
X327433D02*
X327186D01*
X325805Y120184D01*
X324749Y119128D01*
X324177Y117747D01*
Y117500D01*
X327433D01*
Y120756D01*
D02*
G37*
G36*
X475854Y118362D02*
X475685D01*
Y115500D01*
X478547D01*
Y115669D01*
X478035Y116904D01*
X477090Y117850D01*
X475854Y118362D01*
D02*
G37*
G36*
X474685D02*
X474516D01*
X473280Y117850D01*
X472335Y116904D01*
X471823Y115669D01*
Y115500D01*
X474685D01*
Y118362D01*
D02*
G37*
G36*
X690140Y121556D02*
X688726D01*
X687419Y121014D01*
X686418Y120014D01*
X685877Y118707D01*
Y117293D01*
X686418Y115986D01*
X687419Y114986D01*
X688726Y114444D01*
X690140D01*
X691447Y114986D01*
X692448Y115986D01*
X692989Y117293D01*
Y118707D01*
X692448Y120014D01*
X691447Y121014D01*
X690140Y121556D01*
D02*
G37*
G36*
X644207D02*
X642793D01*
X641486Y121014D01*
X640485Y120014D01*
X639944Y118707D01*
Y117293D01*
X640485Y115986D01*
X641486Y114986D01*
X642793Y114444D01*
X644207D01*
X645514Y114986D01*
X646515Y115986D01*
X647056Y117293D01*
Y118707D01*
X646515Y120014D01*
X645514Y121014D01*
X644207Y121556D01*
D02*
G37*
G36*
X282707Y120556D02*
X281293D01*
X279986Y120015D01*
X278986Y119014D01*
X278444Y117707D01*
Y116293D01*
X278986Y114986D01*
X279986Y113986D01*
X281293Y113444D01*
X282707D01*
X284014Y113986D01*
X285015Y114986D01*
X285556Y116293D01*
Y117707D01*
X285015Y119014D01*
X284014Y120015D01*
X282707Y120556D01*
D02*
G37*
G36*
X331689Y116500D02*
X328433D01*
Y113244D01*
X328680D01*
X330061Y113816D01*
X331117Y114873D01*
X331689Y116253D01*
Y116500D01*
D02*
G37*
G36*
X327433D02*
X324177D01*
Y116253D01*
X324749Y114873D01*
X325805Y113816D01*
X327186Y113244D01*
X327433D01*
Y116500D01*
D02*
G37*
G36*
X417207Y120056D02*
X415793D01*
X414486Y119515D01*
X413485Y118514D01*
X412944Y117207D01*
Y115793D01*
X413485Y114486D01*
X414486Y113486D01*
X415793Y112944D01*
X417207D01*
X418514Y113486D01*
X419515Y114486D01*
X420056Y115793D01*
Y117207D01*
X419515Y118514D01*
X418514Y119515D01*
X417207Y120056D01*
D02*
G37*
G36*
X477814Y157162D02*
X476556D01*
X475394Y156681D01*
X474504Y155791D01*
X474023Y154629D01*
Y153371D01*
X474504Y152209D01*
X474966Y151747D01*
Y149815D01*
X475616Y148246D01*
X507444Y116418D01*
Y115293D01*
X507985Y113986D01*
X508986Y112986D01*
X510293Y112444D01*
X511707D01*
X513014Y112986D01*
X514014Y113986D01*
X514556Y115293D01*
Y116707D01*
X514014Y118014D01*
X513014Y119015D01*
X511707Y119556D01*
X510582D01*
X479404Y150734D01*
Y151747D01*
X479866Y152209D01*
X480347Y153371D01*
Y154629D01*
X479866Y155791D01*
X478976Y156681D01*
X477814Y157162D01*
D02*
G37*
G36*
X117774Y119056D02*
X116360D01*
X115053Y118515D01*
X114052Y117514D01*
X113511Y116207D01*
Y114793D01*
X114052Y113486D01*
X115053Y112486D01*
X116360Y111944D01*
X117774D01*
X119081Y112486D01*
X120081Y113486D01*
X120623Y114793D01*
Y116207D01*
X120081Y117514D01*
X119081Y118515D01*
X117774Y119056D01*
D02*
G37*
G36*
X456129Y118162D02*
X454871D01*
X453709Y117681D01*
X452819Y116791D01*
X452338Y115629D01*
Y114371D01*
X452819Y113209D01*
X453709Y112319D01*
X454871Y111838D01*
X456129D01*
X457291Y112319D01*
X458181Y113209D01*
X458662Y114371D01*
Y115629D01*
X458181Y116791D01*
X457291Y117681D01*
X456129Y118162D01*
D02*
G37*
G36*
X478547Y114500D02*
X475685D01*
Y111638D01*
X475854D01*
X477090Y112150D01*
X478035Y113095D01*
X478547Y114331D01*
Y114500D01*
D02*
G37*
G36*
X474685D02*
X471823D01*
Y114331D01*
X472335Y113095D01*
X473280Y112150D01*
X474516Y111638D01*
X474685D01*
Y114500D01*
D02*
G37*
G36*
X149753Y149253D02*
X142247D01*
Y141747D01*
X146615D01*
X152981Y135381D01*
Y111100D01*
X153277Y110387D01*
X153518Y109653D01*
X153597Y109613D01*
X153631Y109531D01*
X154344Y109236D01*
X155034Y108887D01*
X176334Y107287D01*
X176418Y107315D01*
X176500Y107281D01*
X177213Y107577D01*
X177947Y107818D01*
X177987Y107897D01*
X178069Y107931D01*
X180976Y110838D01*
X181024D01*
X184331Y107531D01*
X185900Y106881D01*
X234415D01*
X235984Y107531D01*
X238791Y110338D01*
X239444D01*
X240606Y110819D01*
X241496Y111709D01*
X241977Y112871D01*
Y114129D01*
X241496Y115291D01*
X240606Y116181D01*
X239444Y116662D01*
X238186D01*
X237024Y116181D01*
X236134Y115291D01*
X235653Y114129D01*
Y113476D01*
X233496Y111319D01*
X214994D01*
X214787Y111819D01*
X215177Y112209D01*
X215658Y113371D01*
Y114629D01*
X215177Y115791D01*
X214287Y116681D01*
X213125Y117162D01*
X211867D01*
X210705Y116681D01*
X210243Y116219D01*
X200019D01*
X195769Y120469D01*
X194200Y121119D01*
X166400D01*
X164831Y120469D01*
X163418Y119056D01*
X162293D01*
X160986Y118515D01*
X159985Y117514D01*
X159444Y116207D01*
Y114793D01*
X159985Y113486D01*
X160039Y113432D01*
X159831Y112977D01*
X157419Y113159D01*
Y136300D01*
X156769Y137869D01*
X149753Y144885D01*
Y149253D01*
D02*
G37*
%LPD*%
D22*
X388500Y98500D02*
X610500D01*
X628000Y116000D01*
X384017Y103050D02*
X569117D01*
X582067Y116000D01*
X370567Y116500D02*
X384017Y103050D01*
X327204Y222800D02*
X352504Y197500D01*
X322504Y227500D02*
X327204Y222800D01*
X289637Y472237D02*
X378200D01*
X146000Y145500D02*
X155200Y136300D01*
Y111100D02*
Y136300D01*
Y111100D02*
X176500Y109500D01*
X181000Y114000D01*
X185900Y109100D01*
X234415D01*
X238815Y113500D01*
X199100Y114000D02*
X212496D01*
X194200Y118900D02*
X199100Y114000D01*
X166400Y118900D02*
X194200D01*
X163000Y115500D02*
X166400Y118900D01*
X364000Y237500D02*
X384000D01*
X354000Y227500D02*
X364000Y237500D01*
X327204Y222800D02*
X439700D01*
X446800Y229900D01*
Y254700D01*
X433500Y268000D02*
X446800Y254700D01*
X249000Y279500D02*
X255197D01*
X273500Y261197D01*
X276803D01*
X310500Y227500D01*
X322504D01*
X352504Y197500D02*
X373000D01*
X369900Y467400D02*
X530000D01*
X547200Y484600D01*
X575400D01*
X585600Y474400D01*
X670400D01*
X675500Y479500D01*
X359500Y161500D02*
X397500D01*
X344500Y176500D02*
X359500Y161500D01*
X279000Y279500D02*
X306600D01*
X325700Y260400D01*
X614500Y429000D02*
X627600Y442100D01*
X520400Y429000D02*
X614500D01*
X456000Y181000D02*
X472300Y197300D01*
X507500D01*
X466000Y211000D02*
X471003Y205997D01*
X491000D01*
X499700Y214697D01*
Y217897D01*
X561500Y479500D02*
X582000Y459000D01*
X689000D01*
X542500Y268500D02*
X608500D01*
X517900Y474400D02*
X523000Y479500D01*
X381992Y474400D02*
X517900D01*
X381079Y473487D02*
X381992Y474400D01*
X379687Y473487D02*
X381079D01*
X378200Y472000D02*
X379687Y473487D01*
X378200Y472000D02*
Y472237D01*
X462000Y233500D02*
X483900Y255400D01*
X552900D01*
X563900Y244400D01*
X586704Y300700D02*
X594504Y308500D01*
X530867Y300700D02*
X586704D01*
X525567Y306000D02*
X530867Y300700D01*
X454933Y298500D02*
X456504D01*
X429433Y324000D02*
X454933Y298500D01*
X474088Y489912D02*
X484500Y479500D01*
X372112Y489912D02*
X474088D01*
X362300Y480100D02*
X372112Y489912D01*
X594106Y451933D02*
X632500D01*
X588800Y446627D02*
X594106Y451933D01*
X574073Y446627D02*
X588800D01*
X557900Y462800D02*
X574073Y446627D01*
X354000Y462800D02*
X557900D01*
X353900Y462900D02*
X354000Y462800D01*
X521000Y359000D02*
X525500Y363500D01*
X515200Y359000D02*
X521000D01*
X513000Y361200D02*
X515200Y359000D01*
X513000Y361200D02*
Y367900D01*
X550600Y405500D01*
X586500D01*
X465433Y407500D02*
X480433Y422500D01*
X483000D01*
X433700Y445800D02*
X436500Y443000D01*
X383900Y445800D02*
X433700D01*
X373200Y435100D02*
X383900Y445800D01*
X352315Y435100D02*
X373200D01*
X328700Y443200D02*
X333000Y447500D01*
X262800Y443200D02*
X328700D01*
X257500Y448500D02*
X262800Y443200D01*
X177067Y364567D02*
X225500D01*
X311400Y302600D02*
X334300D01*
X364100Y332400D01*
X478400D01*
X486800Y340800D01*
X622200D01*
X625200Y343800D01*
Y374600D01*
X643300Y392700D01*
X640500Y406000D02*
X689500Y357000D01*
X632500Y406000D02*
X640500D01*
X551500Y479500D02*
X579567Y451433D01*
X586500D01*
X499288Y493212D02*
X513000Y479500D01*
X320279Y493212D02*
X499288D01*
X311567Y484500D02*
X320279Y493212D01*
X307000Y364000D02*
X326800Y383800D01*
X464800D01*
X487800Y406800D01*
X286700Y384300D02*
X307000Y364000D01*
X171600Y433900D02*
X286700D01*
X168000Y437500D02*
X171600Y433900D01*
X217533Y179067D02*
X289500D01*
X203600Y193000D02*
X217533Y179067D01*
X121000Y193000D02*
X203600D01*
X292067Y176500D02*
X314500D01*
X289500Y179067D02*
X292067Y176500D01*
X556567Y116000D02*
X556933D01*
X525000Y147567D02*
X556567Y116000D01*
X190500Y313200D02*
X227800D01*
X246700Y332100D01*
X336900D01*
X303433Y448500D02*
X307333Y452400D01*
X353167D01*
X365067Y440500D01*
X677833Y329100D02*
X682500Y324433D01*
X603300Y329100D02*
X677833D01*
X244800Y127200D02*
X258500Y113500D01*
X174300Y127200D02*
X244800D01*
X156000Y145500D02*
X174300Y127200D01*
X200500Y121500D02*
X241300D01*
X253800Y109000D01*
X332300D01*
X345300Y122000D01*
X388600D01*
X402400Y108200D01*
X549133D01*
X556933Y116000D01*
X380433Y374500D02*
X427000D01*
X376433Y378500D02*
X380433Y374500D01*
X608100Y198500D02*
X611200Y195400D01*
X522200Y198500D02*
X608100D01*
X516100Y192400D02*
X522200Y198500D01*
X477400Y192400D02*
X516100D01*
X466000Y181000D02*
X477400Y192400D01*
X344300Y283100D02*
X361500D01*
X407500Y329100D01*
X545533D01*
X552000Y335567D01*
X183500Y260500D02*
X223300Y300300D01*
X234600D01*
X261300Y327000D01*
X330500D01*
X674347Y446653D02*
X684500Y436500D01*
X596200Y446653D02*
X674347D01*
X592875Y443327D02*
X596200Y446653D01*
X566950Y443327D02*
X592875D01*
X551952Y458324D02*
X566950Y443327D01*
X351335Y458324D02*
X551952D01*
X350844Y458815D02*
X351335Y458324D01*
X238685Y458815D02*
X350844D01*
X423288Y477788D02*
X425500Y480000D01*
X367881Y477788D02*
X423288D01*
X365643Y475550D02*
X367881Y477788D01*
X360000Y475550D02*
X365643D01*
X357500Y478050D02*
X360000Y475550D01*
X357500Y478050D02*
Y484500D01*
X320500Y276000D02*
X475000D01*
X489000Y262000D01*
X562000D01*
X573500Y250500D01*
X425500Y268000D02*
X430000Y272500D01*
X460700D01*
X474500Y258700D01*
X556650D01*
X572750Y242600D01*
X689433D01*
X279000Y269500D02*
X292185Y256315D01*
X320500D01*
X249000Y289500D02*
X263997D01*
X273997Y279500D01*
Y265600D02*
Y279500D01*
Y265600D02*
X275100Y264497D01*
X278703D01*
X294200Y249000D01*
X403996D01*
X415496Y237500D01*
X185100Y334500D02*
X208433D01*
X120500Y399100D02*
X185100Y334500D01*
X120500Y399100D02*
Y410500D01*
X416900Y397700D02*
X440100D01*
X405600Y409000D02*
X416900Y397700D01*
X372000Y409000D02*
X405600D01*
X593500Y392000D02*
X617000Y368500D01*
X546000Y392000D02*
X593500D01*
X517500Y363500D02*
X546000Y392000D01*
X599500Y479500D02*
X605300Y485300D01*
X660400D01*
X176067Y235500D02*
X230500D01*
X161500Y250067D02*
X176067Y235500D01*
X202500Y241500D02*
X273000D01*
X289500Y225000D01*
X217000Y169000D02*
X271700D01*
X205000Y181000D02*
X217000Y169000D01*
X561000Y146500D02*
X617900D01*
X431600Y407500D02*
X465433D01*
X427000Y402900D02*
X431600Y407500D01*
X477185Y149815D02*
X511000Y116000D01*
X477185Y149815D02*
Y154000D01*
X225500Y410500D02*
X242815Y427815D01*
X333000D01*
X298500Y415000D02*
X385500D01*
X411000Y440500D01*
X137000Y356000D02*
X141000D01*
X162500Y334500D01*
X121000Y147067D02*
X127567D01*
X156000Y175500D01*
X628000Y116000D02*
X663000Y151000D01*
X684500D01*
X368685Y267000D02*
X408815D01*
X442315Y233500D01*
X163500Y390000D02*
X184000Y410500D01*
X225500D01*
X230100Y448500D02*
X257500D01*
X209100Y469500D02*
X230100Y448500D01*
X160433Y469500D02*
X209100D01*
X146000Y483933D02*
X160433Y469500D01*
X614500Y151500D02*
X656000D01*
X598000Y168000D02*
X614500Y151500D01*
X540500Y178000D02*
X598000D01*
X525000Y193500D02*
X540500Y178000D01*
X488000Y298500D02*
X502200Y284300D01*
X566700D01*
X572000Y279000D01*
X495924Y306000D02*
X525567D01*
X495712Y306212D02*
X495924Y306000D01*
X464216Y306212D02*
X495712D01*
X456504Y298500D02*
X464216Y306212D01*
X399000Y287500D02*
X470200D01*
X485612Y302912D01*
X492400D01*
X499112Y296200D01*
X624267D01*
X652000Y323933D01*
X181500Y181000D02*
X205000D01*
X176000Y175500D02*
X181500Y181000D01*
X501933Y267500D02*
X508333Y273900D01*
X647900D01*
X652000Y278000D01*
X265800Y491200D02*
X280500Y476500D01*
X175767Y491200D02*
X265800D01*
X168000Y483433D02*
X175767Y491200D01*
X555000Y378500D02*
X587000D01*
X552000Y381500D02*
X555000Y378500D01*
X411000Y440500D02*
X418100Y433400D01*
X474215D01*
X483000Y442185D01*
X532500Y417000D02*
X542500D01*
X156000Y175500D02*
X166000D01*
D23*
X286874Y237420D02*
X293580D01*
X472200Y167200D02*
X486000Y181000D01*
X424800Y167200D02*
X472200D01*
X407500Y149900D02*
X424800Y167200D01*
X321100Y149900D02*
X407500D01*
X314500Y156500D02*
X321100Y149900D01*
X487100Y348500D02*
X587000D01*
X476312Y337712D02*
X487100Y348500D01*
X433788Y337712D02*
X476312D01*
X427000Y344500D02*
X433788Y337712D01*
X140027Y237000D02*
X150500D01*
X160100Y227400D01*
X231300Y251800D02*
X249000Y269500D01*
X168373Y251800D02*
X231300D01*
X164800Y255373D02*
X168373Y251800D01*
X158400Y255373D02*
X164800D01*
X140027Y237000D02*
X158400Y255373D01*
X121000Y237000D02*
X140027D01*
X254794Y269500D02*
X286874Y237420D01*
X289700Y238500D01*
X249000Y269500D02*
X254794D01*
X293580Y237420D02*
X344500Y186500D01*
X277000Y354000D02*
X293300Y337700D01*
X420200D01*
X427000Y344500D01*
X307000Y384000D02*
X311900Y388900D01*
X454700D01*
X613500Y202500D02*
X628000Y188000D01*
X495106Y202500D02*
X613500D01*
X494803Y202197D02*
X495106Y202500D01*
X464803Y202197D02*
X494803D01*
X456000Y211000D02*
X464803Y202197D01*
X457000Y374500D02*
X510000D01*
X552500Y417000D01*
X617000Y378500D02*
Y414400D01*
X614400Y417000D02*
X617000Y414400D01*
X552500Y417000D02*
X614400D01*
X431500Y186500D02*
X456000Y211000D01*
X344500Y186500D02*
X431500D01*
X486000Y181000D02*
X509000Y158000D01*
X598000D01*
X179500Y354000D02*
X277000D01*
X163500Y370000D02*
X179500Y354000D01*
X193500Y400000D02*
X291000D01*
X307000Y384000D01*
X298400Y140400D02*
X314500Y156500D01*
X181100Y140400D02*
X298400D01*
X176000Y145500D02*
X181100Y140400D01*
D24*
X532500Y447000D02*
D03*
X542500D02*
D03*
X522500Y417000D02*
D03*
X156000Y145500D02*
D03*
X166000D02*
D03*
X176000D02*
D03*
X146000Y175500D02*
D03*
X156000D02*
D03*
X166000D02*
D03*
X176000D02*
D03*
X279000Y279500D02*
D03*
Y289500D02*
D03*
Y299500D02*
D03*
X249000Y269500D02*
D03*
Y279500D02*
D03*
Y289500D02*
D03*
Y299500D02*
D03*
X587000Y368500D02*
D03*
Y358500D02*
D03*
Y348500D02*
D03*
X617000Y378500D02*
D03*
Y368500D02*
D03*
Y358500D02*
D03*
Y348500D02*
D03*
X427000Y364500D02*
D03*
Y354500D02*
D03*
Y344500D02*
D03*
X457000Y374500D02*
D03*
Y364500D02*
D03*
Y354500D02*
D03*
Y344500D02*
D03*
X163500Y390000D02*
D03*
Y380000D02*
D03*
Y370000D02*
D03*
X193500Y400000D02*
D03*
Y390000D02*
D03*
Y380000D02*
D03*
Y370000D02*
D03*
X522500Y447000D02*
D03*
X552500Y417000D02*
D03*
X542500D02*
D03*
X532500D02*
D03*
X314500Y176500D02*
D03*
Y166500D02*
D03*
Y156500D02*
D03*
X344500Y186500D02*
D03*
Y176500D02*
D03*
Y166500D02*
D03*
Y156500D02*
D03*
X466000Y181000D02*
D03*
X476000D02*
D03*
X486000D02*
D03*
X456000Y211000D02*
D03*
X466000D02*
D03*
X476000D02*
D03*
X486000D02*
D03*
X277000Y374000D02*
D03*
Y364000D02*
D03*
Y354000D02*
D03*
X307000Y384000D02*
D03*
Y374000D02*
D03*
Y364000D02*
D03*
Y354000D02*
D03*
X598000Y178000D02*
D03*
Y168000D02*
D03*
Y158000D02*
D03*
X628000Y188000D02*
D03*
Y178000D02*
D03*
Y168000D02*
D03*
Y158000D02*
D03*
D25*
X552500Y447000D02*
D03*
X146000Y145500D02*
D03*
X456000Y181000D02*
D03*
D26*
X199315Y458815D02*
D03*
X238685D02*
D03*
X219000Y478500D02*
D03*
D27*
X279000Y269500D02*
D03*
X587000Y378500D02*
D03*
X427000Y374500D02*
D03*
X163500Y400000D02*
D03*
X314500Y186500D02*
D03*
X277000Y384000D02*
D03*
X598000Y188000D02*
D03*
D28*
X455500Y115000D02*
D03*
X475185D02*
D03*
X181000Y114000D02*
D03*
X212496D02*
D03*
X205000Y149504D02*
D03*
Y181000D02*
D03*
X261500Y228500D02*
D03*
Y197004D02*
D03*
X354000Y227500D02*
D03*
X322504D02*
D03*
X384000Y237500D02*
D03*
X415496D02*
D03*
X594504Y308500D02*
D03*
X626000D02*
D03*
X456504Y298500D02*
D03*
X488000D02*
D03*
X210500Y300000D02*
D03*
X202500D02*
D03*
X397500Y161500D02*
D03*
X405500D02*
D03*
X425500Y268000D02*
D03*
X433500D02*
D03*
X507500Y226000D02*
D03*
X515500D02*
D03*
X681500Y238000D02*
D03*
X673500D02*
D03*
X676500Y393000D02*
D03*
X684500D02*
D03*
X616500Y268500D02*
D03*
X608500D02*
D03*
X676500Y436500D02*
D03*
X684500D02*
D03*
X399000Y287500D02*
D03*
X391000D02*
D03*
X297000Y319500D02*
D03*
X305000D02*
D03*
X525500Y363500D02*
D03*
X517500D02*
D03*
X433500Y480000D02*
D03*
X425500D02*
D03*
X280500Y476500D02*
D03*
X272500D02*
D03*
X238815Y113500D02*
D03*
X258500D02*
D03*
X320500Y256315D02*
D03*
Y276000D02*
D03*
X457500Y154000D02*
D03*
X477185D02*
D03*
X462000Y233500D02*
D03*
X442315D02*
D03*
X349000Y267000D02*
D03*
X368685D02*
D03*
X483000Y422500D02*
D03*
Y442185D02*
D03*
X456185Y443000D02*
D03*
X436500D02*
D03*
X382815Y485500D02*
D03*
X402500D02*
D03*
X372000Y409000D02*
D03*
X352315D02*
D03*
X253500Y327000D02*
D03*
Y346685D02*
D03*
X137000Y356000D02*
D03*
X117315D02*
D03*
X333000Y427815D02*
D03*
Y447500D02*
D03*
X120500Y410500D02*
D03*
Y390815D02*
D03*
D29*
X121000Y257000D02*
D03*
Y247000D02*
D03*
Y237000D02*
D03*
X685500Y479500D02*
D03*
X675500D02*
D03*
X665500D02*
D03*
X627500D02*
D03*
X637500D02*
D03*
X647500D02*
D03*
X609500D02*
D03*
X599500D02*
D03*
X589500D02*
D03*
X571500D02*
D03*
X561500D02*
D03*
X551500D02*
D03*
X533000D02*
D03*
X523000D02*
D03*
X513000D02*
D03*
X474500D02*
D03*
X484500D02*
D03*
X494500D02*
D03*
X699500Y493000D02*
D03*
X697000Y94000D02*
D03*
X106000Y94500D02*
D03*
X105000Y494500D02*
D03*
D30*
X289500Y179067D02*
D03*
Y225000D02*
D03*
X230500Y235500D02*
D03*
Y189567D02*
D03*
X282000Y117000D02*
D03*
X327933D02*
D03*
X190500Y217000D02*
D03*
X144567D02*
D03*
X161500Y250067D02*
D03*
Y296000D02*
D03*
X121000Y147067D02*
D03*
Y193000D02*
D03*
X240067Y151000D02*
D03*
X286000D02*
D03*
X163000Y115500D02*
D03*
X117067D02*
D03*
X416500Y116500D02*
D03*
X370567D02*
D03*
X456000Y267500D02*
D03*
X501933D02*
D03*
X418933Y197500D02*
D03*
X373000D02*
D03*
X556933Y116000D02*
D03*
X511000D02*
D03*
X525000Y193500D02*
D03*
Y147567D02*
D03*
X582067Y116000D02*
D03*
X628000D02*
D03*
X689433Y118000D02*
D03*
X643500D02*
D03*
X527567Y250500D02*
D03*
X573500D02*
D03*
X561000Y192433D02*
D03*
Y146500D02*
D03*
X684500Y196933D02*
D03*
Y151000D02*
D03*
X682500Y278500D02*
D03*
Y324433D02*
D03*
X643567Y357000D02*
D03*
X689500D02*
D03*
X634500Y229000D02*
D03*
X588567D02*
D03*
X656000Y197433D02*
D03*
Y151500D02*
D03*
X652000Y323933D02*
D03*
Y278000D02*
D03*
X552000Y335567D02*
D03*
Y381500D02*
D03*
X632500Y451933D02*
D03*
Y406000D02*
D03*
X572000Y279000D02*
D03*
X526067D02*
D03*
X345000Y345000D02*
D03*
Y299067D02*
D03*
X571500Y306000D02*
D03*
X525567D02*
D03*
X586500Y405500D02*
D03*
Y451433D02*
D03*
X395500Y350067D02*
D03*
Y396000D02*
D03*
X383500Y324000D02*
D03*
X429433D02*
D03*
X419500Y407500D02*
D03*
X465433D02*
D03*
X487500Y334567D02*
D03*
Y380500D02*
D03*
X365067Y440500D02*
D03*
X411000D02*
D03*
X376433Y378500D02*
D03*
X330500D02*
D03*
X357500Y484500D02*
D03*
X311567D02*
D03*
X252567Y415000D02*
D03*
X298500D02*
D03*
X229433Y260500D02*
D03*
X183500D02*
D03*
X225500Y410500D02*
D03*
Y364567D02*
D03*
X208433Y334500D02*
D03*
X162500D02*
D03*
X303433Y448500D02*
D03*
X257500D02*
D03*
X121500Y288067D02*
D03*
Y334000D02*
D03*
X168000Y483433D02*
D03*
Y437500D02*
D03*
X146000Y438000D02*
D03*
Y483933D02*
D03*
X122000D02*
D03*
Y438000D02*
D03*
D31*
X137000Y288000D02*
D03*
X388500Y98500D02*
D03*
X369900Y467400D02*
D03*
X325700Y260400D02*
D03*
X627600Y442100D02*
D03*
X520400Y429000D02*
D03*
X507500Y197300D02*
D03*
X499700Y217897D02*
D03*
X689000Y459000D02*
D03*
X542500Y268500D02*
D03*
X289637Y472237D02*
D03*
X378200Y472000D02*
D03*
X563900Y244400D02*
D03*
X362300Y480100D02*
D03*
X353900Y462900D02*
D03*
X352315Y435100D02*
D03*
X177067Y364567D02*
D03*
X311400Y302600D02*
D03*
X643300Y392700D02*
D03*
X487800Y406800D02*
D03*
X286700Y384300D02*
D03*
Y433900D02*
D03*
X190500Y313200D02*
D03*
X336900Y332100D02*
D03*
X603300Y329100D02*
D03*
X160100Y227400D02*
D03*
X289700Y238500D02*
D03*
X200500Y121500D02*
D03*
X454700Y388900D02*
D03*
X611200Y195400D02*
D03*
X344300Y283100D02*
D03*
X330500Y327000D02*
D03*
X689433Y242600D02*
D03*
X440100Y397700D02*
D03*
X660400Y485300D02*
D03*
X202500Y241500D02*
D03*
X271700Y169000D02*
D03*
X617900Y146500D02*
D03*
X427000Y402900D02*
D03*
M02*
