G04*
G04 #@! TF.GenerationSoftware,Altium Limited,Altium Designer,22.4.2 (48)*
G04*
G04 Layer_Color=65535*
%FSLAX25Y25*%
%MOIN*%
G70*
G04*
G04 #@! TF.SameCoordinates,9D7DA267-A193-428E-9E10-CD2539F38239*
G04*
G04*
G04 #@! TF.FilePolarity,Positive*
G04*
G01*
G75*
%ADD10C,0.00787*%
%ADD11C,0.00984*%
%ADD12C,0.02362*%
%ADD13C,0.01000*%
D10*
X140921Y158000D02*
G03*
X140921Y163000I0J2500D01*
G01*
X266500Y264421D02*
G03*
X261500Y264421I-2500J0D01*
G01*
X599500Y383579D02*
G03*
X604500Y383579I2500J0D01*
G01*
X439500Y379579D02*
G03*
X444500Y379579I2500J0D01*
G01*
X176000Y405079D02*
G03*
X181000Y405079I2500J0D01*
G01*
X557579Y434500D02*
G03*
X557579Y429500I0J-2500D01*
G01*
X327000Y191579D02*
G03*
X332000Y191579I2500J0D01*
G01*
X450921Y193500D02*
G03*
X450921Y198500I0J2500D01*
G01*
X289500Y389079D02*
G03*
X294500Y389079I2500J0D01*
G01*
X610500Y193079D02*
G03*
X615500Y193079I2500J0D01*
G01*
X129000Y247000D02*
G03*
X129000Y247000I-1000J0D01*
G01*
X216250Y300000D02*
G03*
X216250Y300000I-9750J0D01*
G01*
X411250Y161500D02*
G03*
X411250Y161500I-9750J0D01*
G01*
X439250Y268000D02*
G03*
X439250Y268000I-9750J0D01*
G01*
X521250Y226000D02*
G03*
X521250Y226000I-9750J0D01*
G01*
X687250Y238000D02*
G03*
X687250Y238000I-9750J0D01*
G01*
X690250Y393000D02*
G03*
X690250Y393000I-9750J0D01*
G01*
X622250Y268500D02*
G03*
X622250Y268500I-9750J0D01*
G01*
X690250Y436500D02*
G03*
X690250Y436500I-9750J0D01*
G01*
X404750Y287500D02*
G03*
X404750Y287500I-9750J0D01*
G01*
X310750Y319500D02*
G03*
X310750Y319500I-9750J0D01*
G01*
X531250Y363500D02*
G03*
X531250Y363500I-9750J0D01*
G01*
X439250Y480000D02*
G03*
X439250Y480000I-9750J0D01*
G01*
X286250Y476500D02*
G03*
X286250Y476500I-9750J0D01*
G01*
X247000Y442500D02*
Y449500D01*
X190000Y442500D02*
X247000D01*
X190000D02*
Y491500D01*
X247000D01*
Y449500D02*
Y491500D01*
X140921Y150067D02*
X181079D01*
X140921Y170933D02*
X181079D01*
X140921Y150067D02*
Y158000D01*
Y163000D02*
Y170933D01*
X181079Y150067D02*
Y170933D01*
X274433Y264421D02*
Y304579D01*
X253567Y264421D02*
Y304579D01*
X266500Y264421D02*
X274433D01*
X253567D02*
X261500D01*
X253567Y304579D02*
X274433D01*
X591567Y343421D02*
Y383579D01*
X612433Y343421D02*
Y383579D01*
X591567D02*
X599500D01*
X604500D02*
X612433D01*
X591567Y343421D02*
X612433D01*
X431567Y339421D02*
Y379579D01*
X452433Y339421D02*
Y379579D01*
X431567D02*
X439500D01*
X444500D02*
X452433D01*
X431567Y339421D02*
X452433D01*
X168067Y364921D02*
Y405079D01*
X188933Y364921D02*
Y405079D01*
X168067D02*
X176000D01*
X181000D02*
X188933D01*
X168067Y364921D02*
X188933D01*
X517421Y442433D02*
X557579D01*
X517421Y421567D02*
X557579D01*
Y434500D02*
Y442433D01*
Y421567D02*
Y429500D01*
X517421Y421567D02*
Y442433D01*
X450185Y111000D02*
X480685D01*
Y119000D01*
X450185D02*
X480685D01*
X450185Y111000D02*
Y119000D01*
X319067Y151421D02*
Y191579D01*
X339933Y151421D02*
Y191579D01*
X319067D02*
X327000D01*
X332000D02*
X339933D01*
X319067Y151421D02*
X339933D01*
X450921Y185567D02*
X491079D01*
X450921Y206433D02*
X491079D01*
X450921Y185567D02*
Y193500D01*
Y198500D02*
Y206433D01*
X491079Y185567D02*
Y206433D01*
X281567Y348921D02*
Y389079D01*
X302433Y348921D02*
Y389079D01*
X281567D02*
X289500D01*
X294500D02*
X302433D01*
X281567Y348921D02*
X302433D01*
X602567Y152921D02*
Y193079D01*
X623433Y152921D02*
Y193079D01*
X602567D02*
X610500D01*
X615500D02*
X623433D01*
X602567Y152921D02*
X623433D01*
X116000Y231000D02*
X126000D01*
Y263000D01*
X116000D02*
X126000D01*
X116000Y231000D02*
Y263000D01*
X127000Y237000D02*
X129000D01*
X128000Y236000D02*
Y238000D01*
Y256000D02*
Y258000D01*
X218000Y110000D02*
Y118000D01*
X175500Y110000D02*
X218000D01*
X175500D02*
Y118000D01*
X218000D01*
X201000Y186504D02*
X209000D01*
Y144004D02*
Y186504D01*
X201000Y144004D02*
X209000D01*
X201000D02*
Y186504D01*
X257500Y191500D02*
X265500D01*
X257500D02*
Y234000D01*
X265500D01*
Y191500D02*
Y234000D01*
X317000Y223500D02*
Y231500D01*
X359500D01*
Y223500D02*
Y231500D01*
X317000Y223500D02*
X359500D01*
X421000Y233500D02*
Y241500D01*
X378500Y233500D02*
X421000D01*
X378500D02*
Y241500D01*
X421000D01*
X631504Y304500D02*
Y312500D01*
X589004Y304500D02*
X631504D01*
X589004D02*
Y312500D01*
X631504D01*
X493504Y294500D02*
Y302500D01*
X451004Y294500D02*
X493504D01*
X451004D02*
Y302500D01*
X493504D01*
X285500Y194323D02*
X289500D01*
X285500D02*
Y209744D01*
X293500D01*
Y194323D02*
Y209744D01*
X289500Y194323D02*
X293500D01*
X289500Y209744D02*
Y219488D01*
Y184579D02*
Y194323D01*
X230500Y220244D02*
X234500D01*
Y204823D02*
Y220244D01*
X226500Y204823D02*
X234500D01*
X226500D02*
Y220244D01*
X230500D01*
Y195079D02*
Y204823D01*
Y220244D02*
Y229988D01*
X297256Y117000D02*
Y121000D01*
X312677D01*
Y113000D02*
Y121000D01*
X297256Y113000D02*
X312677D01*
X297256D02*
Y117000D01*
X312677D02*
X322421D01*
X287512D02*
X297256D01*
X175244Y213000D02*
Y217000D01*
X159823Y213000D02*
X175244D01*
X159823D02*
Y221000D01*
X175244D01*
Y217000D02*
Y221000D01*
X150079Y217000D02*
X159823D01*
X175244D02*
X184988D01*
X157500Y265323D02*
X161500D01*
X157500D02*
Y280744D01*
X165500D01*
Y265323D02*
Y280744D01*
X161500Y265323D02*
X165500D01*
X161500Y280744D02*
Y290488D01*
Y255579D02*
Y265323D01*
X117000Y162323D02*
X121000D01*
X117000D02*
Y177744D01*
X125000D01*
Y162323D02*
Y177744D01*
X121000Y162323D02*
X125000D01*
X121000Y177744D02*
Y187488D01*
Y152579D02*
Y162323D01*
X255323Y151000D02*
Y155000D01*
X270744D01*
Y147000D02*
Y155000D01*
X255323Y147000D02*
X270744D01*
X255323D02*
Y151000D01*
X270744D02*
X280488D01*
X245579D02*
X255323D01*
X147744Y111500D02*
Y115500D01*
X132323Y111500D02*
X147744D01*
X132323D02*
Y119500D01*
X147744D01*
Y115500D02*
Y119500D01*
X122579Y115500D02*
X132323D01*
X147744D02*
X157488D01*
X401244Y112500D02*
Y116500D01*
X385823Y112500D02*
X401244D01*
X385823D02*
Y120500D01*
X401244D01*
Y116500D02*
Y120500D01*
X376079Y116500D02*
X385823D01*
X401244D02*
X410988D01*
X471256Y267500D02*
Y271500D01*
X486677D01*
Y263500D02*
Y271500D01*
X471256Y263500D02*
X486677D01*
X471256D02*
Y267500D01*
X486677D02*
X496421D01*
X461512D02*
X471256D01*
X403677Y193500D02*
Y197500D01*
X388256Y193500D02*
X403677D01*
X388256D02*
Y201500D01*
X403677D01*
Y197500D02*
Y201500D01*
X378512Y197500D02*
X388256D01*
X403677D02*
X413421D01*
X541677Y112000D02*
Y116000D01*
X526256Y112000D02*
X541677D01*
X526256D02*
Y120000D01*
X541677D01*
Y116000D02*
Y120000D01*
X516512Y116000D02*
X526256D01*
X541677D02*
X551421D01*
X525000Y178244D02*
X529000D01*
Y162823D02*
Y178244D01*
X521000Y162823D02*
X529000D01*
X521000D02*
Y178244D01*
X525000D01*
Y153079D02*
Y162823D01*
Y178244D02*
Y187988D01*
X597323Y116000D02*
Y120000D01*
X612744D01*
Y112000D02*
Y120000D01*
X597323Y112000D02*
X612744D01*
X597323D02*
Y116000D01*
X612744D02*
X622488D01*
X587579D02*
X597323D01*
X674177Y114000D02*
Y118000D01*
X658756Y114000D02*
X674177D01*
X658756D02*
Y122000D01*
X674177D01*
Y118000D02*
Y122000D01*
X649012Y118000D02*
X658756D01*
X674177D02*
X683921D01*
X542823Y250500D02*
Y254500D01*
X558244D01*
Y246500D02*
Y254500D01*
X542823Y246500D02*
X558244D01*
X542823D02*
Y250500D01*
X558244D02*
X567988D01*
X533079D02*
X542823D01*
X561000Y177177D02*
X565000D01*
Y161756D02*
Y177177D01*
X557000Y161756D02*
X565000D01*
X557000D02*
Y177177D01*
X561000D01*
Y152012D02*
Y161756D01*
Y177177D02*
Y186921D01*
X684500Y181677D02*
X688500D01*
Y166256D02*
Y181677D01*
X680500Y166256D02*
X688500D01*
X680500D02*
Y181677D01*
X684500D01*
Y156512D02*
Y166256D01*
Y181677D02*
Y191421D01*
X678500Y293756D02*
X682500D01*
X678500D02*
Y309177D01*
X686500D01*
Y293756D02*
Y309177D01*
X682500Y293756D02*
X686500D01*
X682500Y309177D02*
Y318921D01*
Y284012D02*
Y293756D01*
X658823Y357000D02*
Y361000D01*
X674244D01*
Y353000D02*
Y361000D01*
X658823Y353000D02*
X674244D01*
X658823D02*
Y357000D01*
X674244D02*
X683988D01*
X649079D02*
X658823D01*
X619244Y225000D02*
Y229000D01*
X603823Y225000D02*
X619244D01*
X603823D02*
Y233000D01*
X619244D01*
Y229000D02*
Y233000D01*
X594079Y229000D02*
X603823D01*
X619244D02*
X628988D01*
X656000Y182177D02*
X660000D01*
Y166756D02*
Y182177D01*
X652000Y166756D02*
X660000D01*
X652000D02*
Y182177D01*
X656000D01*
Y157012D02*
Y166756D01*
Y182177D02*
Y191921D01*
X652000Y308677D02*
X656000D01*
Y293256D02*
Y308677D01*
X648000Y293256D02*
X656000D01*
X648000D02*
Y308677D01*
X652000D01*
Y283512D02*
Y293256D01*
Y308677D02*
Y318421D01*
X548000Y350823D02*
X552000D01*
X548000D02*
Y366244D01*
X556000D01*
Y350823D02*
Y366244D01*
X552000Y350823D02*
X556000D01*
X552000Y366244D02*
Y375988D01*
Y341079D02*
Y350823D01*
X632500Y436677D02*
X636500D01*
Y421256D02*
Y436677D01*
X628500Y421256D02*
X636500D01*
X628500D02*
Y436677D01*
X632500D01*
Y411512D02*
Y421256D01*
Y436677D02*
Y446421D01*
X556744Y275000D02*
Y279000D01*
X541323Y275000D02*
X556744D01*
X541323D02*
Y283000D01*
X556744D01*
Y279000D02*
Y283000D01*
X531579Y279000D02*
X541323D01*
X556744D02*
X566488D01*
X345000Y329744D02*
X349000D01*
Y314323D02*
Y329744D01*
X341000Y314323D02*
X349000D01*
X341000D02*
Y329744D01*
X345000D01*
Y304579D02*
Y314323D01*
Y329744D02*
Y339488D01*
X556244Y302000D02*
Y306000D01*
X540823Y302000D02*
X556244D01*
X540823D02*
Y310000D01*
X556244D01*
Y306000D02*
Y310000D01*
X531079Y306000D02*
X540823D01*
X556244D02*
X565988D01*
X582500Y420756D02*
X586500D01*
X582500D02*
Y436177D01*
X590500D01*
Y420756D02*
Y436177D01*
X586500Y420756D02*
X590500D01*
X586500Y436177D02*
Y445921D01*
Y411012D02*
Y420756D01*
X391500Y365323D02*
X395500D01*
X391500D02*
Y380744D01*
X399500D01*
Y365323D02*
Y380744D01*
X395500Y365323D02*
X399500D01*
X395500Y380744D02*
Y390488D01*
Y355579D02*
Y365323D01*
X398756Y324000D02*
Y328000D01*
X414177D01*
Y320000D02*
Y328000D01*
X398756Y320000D02*
X414177D01*
X398756D02*
Y324000D01*
X414177D02*
X423921D01*
X389012D02*
X398756D01*
X434756Y407500D02*
Y411500D01*
X450177D01*
Y403500D02*
Y411500D01*
X434756Y403500D02*
X450177D01*
X434756D02*
Y407500D01*
X450177D02*
X459921D01*
X425012D02*
X434756D01*
X483500Y349823D02*
X487500D01*
X483500D02*
Y365244D01*
X491500D01*
Y349823D02*
Y365244D01*
X487500Y349823D02*
X491500D01*
X487500Y365244D02*
Y374988D01*
Y340079D02*
Y349823D01*
X380323Y440500D02*
Y444500D01*
X395744D01*
Y436500D02*
Y444500D01*
X380323Y436500D02*
X395744D01*
X380323D02*
Y440500D01*
X395744D02*
X405488D01*
X370579D02*
X380323D01*
X361177Y374500D02*
Y378500D01*
X345756Y374500D02*
X361177D01*
X345756D02*
Y382500D01*
X361177D01*
Y378500D02*
Y382500D01*
X336012Y378500D02*
X345756D01*
X361177D02*
X370921D01*
X342244Y480500D02*
Y484500D01*
X326823Y480500D02*
X342244D01*
X326823D02*
Y488500D01*
X342244D01*
Y484500D02*
Y488500D01*
X317079Y484500D02*
X326823D01*
X342244D02*
X351988D01*
X267823Y415000D02*
Y419000D01*
X283244D01*
Y411000D02*
Y419000D01*
X267823Y411000D02*
X283244D01*
X267823D02*
Y415000D01*
X283244D02*
X292988D01*
X258079D02*
X267823D01*
X214177Y256500D02*
Y260500D01*
X198756Y256500D02*
X214177D01*
X198756D02*
Y264500D01*
X214177D01*
Y260500D02*
Y264500D01*
X189012Y260500D02*
X198756D01*
X214177D02*
X223921D01*
X225500Y395244D02*
X229500D01*
Y379823D02*
Y395244D01*
X221500Y379823D02*
X229500D01*
X221500D02*
Y395244D01*
X225500D01*
Y370079D02*
Y379823D01*
Y395244D02*
Y404988D01*
X193177Y330500D02*
Y334500D01*
X177756Y330500D02*
X193177D01*
X177756D02*
Y338500D01*
X193177D01*
Y334500D02*
Y338500D01*
X168012Y334500D02*
X177756D01*
X193177D02*
X202921D01*
X288177Y444500D02*
Y448500D01*
X272756Y444500D02*
X288177D01*
X272756D02*
Y452500D01*
X288177D01*
Y448500D02*
Y452500D01*
X263012Y448500D02*
X272756D01*
X288177D02*
X297921D01*
X117500Y303323D02*
X121500D01*
X117500D02*
Y318744D01*
X125500D01*
Y303323D02*
Y318744D01*
X121500Y303323D02*
X125500D01*
X121500Y318744D02*
Y328488D01*
Y293579D02*
Y303323D01*
X168000Y468177D02*
X172000D01*
Y452756D02*
Y468177D01*
X164000Y452756D02*
X172000D01*
X164000D02*
Y468177D01*
X168000D01*
Y443012D02*
Y452756D01*
Y468177D02*
Y477921D01*
X142000Y453256D02*
X146000D01*
X142000D02*
Y468677D01*
X150000D01*
Y453256D02*
Y468677D01*
X146000Y453256D02*
X150000D01*
X146000Y468677D02*
Y478421D01*
Y443512D02*
Y453256D01*
X122000Y468677D02*
X126000D01*
Y453256D02*
Y468677D01*
X118000Y453256D02*
X126000D01*
X118000D02*
Y468677D01*
X122000D01*
Y443512D02*
Y453256D01*
Y468677D02*
Y478421D01*
X201000Y294500D02*
Y296500D01*
X200000Y295500D02*
X202000D01*
X395000Y157000D02*
X397000D01*
X396000Y156000D02*
Y158000D01*
X435000Y271500D02*
Y273500D01*
X434000Y272500D02*
X436000D01*
X505000Y221500D02*
X507000D01*
X506000Y220500D02*
Y222500D01*
X672000Y232500D02*
Y234500D01*
X671000Y233500D02*
X673000D01*
X674000Y388500D02*
X676000D01*
X675000Y387500D02*
Y389500D01*
X607000Y263000D02*
Y265000D01*
X606000Y264000D02*
X608000D01*
X674000Y432000D02*
X676000D01*
X675000Y431000D02*
Y433000D01*
X389500Y282000D02*
Y284000D01*
X388500Y283000D02*
X390500D01*
X294500Y315000D02*
X296500D01*
X295500Y314000D02*
Y316000D01*
X516000Y358000D02*
Y360000D01*
X515000Y359000D02*
X517000D01*
X434000Y484500D02*
X436000D01*
X435000Y483500D02*
Y485500D01*
X271000Y471000D02*
Y473000D01*
X270000Y472000D02*
X272000D01*
X233500Y109500D02*
X264000D01*
Y117500D01*
X233500D02*
X264000D01*
X233500Y109500D02*
Y117500D01*
X324500Y251000D02*
Y281500D01*
X316500D02*
X324500D01*
X316500Y251000D02*
Y281500D01*
Y251000D02*
X324500D01*
X452185Y150000D02*
X482685D01*
Y158000D01*
X452185D02*
X482685D01*
X452185Y150000D02*
Y158000D01*
X436815Y237500D02*
X467315D01*
X436815Y229500D02*
Y237500D01*
Y229500D02*
X467315D01*
Y237500D01*
X343685Y263000D02*
X374185D01*
Y271000D01*
X343685D02*
X374185D01*
X343685Y263000D02*
Y271000D01*
X487000Y417185D02*
Y447685D01*
X479000D02*
X487000D01*
X479000Y417185D02*
Y447685D01*
Y417185D02*
X487000D01*
X431000Y447000D02*
X461500D01*
X431000Y439000D02*
Y447000D01*
Y439000D02*
X461500D01*
Y447000D01*
X377500Y481500D02*
X408000D01*
Y489500D01*
X377500D02*
X408000D01*
X377500Y481500D02*
Y489500D01*
X346815Y413000D02*
X377315D01*
X346815Y405000D02*
Y413000D01*
Y405000D02*
X377315D01*
Y413000D01*
X257500Y321685D02*
Y352185D01*
X249500D02*
X257500D01*
X249500Y321685D02*
Y352185D01*
Y321685D02*
X257500D01*
X111815Y360000D02*
X142315D01*
X111815Y352000D02*
Y360000D01*
Y352000D02*
X142315D01*
Y360000D01*
X337000Y422500D02*
Y453000D01*
X329000D02*
X337000D01*
X329000Y422500D02*
Y453000D01*
Y422500D02*
X337000D01*
X116500Y385315D02*
Y415815D01*
Y385315D02*
X124500D01*
Y415815D01*
X116500D02*
X124500D01*
X659500Y474500D02*
Y484500D01*
Y474500D02*
X691500D01*
Y484500D01*
X659500D02*
X691500D01*
X653500Y474500D02*
Y484500D01*
X621500D02*
X653500D01*
X621500Y474500D02*
Y484500D01*
Y474500D02*
X653500D01*
X583500D02*
Y484500D01*
Y474500D02*
X615500D01*
Y484500D01*
X583500D02*
X615500D01*
X545500Y474500D02*
Y484500D01*
Y474500D02*
X577500D01*
Y484500D01*
X545500D02*
X577500D01*
X507000Y474500D02*
Y484500D01*
Y474500D02*
X539000D01*
Y484500D01*
X507000D02*
X539000D01*
X500500Y474500D02*
Y484500D01*
X468500D02*
X500500D01*
X468500Y474500D02*
Y484500D01*
Y474500D02*
X500500D01*
D11*
X141374Y145500D02*
G03*
X141374Y145500I-492J0D01*
G01*
X279492Y264382D02*
G03*
X279492Y264382I-492J0D01*
G01*
X587492Y383618D02*
G03*
X587492Y383618I-492J0D01*
G01*
X427492Y379618D02*
G03*
X427492Y379618I-492J0D01*
G01*
X163992Y405118D02*
G03*
X163992Y405118I-492J0D01*
G01*
X558110Y447000D02*
G03*
X558110Y447000I-492J0D01*
G01*
X314992Y191618D02*
G03*
X314992Y191618I-492J0D01*
G01*
X451374Y181000D02*
G03*
X451374Y181000I-492J0D01*
G01*
X277492Y389118D02*
G03*
X277492Y389118I-492J0D01*
G01*
X598492Y193118D02*
G03*
X598492Y193118I-492J0D01*
G01*
D12*
X146039Y154004D02*
G03*
X146039Y154004I-1181J0D01*
G01*
X271677Y268358D02*
G03*
X271677Y268358I-1181J0D01*
G01*
X596685Y379642D02*
G03*
X596685Y379642I-1181J0D01*
G01*
X436685Y375642D02*
G03*
X436685Y375642I-1181J0D01*
G01*
X173185Y401142D02*
G03*
X173185Y401142I-1181J0D01*
G01*
X554823Y438496D02*
G03*
X554823Y438496I-1181J0D01*
G01*
X324185Y187642D02*
G03*
X324185Y187642I-1181J0D01*
G01*
X456039Y189504D02*
G03*
X456039Y189504I-1181J0D01*
G01*
X286685Y385142D02*
G03*
X286685Y385142I-1181J0D01*
G01*
X607685Y189142D02*
G03*
X607685Y189142I-1181J0D01*
G01*
D13*
X470685Y114000D02*
G03*
X470685Y114000I-500J0D01*
G01*
X110800Y266400D02*
Y272398D01*
X113799D01*
X114799Y271398D01*
Y269399D01*
X113799Y268399D01*
X110800D01*
X119797Y272398D02*
X117798D01*
X116798Y271398D01*
Y267400D01*
X117798Y266400D01*
X119797D01*
X120797Y267400D01*
Y271398D01*
X119797Y272398D01*
X122796D02*
Y266400D01*
X124795Y268399D01*
X126795Y266400D01*
Y272398D01*
X132793D02*
X128794D01*
Y266400D01*
X132793D01*
X128794Y269399D02*
X130793D01*
X134792Y266400D02*
Y272398D01*
X137791D01*
X138791Y271398D01*
Y269399D01*
X137791Y268399D01*
X134792D01*
X136792D02*
X138791Y266400D01*
X450800Y128398D02*
X452799D01*
X451800D01*
Y122400D01*
X450800D01*
X452799D01*
X455798D02*
Y128398D01*
X459797Y122400D01*
Y128398D01*
X193599Y500898D02*
X191600D01*
X190600Y499898D01*
Y495900D01*
X191600Y494900D01*
X193599D01*
X194599Y495900D01*
Y499898D01*
X193599Y500898D01*
X196598D02*
Y495900D01*
X197598Y494900D01*
X199597D01*
X200597Y495900D01*
Y500898D01*
X202596D02*
X206595D01*
X204595D01*
Y494900D01*
X594800Y203198D02*
Y198200D01*
X595800Y197200D01*
X597799D01*
X598799Y198200D01*
Y203198D01*
X600798Y197200D02*
X602797D01*
X601798D01*
Y203198D01*
X600798Y202198D01*
X605796D02*
X606796Y203198D01*
X608795D01*
X609795Y202198D01*
Y198200D01*
X608795Y197200D01*
X606796D01*
X605796Y198200D01*
Y202198D01*
X517300Y460198D02*
Y455200D01*
X518300Y454200D01*
X520299D01*
X521299Y455200D01*
Y460198D01*
X523298Y455200D02*
X524298Y454200D01*
X526297D01*
X527297Y455200D01*
Y459198D01*
X526297Y460198D01*
X524298D01*
X523298Y459198D01*
Y458199D01*
X524298Y457199D01*
X527297D01*
X273800Y399198D02*
Y394200D01*
X274800Y393200D01*
X276799D01*
X277799Y394200D01*
Y399198D01*
X279798Y398198D02*
X280798Y399198D01*
X282797D01*
X283797Y398198D01*
Y397199D01*
X282797Y396199D01*
X283797Y395199D01*
Y394200D01*
X282797Y393200D01*
X280798D01*
X279798Y394200D01*
Y395199D01*
X280798Y396199D01*
X279798Y397199D01*
Y398198D01*
X280798Y396199D02*
X282797D01*
X450800Y224198D02*
Y219200D01*
X451800Y218200D01*
X453799D01*
X454799Y219200D01*
Y224198D01*
X456798D02*
X460797D01*
Y223198D01*
X456798Y219200D01*
Y218200D01*
X311300Y201698D02*
Y196700D01*
X312300Y195700D01*
X314299D01*
X315299Y196700D01*
Y201698D01*
X321297D02*
X319297Y200698D01*
X317298Y198699D01*
Y196700D01*
X318298Y195700D01*
X320297D01*
X321297Y196700D01*
Y197699D01*
X320297Y198699D01*
X317298D01*
X160300Y415198D02*
Y410200D01*
X161300Y409200D01*
X163299D01*
X164299Y410200D01*
Y415198D01*
X170297D02*
X166298D01*
Y412199D01*
X168297Y413199D01*
X169297D01*
X170297Y412199D01*
Y410200D01*
X169297Y409200D01*
X167298D01*
X166298Y410200D01*
X423800Y389698D02*
Y384700D01*
X424800Y383700D01*
X426799D01*
X427799Y384700D01*
Y389698D01*
X432797Y383700D02*
Y389698D01*
X429798Y386699D01*
X433797D01*
X583800Y393698D02*
Y388700D01*
X584800Y387700D01*
X586799D01*
X587799Y388700D01*
Y393698D01*
X589798Y392698D02*
X590798Y393698D01*
X592797D01*
X593797Y392698D01*
Y391699D01*
X592797Y390699D01*
X591797D01*
X592797D01*
X593797Y389699D01*
Y388700D01*
X592797Y387700D01*
X590798D01*
X589798Y388700D01*
X245800Y314698D02*
Y309700D01*
X246800Y308700D01*
X248799D01*
X249799Y309700D01*
Y314698D01*
X255797Y308700D02*
X251798D01*
X255797Y312699D01*
Y313698D01*
X254797Y314698D01*
X252798D01*
X251798Y313698D01*
X140800Y188698D02*
Y183700D01*
X141800Y182700D01*
X143799D01*
X144799Y183700D01*
Y188698D01*
X146798Y182700D02*
X148797D01*
X147798D01*
Y188698D01*
X146798Y187698D01*
X117900Y490100D02*
Y496098D01*
X120899D01*
X121899Y495098D01*
Y493099D01*
X120899Y492099D01*
X117900D01*
X119899D02*
X121899Y490100D01*
X126897D02*
Y496098D01*
X123898Y493099D01*
X127897D01*
X129896Y496098D02*
X133895D01*
Y495098D01*
X129896Y491100D01*
Y490100D01*
X141900D02*
Y496098D01*
X144899D01*
X145899Y495098D01*
Y493099D01*
X144899Y492099D01*
X141900D01*
X143899D02*
X145899Y490100D01*
X150897D02*
Y496098D01*
X147898Y493099D01*
X151897D01*
X157895Y496098D02*
X155895Y495098D01*
X153896Y493099D01*
Y491100D01*
X154896Y490100D01*
X156895D01*
X157895Y491100D01*
Y492099D01*
X156895Y493099D01*
X153896D01*
X163900Y489600D02*
Y495598D01*
X166899D01*
X167899Y494598D01*
Y492599D01*
X166899Y491599D01*
X163900D01*
X165899D02*
X167899Y489600D01*
X172897D02*
Y495598D01*
X169898Y492599D01*
X173897D01*
X179895Y495598D02*
X175896D01*
Y492599D01*
X177895Y493599D01*
X178895D01*
X179895Y492599D01*
Y490600D01*
X178895Y489600D01*
X176896D01*
X175896Y490600D01*
X117400Y340200D02*
Y346198D01*
X120399D01*
X121399Y345198D01*
Y343199D01*
X120399Y342199D01*
X117400D01*
X119399D02*
X121399Y340200D01*
X126397D02*
Y346198D01*
X123398Y343199D01*
X127397D01*
X132395Y340200D02*
Y346198D01*
X129396Y343199D01*
X133395D01*
X255300Y456600D02*
Y462598D01*
X258299D01*
X259299Y461598D01*
Y459599D01*
X258299Y458599D01*
X255300D01*
X257299D02*
X259299Y456600D01*
X264297D02*
Y462598D01*
X261298Y459599D01*
X265297D01*
X267296Y461598D02*
X268296Y462598D01*
X270295D01*
X271295Y461598D01*
Y460599D01*
X270295Y459599D01*
X269296D01*
X270295D01*
X271295Y458599D01*
Y457600D01*
X270295Y456600D01*
X268296D01*
X267296Y457600D01*
X160300Y342600D02*
Y348598D01*
X163299D01*
X164299Y347598D01*
Y345599D01*
X163299Y344599D01*
X160300D01*
X162299D02*
X164299Y342600D01*
X169297D02*
Y348598D01*
X166298Y345599D01*
X170297D01*
X176295Y342600D02*
X172296D01*
X176295Y346599D01*
Y347598D01*
X175295Y348598D01*
X173296D01*
X172296Y347598D01*
X221400Y416700D02*
Y422698D01*
X224399D01*
X225399Y421698D01*
Y419699D01*
X224399Y418699D01*
X221400D01*
X223399D02*
X225399Y416700D01*
X230397D02*
Y422698D01*
X227398Y419699D01*
X231397D01*
X233396Y416700D02*
X235396D01*
X234396D01*
Y422698D01*
X233396Y421698D01*
X181300Y268600D02*
Y274598D01*
X184299D01*
X185299Y273598D01*
Y271599D01*
X184299Y270599D01*
X181300D01*
X183299D02*
X185299Y268600D01*
X190297D02*
Y274598D01*
X187298Y271599D01*
X191297D01*
X193296Y273598D02*
X194296Y274598D01*
X196295D01*
X197295Y273598D01*
Y269600D01*
X196295Y268600D01*
X194296D01*
X193296Y269600D01*
Y273598D01*
X250400Y423100D02*
Y429098D01*
X253399D01*
X254399Y428098D01*
Y426099D01*
X253399Y425099D01*
X250400D01*
X252399D02*
X254399Y423100D01*
X256398Y428098D02*
X257398Y429098D01*
X259397D01*
X260397Y428098D01*
Y427099D01*
X259397Y426099D01*
X258397D01*
X259397D01*
X260397Y425099D01*
Y424100D01*
X259397Y423100D01*
X257398D01*
X256398Y424100D01*
X262396D02*
X263396Y423100D01*
X265395D01*
X266395Y424100D01*
Y428098D01*
X265395Y429098D01*
X263396D01*
X262396Y428098D01*
Y427099D01*
X263396Y426099D01*
X266395D01*
X309400Y492600D02*
Y498598D01*
X312399D01*
X313399Y497598D01*
Y495599D01*
X312399Y494599D01*
X309400D01*
X311399D02*
X313399Y492600D01*
X315398Y497598D02*
X316398Y498598D01*
X318397D01*
X319397Y497598D01*
Y496599D01*
X318397Y495599D01*
X317397D01*
X318397D01*
X319397Y494599D01*
Y493600D01*
X318397Y492600D01*
X316398D01*
X315398Y493600D01*
X321396Y497598D02*
X322396Y498598D01*
X324395D01*
X325395Y497598D01*
Y496599D01*
X324395Y495599D01*
X325395Y494599D01*
Y493600D01*
X324395Y492600D01*
X322396D01*
X321396Y493600D01*
Y494599D01*
X322396Y495599D01*
X321396Y496599D01*
Y497598D01*
X322396Y495599D02*
X324395D01*
X328300Y386600D02*
Y392598D01*
X331299D01*
X332299Y391598D01*
Y389599D01*
X331299Y388599D01*
X328300D01*
X330299D02*
X332299Y386600D01*
X334298Y391598D02*
X335298Y392598D01*
X337297D01*
X338297Y391598D01*
Y390599D01*
X337297Y389599D01*
X336297D01*
X337297D01*
X338297Y388599D01*
Y387600D01*
X337297Y386600D01*
X335298D01*
X334298Y387600D01*
X340296Y392598D02*
X344295D01*
Y391598D01*
X340296Y387600D01*
Y386600D01*
X362900Y448600D02*
Y454598D01*
X365899D01*
X366899Y453598D01*
Y451599D01*
X365899Y450599D01*
X362900D01*
X364899D02*
X366899Y448600D01*
X368898Y453598D02*
X369898Y454598D01*
X371897D01*
X372897Y453598D01*
Y452599D01*
X371897Y451599D01*
X370897D01*
X371897D01*
X372897Y450599D01*
Y449600D01*
X371897Y448600D01*
X369898D01*
X368898Y449600D01*
X378895Y454598D02*
X376895Y453598D01*
X374896Y451599D01*
Y449600D01*
X375896Y448600D01*
X377895D01*
X378895Y449600D01*
Y450599D01*
X377895Y451599D01*
X374896D01*
X483400Y386700D02*
Y392698D01*
X486399D01*
X487399Y391698D01*
Y389699D01*
X486399Y388699D01*
X483400D01*
X485399D02*
X487399Y386700D01*
X489398Y391698D02*
X490398Y392698D01*
X492397D01*
X493397Y391698D01*
Y390699D01*
X492397Y389699D01*
X491397D01*
X492397D01*
X493397Y388699D01*
Y387700D01*
X492397Y386700D01*
X490398D01*
X489398Y387700D01*
X499395Y392698D02*
X495396D01*
Y389699D01*
X497396Y390699D01*
X498395D01*
X499395Y389699D01*
Y387700D01*
X498395Y386700D01*
X496396D01*
X495396Y387700D01*
X417300Y415600D02*
Y421598D01*
X420299D01*
X421299Y420598D01*
Y418599D01*
X420299Y417599D01*
X417300D01*
X419299D02*
X421299Y415600D01*
X423298Y420598D02*
X424298Y421598D01*
X426297D01*
X427297Y420598D01*
Y419599D01*
X426297Y418599D01*
X425297D01*
X426297D01*
X427297Y417599D01*
Y416600D01*
X426297Y415600D01*
X424298D01*
X423298Y416600D01*
X432295Y415600D02*
Y421598D01*
X429296Y418599D01*
X433295D01*
X381300Y332100D02*
Y338098D01*
X384299D01*
X385299Y337098D01*
Y335099D01*
X384299Y334099D01*
X381300D01*
X383299D02*
X385299Y332100D01*
X387298Y337098D02*
X388298Y338098D01*
X390297D01*
X391297Y337098D01*
Y336099D01*
X390297Y335099D01*
X389297D01*
X390297D01*
X391297Y334099D01*
Y333100D01*
X390297Y332100D01*
X388298D01*
X387298Y333100D01*
X397295Y332100D02*
X393296D01*
X397295Y336099D01*
Y337098D01*
X396295Y338098D01*
X394296D01*
X393296Y337098D01*
X391400Y402200D02*
Y408198D01*
X394399D01*
X395399Y407198D01*
Y405199D01*
X394399Y404199D01*
X391400D01*
X393399D02*
X395399Y402200D01*
X397398Y407198D02*
X398398Y408198D01*
X400397D01*
X401397Y407198D01*
Y406199D01*
X400397Y405199D01*
X399397D01*
X400397D01*
X401397Y404199D01*
Y403200D01*
X400397Y402200D01*
X398398D01*
X397398Y403200D01*
X403396Y402200D02*
X405396D01*
X404396D01*
Y408198D01*
X403396Y407198D01*
X582400Y457600D02*
Y463598D01*
X585399D01*
X586399Y462598D01*
Y460599D01*
X585399Y459599D01*
X582400D01*
X584399D02*
X586399Y457600D01*
X588398Y462598D02*
X589398Y463598D01*
X591397D01*
X592397Y462598D01*
Y461599D01*
X591397Y460599D01*
X590397D01*
X591397D01*
X592397Y459599D01*
Y458600D01*
X591397Y457600D01*
X589398D01*
X588398Y458600D01*
X594396Y462598D02*
X595396Y463598D01*
X597395D01*
X598395Y462598D01*
Y458600D01*
X597395Y457600D01*
X595396D01*
X594396Y458600D01*
Y462598D01*
X523400Y314100D02*
Y320098D01*
X526399D01*
X527399Y319098D01*
Y317099D01*
X526399Y316099D01*
X523400D01*
X525399D02*
X527399Y314100D01*
X533397D02*
X529398D01*
X533397Y318099D01*
Y319098D01*
X532397Y320098D01*
X530398D01*
X529398Y319098D01*
X535396Y315100D02*
X536396Y314100D01*
X538395D01*
X539395Y315100D01*
Y319098D01*
X538395Y320098D01*
X536396D01*
X535396Y319098D01*
Y318099D01*
X536396Y317099D01*
X539395D01*
X340900Y351200D02*
Y357198D01*
X343899D01*
X344899Y356198D01*
Y354199D01*
X343899Y353199D01*
X340900D01*
X342899D02*
X344899Y351200D01*
X350897D02*
X346898D01*
X350897Y355199D01*
Y356198D01*
X349897Y357198D01*
X347898D01*
X346898Y356198D01*
X352896D02*
X353896Y357198D01*
X355895D01*
X356895Y356198D01*
Y355199D01*
X355895Y354199D01*
X356895Y353199D01*
Y352200D01*
X355895Y351200D01*
X353896D01*
X352896Y352200D01*
Y353199D01*
X353896Y354199D01*
X352896Y355199D01*
Y356198D01*
X353896Y354199D02*
X355895D01*
X523900Y287100D02*
Y293098D01*
X526899D01*
X527899Y292098D01*
Y290099D01*
X526899Y289099D01*
X523900D01*
X525899D02*
X527899Y287100D01*
X533897D02*
X529898D01*
X533897Y291099D01*
Y292098D01*
X532897Y293098D01*
X530898D01*
X529898Y292098D01*
X535896Y293098D02*
X539895D01*
Y292098D01*
X535896Y288100D01*
Y287100D01*
X628400Y458100D02*
Y464098D01*
X631399D01*
X632399Y463098D01*
Y461099D01*
X631399Y460099D01*
X628400D01*
X630399D02*
X632399Y458100D01*
X638397D02*
X634398D01*
X638397Y462099D01*
Y463098D01*
X637397Y464098D01*
X635398D01*
X634398Y463098D01*
X644395Y464098D02*
X642395Y463098D01*
X640396Y461099D01*
Y459100D01*
X641396Y458100D01*
X643395D01*
X644395Y459100D01*
Y460099D01*
X643395Y461099D01*
X640396D01*
X547900Y387700D02*
Y393698D01*
X550899D01*
X551899Y392698D01*
Y390699D01*
X550899Y389699D01*
X547900D01*
X549899D02*
X551899Y387700D01*
X557897D02*
X553898D01*
X557897Y391699D01*
Y392698D01*
X556897Y393698D01*
X554898D01*
X553898Y392698D01*
X562895Y387700D02*
Y393698D01*
X559896Y390699D01*
X563895D01*
X647900Y330100D02*
Y336098D01*
X650899D01*
X651899Y335098D01*
Y333099D01*
X650899Y332099D01*
X647900D01*
X649899D02*
X651899Y330100D01*
X657897D02*
X653898D01*
X657897Y334099D01*
Y335098D01*
X656897Y336098D01*
X654898D01*
X653898Y335098D01*
X659896D02*
X660896Y336098D01*
X662895D01*
X663895Y335098D01*
Y334099D01*
X662895Y333099D01*
X661896D01*
X662895D01*
X663895Y332099D01*
Y331100D01*
X662895Y330100D01*
X660896D01*
X659896Y331100D01*
X651900Y203600D02*
Y209598D01*
X654899D01*
X655899Y208598D01*
Y206599D01*
X654899Y205599D01*
X651900D01*
X653899D02*
X655899Y203600D01*
X661897D02*
X657898D01*
X661897Y207599D01*
Y208598D01*
X660897Y209598D01*
X658898D01*
X657898Y208598D01*
X667895Y203600D02*
X663896D01*
X667895Y207599D01*
Y208598D01*
X666895Y209598D01*
X664896D01*
X663896Y208598D01*
X586400Y237100D02*
Y243098D01*
X589399D01*
X590399Y242098D01*
Y240099D01*
X589399Y239099D01*
X586400D01*
X588399D02*
X590399Y237100D01*
X596397D02*
X592398D01*
X596397Y241099D01*
Y242098D01*
X595397Y243098D01*
X593398D01*
X592398Y242098D01*
X598396Y237100D02*
X600395D01*
X599396D01*
Y243098D01*
X598396Y242098D01*
X641400Y365100D02*
Y371098D01*
X644399D01*
X645399Y370098D01*
Y368099D01*
X644399Y367099D01*
X641400D01*
X643399D02*
X645399Y365100D01*
X651397D02*
X647398D01*
X651397Y369099D01*
Y370098D01*
X650397Y371098D01*
X648398D01*
X647398Y370098D01*
X653396D02*
X654396Y371098D01*
X656395D01*
X657395Y370098D01*
Y366100D01*
X656395Y365100D01*
X654396D01*
X653396Y366100D01*
Y370098D01*
X678400Y330600D02*
Y336598D01*
X681399D01*
X682399Y335598D01*
Y333599D01*
X681399Y332599D01*
X678400D01*
X680399D02*
X682399Y330600D01*
X684398D02*
X686397D01*
X685398D01*
Y336598D01*
X684398Y335598D01*
X689396Y331600D02*
X690396Y330600D01*
X692395D01*
X693395Y331600D01*
Y335598D01*
X692395Y336598D01*
X690396D01*
X689396Y335598D01*
Y334599D01*
X690396Y333599D01*
X693395D01*
X680400Y203100D02*
Y209098D01*
X683399D01*
X684399Y208098D01*
Y206099D01*
X683399Y205099D01*
X680400D01*
X682399D02*
X684399Y203100D01*
X686398D02*
X688397D01*
X687398D01*
Y209098D01*
X686398Y208098D01*
X691396D02*
X692396Y209098D01*
X694395D01*
X695395Y208098D01*
Y207099D01*
X694395Y206099D01*
X695395Y205099D01*
Y204100D01*
X694395Y203100D01*
X692396D01*
X691396Y204100D01*
Y205099D01*
X692396Y206099D01*
X691396Y207099D01*
Y208098D01*
X692396Y206099D02*
X694395D01*
X556900Y198600D02*
Y204598D01*
X559899D01*
X560899Y203598D01*
Y201599D01*
X559899Y200599D01*
X556900D01*
X558899D02*
X560899Y198600D01*
X562898D02*
X564897D01*
X563898D01*
Y204598D01*
X562898Y203598D01*
X567896Y204598D02*
X571895D01*
Y203598D01*
X567896Y199600D01*
Y198600D01*
X525400Y258600D02*
Y264598D01*
X528399D01*
X529399Y263598D01*
Y261599D01*
X528399Y260599D01*
X525400D01*
X527399D02*
X529399Y258600D01*
X531398D02*
X533397D01*
X532398D01*
Y264598D01*
X531398Y263598D01*
X540395Y264598D02*
X538396Y263598D01*
X536396Y261599D01*
Y259600D01*
X537396Y258600D01*
X539396D01*
X540395Y259600D01*
Y260599D01*
X539396Y261599D01*
X536396D01*
X641300Y126100D02*
Y132098D01*
X644299D01*
X645299Y131098D01*
Y129099D01*
X644299Y128099D01*
X641300D01*
X643299D02*
X645299Y126100D01*
X647298D02*
X649297D01*
X648298D01*
Y132098D01*
X647298Y131098D01*
X656295Y132098D02*
X652296D01*
Y129099D01*
X654296Y130099D01*
X655296D01*
X656295Y129099D01*
Y127100D01*
X655296Y126100D01*
X653296D01*
X652296Y127100D01*
X579900Y124100D02*
Y130098D01*
X582899D01*
X583899Y129098D01*
Y127099D01*
X582899Y126099D01*
X579900D01*
X581899D02*
X583899Y124100D01*
X585898D02*
X587897D01*
X586898D01*
Y130098D01*
X585898Y129098D01*
X593895Y124100D02*
Y130098D01*
X590896Y127099D01*
X594895D01*
X520900Y199700D02*
Y205698D01*
X523899D01*
X524899Y204698D01*
Y202699D01*
X523899Y201699D01*
X520900D01*
X522899D02*
X524899Y199700D01*
X526898D02*
X528897D01*
X527898D01*
Y205698D01*
X526898Y204698D01*
X531896D02*
X532896Y205698D01*
X534896D01*
X535895Y204698D01*
Y203699D01*
X534896Y202699D01*
X533896D01*
X534896D01*
X535895Y201699D01*
Y200700D01*
X534896Y199700D01*
X532896D01*
X531896Y200700D01*
X508800Y124100D02*
Y130098D01*
X511799D01*
X512799Y129098D01*
Y127099D01*
X511799Y126099D01*
X508800D01*
X510799D02*
X512799Y124100D01*
X514798D02*
X516797D01*
X515798D01*
Y130098D01*
X514798Y129098D01*
X523795Y124100D02*
X519796D01*
X523795Y128099D01*
Y129098D01*
X522795Y130098D01*
X520796D01*
X519796Y129098D01*
X370800Y205600D02*
Y211598D01*
X373799D01*
X374799Y210598D01*
Y208599D01*
X373799Y207599D01*
X370800D01*
X372799D02*
X374799Y205600D01*
X376798D02*
X378797D01*
X377798D01*
Y211598D01*
X376798Y210598D01*
X381796Y205600D02*
X383796D01*
X382796D01*
Y211598D01*
X381796Y210598D01*
X453800Y275600D02*
Y281598D01*
X456799D01*
X457799Y280598D01*
Y278599D01*
X456799Y277599D01*
X453800D01*
X455799D02*
X457799Y275600D01*
X459798D02*
X461797D01*
X460798D01*
Y281598D01*
X459798Y280598D01*
X464796D02*
X465796Y281598D01*
X467796D01*
X468795Y280598D01*
Y276600D01*
X467796Y275600D01*
X465796D01*
X464796Y276600D01*
Y280598D01*
X368400Y124600D02*
Y130598D01*
X371399D01*
X372399Y129598D01*
Y127599D01*
X371399Y126599D01*
X368400D01*
X370399D02*
X372399Y124600D01*
X374398Y125600D02*
X375398Y124600D01*
X377397D01*
X378397Y125600D01*
Y129598D01*
X377397Y130598D01*
X375398D01*
X374398Y129598D01*
Y128599D01*
X375398Y127599D01*
X378397D01*
X114900Y123600D02*
Y129598D01*
X117899D01*
X118899Y128598D01*
Y126599D01*
X117899Y125599D01*
X114900D01*
X116899D02*
X118899Y123600D01*
X120898Y128598D02*
X121898Y129598D01*
X123897D01*
X124897Y128598D01*
Y127599D01*
X123897Y126599D01*
X124897Y125599D01*
Y124600D01*
X123897Y123600D01*
X121898D01*
X120898Y124600D01*
Y125599D01*
X121898Y126599D01*
X120898Y127599D01*
Y128598D01*
X121898Y126599D02*
X123897D01*
X237900Y159100D02*
Y165098D01*
X240899D01*
X241899Y164098D01*
Y162099D01*
X240899Y161099D01*
X237900D01*
X239899D02*
X241899Y159100D01*
X243898Y165098D02*
X247897D01*
Y164098D01*
X243898Y160100D01*
Y159100D01*
X116900Y199200D02*
Y205198D01*
X119899D01*
X120899Y204198D01*
Y202199D01*
X119899Y201199D01*
X116900D01*
X118899D02*
X120899Y199200D01*
X126897Y205198D02*
X124897Y204198D01*
X122898Y202199D01*
Y200200D01*
X123898Y199200D01*
X125897D01*
X126897Y200200D01*
Y201199D01*
X125897Y202199D01*
X122898D01*
X157400Y302200D02*
Y308198D01*
X160399D01*
X161399Y307198D01*
Y305199D01*
X160399Y304199D01*
X157400D01*
X159399D02*
X161399Y302200D01*
X167397Y308198D02*
X163398D01*
Y305199D01*
X165397Y306199D01*
X166397D01*
X167397Y305199D01*
Y303200D01*
X166397Y302200D01*
X164398D01*
X163398Y303200D01*
X142400Y225100D02*
Y231098D01*
X145399D01*
X146399Y230098D01*
Y228099D01*
X145399Y227099D01*
X142400D01*
X144399D02*
X146399Y225100D01*
X151397D02*
Y231098D01*
X148398Y228099D01*
X152397D01*
X279800Y125100D02*
Y131098D01*
X282799D01*
X283799Y130098D01*
Y128099D01*
X282799Y127099D01*
X279800D01*
X281799D02*
X283799Y125100D01*
X285798Y130098D02*
X286798Y131098D01*
X288797D01*
X289797Y130098D01*
Y129099D01*
X288797Y128099D01*
X287797D01*
X288797D01*
X289797Y127099D01*
Y126100D01*
X288797Y125100D01*
X286798D01*
X285798Y126100D01*
X226400Y241700D02*
Y247698D01*
X229399D01*
X230399Y246698D01*
Y244699D01*
X229399Y243699D01*
X226400D01*
X228399D02*
X230399Y241700D01*
X236397D02*
X232398D01*
X236397Y245699D01*
Y246698D01*
X235397Y247698D01*
X233398D01*
X232398Y246698D01*
X285400Y231200D02*
Y237198D01*
X288399D01*
X289399Y236198D01*
Y234199D01*
X288399Y233199D01*
X285400D01*
X287399D02*
X289399Y231200D01*
X291398D02*
X293397D01*
X292398D01*
Y237198D01*
X291398Y236198D01*
X469503Y494001D02*
Y499999D01*
X472502D01*
X473501Y498999D01*
Y497000D01*
X472502Y496000D01*
X469503D01*
X475501Y494001D02*
Y499999D01*
X478500D01*
X479499Y498999D01*
Y497000D01*
X478500Y496000D01*
X475501D01*
X477500D02*
X479499Y494001D01*
X485497Y499999D02*
X483498Y498999D01*
X481499Y497000D01*
Y495001D01*
X482498Y494001D01*
X484498D01*
X485497Y495001D01*
Y496000D01*
X484498Y497000D01*
X481499D01*
X507600Y493700D02*
Y499698D01*
X510599D01*
X511599Y498698D01*
Y496699D01*
X510599Y495699D01*
X507600D01*
X513598Y493700D02*
Y499698D01*
X516597D01*
X517597Y498698D01*
Y496699D01*
X516597Y495699D01*
X513598D01*
X515597D02*
X517597Y493700D01*
X523595Y499698D02*
X519596D01*
Y496699D01*
X521595Y497699D01*
X522595D01*
X523595Y496699D01*
Y494700D01*
X522595Y493700D01*
X520596D01*
X519596Y494700D01*
X544503Y494501D02*
Y500499D01*
X547502D01*
X548501Y499499D01*
Y497500D01*
X547502Y496500D01*
X544503D01*
X550501Y494501D02*
Y500499D01*
X553500D01*
X554499Y499499D01*
Y497500D01*
X553500Y496500D01*
X550501D01*
X552500D02*
X554499Y494501D01*
X559498D02*
Y500499D01*
X556499Y497500D01*
X560497D01*
X582003Y494501D02*
Y500499D01*
X585002D01*
X586001Y499499D01*
Y497500D01*
X585002Y496500D01*
X582003D01*
X588001Y494501D02*
Y500499D01*
X591000D01*
X591999Y499499D01*
Y497500D01*
X591000Y496500D01*
X588001D01*
X590000D02*
X591999Y494501D01*
X593999Y499499D02*
X594998Y500499D01*
X596998D01*
X597997Y499499D01*
Y498500D01*
X596998Y497500D01*
X595998D01*
X596998D01*
X597997Y496500D01*
Y495501D01*
X596998Y494501D01*
X594998D01*
X593999Y495501D01*
X621503Y494501D02*
Y500499D01*
X624502D01*
X625501Y499499D01*
Y497500D01*
X624502Y496500D01*
X621503D01*
X627501Y494501D02*
Y500499D01*
X630500D01*
X631499Y499499D01*
Y497500D01*
X630500Y496500D01*
X627501D01*
X629500D02*
X631499Y494501D01*
X637497D02*
X633499D01*
X637497Y498500D01*
Y499499D01*
X636498Y500499D01*
X634498D01*
X633499Y499499D01*
X659502Y495001D02*
Y500999D01*
X662501D01*
X663501Y499999D01*
Y498000D01*
X662501Y497000D01*
X659502D01*
X665500Y495001D02*
Y500999D01*
X668499D01*
X669499Y499999D01*
Y498000D01*
X668499Y497000D01*
X665500D01*
X667500D02*
X669499Y495001D01*
X671498D02*
X673498D01*
X672498D01*
Y500999D01*
X671498Y499999D01*
X271399Y494598D02*
X270399Y495598D01*
X268400D01*
X267400Y494598D01*
Y490600D01*
X268400Y489600D01*
X270399D01*
X271399Y490600D01*
X273398Y494598D02*
X274398Y495598D01*
X276397D01*
X277397Y494598D01*
Y493599D01*
X276397Y492599D01*
X275397D01*
X276397D01*
X277397Y491599D01*
Y490600D01*
X276397Y489600D01*
X274398D01*
X273398Y490600D01*
X279396Y494598D02*
X280396Y495598D01*
X282395D01*
X283395Y494598D01*
Y493599D01*
X282395Y492599D01*
X281396D01*
X282395D01*
X283395Y491599D01*
Y490600D01*
X282395Y489600D01*
X280396D01*
X279396Y490600D01*
X115799Y424198D02*
X114799Y425198D01*
X112800D01*
X111800Y424198D01*
Y420200D01*
X112800Y419200D01*
X114799D01*
X115799Y420200D01*
X117798Y424198D02*
X118798Y425198D01*
X120797D01*
X121797Y424198D01*
Y423199D01*
X120797Y422199D01*
X119797D01*
X120797D01*
X121797Y421199D01*
Y420200D01*
X120797Y419200D01*
X118798D01*
X117798Y420200D01*
X127795Y419200D02*
X123796D01*
X127795Y423199D01*
Y424198D01*
X126795Y425198D01*
X124796D01*
X123796Y424198D01*
X333599Y461398D02*
X332599Y462398D01*
X330600D01*
X329600Y461398D01*
Y457400D01*
X330600Y456400D01*
X332599D01*
X333599Y457400D01*
X335598Y461398D02*
X336598Y462398D01*
X338597D01*
X339597Y461398D01*
Y460399D01*
X338597Y459399D01*
X337597D01*
X338597D01*
X339597Y458399D01*
Y457400D01*
X338597Y456400D01*
X336598D01*
X335598Y457400D01*
X341596Y456400D02*
X343596D01*
X342596D01*
Y462398D01*
X341596Y461398D01*
X116399Y373698D02*
X115399Y374698D01*
X113400D01*
X112400Y373698D01*
Y369700D01*
X113400Y368700D01*
X115399D01*
X116399Y369700D01*
X118398Y373698D02*
X119398Y374698D01*
X121397D01*
X122397Y373698D01*
Y372699D01*
X121397Y371699D01*
X120397D01*
X121397D01*
X122397Y370699D01*
Y369700D01*
X121397Y368700D01*
X119398D01*
X118398Y369700D01*
X124396Y373698D02*
X125396Y374698D01*
X127395D01*
X128395Y373698D01*
Y369700D01*
X127395Y368700D01*
X125396D01*
X124396Y369700D01*
Y373698D01*
X254099Y360598D02*
X253099Y361598D01*
X251100D01*
X250100Y360598D01*
Y356600D01*
X251100Y355600D01*
X253099D01*
X254099Y356600D01*
X260097Y355600D02*
X256098D01*
X260097Y359599D01*
Y360598D01*
X259097Y361598D01*
X257098D01*
X256098Y360598D01*
X262096Y356600D02*
X263096Y355600D01*
X265095D01*
X266095Y356600D01*
Y360598D01*
X265095Y361598D01*
X263096D01*
X262096Y360598D01*
Y359599D01*
X263096Y358599D01*
X266095D01*
X424399Y498098D02*
X423399Y499098D01*
X421400D01*
X420400Y498098D01*
Y494100D01*
X421400Y493100D01*
X423399D01*
X424399Y494100D01*
X430397Y493100D02*
X426398D01*
X430397Y497099D01*
Y498098D01*
X429397Y499098D01*
X427398D01*
X426398Y498098D01*
X432396D02*
X433396Y499098D01*
X435395D01*
X436395Y498098D01*
Y497099D01*
X435395Y496099D01*
X436395Y495099D01*
Y494100D01*
X435395Y493100D01*
X433396D01*
X432396Y494100D01*
Y495099D01*
X433396Y496099D01*
X432396Y497099D01*
Y498098D01*
X433396Y496099D02*
X435395D01*
X351399Y426698D02*
X350399Y427698D01*
X348400D01*
X347400Y426698D01*
Y422700D01*
X348400Y421700D01*
X350399D01*
X351399Y422700D01*
X357397Y421700D02*
X353398D01*
X357397Y425699D01*
Y426698D01*
X356397Y427698D01*
X354398D01*
X353398Y426698D01*
X359396Y427698D02*
X363395D01*
Y426698D01*
X359396Y422700D01*
Y421700D01*
X382099Y497898D02*
X381099Y498898D01*
X379100D01*
X378100Y497898D01*
Y493900D01*
X379100Y492900D01*
X381099D01*
X382099Y493900D01*
X388097Y492900D02*
X384098D01*
X388097Y496899D01*
Y497898D01*
X387097Y498898D01*
X385098D01*
X384098Y497898D01*
X394095Y498898D02*
X392095Y497898D01*
X390096Y495899D01*
Y493900D01*
X391096Y492900D01*
X393095D01*
X394095Y493900D01*
Y494899D01*
X393095Y495899D01*
X390096D01*
X429501Y457999D02*
X428502Y458999D01*
X426502D01*
X425503Y457999D01*
Y454001D01*
X426502Y453001D01*
X428502D01*
X429501Y454001D01*
X435499Y453001D02*
X431501D01*
X435499Y457000D01*
Y457999D01*
X434500Y458999D01*
X432500D01*
X431501Y457999D01*
X441497Y458999D02*
X437499D01*
Y456000D01*
X439498Y457000D01*
X440498D01*
X441497Y456000D01*
Y454001D01*
X440498Y453001D01*
X438498D01*
X437499Y454001D01*
X483599Y456098D02*
X482599Y457098D01*
X480600D01*
X479600Y456098D01*
Y452100D01*
X480600Y451100D01*
X482599D01*
X483599Y452100D01*
X489597Y451100D02*
X485598D01*
X489597Y455099D01*
Y456098D01*
X488597Y457098D01*
X486598D01*
X485598Y456098D01*
X494595Y451100D02*
Y457098D01*
X491596Y454099D01*
X495595D01*
X516399Y381598D02*
X515399Y382598D01*
X513400D01*
X512400Y381598D01*
Y377600D01*
X513400Y376600D01*
X515399D01*
X516399Y377600D01*
X522397Y376600D02*
X518398D01*
X522397Y380599D01*
Y381598D01*
X521397Y382598D01*
X519398D01*
X518398Y381598D01*
X524396D02*
X525396Y382598D01*
X527395D01*
X528395Y381598D01*
Y380599D01*
X527395Y379599D01*
X526396D01*
X527395D01*
X528395Y378599D01*
Y377600D01*
X527395Y376600D01*
X525396D01*
X524396Y377600D01*
X455599Y316698D02*
X454599Y317698D01*
X452600D01*
X451600Y316698D01*
Y312700D01*
X452600Y311700D01*
X454599D01*
X455599Y312700D01*
X461597Y311700D02*
X457598D01*
X461597Y315699D01*
Y316698D01*
X460597Y317698D01*
X458598D01*
X457598Y316698D01*
X467595Y311700D02*
X463596D01*
X467595Y315699D01*
Y316698D01*
X466595Y317698D01*
X464596D01*
X463596Y316698D01*
X348299Y279398D02*
X347299Y280398D01*
X345300D01*
X344300Y279398D01*
Y275400D01*
X345300Y274400D01*
X347299D01*
X348299Y275400D01*
X354297Y274400D02*
X350298D01*
X354297Y278399D01*
Y279398D01*
X353297Y280398D01*
X351298D01*
X350298Y279398D01*
X356296Y274400D02*
X358295D01*
X357296D01*
Y280398D01*
X356296Y279398D01*
X295899Y337598D02*
X294899Y338598D01*
X292900D01*
X291900Y337598D01*
Y333600D01*
X292900Y332600D01*
X294899D01*
X295899Y333600D01*
X301897Y332600D02*
X297898D01*
X301897Y336599D01*
Y337598D01*
X300897Y338598D01*
X298898D01*
X297898Y337598D01*
X303896D02*
X304896Y338598D01*
X306895D01*
X307895Y337598D01*
Y333600D01*
X306895Y332600D01*
X304896D01*
X303896Y333600D01*
Y337598D01*
X593599Y326698D02*
X592599Y327698D01*
X590600D01*
X589600Y326698D01*
Y322700D01*
X590600Y321700D01*
X592599D01*
X593599Y322700D01*
X595598Y321700D02*
X597597D01*
X596598D01*
Y327698D01*
X595598Y326698D01*
X600596Y322700D02*
X601596Y321700D01*
X603595D01*
X604595Y322700D01*
Y326698D01*
X603595Y327698D01*
X601596D01*
X600596Y326698D01*
Y325699D01*
X601596Y324699D01*
X604595D01*
X441399Y251198D02*
X440399Y252198D01*
X438400D01*
X437400Y251198D01*
Y247200D01*
X438400Y246200D01*
X440399D01*
X441399Y247200D01*
X443398Y246200D02*
X445397D01*
X444398D01*
Y252198D01*
X443398Y251198D01*
X448396D02*
X449396Y252198D01*
X451396D01*
X452395Y251198D01*
Y250199D01*
X451396Y249199D01*
X452395Y248199D01*
Y247200D01*
X451396Y246200D01*
X449396D01*
X448396Y247200D01*
Y248199D01*
X449396Y249199D01*
X448396Y250199D01*
Y251198D01*
X449396Y249199D02*
X451396D01*
X389899Y305598D02*
X388899Y306598D01*
X386900D01*
X385900Y305598D01*
Y301600D01*
X386900Y300600D01*
X388899D01*
X389899Y301600D01*
X391898Y300600D02*
X393897D01*
X392898D01*
Y306598D01*
X391898Y305598D01*
X396896Y306598D02*
X400895D01*
Y305598D01*
X396896Y301600D01*
Y300600D01*
X675399Y454598D02*
X674399Y455598D01*
X672400D01*
X671400Y454598D01*
Y450600D01*
X672400Y449600D01*
X674399D01*
X675399Y450600D01*
X677398Y449600D02*
X679397D01*
X678398D01*
Y455598D01*
X677398Y454598D01*
X686395Y455598D02*
X684396Y454598D01*
X682396Y452599D01*
Y450600D01*
X683396Y449600D01*
X685395D01*
X686395Y450600D01*
Y451599D01*
X685395Y452599D01*
X682396D01*
X607399Y286598D02*
X606399Y287598D01*
X604400D01*
X603400Y286598D01*
Y282600D01*
X604400Y281600D01*
X606399D01*
X607399Y282600D01*
X609398Y281600D02*
X611397D01*
X610398D01*
Y287598D01*
X609398Y286598D01*
X618395Y287598D02*
X614396D01*
Y284599D01*
X616396Y285599D01*
X617395D01*
X618395Y284599D01*
Y282600D01*
X617395Y281600D01*
X615396D01*
X614396Y282600D01*
X675399Y411098D02*
X674399Y412098D01*
X672400D01*
X671400Y411098D01*
Y407100D01*
X672400Y406100D01*
X674399D01*
X675399Y407100D01*
X677398Y406100D02*
X679397D01*
X678398D01*
Y412098D01*
X677398Y411098D01*
X685395Y406100D02*
Y412098D01*
X682396Y409099D01*
X686395D01*
X672399Y256098D02*
X671399Y257098D01*
X669400D01*
X668400Y256098D01*
Y252100D01*
X669400Y251100D01*
X671399D01*
X672399Y252100D01*
X674398Y251100D02*
X676397D01*
X675398D01*
Y257098D01*
X674398Y256098D01*
X679396D02*
X680396Y257098D01*
X682396D01*
X683395Y256098D01*
Y255099D01*
X682396Y254099D01*
X681396D01*
X682396D01*
X683395Y253099D01*
Y252100D01*
X682396Y251100D01*
X680396D01*
X679396Y252100D01*
X506399Y244098D02*
X505399Y245098D01*
X503400D01*
X502400Y244098D01*
Y240100D01*
X503400Y239100D01*
X505399D01*
X506399Y240100D01*
X508398Y239100D02*
X510397D01*
X509398D01*
Y245098D01*
X508398Y244098D01*
X517395Y239100D02*
X513396D01*
X517395Y243099D01*
Y244098D01*
X516396Y245098D01*
X514396D01*
X513396Y244098D01*
X424399Y286098D02*
X423399Y287098D01*
X421400D01*
X420400Y286098D01*
Y282100D01*
X421400Y281100D01*
X423399D01*
X424399Y282100D01*
X426398Y281100D02*
X428397D01*
X427398D01*
Y287098D01*
X426398Y286098D01*
X431396Y281100D02*
X433396D01*
X432396D01*
Y287098D01*
X431396Y286098D01*
X383099Y255698D02*
X382099Y256698D01*
X380100D01*
X379100Y255698D01*
Y251700D01*
X380100Y250700D01*
X382099D01*
X383099Y251700D01*
X385098Y250700D02*
X387097D01*
X386098D01*
Y256698D01*
X385098Y255698D01*
X390096D02*
X391096Y256698D01*
X393095D01*
X394095Y255698D01*
Y251700D01*
X393095Y250700D01*
X391096D01*
X390096Y251700D01*
Y255698D01*
X456799Y166398D02*
X455799Y167398D01*
X453800D01*
X452800Y166398D01*
Y162400D01*
X453800Y161400D01*
X455799D01*
X456799Y162400D01*
X458798D02*
X459798Y161400D01*
X461797D01*
X462797Y162400D01*
Y166398D01*
X461797Y167398D01*
X459798D01*
X458798Y166398D01*
Y165399D01*
X459798Y164399D01*
X462797D01*
X396399Y179598D02*
X395399Y180598D01*
X393400D01*
X392400Y179598D01*
Y175600D01*
X393400Y174600D01*
X395399D01*
X396399Y175600D01*
X398398Y179598D02*
X399398Y180598D01*
X401397D01*
X402397Y179598D01*
Y178599D01*
X401397Y177599D01*
X402397Y176599D01*
Y175600D01*
X401397Y174600D01*
X399398D01*
X398398Y175600D01*
Y176599D01*
X399398Y177599D01*
X398398Y178599D01*
Y179598D01*
X399398Y177599D02*
X401397D01*
X321599Y239898D02*
X320599Y240898D01*
X318600D01*
X317600Y239898D01*
Y235900D01*
X318600Y234900D01*
X320599D01*
X321599Y235900D01*
X323598Y240898D02*
X327597D01*
Y239898D01*
X323598Y235900D01*
Y234900D01*
X321099Y289898D02*
X320099Y290898D01*
X318100D01*
X317100Y289898D01*
Y285900D01*
X318100Y284900D01*
X320099D01*
X321099Y285900D01*
X327097Y290898D02*
X325097Y289898D01*
X323098Y287899D01*
Y285900D01*
X324098Y284900D01*
X326097D01*
X327097Y285900D01*
Y286899D01*
X326097Y287899D01*
X323098D01*
X262099Y242398D02*
X261099Y243398D01*
X259100D01*
X258100Y242398D01*
Y238400D01*
X259100Y237400D01*
X261099D01*
X262099Y238400D01*
X268097Y243398D02*
X264098D01*
Y240399D01*
X266097Y241399D01*
X267097D01*
X268097Y240399D01*
Y238400D01*
X267097Y237400D01*
X265098D01*
X264098Y238400D01*
X201399Y318098D02*
X200399Y319098D01*
X198400D01*
X197400Y318098D01*
Y314100D01*
X198400Y313100D01*
X200399D01*
X201399Y314100D01*
X206397Y313100D02*
Y319098D01*
X203398Y316099D01*
X207397D01*
X199799Y194898D02*
X198799Y195898D01*
X196800D01*
X195800Y194898D01*
Y190900D01*
X196800Y189900D01*
X198799D01*
X199799Y190900D01*
X201798Y194898D02*
X202798Y195898D01*
X204797D01*
X205797Y194898D01*
Y193899D01*
X204797Y192899D01*
X203797D01*
X204797D01*
X205797Y191899D01*
Y190900D01*
X204797Y189900D01*
X202798D01*
X201798Y190900D01*
X180099Y132198D02*
X179099Y133198D01*
X177100D01*
X176100Y132198D01*
Y128200D01*
X177100Y127200D01*
X179099D01*
X180099Y128200D01*
X186097Y127200D02*
X182098D01*
X186097Y131199D01*
Y132198D01*
X185097Y133198D01*
X183098D01*
X182098Y132198D01*
X238099Y125898D02*
X237099Y126898D01*
X235100D01*
X234100Y125898D01*
Y121900D01*
X235100Y120900D01*
X237099D01*
X238099Y121900D01*
X240098Y120900D02*
X242097D01*
X241098D01*
Y126898D01*
X240098Y125898D01*
M02*
