G04*
G04 #@! TF.GenerationSoftware,Altium Limited,Altium Designer,22.4.2 (48)*
G04*
G04 Layer_Color=2752767*
%FSLAX25Y25*%
%MOIN*%
G70*
G04*
G04 #@! TF.SameCoordinates,9D7DA267-A193-428E-9E10-CD2539F38239*
G04*
G04*
G04 #@! TF.FilePolarity,Positive*
G04*
G01*
G75*
%ADD36C,0.00500*%
%ADD37C,0.00667*%
D36*
X530500Y445000D02*
Y449000D01*
X534500D01*
Y445000D01*
X530500D01*
X540500D02*
Y449000D01*
X544500D01*
Y445000D01*
X540500D01*
X550500D02*
Y449000D01*
X554500D01*
Y445000D01*
X550500D01*
X520500Y415000D02*
Y419000D01*
X524500D01*
Y415000D01*
X520500D01*
X144000Y143500D02*
Y147500D01*
X148000D01*
Y143500D01*
X144000D01*
X154000D02*
Y147500D01*
X158000D01*
Y143500D01*
X154000D01*
X164000D02*
Y147500D01*
X168000D01*
Y143500D01*
X164000D01*
X174000D02*
Y147500D01*
X178000D01*
Y143500D01*
X174000D01*
X144000Y173500D02*
Y177500D01*
X148000D01*
Y173500D01*
X144000D01*
X154000D02*
Y177500D01*
X158000D01*
Y173500D01*
X154000D01*
X164000D02*
Y177500D01*
X168000D01*
Y173500D01*
X164000D01*
X174000D02*
Y177500D01*
X178000D01*
Y173500D01*
X174000D01*
X277000Y267500D02*
Y271500D01*
X281000D01*
Y267500D01*
X277000D01*
Y277500D02*
Y281500D01*
X281000D01*
Y277500D01*
X277000D01*
Y287500D02*
Y291500D01*
X281000D01*
Y287500D01*
X277000D01*
Y297500D02*
Y301500D01*
X281000D01*
Y297500D01*
X277000D01*
X247000Y267500D02*
Y271500D01*
X251000D01*
Y267500D01*
X247000D01*
Y277500D02*
Y281500D01*
X251000D01*
Y277500D01*
X247000D01*
Y287500D02*
Y291500D01*
X251000D01*
Y287500D01*
X247000D01*
Y297500D02*
Y301500D01*
X251000D01*
Y297500D01*
X247000D01*
X585000Y376500D02*
Y380500D01*
X589000D01*
Y376500D01*
X585000D01*
Y366500D02*
Y370500D01*
X589000D01*
Y366500D01*
X585000D01*
Y356500D02*
Y360500D01*
X589000D01*
Y356500D01*
X585000D01*
Y346500D02*
Y350500D01*
X589000D01*
Y346500D01*
X585000D01*
X615000Y376500D02*
Y380500D01*
X619000D01*
Y376500D01*
X615000D01*
Y366500D02*
Y370500D01*
X619000D01*
Y366500D01*
X615000D01*
Y356500D02*
Y360500D01*
X619000D01*
Y356500D01*
X615000D01*
Y346500D02*
Y350500D01*
X619000D01*
Y346500D01*
X615000D01*
X425000Y372500D02*
Y376500D01*
X429000D01*
Y372500D01*
X425000D01*
Y362500D02*
Y366500D01*
X429000D01*
Y362500D01*
X425000D01*
Y352500D02*
Y356500D01*
X429000D01*
Y352500D01*
X425000D01*
Y342500D02*
Y346500D01*
X429000D01*
Y342500D01*
X425000D01*
X455000Y372500D02*
Y376500D01*
X459000D01*
Y372500D01*
X455000D01*
Y362500D02*
Y366500D01*
X459000D01*
Y362500D01*
X455000D01*
Y352500D02*
Y356500D01*
X459000D01*
Y352500D01*
X455000D01*
Y342500D02*
Y346500D01*
X459000D01*
Y342500D01*
X455000D01*
X161500Y398000D02*
Y402000D01*
X165500D01*
Y398000D01*
X161500D01*
Y388000D02*
Y392000D01*
X165500D01*
Y388000D01*
X161500D01*
Y378000D02*
Y382000D01*
X165500D01*
Y378000D01*
X161500D01*
Y368000D02*
Y372000D01*
X165500D01*
Y368000D01*
X161500D01*
X191500Y398000D02*
Y402000D01*
X195500D01*
Y398000D01*
X191500D01*
Y388000D02*
Y392000D01*
X195500D01*
Y388000D01*
X191500D01*
Y378000D02*
Y382000D01*
X195500D01*
Y378000D01*
X191500D01*
Y368000D02*
Y372000D01*
X195500D01*
Y368000D01*
X191500D01*
X520500Y445000D02*
Y449000D01*
X524500D01*
Y445000D01*
X520500D01*
X550500Y415000D02*
Y419000D01*
X554500D01*
Y415000D01*
X550500D01*
X540500D02*
Y419000D01*
X544500D01*
Y415000D01*
X540500D01*
X530500D02*
Y419000D01*
X534500D01*
Y415000D01*
X530500D01*
X455500Y113000D02*
X453500Y117000D01*
X457500D01*
X455500Y113000D01*
X475185D02*
X473185Y117000D01*
X477185D01*
X475185Y113000D01*
X312500Y184500D02*
Y188500D01*
X316500D01*
Y184500D01*
X312500D01*
Y174500D02*
Y178500D01*
X316500D01*
Y174500D01*
X312500D01*
Y164500D02*
Y168500D01*
X316500D01*
Y164500D01*
X312500D01*
Y154500D02*
Y158500D01*
X316500D01*
Y154500D01*
X312500D01*
X342500Y184500D02*
Y188500D01*
X346500D01*
Y184500D01*
X342500D01*
Y174500D02*
Y178500D01*
X346500D01*
Y174500D01*
X342500D01*
Y164500D02*
Y168500D01*
X346500D01*
Y164500D01*
X342500D01*
Y154500D02*
Y158500D01*
X346500D01*
Y154500D01*
X342500D01*
X454000Y179000D02*
Y183000D01*
X458000D01*
Y179000D01*
X454000D01*
X464000D02*
Y183000D01*
X468000D01*
Y179000D01*
X464000D01*
X474000D02*
Y183000D01*
X478000D01*
Y179000D01*
X474000D01*
X484000D02*
Y183000D01*
X488000D01*
Y179000D01*
X484000D01*
X454000Y209000D02*
Y213000D01*
X458000D01*
Y209000D01*
X454000D01*
X464000D02*
Y213000D01*
X468000D01*
Y209000D01*
X464000D01*
X474000D02*
Y213000D01*
X478000D01*
Y209000D01*
X474000D01*
X484000D02*
Y213000D01*
X488000D01*
Y209000D01*
X484000D01*
X275000Y382000D02*
Y386000D01*
X279000D01*
Y382000D01*
X275000D01*
Y372000D02*
Y376000D01*
X279000D01*
Y372000D01*
X275000D01*
Y362000D02*
Y366000D01*
X279000D01*
Y362000D01*
X275000D01*
Y352000D02*
Y356000D01*
X279000D01*
Y352000D01*
X275000D01*
X305000Y382000D02*
Y386000D01*
X309000D01*
Y382000D01*
X305000D01*
Y372000D02*
Y376000D01*
X309000D01*
Y372000D01*
X305000D01*
Y362000D02*
Y366000D01*
X309000D01*
Y362000D01*
X305000D01*
Y352000D02*
Y356000D01*
X309000D01*
Y352000D01*
X305000D01*
X596000Y186000D02*
Y190000D01*
X600000D01*
Y186000D01*
X596000D01*
Y176000D02*
Y180000D01*
X600000D01*
Y176000D01*
X596000D01*
Y166000D02*
Y170000D01*
X600000D01*
Y166000D01*
X596000D01*
Y156000D02*
Y160000D01*
X600000D01*
Y156000D01*
X596000D01*
X626000Y186000D02*
Y190000D01*
X630000D01*
Y186000D01*
X626000D01*
Y176000D02*
Y180000D01*
X630000D01*
Y176000D01*
X626000D01*
Y166000D02*
Y170000D01*
X630000D01*
Y166000D01*
X626000D01*
Y156000D02*
Y160000D01*
X630000D01*
Y156000D01*
X626000D01*
X121000Y255000D02*
X122000Y256000D01*
X123000D01*
X122000Y257000D01*
X123000Y258000D01*
X122000D01*
X121000Y259000D01*
X120000Y258000D01*
X119000D01*
X120000Y257000D01*
X119000Y256000D01*
X120000D01*
X121000Y255000D01*
Y245000D02*
X122000Y246000D01*
X123000D01*
X122000Y247000D01*
X123000Y248000D01*
X122000D01*
X121000Y249000D01*
X120000Y248000D01*
X119000D01*
X120000Y247000D01*
X119000Y246000D01*
X120000D01*
X121000Y245000D01*
Y235000D02*
X122000Y236000D01*
X123000D01*
X122000Y237000D01*
X123000Y238000D01*
X122000D01*
X121000Y239000D01*
X120000Y238000D01*
X119000D01*
X120000Y237000D01*
X119000Y236000D01*
X120000D01*
X121000Y235000D01*
X181000Y112000D02*
X179000Y116000D01*
X183000D01*
X181000Y112000D01*
X212496D02*
X210496Y116000D01*
X214496D01*
X212496Y112000D01*
X205000Y147504D02*
X203000Y151504D01*
X207000D01*
X205000Y147504D01*
Y179000D02*
X203000Y183000D01*
X207000D01*
X205000Y179000D01*
X261500Y226500D02*
X259500Y230500D01*
X263500D01*
X261500Y226500D01*
Y195004D02*
X259500Y199004D01*
X263500D01*
X261500Y195004D01*
X354000Y225500D02*
X352000Y229500D01*
X356000D01*
X354000Y225500D01*
X322504D02*
X320504Y229500D01*
X324504D01*
X322504Y225500D01*
X384000Y235500D02*
X382000Y239500D01*
X386000D01*
X384000Y235500D01*
X415496D02*
X413496Y239500D01*
X417496D01*
X415496Y235500D01*
X594504Y306500D02*
X592504Y310500D01*
X596504D01*
X594504Y306500D01*
X626000D02*
X624000Y310500D01*
X628000D01*
X626000Y306500D01*
X456504Y296500D02*
X454504Y300500D01*
X458504D01*
X456504Y296500D01*
X488000D02*
X486000Y300500D01*
X490000D01*
X488000Y296500D01*
X287500Y177067D02*
X288500Y179067D01*
X287500Y181067D01*
X289500Y180067D01*
X291500Y181067D01*
X290500Y179067D01*
X291500Y177067D01*
X289500Y178067D01*
X287500Y177067D01*
Y223000D02*
X288500Y225000D01*
X287500Y227000D01*
X289500Y226000D01*
X291500Y227000D01*
X290500Y225000D01*
X291500Y223000D01*
X289500Y224000D01*
X287500Y223000D01*
X228500Y233500D02*
X229500Y235500D01*
X228500Y237500D01*
X230500Y236500D01*
X232500Y237500D01*
X231500Y235500D01*
X232500Y233500D01*
X230500Y234500D01*
X228500Y233500D01*
Y187567D02*
X229500Y189567D01*
X228500Y191567D01*
X230500Y190567D01*
X232500Y191567D01*
X231500Y189567D01*
X232500Y187567D01*
X230500Y188567D01*
X228500Y187567D01*
X280000Y115000D02*
X281000Y117000D01*
X280000Y119000D01*
X282000Y118000D01*
X284000Y119000D01*
X283000Y117000D01*
X284000Y115000D01*
X282000Y116000D01*
X280000Y115000D01*
X325933D02*
X326933Y117000D01*
X325933Y119000D01*
X327933Y118000D01*
X329933Y119000D01*
X328933Y117000D01*
X329933Y115000D01*
X327933Y116000D01*
X325933Y115000D01*
X188500Y215000D02*
X189500Y217000D01*
X188500Y219000D01*
X190500Y218000D01*
X192500Y219000D01*
X191500Y217000D01*
X192500Y215000D01*
X190500Y216000D01*
X188500Y215000D01*
X142567D02*
X143567Y217000D01*
X142567Y219000D01*
X144567Y218000D01*
X146567Y219000D01*
X145567Y217000D01*
X146567Y215000D01*
X144567Y216000D01*
X142567Y215000D01*
X159500Y248067D02*
X160500Y250067D01*
X159500Y252067D01*
X161500Y251067D01*
X163500Y252067D01*
X162500Y250067D01*
X163500Y248067D01*
X161500Y249067D01*
X159500Y248067D01*
Y294000D02*
X160500Y296000D01*
X159500Y298000D01*
X161500Y297000D01*
X163500Y298000D01*
X162500Y296000D01*
X163500Y294000D01*
X161500Y295000D01*
X159500Y294000D01*
X119000Y145067D02*
X120000Y147067D01*
X119000Y149067D01*
X121000Y148067D01*
X123000Y149067D01*
X122000Y147067D01*
X123000Y145067D01*
X121000Y146067D01*
X119000Y145067D01*
Y191000D02*
X120000Y193000D01*
X119000Y195000D01*
X121000Y194000D01*
X123000Y195000D01*
X122000Y193000D01*
X123000Y191000D01*
X121000Y192000D01*
X119000Y191000D01*
X238067Y149000D02*
X239067Y151000D01*
X238067Y153000D01*
X240067Y152000D01*
X242067Y153000D01*
X241067Y151000D01*
X242067Y149000D01*
X240067Y150000D01*
X238067Y149000D01*
X284000D02*
X285000Y151000D01*
X284000Y153000D01*
X286000Y152000D01*
X288000Y153000D01*
X287000Y151000D01*
X288000Y149000D01*
X286000Y150000D01*
X284000Y149000D01*
X161000Y113500D02*
X162000Y115500D01*
X161000Y117500D01*
X163000Y116500D01*
X165000Y117500D01*
X164000Y115500D01*
X165000Y113500D01*
X163000Y114500D01*
X161000Y113500D01*
X115067D02*
X116067Y115500D01*
X115067Y117500D01*
X117067Y116500D01*
X119067Y117500D01*
X118067Y115500D01*
X119067Y113500D01*
X117067Y114500D01*
X115067Y113500D01*
X414500Y114500D02*
X415500Y116500D01*
X414500Y118500D01*
X416500Y117500D01*
X418500Y118500D01*
X417500Y116500D01*
X418500Y114500D01*
X416500Y115500D01*
X414500Y114500D01*
X368567D02*
X369567Y116500D01*
X368567Y118500D01*
X370567Y117500D01*
X372567Y118500D01*
X371567Y116500D01*
X372567Y114500D01*
X370567Y115500D01*
X368567Y114500D01*
X454000Y265500D02*
X455000Y267500D01*
X454000Y269500D01*
X456000Y268500D01*
X458000Y269500D01*
X457000Y267500D01*
X458000Y265500D01*
X456000Y266500D01*
X454000Y265500D01*
X499933D02*
X500933Y267500D01*
X499933Y269500D01*
X501933Y268500D01*
X503933Y269500D01*
X502933Y267500D01*
X503933Y265500D01*
X501933Y266500D01*
X499933Y265500D01*
X416933Y195500D02*
X417933Y197500D01*
X416933Y199500D01*
X418933Y198500D01*
X420933Y199500D01*
X419933Y197500D01*
X420933Y195500D01*
X418933Y196500D01*
X416933Y195500D01*
X371000D02*
X372000Y197500D01*
X371000Y199500D01*
X373000Y198500D01*
X375000Y199500D01*
X374000Y197500D01*
X375000Y195500D01*
X373000Y196500D01*
X371000Y195500D01*
X554933Y114000D02*
X555933Y116000D01*
X554933Y118000D01*
X556933Y117000D01*
X558933Y118000D01*
X557933Y116000D01*
X558933Y114000D01*
X556933Y115000D01*
X554933Y114000D01*
X509000D02*
X510000Y116000D01*
X509000Y118000D01*
X511000Y117000D01*
X513000Y118000D01*
X512000Y116000D01*
X513000Y114000D01*
X511000Y115000D01*
X509000Y114000D01*
X523000Y191500D02*
X524000Y193500D01*
X523000Y195500D01*
X525000Y194500D01*
X527000Y195500D01*
X526000Y193500D01*
X527000Y191500D01*
X525000Y192500D01*
X523000Y191500D01*
Y145567D02*
X524000Y147567D01*
X523000Y149567D01*
X525000Y148567D01*
X527000Y149567D01*
X526000Y147567D01*
X527000Y145567D01*
X525000Y146567D01*
X523000Y145567D01*
X580067Y114000D02*
X581067Y116000D01*
X580067Y118000D01*
X582067Y117000D01*
X584067Y118000D01*
X583067Y116000D01*
X584067Y114000D01*
X582067Y115000D01*
X580067Y114000D01*
X626000D02*
X627000Y116000D01*
X626000Y118000D01*
X628000Y117000D01*
X630000Y118000D01*
X629000Y116000D01*
X630000Y114000D01*
X628000Y115000D01*
X626000Y114000D01*
X687433Y116000D02*
X688433Y118000D01*
X687433Y120000D01*
X689433Y119000D01*
X691433Y120000D01*
X690433Y118000D01*
X691433Y116000D01*
X689433Y117000D01*
X687433Y116000D01*
X641500D02*
X642500Y118000D01*
X641500Y120000D01*
X643500Y119000D01*
X645500Y120000D01*
X644500Y118000D01*
X645500Y116000D01*
X643500Y117000D01*
X641500Y116000D01*
X525567Y248500D02*
X526567Y250500D01*
X525567Y252500D01*
X527567Y251500D01*
X529567Y252500D01*
X528567Y250500D01*
X529567Y248500D01*
X527567Y249500D01*
X525567Y248500D01*
X571500D02*
X572500Y250500D01*
X571500Y252500D01*
X573500Y251500D01*
X575500Y252500D01*
X574500Y250500D01*
X575500Y248500D01*
X573500Y249500D01*
X571500Y248500D01*
X559000Y190433D02*
X560000Y192433D01*
X559000Y194433D01*
X561000Y193433D01*
X563000Y194433D01*
X562000Y192433D01*
X563000Y190433D01*
X561000Y191433D01*
X559000Y190433D01*
Y144500D02*
X560000Y146500D01*
X559000Y148500D01*
X561000Y147500D01*
X563000Y148500D01*
X562000Y146500D01*
X563000Y144500D01*
X561000Y145500D01*
X559000Y144500D01*
X682500Y194933D02*
X683500Y196933D01*
X682500Y198933D01*
X684500Y197933D01*
X686500Y198933D01*
X685500Y196933D01*
X686500Y194933D01*
X684500Y195933D01*
X682500Y194933D01*
Y149000D02*
X683500Y151000D01*
X682500Y153000D01*
X684500Y152000D01*
X686500Y153000D01*
X685500Y151000D01*
X686500Y149000D01*
X684500Y150000D01*
X682500Y149000D01*
X680500Y276500D02*
X681500Y278500D01*
X680500Y280500D01*
X682500Y279500D01*
X684500Y280500D01*
X683500Y278500D01*
X684500Y276500D01*
X682500Y277500D01*
X680500Y276500D01*
Y322433D02*
X681500Y324433D01*
X680500Y326433D01*
X682500Y325433D01*
X684500Y326433D01*
X683500Y324433D01*
X684500Y322433D01*
X682500Y323433D01*
X680500Y322433D01*
X641567Y355000D02*
X642567Y357000D01*
X641567Y359000D01*
X643567Y358000D01*
X645567Y359000D01*
X644567Y357000D01*
X645567Y355000D01*
X643567Y356000D01*
X641567Y355000D01*
X687500D02*
X688500Y357000D01*
X687500Y359000D01*
X689500Y358000D01*
X691500Y359000D01*
X690500Y357000D01*
X691500Y355000D01*
X689500Y356000D01*
X687500Y355000D01*
X632500Y227000D02*
X633500Y229000D01*
X632500Y231000D01*
X634500Y230000D01*
X636500Y231000D01*
X635500Y229000D01*
X636500Y227000D01*
X634500Y228000D01*
X632500Y227000D01*
X586567D02*
X587567Y229000D01*
X586567Y231000D01*
X588567Y230000D01*
X590567Y231000D01*
X589567Y229000D01*
X590567Y227000D01*
X588567Y228000D01*
X586567Y227000D01*
X654000Y195433D02*
X655000Y197433D01*
X654000Y199433D01*
X656000Y198433D01*
X658000Y199433D01*
X657000Y197433D01*
X658000Y195433D01*
X656000Y196433D01*
X654000Y195433D01*
Y149500D02*
X655000Y151500D01*
X654000Y153500D01*
X656000Y152500D01*
X658000Y153500D01*
X657000Y151500D01*
X658000Y149500D01*
X656000Y150500D01*
X654000Y149500D01*
X650000Y321933D02*
X651000Y323933D01*
X650000Y325933D01*
X652000Y324933D01*
X654000Y325933D01*
X653000Y323933D01*
X654000Y321933D01*
X652000Y322933D01*
X650000Y321933D01*
Y276000D02*
X651000Y278000D01*
X650000Y280000D01*
X652000Y279000D01*
X654000Y280000D01*
X653000Y278000D01*
X654000Y276000D01*
X652000Y277000D01*
X650000Y276000D01*
X550000Y333567D02*
X551000Y335567D01*
X550000Y337567D01*
X552000Y336567D01*
X554000Y337567D01*
X553000Y335567D01*
X554000Y333567D01*
X552000Y334567D01*
X550000Y333567D01*
Y379500D02*
X551000Y381500D01*
X550000Y383500D01*
X552000Y382500D01*
X554000Y383500D01*
X553000Y381500D01*
X554000Y379500D01*
X552000Y380500D01*
X550000Y379500D01*
X630500Y449933D02*
X631500Y451933D01*
X630500Y453933D01*
X632500Y452933D01*
X634500Y453933D01*
X633500Y451933D01*
X634500Y449933D01*
X632500Y450933D01*
X630500Y449933D01*
Y404000D02*
X631500Y406000D01*
X630500Y408000D01*
X632500Y407000D01*
X634500Y408000D01*
X633500Y406000D01*
X634500Y404000D01*
X632500Y405000D01*
X630500Y404000D01*
X570000Y277000D02*
X571000Y279000D01*
X570000Y281000D01*
X572000Y280000D01*
X574000Y281000D01*
X573000Y279000D01*
X574000Y277000D01*
X572000Y278000D01*
X570000Y277000D01*
X524067D02*
X525067Y279000D01*
X524067Y281000D01*
X526067Y280000D01*
X528067Y281000D01*
X527067Y279000D01*
X528067Y277000D01*
X526067Y278000D01*
X524067Y277000D01*
X343000Y343000D02*
X344000Y345000D01*
X343000Y347000D01*
X345000Y346000D01*
X347000Y347000D01*
X346000Y345000D01*
X347000Y343000D01*
X345000Y344000D01*
X343000Y343000D01*
Y297067D02*
X344000Y299067D01*
X343000Y301067D01*
X345000Y300067D01*
X347000Y301067D01*
X346000Y299067D01*
X347000Y297067D01*
X345000Y298067D01*
X343000Y297067D01*
X569500Y304000D02*
X570500Y306000D01*
X569500Y308000D01*
X571500Y307000D01*
X573500Y308000D01*
X572500Y306000D01*
X573500Y304000D01*
X571500Y305000D01*
X569500Y304000D01*
X523567D02*
X524567Y306000D01*
X523567Y308000D01*
X525567Y307000D01*
X527567Y308000D01*
X526567Y306000D01*
X527567Y304000D01*
X525567Y305000D01*
X523567Y304000D01*
X584500Y403500D02*
X585500Y405500D01*
X584500Y407500D01*
X586500Y406500D01*
X588500Y407500D01*
X587500Y405500D01*
X588500Y403500D01*
X586500Y404500D01*
X584500Y403500D01*
Y449433D02*
X585500Y451433D01*
X584500Y453433D01*
X586500Y452433D01*
X588500Y453433D01*
X587500Y451433D01*
X588500Y449433D01*
X586500Y450433D01*
X584500Y449433D01*
X393500Y348067D02*
X394500Y350067D01*
X393500Y352067D01*
X395500Y351067D01*
X397500Y352067D01*
X396500Y350067D01*
X397500Y348067D01*
X395500Y349067D01*
X393500Y348067D01*
Y394000D02*
X394500Y396000D01*
X393500Y398000D01*
X395500Y397000D01*
X397500Y398000D01*
X396500Y396000D01*
X397500Y394000D01*
X395500Y395000D01*
X393500Y394000D01*
X381500Y322000D02*
X382500Y324000D01*
X381500Y326000D01*
X383500Y325000D01*
X385500Y326000D01*
X384500Y324000D01*
X385500Y322000D01*
X383500Y323000D01*
X381500Y322000D01*
X427433D02*
X428433Y324000D01*
X427433Y326000D01*
X429433Y325000D01*
X431433Y326000D01*
X430433Y324000D01*
X431433Y322000D01*
X429433Y323000D01*
X427433Y322000D01*
X417500Y405500D02*
X418500Y407500D01*
X417500Y409500D01*
X419500Y408500D01*
X421500Y409500D01*
X420500Y407500D01*
X421500Y405500D01*
X419500Y406500D01*
X417500Y405500D01*
X463433D02*
X464433Y407500D01*
X463433Y409500D01*
X465433Y408500D01*
X467433Y409500D01*
X466433Y407500D01*
X467433Y405500D01*
X465433Y406500D01*
X463433Y405500D01*
X485500Y332567D02*
X486500Y334567D01*
X485500Y336567D01*
X487500Y335567D01*
X489500Y336567D01*
X488500Y334567D01*
X489500Y332567D01*
X487500Y333567D01*
X485500Y332567D01*
Y378500D02*
X486500Y380500D01*
X485500Y382500D01*
X487500Y381500D01*
X489500Y382500D01*
X488500Y380500D01*
X489500Y378500D01*
X487500Y379500D01*
X485500Y378500D01*
X363067Y438500D02*
X364067Y440500D01*
X363067Y442500D01*
X365067Y441500D01*
X367067Y442500D01*
X366067Y440500D01*
X367067Y438500D01*
X365067Y439500D01*
X363067Y438500D01*
X409000D02*
X410000Y440500D01*
X409000Y442500D01*
X411000Y441500D01*
X413000Y442500D01*
X412000Y440500D01*
X413000Y438500D01*
X411000Y439500D01*
X409000Y438500D01*
X374433Y376500D02*
X375433Y378500D01*
X374433Y380500D01*
X376433Y379500D01*
X378433Y380500D01*
X377433Y378500D01*
X378433Y376500D01*
X376433Y377500D01*
X374433Y376500D01*
X328500D02*
X329500Y378500D01*
X328500Y380500D01*
X330500Y379500D01*
X332500Y380500D01*
X331500Y378500D01*
X332500Y376500D01*
X330500Y377500D01*
X328500Y376500D01*
X355500Y482500D02*
X356500Y484500D01*
X355500Y486500D01*
X357500Y485500D01*
X359500Y486500D01*
X358500Y484500D01*
X359500Y482500D01*
X357500Y483500D01*
X355500Y482500D01*
X309567D02*
X310567Y484500D01*
X309567Y486500D01*
X311567Y485500D01*
X313567Y486500D01*
X312567Y484500D01*
X313567Y482500D01*
X311567Y483500D01*
X309567Y482500D01*
X250567Y413000D02*
X251567Y415000D01*
X250567Y417000D01*
X252567Y416000D01*
X254567Y417000D01*
X253567Y415000D01*
X254567Y413000D01*
X252567Y414000D01*
X250567Y413000D01*
X296500D02*
X297500Y415000D01*
X296500Y417000D01*
X298500Y416000D01*
X300500Y417000D01*
X299500Y415000D01*
X300500Y413000D01*
X298500Y414000D01*
X296500Y413000D01*
X227433Y258500D02*
X228433Y260500D01*
X227433Y262500D01*
X229433Y261500D01*
X231433Y262500D01*
X230433Y260500D01*
X231433Y258500D01*
X229433Y259500D01*
X227433Y258500D01*
X181500D02*
X182500Y260500D01*
X181500Y262500D01*
X183500Y261500D01*
X185500Y262500D01*
X184500Y260500D01*
X185500Y258500D01*
X183500Y259500D01*
X181500Y258500D01*
X223500Y408500D02*
X224500Y410500D01*
X223500Y412500D01*
X225500Y411500D01*
X227500Y412500D01*
X226500Y410500D01*
X227500Y408500D01*
X225500Y409500D01*
X223500Y408500D01*
Y362567D02*
X224500Y364567D01*
X223500Y366567D01*
X225500Y365567D01*
X227500Y366567D01*
X226500Y364567D01*
X227500Y362567D01*
X225500Y363567D01*
X223500Y362567D01*
X206433Y332500D02*
X207433Y334500D01*
X206433Y336500D01*
X208433Y335500D01*
X210433Y336500D01*
X209433Y334500D01*
X210433Y332500D01*
X208433Y333500D01*
X206433Y332500D01*
X160500D02*
X161500Y334500D01*
X160500Y336500D01*
X162500Y335500D01*
X164500Y336500D01*
X163500Y334500D01*
X164500Y332500D01*
X162500Y333500D01*
X160500Y332500D01*
X301433Y446500D02*
X302433Y448500D01*
X301433Y450500D01*
X303433Y449500D01*
X305433Y450500D01*
X304433Y448500D01*
X305433Y446500D01*
X303433Y447500D01*
X301433Y446500D01*
X255500D02*
X256500Y448500D01*
X255500Y450500D01*
X257500Y449500D01*
X259500Y450500D01*
X258500Y448500D01*
X259500Y446500D01*
X257500Y447500D01*
X255500Y446500D01*
X119500Y286067D02*
X120500Y288067D01*
X119500Y290067D01*
X121500Y289067D01*
X123500Y290067D01*
X122500Y288067D01*
X123500Y286067D01*
X121500Y287067D01*
X119500Y286067D01*
Y332000D02*
X120500Y334000D01*
X119500Y336000D01*
X121500Y335000D01*
X123500Y336000D01*
X122500Y334000D01*
X123500Y332000D01*
X121500Y333000D01*
X119500Y332000D01*
X166000Y481433D02*
X167000Y483433D01*
X166000Y485433D01*
X168000Y484433D01*
X170000Y485433D01*
X169000Y483433D01*
X170000Y481433D01*
X168000Y482433D01*
X166000Y481433D01*
Y435500D02*
X167000Y437500D01*
X166000Y439500D01*
X168000Y438500D01*
X170000Y439500D01*
X169000Y437500D01*
X170000Y435500D01*
X168000Y436500D01*
X166000Y435500D01*
X144000Y436000D02*
X145000Y438000D01*
X144000Y440000D01*
X146000Y439000D01*
X148000Y440000D01*
X147000Y438000D01*
X148000Y436000D01*
X146000Y437000D01*
X144000Y436000D01*
Y481933D02*
X145000Y483933D01*
X144000Y485933D01*
X146000Y484933D01*
X148000Y485933D01*
X147000Y483933D01*
X148000Y481933D01*
X146000Y482933D01*
X144000Y481933D01*
X120000D02*
X121000Y483933D01*
X120000Y485933D01*
X122000Y484933D01*
X124000Y485933D01*
X123000Y483933D01*
X124000Y481933D01*
X122000Y482933D01*
X120000Y481933D01*
Y436000D02*
X121000Y438000D01*
X120000Y440000D01*
X122000Y439000D01*
X124000Y440000D01*
X123000Y438000D01*
X124000Y436000D01*
X122000Y437000D01*
X120000Y436000D01*
X210500Y298000D02*
X208500Y302000D01*
X212500D01*
X210500Y298000D01*
X202500D02*
X200500Y302000D01*
X204500D01*
X202500Y298000D01*
X397500Y159500D02*
X395500Y163500D01*
X399500D01*
X397500Y159500D01*
X405500D02*
X403500Y163500D01*
X407500D01*
X405500Y159500D01*
X425500Y266000D02*
X423500Y270000D01*
X427500D01*
X425500Y266000D01*
X433500D02*
X431500Y270000D01*
X435500D01*
X433500Y266000D01*
X507500Y224000D02*
X505500Y228000D01*
X509500D01*
X507500Y224000D01*
X515500D02*
X513500Y228000D01*
X517500D01*
X515500Y224000D01*
X681500Y236000D02*
X679500Y240000D01*
X683500D01*
X681500Y236000D01*
X673500D02*
X671500Y240000D01*
X675500D01*
X673500Y236000D01*
X676500Y391000D02*
X674500Y395000D01*
X678500D01*
X676500Y391000D01*
X684500D02*
X682500Y395000D01*
X686500D01*
X684500Y391000D01*
X616500Y266500D02*
X614500Y270500D01*
X618500D01*
X616500Y266500D01*
X608500D02*
X606500Y270500D01*
X610500D01*
X608500Y266500D01*
X676500Y434500D02*
X674500Y438500D01*
X678500D01*
X676500Y434500D01*
X684500D02*
X682500Y438500D01*
X686500D01*
X684500Y434500D01*
X399000Y285500D02*
X397000Y289500D01*
X401000D01*
X399000Y285500D01*
X391000D02*
X389000Y289500D01*
X393000D01*
X391000Y285500D01*
X297000Y317500D02*
X295000Y321500D01*
X299000D01*
X297000Y317500D01*
X305000D02*
X303000Y321500D01*
X307000D01*
X305000Y317500D01*
X525500Y361500D02*
X523500Y365500D01*
X527500D01*
X525500Y361500D01*
X517500D02*
X515500Y365500D01*
X519500D01*
X517500Y361500D01*
X433500Y478000D02*
X431500Y482000D01*
X435500D01*
X433500Y478000D01*
X425500D02*
X423500Y482000D01*
X427500D01*
X425500Y478000D01*
X280500Y474500D02*
X278500Y478500D01*
X282500D01*
X280500Y474500D01*
X272500D02*
X270500Y478500D01*
X274500D01*
X272500Y474500D01*
X238815Y111500D02*
X236815Y115500D01*
X240815D01*
X238815Y111500D01*
X258500D02*
X256500Y115500D01*
X260500D01*
X258500Y111500D01*
X320500Y254315D02*
X318500Y258315D01*
X322500D01*
X320500Y254315D01*
Y274000D02*
X318500Y278000D01*
X322500D01*
X320500Y274000D01*
X457500Y152000D02*
X455500Y156000D01*
X459500D01*
X457500Y152000D01*
X477185D02*
X475185Y156000D01*
X479185D01*
X477185Y152000D01*
X462000Y231500D02*
X460000Y235500D01*
X464000D01*
X462000Y231500D01*
X442315D02*
X440315Y235500D01*
X444315D01*
X442315Y231500D01*
X349000Y265000D02*
X347000Y269000D01*
X351000D01*
X349000Y265000D01*
X368685D02*
X366685Y269000D01*
X370685D01*
X368685Y265000D01*
X483000Y420500D02*
X481000Y424500D01*
X485000D01*
X483000Y420500D01*
Y440185D02*
X481000Y444185D01*
X485000D01*
X483000Y440185D01*
X456185Y441000D02*
X454185Y445000D01*
X458185D01*
X456185Y441000D01*
X436500D02*
X434500Y445000D01*
X438500D01*
X436500Y441000D01*
X382815Y483500D02*
X380815Y487500D01*
X384815D01*
X382815Y483500D01*
X402500D02*
X400500Y487500D01*
X404500D01*
X402500Y483500D01*
X372000Y407000D02*
X370000Y411000D01*
X374000D01*
X372000Y407000D01*
X352315D02*
X350315Y411000D01*
X354315D01*
X352315Y407000D01*
X253500Y325000D02*
X251500Y329000D01*
X255500D01*
X253500Y325000D01*
Y344685D02*
X251500Y348685D01*
X255500D01*
X253500Y344685D01*
X137000Y354000D02*
X135000Y358000D01*
X139000D01*
X137000Y354000D01*
X117315D02*
X115315Y358000D01*
X119315D01*
X117315Y354000D01*
X333000Y425815D02*
X331000Y429815D01*
X335000D01*
X333000Y425815D01*
Y445500D02*
X331000Y449500D01*
X335000D01*
X333000Y445500D01*
X120500Y408500D02*
X118500Y412500D01*
X122500D01*
X120500Y408500D01*
Y388815D02*
X118500Y392815D01*
X122500D01*
X120500Y388815D01*
X685500Y477500D02*
X686500Y478500D01*
X687500D01*
X686500Y479500D01*
X687500Y480500D01*
X686500D01*
X685500Y481500D01*
X684500Y480500D01*
X683500D01*
X684500Y479500D01*
X683500Y478500D01*
X684500D01*
X685500Y477500D01*
X675500D02*
X676500Y478500D01*
X677500D01*
X676500Y479500D01*
X677500Y480500D01*
X676500D01*
X675500Y481500D01*
X674500Y480500D01*
X673500D01*
X674500Y479500D01*
X673500Y478500D01*
X674500D01*
X675500Y477500D01*
X665500D02*
X666500Y478500D01*
X667500D01*
X666500Y479500D01*
X667500Y480500D01*
X666500D01*
X665500Y481500D01*
X664500Y480500D01*
X663500D01*
X664500Y479500D01*
X663500Y478500D01*
X664500D01*
X665500Y477500D01*
X627500D02*
X628500Y478500D01*
X629500D01*
X628500Y479500D01*
X629500Y480500D01*
X628500D01*
X627500Y481500D01*
X626500Y480500D01*
X625500D01*
X626500Y479500D01*
X625500Y478500D01*
X626500D01*
X627500Y477500D01*
X637500D02*
X638500Y478500D01*
X639500D01*
X638500Y479500D01*
X639500Y480500D01*
X638500D01*
X637500Y481500D01*
X636500Y480500D01*
X635500D01*
X636500Y479500D01*
X635500Y478500D01*
X636500D01*
X637500Y477500D01*
X647500D02*
X648500Y478500D01*
X649500D01*
X648500Y479500D01*
X649500Y480500D01*
X648500D01*
X647500Y481500D01*
X646500Y480500D01*
X645500D01*
X646500Y479500D01*
X645500Y478500D01*
X646500D01*
X647500Y477500D01*
X609500D02*
X610500Y478500D01*
X611500D01*
X610500Y479500D01*
X611500Y480500D01*
X610500D01*
X609500Y481500D01*
X608500Y480500D01*
X607500D01*
X608500Y479500D01*
X607500Y478500D01*
X608500D01*
X609500Y477500D01*
X599500D02*
X600500Y478500D01*
X601500D01*
X600500Y479500D01*
X601500Y480500D01*
X600500D01*
X599500Y481500D01*
X598500Y480500D01*
X597500D01*
X598500Y479500D01*
X597500Y478500D01*
X598500D01*
X599500Y477500D01*
X589500D02*
X590500Y478500D01*
X591500D01*
X590500Y479500D01*
X591500Y480500D01*
X590500D01*
X589500Y481500D01*
X588500Y480500D01*
X587500D01*
X588500Y479500D01*
X587500Y478500D01*
X588500D01*
X589500Y477500D01*
X571500D02*
X572500Y478500D01*
X573500D01*
X572500Y479500D01*
X573500Y480500D01*
X572500D01*
X571500Y481500D01*
X570500Y480500D01*
X569500D01*
X570500Y479500D01*
X569500Y478500D01*
X570500D01*
X571500Y477500D01*
X561500D02*
X562500Y478500D01*
X563500D01*
X562500Y479500D01*
X563500Y480500D01*
X562500D01*
X561500Y481500D01*
X560500Y480500D01*
X559500D01*
X560500Y479500D01*
X559500Y478500D01*
X560500D01*
X561500Y477500D01*
X551500D02*
X552500Y478500D01*
X553500D01*
X552500Y479500D01*
X553500Y480500D01*
X552500D01*
X551500Y481500D01*
X550500Y480500D01*
X549500D01*
X550500Y479500D01*
X549500Y478500D01*
X550500D01*
X551500Y477500D01*
X533000D02*
X534000Y478500D01*
X535000D01*
X534000Y479500D01*
X535000Y480500D01*
X534000D01*
X533000Y481500D01*
X532000Y480500D01*
X531000D01*
X532000Y479500D01*
X531000Y478500D01*
X532000D01*
X533000Y477500D01*
X523000D02*
X524000Y478500D01*
X525000D01*
X524000Y479500D01*
X525000Y480500D01*
X524000D01*
X523000Y481500D01*
X522000Y480500D01*
X521000D01*
X522000Y479500D01*
X521000Y478500D01*
X522000D01*
X523000Y477500D01*
X513000D02*
X514000Y478500D01*
X515000D01*
X514000Y479500D01*
X515000Y480500D01*
X514000D01*
X513000Y481500D01*
X512000Y480500D01*
X511000D01*
X512000Y479500D01*
X511000Y478500D01*
X512000D01*
X513000Y477500D01*
X474500D02*
X475500Y478500D01*
X476500D01*
X475500Y479500D01*
X476500Y480500D01*
X475500D01*
X474500Y481500D01*
X473500Y480500D01*
X472500D01*
X473500Y479500D01*
X472500Y478500D01*
X473500D01*
X474500Y477500D01*
X484500D02*
X485500Y478500D01*
X486500D01*
X485500Y479500D01*
X486500Y480500D01*
X485500D01*
X484500Y481500D01*
X483500Y480500D01*
X482500D01*
X483500Y479500D01*
X482500Y478500D01*
X483500D01*
X484500Y477500D01*
X494500D02*
X495500Y478500D01*
X496500D01*
X495500Y479500D01*
X496500Y480500D01*
X495500D01*
X494500Y481500D01*
X493500Y480500D01*
X492500D01*
X493500Y479500D01*
X492500Y478500D01*
X493500D01*
X494500Y477500D01*
X698500Y492000D02*
Y491000D01*
X700500D01*
Y492000D01*
X701500D01*
Y494000D01*
X700500D01*
Y495000D01*
X698500D01*
Y494000D01*
X697500D01*
Y492000D01*
X698500D01*
X696000Y93000D02*
Y92000D01*
X698000D01*
Y93000D01*
X699000D01*
Y95000D01*
X698000D01*
Y96000D01*
X696000D01*
Y95000D01*
X695000D01*
Y93000D01*
X696000D01*
X105000Y93500D02*
Y92500D01*
X107000D01*
Y93500D01*
X108000D01*
Y95500D01*
X107000D01*
Y96500D01*
X105000D01*
Y95500D01*
X104000D01*
Y93500D01*
X105000D01*
X104000Y493500D02*
Y492500D01*
X106000D01*
Y493500D01*
X107000D01*
Y495500D01*
X106000D01*
Y496500D01*
X104000D01*
Y495500D01*
X103000D01*
Y493500D01*
X104000D01*
X135000Y286000D02*
X136000D01*
X137000Y287000D01*
X138000Y286000D01*
X139000D01*
Y287000D01*
X138000Y288000D01*
X139000Y289000D01*
Y290000D01*
X138000D01*
X137000Y289000D01*
X136000Y290000D01*
X135000D01*
Y289000D01*
X136000Y288000D01*
X135000Y287000D01*
Y286000D01*
X386500Y96500D02*
X387500D01*
X388500Y97500D01*
X389500Y96500D01*
X390500D01*
Y97500D01*
X389500Y98500D01*
X390500Y99500D01*
Y100500D01*
X389500D01*
X388500Y99500D01*
X387500Y100500D01*
X386500D01*
Y99500D01*
X387500Y98500D01*
X386500Y97500D01*
Y96500D01*
X367900Y465400D02*
X368900D01*
X369900Y466400D01*
X370900Y465400D01*
X371900D01*
Y466400D01*
X370900Y467400D01*
X371900Y468400D01*
Y469400D01*
X370900D01*
X369900Y468400D01*
X368900Y469400D01*
X367900D01*
Y468400D01*
X368900Y467400D01*
X367900Y466400D01*
Y465400D01*
X323700Y258400D02*
X324700D01*
X325700Y259400D01*
X326700Y258400D01*
X327700D01*
Y259400D01*
X326700Y260400D01*
X327700Y261400D01*
Y262400D01*
X326700D01*
X325700Y261400D01*
X324700Y262400D01*
X323700D01*
Y261400D01*
X324700Y260400D01*
X323700Y259400D01*
Y258400D01*
X625600Y440100D02*
X626600D01*
X627600Y441100D01*
X628600Y440100D01*
X629600D01*
Y441100D01*
X628600Y442100D01*
X629600Y443100D01*
Y444100D01*
X628600D01*
X627600Y443100D01*
X626600Y444100D01*
X625600D01*
Y443100D01*
X626600Y442100D01*
X625600Y441100D01*
Y440100D01*
X518400Y427000D02*
X519400D01*
X520400Y428000D01*
X521400Y427000D01*
X522400D01*
Y428000D01*
X521400Y429000D01*
X522400Y430000D01*
Y431000D01*
X521400D01*
X520400Y430000D01*
X519400Y431000D01*
X518400D01*
Y430000D01*
X519400Y429000D01*
X518400Y428000D01*
Y427000D01*
X505500Y195300D02*
X506500D01*
X507500Y196300D01*
X508500Y195300D01*
X509500D01*
Y196300D01*
X508500Y197300D01*
X509500Y198300D01*
Y199300D01*
X508500D01*
X507500Y198300D01*
X506500Y199300D01*
X505500D01*
Y198300D01*
X506500Y197300D01*
X505500Y196300D01*
Y195300D01*
X497700Y215897D02*
X498700D01*
X499700Y216897D01*
X500700Y215897D01*
X501700D01*
Y216897D01*
X500700Y217897D01*
X501700Y218897D01*
Y219897D01*
X500700D01*
X499700Y218897D01*
X498700Y219897D01*
X497700D01*
Y218897D01*
X498700Y217897D01*
X497700Y216897D01*
Y215897D01*
X687000Y457000D02*
X688000D01*
X689000Y458000D01*
X690000Y457000D01*
X691000D01*
Y458000D01*
X690000Y459000D01*
X691000Y460000D01*
Y461000D01*
X690000D01*
X689000Y460000D01*
X688000Y461000D01*
X687000D01*
Y460000D01*
X688000Y459000D01*
X687000Y458000D01*
Y457000D01*
X540500Y266500D02*
X541500D01*
X542500Y267500D01*
X543500Y266500D01*
X544500D01*
Y267500D01*
X543500Y268500D01*
X544500Y269500D01*
Y270500D01*
X543500D01*
X542500Y269500D01*
X541500Y270500D01*
X540500D01*
Y269500D01*
X541500Y268500D01*
X540500Y267500D01*
Y266500D01*
X287637Y470237D02*
X288637D01*
X289637Y471237D01*
X290637Y470237D01*
X291637D01*
Y471237D01*
X290637Y472237D01*
X291637Y473237D01*
Y474237D01*
X290637D01*
X289637Y473237D01*
X288637Y474237D01*
X287637D01*
Y473237D01*
X288637Y472237D01*
X287637Y471237D01*
Y470237D01*
X376200Y470000D02*
X377200D01*
X378200Y471000D01*
X379200Y470000D01*
X380200D01*
Y471000D01*
X379200Y472000D01*
X380200Y473000D01*
Y474000D01*
X379200D01*
X378200Y473000D01*
X377200Y474000D01*
X376200D01*
Y473000D01*
X377200Y472000D01*
X376200Y471000D01*
Y470000D01*
X561900Y242400D02*
X562900D01*
X563900Y243400D01*
X564900Y242400D01*
X565900D01*
Y243400D01*
X564900Y244400D01*
X565900Y245400D01*
Y246400D01*
X564900D01*
X563900Y245400D01*
X562900Y246400D01*
X561900D01*
Y245400D01*
X562900Y244400D01*
X561900Y243400D01*
Y242400D01*
X360300Y478100D02*
X361300D01*
X362300Y479100D01*
X363300Y478100D01*
X364300D01*
Y479100D01*
X363300Y480100D01*
X364300Y481100D01*
Y482100D01*
X363300D01*
X362300Y481100D01*
X361300Y482100D01*
X360300D01*
Y481100D01*
X361300Y480100D01*
X360300Y479100D01*
Y478100D01*
X351900Y460900D02*
X352900D01*
X353900Y461900D01*
X354900Y460900D01*
X355900D01*
Y461900D01*
X354900Y462900D01*
X355900Y463900D01*
Y464900D01*
X354900D01*
X353900Y463900D01*
X352900Y464900D01*
X351900D01*
Y463900D01*
X352900Y462900D01*
X351900Y461900D01*
Y460900D01*
X350315Y433100D02*
X351315D01*
X352315Y434100D01*
X353315Y433100D01*
X354315D01*
Y434100D01*
X353315Y435100D01*
X354315Y436100D01*
Y437100D01*
X353315D01*
X352315Y436100D01*
X351315Y437100D01*
X350315D01*
Y436100D01*
X351315Y435100D01*
X350315Y434100D01*
Y433100D01*
X175067Y362567D02*
X176067D01*
X177067Y363567D01*
X178067Y362567D01*
X179067D01*
Y363567D01*
X178067Y364567D01*
X179067Y365567D01*
Y366567D01*
X178067D01*
X177067Y365567D01*
X176067Y366567D01*
X175067D01*
Y365567D01*
X176067Y364567D01*
X175067Y363567D01*
Y362567D01*
X309400Y300600D02*
X310400D01*
X311400Y301600D01*
X312400Y300600D01*
X313400D01*
Y301600D01*
X312400Y302600D01*
X313400Y303600D01*
Y304600D01*
X312400D01*
X311400Y303600D01*
X310400Y304600D01*
X309400D01*
Y303600D01*
X310400Y302600D01*
X309400Y301600D01*
Y300600D01*
X641300Y390700D02*
X642300D01*
X643300Y391700D01*
X644300Y390700D01*
X645300D01*
Y391700D01*
X644300Y392700D01*
X645300Y393700D01*
Y394700D01*
X644300D01*
X643300Y393700D01*
X642300Y394700D01*
X641300D01*
Y393700D01*
X642300Y392700D01*
X641300Y391700D01*
Y390700D01*
X485800Y404800D02*
X486800D01*
X487800Y405800D01*
X488800Y404800D01*
X489800D01*
Y405800D01*
X488800Y406800D01*
X489800Y407800D01*
Y408800D01*
X488800D01*
X487800Y407800D01*
X486800Y408800D01*
X485800D01*
Y407800D01*
X486800Y406800D01*
X485800Y405800D01*
Y404800D01*
X284700Y382300D02*
X285700D01*
X286700Y383300D01*
X287700Y382300D01*
X288700D01*
Y383300D01*
X287700Y384300D01*
X288700Y385300D01*
Y386300D01*
X287700D01*
X286700Y385300D01*
X285700Y386300D01*
X284700D01*
Y385300D01*
X285700Y384300D01*
X284700Y383300D01*
Y382300D01*
Y431900D02*
X285700D01*
X286700Y432900D01*
X287700Y431900D01*
X288700D01*
Y432900D01*
X287700Y433900D01*
X288700Y434900D01*
Y435900D01*
X287700D01*
X286700Y434900D01*
X285700Y435900D01*
X284700D01*
Y434900D01*
X285700Y433900D01*
X284700Y432900D01*
Y431900D01*
X188500Y311200D02*
X189500D01*
X190500Y312200D01*
X191500Y311200D01*
X192500D01*
Y312200D01*
X191500Y313200D01*
X192500Y314200D01*
Y315200D01*
X191500D01*
X190500Y314200D01*
X189500Y315200D01*
X188500D01*
Y314200D01*
X189500Y313200D01*
X188500Y312200D01*
Y311200D01*
X334900Y330100D02*
X335900D01*
X336900Y331100D01*
X337900Y330100D01*
X338900D01*
Y331100D01*
X337900Y332100D01*
X338900Y333100D01*
Y334100D01*
X337900D01*
X336900Y333100D01*
X335900Y334100D01*
X334900D01*
Y333100D01*
X335900Y332100D01*
X334900Y331100D01*
Y330100D01*
X601300Y327100D02*
X602300D01*
X603300Y328100D01*
X604300Y327100D01*
X605300D01*
Y328100D01*
X604300Y329100D01*
X605300Y330100D01*
Y331100D01*
X604300D01*
X603300Y330100D01*
X602300Y331100D01*
X601300D01*
Y330100D01*
X602300Y329100D01*
X601300Y328100D01*
Y327100D01*
X158100Y225400D02*
X159100D01*
X160100Y226400D01*
X161100Y225400D01*
X162100D01*
Y226400D01*
X161100Y227400D01*
X162100Y228400D01*
Y229400D01*
X161100D01*
X160100Y228400D01*
X159100Y229400D01*
X158100D01*
Y228400D01*
X159100Y227400D01*
X158100Y226400D01*
Y225400D01*
X287700Y236500D02*
X288700D01*
X289700Y237500D01*
X290700Y236500D01*
X291700D01*
Y237500D01*
X290700Y238500D01*
X291700Y239500D01*
Y240500D01*
X290700D01*
X289700Y239500D01*
X288700Y240500D01*
X287700D01*
Y239500D01*
X288700Y238500D01*
X287700Y237500D01*
Y236500D01*
X198500Y119500D02*
X199500D01*
X200500Y120500D01*
X201500Y119500D01*
X202500D01*
Y120500D01*
X201500Y121500D01*
X202500Y122500D01*
Y123500D01*
X201500D01*
X200500Y122500D01*
X199500Y123500D01*
X198500D01*
Y122500D01*
X199500Y121500D01*
X198500Y120500D01*
Y119500D01*
X452700Y386900D02*
X453700D01*
X454700Y387900D01*
X455700Y386900D01*
X456700D01*
Y387900D01*
X455700Y388900D01*
X456700Y389900D01*
Y390900D01*
X455700D01*
X454700Y389900D01*
X453700Y390900D01*
X452700D01*
Y389900D01*
X453700Y388900D01*
X452700Y387900D01*
Y386900D01*
X609200Y193400D02*
X610200D01*
X611200Y194400D01*
X612200Y193400D01*
X613200D01*
Y194400D01*
X612200Y195400D01*
X613200Y196400D01*
Y197400D01*
X612200D01*
X611200Y196400D01*
X610200Y197400D01*
X609200D01*
Y196400D01*
X610200Y195400D01*
X609200Y194400D01*
Y193400D01*
X342300Y281100D02*
X343300D01*
X344300Y282100D01*
X345300Y281100D01*
X346300D01*
Y282100D01*
X345300Y283100D01*
X346300Y284100D01*
Y285100D01*
X345300D01*
X344300Y284100D01*
X343300Y285100D01*
X342300D01*
Y284100D01*
X343300Y283100D01*
X342300Y282100D01*
Y281100D01*
X328500Y325000D02*
X329500D01*
X330500Y326000D01*
X331500Y325000D01*
X332500D01*
Y326000D01*
X331500Y327000D01*
X332500Y328000D01*
Y329000D01*
X331500D01*
X330500Y328000D01*
X329500Y329000D01*
X328500D01*
Y328000D01*
X329500Y327000D01*
X328500Y326000D01*
Y325000D01*
X687433Y240600D02*
X688433D01*
X689433Y241600D01*
X690433Y240600D01*
X691433D01*
Y241600D01*
X690433Y242600D01*
X691433Y243600D01*
Y244600D01*
X690433D01*
X689433Y243600D01*
X688433Y244600D01*
X687433D01*
Y243600D01*
X688433Y242600D01*
X687433Y241600D01*
Y240600D01*
X438100Y395700D02*
X439100D01*
X440100Y396700D01*
X441100Y395700D01*
X442100D01*
Y396700D01*
X441100Y397700D01*
X442100Y398700D01*
Y399700D01*
X441100D01*
X440100Y398700D01*
X439100Y399700D01*
X438100D01*
Y398700D01*
X439100Y397700D01*
X438100Y396700D01*
Y395700D01*
X658400Y483300D02*
X659400D01*
X660400Y484300D01*
X661400Y483300D01*
X662400D01*
Y484300D01*
X661400Y485300D01*
X662400Y486300D01*
Y487300D01*
X661400D01*
X660400Y486300D01*
X659400Y487300D01*
X658400D01*
Y486300D01*
X659400Y485300D01*
X658400Y484300D01*
Y483300D01*
X200500Y239500D02*
X201500D01*
X202500Y240500D01*
X203500Y239500D01*
X204500D01*
Y240500D01*
X203500Y241500D01*
X204500Y242500D01*
Y243500D01*
X203500D01*
X202500Y242500D01*
X201500Y243500D01*
X200500D01*
Y242500D01*
X201500Y241500D01*
X200500Y240500D01*
Y239500D01*
X269700Y167000D02*
X270700D01*
X271700Y168000D01*
X272700Y167000D01*
X273700D01*
Y168000D01*
X272700Y169000D01*
X273700Y170000D01*
Y171000D01*
X272700D01*
X271700Y170000D01*
X270700Y171000D01*
X269700D01*
Y170000D01*
X270700Y169000D01*
X269700Y168000D01*
Y167000D01*
X615900Y144500D02*
X616900D01*
X617900Y145500D01*
X618900Y144500D01*
X619900D01*
Y145500D01*
X618900Y146500D01*
X619900Y147500D01*
Y148500D01*
X618900D01*
X617900Y147500D01*
X616900Y148500D01*
X615900D01*
Y147500D01*
X616900Y146500D01*
X615900Y145500D01*
Y144500D01*
X425000Y400900D02*
X426000D01*
X427000Y401900D01*
X428000Y400900D01*
X429000D01*
Y401900D01*
X428000Y402900D01*
X429000Y403900D01*
Y404900D01*
X428000D01*
X427000Y403900D01*
X426000Y404900D01*
X425000D01*
Y403900D01*
X426000Y402900D01*
X425000Y401900D01*
Y400900D01*
D37*
X201315Y458815D02*
G03*
X201315Y458815I-2000J0D01*
G01*
X240685D02*
G03*
X240685Y458815I-2000J0D01*
G01*
X221000Y478500D02*
G03*
X221000Y478500I-2000J0D01*
G01*
M02*
