G04*
G04 #@! TF.GenerationSoftware,Altium Limited,Altium Designer,22.4.2 (48)*
G04*
G04 Layer_Color=8388736*
%FSLAX25Y25*%
%MOIN*%
G70*
G04*
G04 #@! TF.SameCoordinates,9D7DA267-A193-428E-9E10-CD2539F38239*
G04*
G04*
G04 #@! TF.FilePolarity,Negative*
G04*
G01*
G75*
%ADD14C,0.06706*%
%ADD15R,0.06706X0.06706*%
%ADD16C,0.07800*%
%ADD17R,0.06706X0.06706*%
%ADD18C,0.05524*%
%ADD19C,0.06800*%
%ADD20C,0.06312*%
%ADD21C,0.05800*%
D14*
X532500Y447000D02*
D03*
X542500D02*
D03*
X522500Y417000D02*
D03*
X156000Y145500D02*
D03*
X166000D02*
D03*
X176000D02*
D03*
X146000Y175500D02*
D03*
X156000D02*
D03*
X166000D02*
D03*
X176000D02*
D03*
X279000Y279500D02*
D03*
Y289500D02*
D03*
Y299500D02*
D03*
X249000Y269500D02*
D03*
Y279500D02*
D03*
Y289500D02*
D03*
Y299500D02*
D03*
X587000Y368500D02*
D03*
Y358500D02*
D03*
Y348500D02*
D03*
X617000Y378500D02*
D03*
Y368500D02*
D03*
Y358500D02*
D03*
Y348500D02*
D03*
X427000Y364500D02*
D03*
Y354500D02*
D03*
Y344500D02*
D03*
X457000Y374500D02*
D03*
Y364500D02*
D03*
Y354500D02*
D03*
Y344500D02*
D03*
X163500Y390000D02*
D03*
Y380000D02*
D03*
Y370000D02*
D03*
X193500Y400000D02*
D03*
Y390000D02*
D03*
Y380000D02*
D03*
Y370000D02*
D03*
X522500Y447000D02*
D03*
X552500Y417000D02*
D03*
X542500D02*
D03*
X532500D02*
D03*
X314500Y176500D02*
D03*
Y166500D02*
D03*
Y156500D02*
D03*
X344500Y186500D02*
D03*
Y176500D02*
D03*
Y166500D02*
D03*
Y156500D02*
D03*
X466000Y181000D02*
D03*
X476000D02*
D03*
X486000D02*
D03*
X456000Y211000D02*
D03*
X466000D02*
D03*
X476000D02*
D03*
X486000D02*
D03*
X277000Y374000D02*
D03*
Y364000D02*
D03*
Y354000D02*
D03*
X307000Y384000D02*
D03*
Y374000D02*
D03*
Y364000D02*
D03*
Y354000D02*
D03*
X598000Y178000D02*
D03*
Y168000D02*
D03*
Y158000D02*
D03*
X628000Y188000D02*
D03*
Y178000D02*
D03*
Y168000D02*
D03*
Y158000D02*
D03*
D15*
X552500Y447000D02*
D03*
X146000Y145500D02*
D03*
X456000Y181000D02*
D03*
D16*
X199315Y458815D02*
D03*
X238685D02*
D03*
X219000Y478500D02*
D03*
D17*
X279000Y269500D02*
D03*
X587000Y378500D02*
D03*
X427000Y374500D02*
D03*
X163500Y400000D02*
D03*
X314500Y186500D02*
D03*
X277000Y384000D02*
D03*
X598000Y188000D02*
D03*
D18*
X455500Y115000D02*
D03*
X475185D02*
D03*
X181000Y114000D02*
D03*
X212496D02*
D03*
X205000Y149504D02*
D03*
Y181000D02*
D03*
X261500Y228500D02*
D03*
Y197004D02*
D03*
X354000Y227500D02*
D03*
X322504D02*
D03*
X384000Y237500D02*
D03*
X415496D02*
D03*
X594504Y308500D02*
D03*
X626000D02*
D03*
X456504Y298500D02*
D03*
X488000D02*
D03*
X210500Y300000D02*
D03*
X202500D02*
D03*
X397500Y161500D02*
D03*
X405500D02*
D03*
X425500Y268000D02*
D03*
X433500D02*
D03*
X507500Y226000D02*
D03*
X515500D02*
D03*
X681500Y238000D02*
D03*
X673500D02*
D03*
X676500Y393000D02*
D03*
X684500D02*
D03*
X616500Y268500D02*
D03*
X608500D02*
D03*
X676500Y436500D02*
D03*
X684500D02*
D03*
X399000Y287500D02*
D03*
X391000D02*
D03*
X297000Y319500D02*
D03*
X305000D02*
D03*
X525500Y363500D02*
D03*
X517500D02*
D03*
X433500Y480000D02*
D03*
X425500D02*
D03*
X280500Y476500D02*
D03*
X272500D02*
D03*
X238815Y113500D02*
D03*
X258500D02*
D03*
X320500Y256315D02*
D03*
Y276000D02*
D03*
X457500Y154000D02*
D03*
X477185D02*
D03*
X462000Y233500D02*
D03*
X442315D02*
D03*
X349000Y267000D02*
D03*
X368685D02*
D03*
X483000Y422500D02*
D03*
Y442185D02*
D03*
X456185Y443000D02*
D03*
X436500D02*
D03*
X382815Y485500D02*
D03*
X402500D02*
D03*
X372000Y409000D02*
D03*
X352315D02*
D03*
X253500Y327000D02*
D03*
Y346685D02*
D03*
X137000Y356000D02*
D03*
X117315D02*
D03*
X333000Y427815D02*
D03*
Y447500D02*
D03*
X120500Y410500D02*
D03*
Y390815D02*
D03*
D19*
X121000Y257000D02*
D03*
Y247000D02*
D03*
Y237000D02*
D03*
X685500Y479500D02*
D03*
X675500D02*
D03*
X665500D02*
D03*
X627500D02*
D03*
X637500D02*
D03*
X647500D02*
D03*
X609500D02*
D03*
X599500D02*
D03*
X589500D02*
D03*
X571500D02*
D03*
X561500D02*
D03*
X551500D02*
D03*
X533000D02*
D03*
X523000D02*
D03*
X513000D02*
D03*
X474500D02*
D03*
X484500D02*
D03*
X494500D02*
D03*
X699500Y493000D02*
D03*
X697000Y94000D02*
D03*
X106000Y94500D02*
D03*
X105000Y494500D02*
D03*
D20*
X289500Y179067D02*
D03*
Y225000D02*
D03*
X230500Y235500D02*
D03*
Y189567D02*
D03*
X282000Y117000D02*
D03*
X327933D02*
D03*
X190500Y217000D02*
D03*
X144567D02*
D03*
X161500Y250067D02*
D03*
Y296000D02*
D03*
X121000Y147067D02*
D03*
Y193000D02*
D03*
X240067Y151000D02*
D03*
X286000D02*
D03*
X163000Y115500D02*
D03*
X117067D02*
D03*
X416500Y116500D02*
D03*
X370567D02*
D03*
X456000Y267500D02*
D03*
X501933D02*
D03*
X418933Y197500D02*
D03*
X373000D02*
D03*
X556933Y116000D02*
D03*
X511000D02*
D03*
X525000Y193500D02*
D03*
Y147567D02*
D03*
X582067Y116000D02*
D03*
X628000D02*
D03*
X689433Y118000D02*
D03*
X643500D02*
D03*
X527567Y250500D02*
D03*
X573500D02*
D03*
X561000Y192433D02*
D03*
Y146500D02*
D03*
X684500Y196933D02*
D03*
Y151000D02*
D03*
X682500Y278500D02*
D03*
Y324433D02*
D03*
X643567Y357000D02*
D03*
X689500D02*
D03*
X634500Y229000D02*
D03*
X588567D02*
D03*
X656000Y197433D02*
D03*
Y151500D02*
D03*
X652000Y323933D02*
D03*
Y278000D02*
D03*
X552000Y335567D02*
D03*
Y381500D02*
D03*
X632500Y451933D02*
D03*
Y406000D02*
D03*
X572000Y279000D02*
D03*
X526067D02*
D03*
X345000Y345000D02*
D03*
Y299067D02*
D03*
X571500Y306000D02*
D03*
X525567D02*
D03*
X586500Y405500D02*
D03*
Y451433D02*
D03*
X395500Y350067D02*
D03*
Y396000D02*
D03*
X383500Y324000D02*
D03*
X429433D02*
D03*
X419500Y407500D02*
D03*
X465433D02*
D03*
X487500Y334567D02*
D03*
Y380500D02*
D03*
X365067Y440500D02*
D03*
X411000D02*
D03*
X376433Y378500D02*
D03*
X330500D02*
D03*
X357500Y484500D02*
D03*
X311567D02*
D03*
X252567Y415000D02*
D03*
X298500D02*
D03*
X229433Y260500D02*
D03*
X183500D02*
D03*
X225500Y410500D02*
D03*
Y364567D02*
D03*
X208433Y334500D02*
D03*
X162500D02*
D03*
X303433Y448500D02*
D03*
X257500D02*
D03*
X121500Y288067D02*
D03*
Y334000D02*
D03*
X168000Y483433D02*
D03*
Y437500D02*
D03*
X146000Y438000D02*
D03*
Y483933D02*
D03*
X122000D02*
D03*
Y438000D02*
D03*
D21*
X137000Y288000D02*
D03*
X388500Y98500D02*
D03*
X369900Y467400D02*
D03*
X325700Y260400D02*
D03*
X627600Y442100D02*
D03*
X520400Y429000D02*
D03*
X507500Y197300D02*
D03*
X499700Y217897D02*
D03*
X689000Y459000D02*
D03*
X542500Y268500D02*
D03*
X289637Y472237D02*
D03*
X378200Y472000D02*
D03*
X563900Y244400D02*
D03*
X362300Y480100D02*
D03*
X353900Y462900D02*
D03*
X352315Y435100D02*
D03*
X177067Y364567D02*
D03*
X311400Y302600D02*
D03*
X643300Y392700D02*
D03*
X487800Y406800D02*
D03*
X286700Y384300D02*
D03*
Y433900D02*
D03*
X190500Y313200D02*
D03*
X336900Y332100D02*
D03*
X603300Y329100D02*
D03*
X160100Y227400D02*
D03*
X289700Y238500D02*
D03*
X200500Y121500D02*
D03*
X454700Y388900D02*
D03*
X611200Y195400D02*
D03*
X344300Y283100D02*
D03*
X330500Y327000D02*
D03*
X689433Y242600D02*
D03*
X440100Y397700D02*
D03*
X660400Y485300D02*
D03*
X202500Y241500D02*
D03*
X271700Y169000D02*
D03*
X617900Y146500D02*
D03*
X427000Y402900D02*
D03*
M02*
