G04*
G04 #@! TF.GenerationSoftware,Altium Limited,Altium Designer,22.4.2 (48)*
G04*
G04 Layer_Color=32896*
%FSLAX25Y25*%
%MOIN*%
G70*
G04*
G04 #@! TF.SameCoordinates,9D7DA267-A193-428E-9E10-CD2539F38239*
G04*
G04*
G04 #@! TF.FilePolarity,Positive*
G04*
G01*
G75*
%ADD13C,0.01000*%
D13*
X536835Y136163D02*
X538502Y137829D01*
X541834D01*
X543500Y136163D01*
Y129498D01*
X541834Y127832D01*
X538502D01*
X536835Y129498D01*
Y132831D01*
X540168D01*
X533503Y127832D02*
Y137829D01*
X528505D01*
X526839Y136163D01*
Y132831D01*
X528505Y131165D01*
X533503D01*
X530171D02*
X526839Y127832D01*
X518508Y137829D02*
X521840D01*
X523506Y136163D01*
Y129498D01*
X521840Y127832D01*
X518508D01*
X516842Y129498D01*
Y136163D01*
X518508Y137829D01*
X513510D02*
Y129498D01*
X511844Y127832D01*
X508511D01*
X506845Y129498D01*
Y137829D01*
X503513Y127832D02*
Y137829D01*
X498515D01*
X496848Y136163D01*
Y132831D01*
X498515Y131165D01*
X503513D01*
X476855Y137829D02*
X480187Y136163D01*
X483519Y132831D01*
Y129498D01*
X481853Y127832D01*
X478521D01*
X476855Y129498D01*
Y131165D01*
X478521Y132831D01*
X483519D01*
X463526D02*
X456861D01*
X436868Y137829D02*
X443532D01*
Y132831D01*
X440200D01*
X443532D01*
Y127832D01*
X433535D02*
X430203D01*
X431869D01*
Y134497D01*
X433535D01*
X425205D02*
X421873Y127832D01*
X418540Y134497D01*
X410210Y127832D02*
X413542D01*
X415208Y129498D01*
Y132831D01*
X413542Y134497D01*
X410210D01*
X408544Y132831D01*
Y131165D01*
X415208D01*
X395215Y137829D02*
Y127832D01*
X390216D01*
X388550Y129498D01*
Y131165D01*
X390216Y132831D01*
X395215D01*
X390216D01*
X388550Y134497D01*
Y136163D01*
X390216Y137829D01*
X395215D01*
X383552Y134497D02*
X380219D01*
X378553Y132831D01*
Y127832D01*
X383552D01*
X385218Y129498D01*
X383552Y131165D01*
X378553D01*
X375221Y127832D02*
Y134497D01*
X370223D01*
X368556Y132831D01*
Y127832D01*
X358560Y137829D02*
Y127832D01*
X363558D01*
X365224Y129498D01*
Y132831D01*
X363558Y134497D01*
X358560D01*
X338566Y137829D02*
X345231D01*
Y127832D01*
X338566D01*
X345231Y132831D02*
X341898D01*
X328570Y124500D02*
Y134497D01*
X333568D01*
X335234Y132831D01*
Y129498D01*
X333568Y127832D01*
X328570D01*
X325237Y134497D02*
Y129498D01*
X323571Y127832D01*
X318573D01*
Y134497D01*
X313574D02*
X310242D01*
X308576Y132831D01*
Y127832D01*
X313574D01*
X315240Y129498D01*
X313574Y131165D01*
X308576D01*
X305244Y127832D02*
X301911D01*
X303577D01*
Y137829D01*
X305244D01*
X296913Y127832D02*
X293581D01*
X295247D01*
Y134497D01*
X296913D01*
X288582D02*
X281918D01*
X288582Y127832D01*
X281918D01*
X273587D02*
X276920D01*
X278586Y129498D01*
Y132831D01*
X276920Y134497D01*
X273587D01*
X271921Y132831D01*
Y131165D01*
X278586D01*
X268589Y134497D02*
Y127832D01*
Y131165D01*
X266923Y132831D01*
X265257Y134497D01*
X263591D01*
M02*
