G04*
G04 #@! TF.GenerationSoftware,Altium Limited,Altium Designer,22.4.2 (48)*
G04*
G04 Layer_Color=32768*
%FSLAX25Y25*%
%MOIN*%
G70*
G04*
G04 #@! TF.SameCoordinates,9D7DA267-A193-428E-9E10-CD2539F38239*
G04*
G04*
G04 #@! TF.FilePolarity,Positive*
G04*
G01*
G75*
%ADD33C,0.00394*%
%ADD35C,0.00197*%
D33*
X161000Y158532D02*
Y162469D01*
X159032Y160500D02*
X162969D01*
X262032Y284500D02*
X265969D01*
X264000Y282532D02*
Y286469D01*
X600032Y363500D02*
X603969D01*
X602000Y361532D02*
Y365469D01*
X440032Y359500D02*
X443969D01*
X442000Y357532D02*
Y361469D01*
X176532Y385000D02*
X180469D01*
X178500Y383032D02*
Y386969D01*
X537500Y430032D02*
Y433969D01*
X535532Y432000D02*
X539469D01*
X327532Y171500D02*
X331469D01*
X329500Y169532D02*
Y173469D01*
X471000Y194032D02*
Y197969D01*
X469032Y196000D02*
X472969D01*
X290032Y369000D02*
X293969D01*
X292000Y367032D02*
Y370969D01*
X611032Y173000D02*
X614969D01*
X613000Y171032D02*
Y174969D01*
D35*
X139937Y141406D02*
X182063D01*
X139937Y179594D02*
X182063D01*
X139937Y141406D02*
Y179594D01*
X182063Y141406D02*
Y179594D01*
X283094Y263437D02*
Y305563D01*
X244906Y263437D02*
Y305563D01*
Y263437D02*
X283094D01*
X244906Y305563D02*
X283094D01*
X582906Y342437D02*
Y384563D01*
X621094Y342437D02*
Y384563D01*
X582906D02*
X621094D01*
X582906Y342437D02*
X621094D01*
X422906Y338437D02*
Y380563D01*
X461094Y338437D02*
Y380563D01*
X422906D02*
X461094D01*
X422906Y338437D02*
X461094D01*
X159406Y363937D02*
Y406063D01*
X197594Y363937D02*
Y406063D01*
X159406D02*
X197594D01*
X159406Y363937D02*
X197594D01*
X516437Y451094D02*
X558563D01*
X516437Y412906D02*
X558563D01*
Y451094D01*
X516437Y412906D02*
Y451094D01*
X310406Y150437D02*
Y192563D01*
X348594Y150437D02*
Y192563D01*
X310406D02*
X348594D01*
X310406Y150437D02*
X348594D01*
X449937Y176906D02*
X492063D01*
X449937Y215094D02*
X492063D01*
X449937Y176906D02*
Y215094D01*
X492063Y176906D02*
Y215094D01*
X272906Y347937D02*
Y390063D01*
X311094Y347937D02*
Y390063D01*
X272906D02*
X311094D01*
X272906Y347937D02*
X311094D01*
X593906Y151937D02*
Y194063D01*
X632094Y151937D02*
Y194063D01*
X593906D02*
X632094D01*
X593906Y151937D02*
X632094D01*
M02*
