G04*
G04 #@! TF.GenerationSoftware,Altium Limited,Altium Designer,22.4.2 (48)*
G04*
G04 Layer_Color=16711935*
%FSLAX25Y25*%
%MOIN*%
G70*
G04*
G04 #@! TF.SameCoordinates,9D7DA267-A193-428E-9E10-CD2539F38239*
G04*
G04*
G04 #@! TF.FilePolarity,Positive*
G04*
G01*
G75*
%ADD32C,0.00700*%
D32*
X159001Y154500D02*
X162334D01*
X163000Y155166D01*
Y156499D01*
X162334Y157166D01*
X159001D01*
X163000Y158499D02*
Y159832D01*
Y159165D01*
X159001D01*
X159668Y158499D01*
X270000Y282501D02*
Y285834D01*
X269334Y286500D01*
X268001D01*
X267334Y285834D01*
Y282501D01*
X263335Y286500D02*
X266001D01*
X263335Y283834D01*
Y283168D01*
X264002Y282501D01*
X265335D01*
X266001Y283168D01*
X596000Y365499D02*
Y362166D01*
X596666Y361500D01*
X597999D01*
X598666Y362166D01*
Y365499D01*
X599999Y364832D02*
X600665Y365499D01*
X601998D01*
X602665Y364832D01*
Y364166D01*
X601998Y363499D01*
X601332D01*
X601998D01*
X602665Y362833D01*
Y362166D01*
X601998Y361500D01*
X600665D01*
X599999Y362166D01*
X436000Y361499D02*
Y358166D01*
X436666Y357500D01*
X437999D01*
X438666Y358166D01*
Y361499D01*
X441998Y357500D02*
Y361499D01*
X439999Y359499D01*
X442664D01*
X172500Y386999D02*
Y383666D01*
X173167Y383000D01*
X174499D01*
X175166Y383666D01*
Y386999D01*
X179165D02*
X176499D01*
Y384999D01*
X177832Y385666D01*
X178498D01*
X179165Y384999D01*
Y383666D01*
X178498Y383000D01*
X177165D01*
X176499Y383666D01*
X539499Y438000D02*
X536166D01*
X535500Y437334D01*
Y436001D01*
X536166Y435334D01*
X539499D01*
X536166Y434001D02*
X535500Y433335D01*
Y432002D01*
X536166Y431335D01*
X538832D01*
X539499Y432002D01*
Y433335D01*
X538832Y434001D01*
X538166D01*
X537499Y433335D01*
Y431335D01*
X323500Y173499D02*
Y170167D01*
X324166Y169500D01*
X325499D01*
X326166Y170167D01*
Y173499D01*
X330165D02*
X328832Y172832D01*
X327499Y171499D01*
Y170167D01*
X328165Y169500D01*
X329498D01*
X330165Y170167D01*
Y170833D01*
X329498Y171499D01*
X327499D01*
X469001Y190000D02*
X472334D01*
X473000Y190666D01*
Y191999D01*
X472334Y192666D01*
X469001D01*
Y193999D02*
Y196665D01*
X469668D01*
X472334Y193999D01*
X473000D01*
X286000Y370999D02*
Y367666D01*
X286666Y367000D01*
X287999D01*
X288666Y367666D01*
Y370999D01*
X289999Y370332D02*
X290665Y370999D01*
X291998D01*
X292665Y370332D01*
Y369666D01*
X291998Y368999D01*
X292665Y368333D01*
Y367666D01*
X291998Y367000D01*
X290665D01*
X289999Y367666D01*
Y368333D01*
X290665Y368999D01*
X289999Y369666D01*
Y370332D01*
X290665Y368999D02*
X291998D01*
X607000Y174999D02*
Y171667D01*
X607666Y171000D01*
X608999D01*
X609666Y171667D01*
Y174999D01*
X610999Y171000D02*
X612332D01*
X611665D01*
Y174999D01*
X610999Y174332D01*
X614331D02*
X614997Y174999D01*
X616330D01*
X616997Y174332D01*
Y171667D01*
X616330Y171000D01*
X614997D01*
X614331Y171667D01*
Y174332D01*
M02*
