G04*
G04 #@! TF.GenerationSoftware,Altium Limited,Altium Designer,22.4.2 (48)*
G04*
G04 Layer_Physical_Order=1*
G04 Layer_Color=255*
%FSLAX25Y25*%
%MOIN*%
G70*
G04*
G04 #@! TF.SameCoordinates,9D7DA267-A193-428E-9E10-CD2539F38239*
G04*
G04*
G04 #@! TF.FilePolarity,Positive*
G04*
G01*
G75*
%ADD22C,0.02500*%
%ADD23C,0.03500*%
%ADD24C,0.05906*%
%ADD25R,0.05906X0.05906*%
%ADD26C,0.07000*%
%ADD27R,0.05906X0.05906*%
%ADD28C,0.04724*%
%ADD29C,0.06000*%
%ADD30C,0.05512*%
%ADD31C,0.05000*%
G36*
X697806Y499500D02*
X697544Y499448D01*
X696324Y498942D01*
X695225Y498209D01*
X694291Y497274D01*
X693558Y496176D01*
X693052Y494956D01*
X692795Y493660D01*
Y492340D01*
X693052Y491044D01*
X693558Y489824D01*
X694291Y488726D01*
X695225Y487791D01*
X696324Y487058D01*
X697544Y486552D01*
X698840Y486295D01*
X700160D01*
X701456Y486552D01*
X702084Y486812D01*
X702500Y486535D01*
Y98690D01*
X702000Y98483D01*
X701274Y99208D01*
X700176Y99942D01*
X698956Y100448D01*
X697660Y100706D01*
X696340D01*
X695044Y100448D01*
X693824Y99942D01*
X692726Y99208D01*
X691791Y98274D01*
X691058Y97176D01*
X690552Y95956D01*
X690295Y94660D01*
Y93340D01*
X690552Y92044D01*
X691058Y90824D01*
X691791Y89726D01*
X692055Y89462D01*
X691864Y89000D01*
X110690D01*
X110483Y89500D01*
X111208Y90225D01*
X111942Y91324D01*
X112448Y92544D01*
X112706Y93840D01*
Y95160D01*
X112448Y96456D01*
X111942Y97676D01*
X111208Y98774D01*
X110275Y99708D01*
X109176Y100442D01*
X107956Y100948D01*
X106660Y101206D01*
X105340D01*
X104044Y100948D01*
X103916Y100895D01*
X103500Y101172D01*
Y487567D01*
X103886Y487885D01*
X104340Y487794D01*
X105660D01*
X106956Y488052D01*
X108176Y488558D01*
X109274Y489291D01*
X110208Y490226D01*
X110942Y491324D01*
X111448Y492544D01*
X111706Y493840D01*
Y495160D01*
X111448Y496456D01*
X110942Y497676D01*
X110208Y498774D01*
X109483Y499500D01*
X109690Y500000D01*
X697757D01*
X697806Y499500D01*
D02*
G37*
%LPC*%
G36*
X122500Y487687D02*
Y484433D01*
X125754D01*
X125500Y485383D01*
X125005Y486239D01*
X124306Y486938D01*
X123450Y487433D01*
X122500Y487687D01*
D02*
G37*
G36*
X121500D02*
X120550Y487433D01*
X119694Y486938D01*
X118994Y486239D01*
X118500Y485383D01*
X118246Y484433D01*
X121500D01*
Y487687D01*
D02*
G37*
G36*
X312035Y488056D02*
X311099D01*
X310194Y487814D01*
X309384Y487345D01*
X308722Y486683D01*
X308253Y485873D01*
X308011Y484968D01*
Y484032D01*
X308039Y483928D01*
X280622Y456511D01*
X280169Y455833D01*
X280010Y455033D01*
X280010Y455033D01*
Y387753D01*
X279090D01*
Y458734D01*
X289293Y468937D01*
X290072D01*
X290911Y469162D01*
X291664Y469596D01*
X292278Y470211D01*
X292712Y470963D01*
X292937Y471803D01*
Y472672D01*
X292712Y473511D01*
X292278Y474263D01*
X291664Y474878D01*
X290911Y475312D01*
X290072Y475537D01*
X289203D01*
X288364Y475312D01*
X287611Y474878D01*
X286997Y474263D01*
X286562Y473511D01*
X286337Y472672D01*
Y471893D01*
X275522Y461078D01*
X275069Y460400D01*
X274910Y459600D01*
X274910Y459600D01*
Y387753D01*
X273247D01*
Y380247D01*
X279584D01*
X279791Y379747D01*
X277733Y377689D01*
X277494Y377753D01*
X276506D01*
X275552Y377497D01*
X274696Y377003D01*
X273997Y376304D01*
X273503Y375448D01*
X273247Y374494D01*
Y373506D01*
X273503Y372551D01*
X273997Y371696D01*
X274696Y370997D01*
X275552Y370503D01*
X276506Y370247D01*
X277494D01*
X278449Y370503D01*
X279304Y370997D01*
X280003Y371696D01*
X280497Y372551D01*
X280753Y373506D01*
Y374494D01*
X280689Y374733D01*
X283578Y377622D01*
X284031Y378300D01*
X284190Y379100D01*
X284190Y379100D01*
Y381490D01*
X284652Y381681D01*
X284674Y381659D01*
X285426Y381225D01*
X286265Y381000D01*
X287135D01*
X287974Y381225D01*
X288726Y381659D01*
X289341Y382274D01*
X289775Y383026D01*
X290000Y383865D01*
Y384735D01*
X289775Y385574D01*
X289341Y386326D01*
X288790Y386877D01*
Y431323D01*
X289341Y431874D01*
X289775Y432626D01*
X290000Y433465D01*
Y434335D01*
X289775Y435174D01*
X289341Y435926D01*
X288726Y436541D01*
X287974Y436975D01*
X287135Y437200D01*
X286265D01*
X285426Y436975D01*
X284674Y436541D01*
X284652Y436519D01*
X284190Y436710D01*
Y454167D01*
X310995Y480972D01*
X311099Y480944D01*
X312035D01*
X312940Y481186D01*
X313750Y481655D01*
X314412Y482317D01*
X314881Y483127D01*
X315123Y484032D01*
Y484968D01*
X314881Y485873D01*
X314412Y486683D01*
X313750Y487345D01*
X312940Y487814D01*
X312035Y488056D01*
D02*
G37*
G36*
X146468Y487489D02*
X145532D01*
X144627Y487247D01*
X143817Y486778D01*
X143155Y486116D01*
X142686Y485306D01*
X142444Y484401D01*
Y483465D01*
X142686Y482560D01*
X143155Y481750D01*
X143817Y481088D01*
X144627Y480619D01*
X145532Y480377D01*
X146468D01*
X147372Y480619D01*
X148183Y481088D01*
X148845Y481750D01*
X149314Y482560D01*
X149556Y483465D01*
Y484401D01*
X149314Y485306D01*
X148845Y486116D01*
X148183Y486778D01*
X147372Y487247D01*
X146468Y487489D01*
D02*
G37*
G36*
X125754Y483433D02*
X122500D01*
Y480179D01*
X123450Y480433D01*
X124306Y480928D01*
X125005Y481627D01*
X125500Y482483D01*
X125754Y483433D01*
D02*
G37*
G36*
X121500D02*
X118246D01*
X118500Y482483D01*
X118994Y481627D01*
X119694Y480928D01*
X120550Y480433D01*
X121500Y480179D01*
Y483433D01*
D02*
G37*
G36*
X168468Y486989D02*
X167532D01*
X166628Y486747D01*
X165817Y486278D01*
X165155Y485616D01*
X164686Y484805D01*
X164444Y483901D01*
Y482965D01*
X164686Y482060D01*
X165155Y481250D01*
X165817Y480588D01*
X166628Y480119D01*
X167532Y479877D01*
X168468D01*
X169372Y480119D01*
X170183Y480588D01*
X170845Y481250D01*
X171314Y482060D01*
X171556Y482965D01*
Y483901D01*
X171314Y484805D01*
X170845Y485616D01*
X170183Y486278D01*
X169372Y486747D01*
X168468Y486989D01*
D02*
G37*
G36*
X425916Y483162D02*
X425084D01*
X424279Y482947D01*
X423558Y482530D01*
X422970Y481942D01*
X422553Y481221D01*
X422338Y480416D01*
Y479584D01*
X422553Y478779D01*
X422970Y478058D01*
X423558Y477470D01*
X424279Y477053D01*
X425084Y476838D01*
X425916D01*
X426721Y477053D01*
X427442Y477470D01*
X428030Y478058D01*
X428447Y478779D01*
X428662Y479584D01*
Y480416D01*
X428447Y481221D01*
X428030Y481942D01*
X427442Y482530D01*
X426721Y482947D01*
X425916Y483162D01*
D02*
G37*
G36*
X686000Y483300D02*
X685000D01*
X684033Y483041D01*
X683167Y482541D01*
X682459Y481833D01*
X681959Y480967D01*
X681700Y480000D01*
Y479000D01*
X681959Y478033D01*
X682459Y477167D01*
X683167Y476459D01*
X684033Y475959D01*
X685000Y475700D01*
X686000D01*
X686967Y475959D01*
X687833Y476459D01*
X688541Y477167D01*
X689041Y478033D01*
X689300Y479000D01*
Y480000D01*
X689041Y480967D01*
X688541Y481833D01*
X687833Y482541D01*
X686967Y483041D01*
X686000Y483300D01*
D02*
G37*
G36*
X676000D02*
X675000D01*
X674033Y483041D01*
X673167Y482541D01*
X672459Y481833D01*
X671959Y480967D01*
X671700Y480000D01*
Y479000D01*
X671959Y478033D01*
X672459Y477167D01*
X673167Y476459D01*
X674033Y475959D01*
X675000Y475700D01*
X676000D01*
X676967Y475959D01*
X677833Y476459D01*
X678541Y477167D01*
X679041Y478033D01*
X679300Y479000D01*
Y480000D01*
X679041Y480967D01*
X678541Y481833D01*
X677833Y482541D01*
X676967Y483041D01*
X676000Y483300D01*
D02*
G37*
G36*
X664400Y492790D02*
X664400Y492790D01*
X656000D01*
X655200Y492631D01*
X654522Y492178D01*
X654522Y492178D01*
X652722Y490378D01*
X652269Y489700D01*
X652110Y488900D01*
X652110Y488900D01*
Y404466D01*
X643644Y396000D01*
X642866D01*
X642026Y395775D01*
X641274Y395341D01*
X641252Y395319D01*
X640790Y395510D01*
Y469834D01*
X646729Y475773D01*
X647000Y475700D01*
X648000D01*
X648967Y475959D01*
X649833Y476459D01*
X650541Y477167D01*
X651041Y478033D01*
X651300Y479000D01*
Y480000D01*
X651041Y480967D01*
X650541Y481833D01*
X649833Y482541D01*
X648967Y483041D01*
X648000Y483300D01*
X647000D01*
X646033Y483041D01*
X645167Y482541D01*
X644459Y481833D01*
X643959Y480967D01*
X643700Y480000D01*
Y479000D01*
X643773Y478729D01*
X637222Y472178D01*
X636769Y471500D01*
X636610Y470700D01*
X636610Y470700D01*
Y244800D01*
X636610Y244800D01*
X636769Y244000D01*
X637222Y243322D01*
X637310Y243234D01*
Y231872D01*
X636848Y231681D01*
X636683Y231845D01*
X635873Y232314D01*
X634968Y232556D01*
X634032D01*
X633928Y232528D01*
X618590Y247866D01*
Y266118D01*
X619030Y266558D01*
X619447Y267279D01*
X619662Y268084D01*
Y268916D01*
X619447Y269721D01*
X619030Y270442D01*
X618442Y271030D01*
X617721Y271447D01*
X616916Y271662D01*
X616084D01*
X615279Y271447D01*
X614558Y271030D01*
X613970Y270442D01*
X613553Y269721D01*
X613338Y268916D01*
Y268084D01*
X613553Y267279D01*
X613970Y266558D01*
X614410Y266118D01*
Y247000D01*
X614410Y247000D01*
X614569Y246200D01*
X615022Y245522D01*
X630972Y229572D01*
X630944Y229468D01*
Y228532D01*
X631186Y227627D01*
X631655Y226817D01*
X632317Y226155D01*
X633127Y225686D01*
X634032Y225444D01*
X634968D01*
X635873Y225686D01*
X636683Y226155D01*
X636848Y226319D01*
X637310Y226128D01*
Y224466D01*
X614684Y201840D01*
X614100Y202231D01*
X613300Y202390D01*
X612500Y202231D01*
X611822Y201778D01*
X611369Y201100D01*
X611210Y200300D01*
X611210Y200300D01*
Y198700D01*
X610766D01*
X609926Y198475D01*
X609174Y198041D01*
X608559Y197426D01*
X608125Y196674D01*
X607900Y195834D01*
Y194966D01*
X608125Y194126D01*
X608559Y193374D01*
X609174Y192759D01*
X609926Y192325D01*
X610766Y192100D01*
X611210D01*
Y140500D01*
X611210Y140500D01*
X611369Y139700D01*
X611822Y139022D01*
X634322Y116522D01*
X634322Y116522D01*
X635000Y116069D01*
X635800Y115910D01*
X635800Y115910D01*
X640601D01*
X640655Y115817D01*
X641317Y115155D01*
X642128Y114686D01*
X643032Y114444D01*
X643968D01*
X644873Y114686D01*
X645683Y115155D01*
X646345Y115817D01*
X646814Y116628D01*
X647056Y117532D01*
Y118468D01*
X646814Y119372D01*
X646345Y120183D01*
X645683Y120845D01*
X644873Y121314D01*
X643968Y121556D01*
X643032D01*
X642128Y121314D01*
X641317Y120845D01*
X640655Y120183D01*
X640601Y120090D01*
X636666D01*
X615390Y141366D01*
Y143690D01*
X615852Y143881D01*
X615874Y143859D01*
X616626Y143425D01*
X617465Y143200D01*
X618334D01*
X619174Y143425D01*
X619926Y143859D01*
X620541Y144474D01*
X620975Y145226D01*
X621200Y146066D01*
Y146934D01*
X620975Y147774D01*
X620541Y148526D01*
X619990Y149077D01*
Y157034D01*
X627267Y164311D01*
X627506Y164247D01*
X628494D01*
X629449Y164503D01*
X630304Y164997D01*
X631003Y165696D01*
X631497Y166551D01*
X631753Y167506D01*
Y168494D01*
X631497Y169448D01*
X631003Y170304D01*
X630304Y171003D01*
X629449Y171497D01*
X628494Y171753D01*
X627506D01*
X627267Y171689D01*
X624990Y173966D01*
Y174996D01*
X625490Y175203D01*
X625696Y174997D01*
X626551Y174503D01*
X627506Y174247D01*
X628494D01*
X629449Y174503D01*
X630304Y174997D01*
X631003Y175696D01*
X631497Y176551D01*
X631753Y177506D01*
Y178494D01*
X631689Y178733D01*
X651913Y198957D01*
X651998Y198941D01*
X652361Y198363D01*
X652246Y197933D01*
X655500D01*
Y201187D01*
X655070Y201072D01*
X654493Y201435D01*
X654476Y201520D01*
X662778Y209822D01*
X663231Y210500D01*
X663390Y211300D01*
Y263934D01*
X678458Y279002D01*
X678944Y278781D01*
Y278032D01*
X679186Y277128D01*
X679655Y276317D01*
X680317Y275655D01*
X680410Y275601D01*
Y259349D01*
X679525Y240497D01*
X678970Y239942D01*
X678553Y239221D01*
X678338Y238416D01*
Y237584D01*
X678553Y236779D01*
X678970Y236058D01*
X679558Y235470D01*
X680279Y235053D01*
X681084Y234838D01*
X681916D01*
X682721Y235053D01*
X683442Y235470D01*
X684030Y236058D01*
X684447Y236779D01*
X684662Y237584D01*
Y238416D01*
X684447Y239221D01*
X684030Y239942D01*
X683699Y240273D01*
X684588Y259202D01*
X684581Y259251D01*
X684590Y259300D01*
Y275601D01*
X684683Y275655D01*
X685345Y276317D01*
X685814Y277128D01*
X686056Y278032D01*
Y278968D01*
X685814Y279872D01*
X685345Y280683D01*
X684683Y281345D01*
X683873Y281814D01*
X682968Y282056D01*
X682219D01*
X681998Y282542D01*
X695878Y296422D01*
X696331Y297100D01*
X696490Y297900D01*
X696490Y297900D01*
Y470800D01*
X696490Y470800D01*
X696331Y471600D01*
X695878Y472278D01*
X695878Y472278D01*
X693878Y474278D01*
X693200Y474731D01*
X692400Y474890D01*
X692400Y474890D01*
X678400D01*
X678400Y474890D01*
X677600Y474731D01*
X676922Y474278D01*
X676922Y474278D01*
X675022Y472378D01*
X674569Y471700D01*
X674410Y470900D01*
X674410Y470900D01*
Y442199D01*
X673948Y442008D01*
X662490Y453466D01*
Y476482D01*
X662952Y476674D01*
X663167Y476459D01*
X664033Y475959D01*
X665000Y475700D01*
X666000D01*
X666967Y475959D01*
X667833Y476459D01*
X668541Y477167D01*
X669041Y478033D01*
X669300Y479000D01*
Y480000D01*
X669041Y480967D01*
X668541Y481833D01*
X667833Y482541D01*
X667590Y482681D01*
Y489600D01*
X667431Y490400D01*
X666978Y491078D01*
X666978Y491078D01*
X665878Y492178D01*
X665200Y492631D01*
X664400Y492790D01*
D02*
G37*
G36*
X628000Y483300D02*
X627000D01*
X626033Y483041D01*
X625167Y482541D01*
X624459Y481833D01*
X623959Y480967D01*
X623700Y480000D01*
Y479000D01*
X623959Y478033D01*
X624459Y477167D01*
X625167Y476459D01*
X626033Y475959D01*
X627000Y475700D01*
X628000D01*
X628967Y475959D01*
X629833Y476459D01*
X630541Y477167D01*
X631041Y478033D01*
X631300Y479000D01*
Y480000D01*
X631041Y480967D01*
X630541Y481833D01*
X629833Y482541D01*
X628967Y483041D01*
X628000Y483300D01*
D02*
G37*
G36*
X610000D02*
X609000D01*
X608033Y483041D01*
X607167Y482541D01*
X606459Y481833D01*
X605959Y480967D01*
X605700Y480000D01*
Y479000D01*
X605959Y478033D01*
X606459Y477167D01*
X607167Y476459D01*
X608033Y475959D01*
X609000Y475700D01*
X610000D01*
X610967Y475959D01*
X611833Y476459D01*
X612541Y477167D01*
X613041Y478033D01*
X613300Y479000D01*
Y480000D01*
X613041Y480967D01*
X612541Y481833D01*
X611833Y482541D01*
X610967Y483041D01*
X610000Y483300D01*
D02*
G37*
G36*
X600000D02*
X599000D01*
X598033Y483041D01*
X597167Y482541D01*
X596459Y481833D01*
X595959Y480967D01*
X595700Y480000D01*
Y479000D01*
X595959Y478033D01*
X596459Y477167D01*
X597167Y476459D01*
X598033Y475959D01*
X599000Y475700D01*
X600000D01*
X600967Y475959D01*
X601833Y476459D01*
X602541Y477167D01*
X603041Y478033D01*
X603300Y479000D01*
Y480000D01*
X603041Y480967D01*
X602541Y481833D01*
X601833Y482541D01*
X600967Y483041D01*
X600000Y483300D01*
D02*
G37*
G36*
X572000D02*
X571000D01*
X570033Y483041D01*
X569167Y482541D01*
X568459Y481833D01*
X567959Y480967D01*
X567700Y480000D01*
Y479000D01*
X567959Y478033D01*
X568459Y477167D01*
X569167Y476459D01*
X570033Y475959D01*
X571000Y475700D01*
X572000D01*
X572967Y475959D01*
X573833Y476459D01*
X574541Y477167D01*
X575041Y478033D01*
X575300Y479000D01*
Y480000D01*
X575041Y480967D01*
X574541Y481833D01*
X573833Y482541D01*
X572967Y483041D01*
X572000Y483300D01*
D02*
G37*
G36*
X562000D02*
X561000D01*
X560033Y483041D01*
X559167Y482541D01*
X558459Y481833D01*
X557959Y480967D01*
X557700Y480000D01*
Y479000D01*
X557773Y478729D01*
X538734Y459690D01*
X507950D01*
X507150Y459531D01*
X506472Y459078D01*
X504872Y457478D01*
X504419Y456800D01*
X504260Y456000D01*
X504260Y456000D01*
Y274700D01*
X504260Y274700D01*
X504419Y273900D01*
X504710Y273465D01*
Y270405D01*
X504248Y270214D01*
X504116Y270345D01*
X503305Y270814D01*
X502401Y271056D01*
X501465D01*
X500561Y270814D01*
X499750Y270345D01*
X499088Y269683D01*
X498619Y268872D01*
X498377Y267968D01*
Y267032D01*
X498619Y266127D01*
X499088Y265317D01*
X499750Y264655D01*
X500561Y264186D01*
X501465Y263944D01*
X502401D01*
X503305Y264186D01*
X504116Y264655D01*
X504248Y264786D01*
X504710Y264595D01*
Y241018D01*
X498222Y234530D01*
X497769Y233852D01*
X497610Y233052D01*
X497610Y233052D01*
Y220474D01*
X497059Y219923D01*
X496625Y219171D01*
X496400Y218332D01*
Y217463D01*
X496625Y216623D01*
X497059Y215871D01*
X497674Y215257D01*
X498426Y214822D01*
X499265Y214597D01*
X500135D01*
X500974Y214822D01*
X501726Y215257D01*
X502066Y214897D01*
X490722Y203554D01*
X490269Y202875D01*
X490110Y202076D01*
X490110Y202076D01*
Y182093D01*
X489610Y182027D01*
X489497Y182448D01*
X489003Y183304D01*
X488304Y184003D01*
X487449Y184497D01*
X486494Y184753D01*
X485506D01*
X484551Y184497D01*
X483696Y184003D01*
X482997Y183304D01*
X482503Y182448D01*
X482247Y181494D01*
Y180506D01*
X482503Y179551D01*
X482997Y178696D01*
X483696Y177997D01*
X484551Y177503D01*
X485506Y177247D01*
X486494D01*
X487449Y177503D01*
X488304Y177997D01*
X489003Y178696D01*
X489497Y179551D01*
X489610Y179973D01*
X490110Y179907D01*
Y123966D01*
X478734Y112590D01*
X478184D01*
X477965Y113090D01*
X478318Y113702D01*
X478532Y114500D01*
X475185D01*
X471838D01*
X472052Y113702D01*
X472405Y113090D01*
X472186Y112590D01*
X460866D01*
X458662Y114794D01*
Y115416D01*
X458447Y116221D01*
X458030Y116942D01*
X457442Y117530D01*
X456721Y117947D01*
X455916Y118162D01*
X455084D01*
X454279Y117947D01*
X453558Y117530D01*
X452970Y116942D01*
X452553Y116221D01*
X452338Y115416D01*
Y114584D01*
X452553Y113779D01*
X452970Y113058D01*
X453558Y112470D01*
X454279Y112053D01*
X455084Y111838D01*
X455706D01*
X458522Y109022D01*
X459200Y108569D01*
X460000Y108410D01*
X479600D01*
X479600Y108410D01*
X480400Y108569D01*
X481078Y109022D01*
X493678Y121622D01*
X494131Y122300D01*
X494290Y123100D01*
Y201210D01*
X507078Y213998D01*
X507531Y214676D01*
X507690Y215476D01*
Y219076D01*
X507690Y219076D01*
X507531Y219876D01*
X507078Y220554D01*
X507078Y220554D01*
X505178Y222454D01*
Y223206D01*
X505678Y223401D01*
X506279Y223053D01*
X507084Y222838D01*
X507706D01*
X508660Y221884D01*
Y201416D01*
X507844Y200600D01*
X507065D01*
X506226Y200375D01*
X505474Y199941D01*
X504859Y199326D01*
X504425Y198574D01*
X504200Y197734D01*
Y196866D01*
X504425Y196026D01*
X504859Y195274D01*
X505474Y194659D01*
X506226Y194225D01*
X507065Y194000D01*
X507935D01*
X508774Y194225D01*
X509526Y194659D01*
X510141Y195274D01*
X510575Y196026D01*
X510800Y196866D01*
Y197644D01*
X512228Y199072D01*
X512228Y199072D01*
X512681Y199750D01*
X512840Y200550D01*
Y222750D01*
X512681Y223550D01*
X512228Y224228D01*
X512228Y224228D01*
X510662Y225794D01*
Y226206D01*
X512385Y227929D01*
X512785Y227622D01*
X512553Y227221D01*
X512338Y226416D01*
Y225584D01*
X512553Y224779D01*
X512970Y224058D01*
X513558Y223470D01*
X514279Y223053D01*
X515084Y222838D01*
X515916D01*
X516721Y223053D01*
X517442Y223470D01*
X517882Y223910D01*
X526567D01*
X557472Y193005D01*
X557444Y192901D01*
Y191965D01*
X557686Y191060D01*
X558155Y190250D01*
X558817Y189588D01*
X559627Y189119D01*
X560532Y188877D01*
X561468D01*
X562372Y189119D01*
X563183Y189588D01*
X563845Y190250D01*
X564314Y191060D01*
X564556Y191965D01*
Y192901D01*
X564314Y193806D01*
X563845Y194616D01*
X563183Y195278D01*
X562372Y195747D01*
X561468Y195989D01*
X560532D01*
X560428Y195961D01*
X528911Y227478D01*
X528233Y227931D01*
X527433Y228090D01*
X527433Y228090D01*
X517882D01*
X517442Y228530D01*
X516721Y228947D01*
X515916Y229162D01*
X515084D01*
X514279Y228947D01*
X513878Y228715D01*
X513571Y229115D01*
X514878Y230422D01*
X515331Y231100D01*
X515490Y231900D01*
X515490Y231900D01*
Y281300D01*
X515490Y281300D01*
X515331Y282100D01*
X515040Y282535D01*
Y286863D01*
X515540Y286912D01*
X515569Y286767D01*
X516022Y286089D01*
X522539Y279572D01*
X522511Y279468D01*
Y278532D01*
X522753Y277627D01*
X523222Y276817D01*
X523884Y276155D01*
X524694Y275686D01*
X525599Y275444D01*
X526535D01*
X527439Y275686D01*
X528250Y276155D01*
X528912Y276817D01*
X529381Y277627D01*
X529623Y278532D01*
Y279468D01*
X529381Y280373D01*
X528912Y281183D01*
X528250Y281845D01*
X527439Y282314D01*
X526535Y282556D01*
X525599D01*
X525495Y282528D01*
X519590Y288433D01*
Y361118D01*
X520030Y361558D01*
X520447Y362279D01*
X520662Y363084D01*
Y363916D01*
X520447Y364721D01*
X520030Y365442D01*
X519442Y366030D01*
X518721Y366447D01*
X517916Y366662D01*
X517084D01*
X516279Y366447D01*
X515558Y366030D01*
X515502Y365974D01*
X515040Y366165D01*
Y420684D01*
X520056Y425700D01*
X520834D01*
X521674Y425925D01*
X522426Y426359D01*
X522448Y426381D01*
X522910Y426190D01*
Y420753D01*
X522006D01*
X521052Y420497D01*
X520196Y420003D01*
X519497Y419304D01*
X519003Y418448D01*
X518747Y417494D01*
Y416506D01*
X519003Y415552D01*
X519497Y414696D01*
X520196Y413997D01*
X521052Y413503D01*
X522006Y413247D01*
X522994D01*
X523948Y413503D01*
X524804Y413997D01*
X525503Y414696D01*
X525997Y415552D01*
X526253Y416506D01*
Y417494D01*
X526189Y417733D01*
X526478Y418022D01*
X526478Y418022D01*
X526931Y418700D01*
X527090Y419500D01*
Y432000D01*
X526931Y432800D01*
X526478Y433478D01*
X524878Y435078D01*
X524200Y435531D01*
X523400Y435690D01*
X523400Y435690D01*
X518000D01*
X517200Y435531D01*
X516522Y435078D01*
X516522Y435078D01*
X508902Y427458D01*
X508440Y427649D01*
Y455134D01*
X508816Y455510D01*
X539600D01*
X539600Y455510D01*
X540400Y455669D01*
X541078Y456122D01*
X560729Y475773D01*
X561000Y475700D01*
X562000D01*
X562967Y475959D01*
X563833Y476459D01*
X564541Y477167D01*
X565041Y478033D01*
X565300Y479000D01*
Y480000D01*
X565041Y480967D01*
X564541Y481833D01*
X563833Y482541D01*
X562967Y483041D01*
X562000Y483300D01*
D02*
G37*
G36*
X533500D02*
X532500D01*
X531533Y483041D01*
X530667Y482541D01*
X529959Y481833D01*
X529459Y480967D01*
X529200Y480000D01*
Y479000D01*
X529459Y478033D01*
X529959Y477167D01*
X530667Y476459D01*
X531533Y475959D01*
X532500Y475700D01*
X533500D01*
X534467Y475959D01*
X535333Y476459D01*
X536041Y477167D01*
X536541Y478033D01*
X536800Y479000D01*
Y480000D01*
X536541Y480967D01*
X536041Y481833D01*
X535333Y482541D01*
X534467Y483041D01*
X533500Y483300D01*
D02*
G37*
G36*
X523500D02*
X522500D01*
X521533Y483041D01*
X520667Y482541D01*
X519959Y481833D01*
X519459Y480967D01*
X519200Y480000D01*
Y479000D01*
X519459Y478033D01*
X519959Y477167D01*
X520667Y476459D01*
X521533Y475959D01*
X522500Y475700D01*
X523500D01*
X524467Y475959D01*
X525333Y476459D01*
X526041Y477167D01*
X526541Y478033D01*
X526800Y479000D01*
Y480000D01*
X526541Y480967D01*
X526041Y481833D01*
X525333Y482541D01*
X524467Y483041D01*
X523500Y483300D01*
D02*
G37*
G36*
X513500D02*
X512500D01*
X511533Y483041D01*
X510667Y482541D01*
X509959Y481833D01*
X509459Y480967D01*
X509200Y480000D01*
Y479000D01*
X509459Y478033D01*
X509959Y477167D01*
X510667Y476459D01*
X511533Y475959D01*
X512500Y475700D01*
X513500D01*
X514467Y475959D01*
X515333Y476459D01*
X516041Y477167D01*
X516541Y478033D01*
X516800Y479000D01*
Y480000D01*
X516541Y480967D01*
X516041Y481833D01*
X515333Y482541D01*
X514467Y483041D01*
X513500Y483300D01*
D02*
G37*
G36*
X552000D02*
X551000D01*
X550033Y483041D01*
X549167Y482541D01*
X548459Y481833D01*
X547959Y480967D01*
X547700Y480000D01*
Y479000D01*
X547773Y478729D01*
X542434Y473390D01*
X503200D01*
X503200Y473390D01*
X502400Y473231D01*
X501722Y472778D01*
X501722Y472778D01*
X490922Y461978D01*
X490469Y461300D01*
X490390Y460904D01*
X489890Y460953D01*
Y471934D01*
X493729Y475773D01*
X494000Y475700D01*
X495000D01*
X495967Y475959D01*
X496833Y476459D01*
X497541Y477167D01*
X498041Y478033D01*
X498300Y479000D01*
Y480000D01*
X498041Y480967D01*
X497541Y481833D01*
X496833Y482541D01*
X495967Y483041D01*
X495000Y483300D01*
X494000D01*
X493033Y483041D01*
X492167Y482541D01*
X491459Y481833D01*
X490959Y480967D01*
X490700Y480000D01*
Y479000D01*
X490773Y478729D01*
X486322Y474278D01*
X485869Y473600D01*
X485710Y472800D01*
X485710Y472800D01*
Y444654D01*
X485210Y444447D01*
X484942Y444715D01*
X484221Y445132D01*
X483416Y445347D01*
X482584D01*
X481779Y445132D01*
X481058Y444715D01*
X480470Y444127D01*
X480053Y443406D01*
X479838Y442601D01*
Y441769D01*
X480053Y440964D01*
X480470Y440243D01*
X481058Y439655D01*
X481779Y439238D01*
X482584Y439023D01*
X483416D01*
X484221Y439238D01*
X484942Y439655D01*
X485210Y439923D01*
X485710Y439716D01*
Y424969D01*
X485210Y424762D01*
X484942Y425030D01*
X484221Y425447D01*
X483416Y425662D01*
X482584D01*
X481779Y425447D01*
X481058Y425030D01*
X480470Y424442D01*
X480053Y423721D01*
X479838Y422916D01*
Y422084D01*
X480053Y421279D01*
X480470Y420558D01*
X481058Y419970D01*
X481779Y419553D01*
X482584Y419338D01*
X483416D01*
X484221Y419553D01*
X484942Y419970D01*
X485210Y420238D01*
X485710Y420031D01*
Y409377D01*
X485159Y408826D01*
X484725Y408074D01*
X484500Y407234D01*
Y406365D01*
X484725Y405526D01*
X485159Y404774D01*
X485774Y404159D01*
X486526Y403725D01*
X487365Y403500D01*
X488235D01*
X489074Y403725D01*
X489826Y404159D01*
X489848Y404181D01*
X490310Y403990D01*
Y383372D01*
X489848Y383181D01*
X489683Y383345D01*
X488872Y383814D01*
X487968Y384056D01*
X487032D01*
X486128Y383814D01*
X485317Y383345D01*
X484655Y382683D01*
X484601Y382590D01*
X473082D01*
X458275Y397397D01*
Y440618D01*
X458715Y441058D01*
X459132Y441779D01*
X459347Y442584D01*
Y443416D01*
X459132Y444221D01*
X458715Y444942D01*
X458275Y445382D01*
Y457315D01*
X458116Y458115D01*
X457663Y458793D01*
X457663Y458793D01*
X436662Y479794D01*
Y480416D01*
X436447Y481221D01*
X436030Y481942D01*
X435442Y482530D01*
X434721Y482947D01*
X433916Y483162D01*
X433084D01*
X432279Y482947D01*
X431558Y482530D01*
X430970Y481942D01*
X430553Y481221D01*
X430338Y480416D01*
Y479584D01*
X430553Y478779D01*
X430970Y478058D01*
X431558Y477470D01*
X432279Y477053D01*
X433084Y476838D01*
X433706D01*
X454095Y456449D01*
Y445382D01*
X453655Y444942D01*
X453238Y444221D01*
X453023Y443416D01*
Y442794D01*
X448646Y438417D01*
X448193Y437739D01*
X448033Y436939D01*
X448033Y436939D01*
Y371376D01*
X448033Y371376D01*
X448193Y370577D01*
X448646Y369898D01*
X453311Y365233D01*
X453247Y364994D01*
Y364006D01*
X453503Y363052D01*
X453997Y362196D01*
X454696Y361497D01*
X455551Y361003D01*
X456506Y360747D01*
X457494D01*
X458449Y361003D01*
X459304Y361497D01*
X460003Y362196D01*
X460497Y363052D01*
X460753Y364006D01*
Y364994D01*
X460497Y365949D01*
X460003Y366804D01*
X459304Y367503D01*
X458449Y367997D01*
X457494Y368253D01*
X456506D01*
X456267Y368189D01*
X452214Y372242D01*
Y375031D01*
X452714Y375183D01*
X452861Y374961D01*
X453247Y374576D01*
Y374006D01*
X453503Y373052D01*
X453997Y372196D01*
X454696Y371497D01*
X455551Y371003D01*
X456506Y370747D01*
X457494D01*
X458449Y371003D01*
X459304Y371497D01*
X460003Y372196D01*
X460497Y373052D01*
X460753Y374006D01*
Y374994D01*
X460497Y375949D01*
X460003Y376804D01*
X459304Y377503D01*
X458449Y377997D01*
X457494Y378253D01*
X457300D01*
Y386833D01*
X457341Y386874D01*
X457775Y387626D01*
X458000Y388465D01*
Y389335D01*
X457775Y390174D01*
X457341Y390926D01*
X456726Y391541D01*
X455974Y391975D01*
X455134Y392200D01*
X454265D01*
X453426Y391975D01*
X452714Y391564D01*
X452434Y391640D01*
X452214Y391731D01*
Y436073D01*
X453633Y437492D01*
X454095Y437301D01*
Y396531D01*
X454095Y396531D01*
X454254Y395731D01*
X454707Y395053D01*
X470738Y379022D01*
X470738Y379022D01*
X471417Y378569D01*
X472216Y378410D01*
X484601D01*
X484655Y378317D01*
X485317Y377655D01*
X486128Y377186D01*
X487032Y376944D01*
X487968D01*
X488872Y377186D01*
X489683Y377655D01*
X489848Y377819D01*
X490310Y377628D01*
Y337439D01*
X489848Y337248D01*
X489683Y337412D01*
X488872Y337881D01*
X487968Y338123D01*
X487032D01*
X486928Y338095D01*
X469045Y355978D01*
X468367Y356431D01*
X467567Y356590D01*
X467567Y356590D01*
X460127D01*
X460003Y356804D01*
X459304Y357503D01*
X458449Y357997D01*
X457494Y358253D01*
X456506D01*
X456267Y358189D01*
X442190Y372266D01*
Y395123D01*
X442741Y395674D01*
X443175Y396426D01*
X443400Y397266D01*
Y398134D01*
X443175Y398974D01*
X442741Y399726D01*
X442126Y400341D01*
X441374Y400775D01*
X440534Y401000D01*
X439666D01*
X438826Y400775D01*
X438074Y400341D01*
X437459Y399726D01*
X437025Y398974D01*
X436800Y398134D01*
Y397266D01*
X437025Y396426D01*
X437459Y395674D01*
X438010Y395123D01*
Y371400D01*
X438010Y371400D01*
X438169Y370600D01*
X438622Y369922D01*
X453311Y355233D01*
X453247Y354994D01*
Y354006D01*
X453503Y353051D01*
X453997Y352196D01*
X454696Y351497D01*
X455551Y351003D01*
X456506Y350747D01*
X457494D01*
X458449Y351003D01*
X459304Y351497D01*
X460003Y352196D01*
X460127Y352410D01*
X466701D01*
X483972Y335139D01*
X483944Y335035D01*
Y334099D01*
X484186Y333194D01*
X484655Y332384D01*
X485317Y331722D01*
X486128Y331253D01*
X487032Y331011D01*
X487968D01*
X488872Y331253D01*
X489683Y331722D01*
X489848Y331886D01*
X490310Y331695D01*
Y325666D01*
X474522Y309878D01*
X474069Y309200D01*
X473910Y308400D01*
X473910Y308400D01*
Y214126D01*
X473696Y214003D01*
X472997Y213304D01*
X472503Y212449D01*
X472247Y211494D01*
Y210506D01*
X472503Y209552D01*
X472997Y208696D01*
X473696Y207997D01*
X474551Y207503D01*
X475506Y207247D01*
X476494D01*
X477449Y207503D01*
X478304Y207997D01*
X479003Y208696D01*
X479497Y209552D01*
X479753Y210506D01*
Y211494D01*
X479497Y212449D01*
X479003Y213304D01*
X478304Y214003D01*
X478090Y214126D01*
Y307534D01*
X493878Y323322D01*
X493878Y323322D01*
X494331Y324000D01*
X494490Y324800D01*
Y459634D01*
X504066Y469210D01*
X543300D01*
X543300Y469210D01*
X544100Y469369D01*
X544778Y469822D01*
X550729Y475773D01*
X551000Y475700D01*
X552000D01*
X552967Y475959D01*
X553833Y476459D01*
X554541Y477167D01*
X555041Y478033D01*
X555300Y479000D01*
Y480000D01*
X555041Y480967D01*
X554541Y481833D01*
X553833Y482541D01*
X552967Y483041D01*
X552000Y483300D01*
D02*
G37*
G36*
X485000D02*
X484000D01*
X483033Y483041D01*
X482167Y482541D01*
X481459Y481833D01*
X480959Y480967D01*
X480700Y480000D01*
Y479000D01*
X480959Y478033D01*
X481459Y477167D01*
X482167Y476459D01*
X483033Y475959D01*
X484000Y475700D01*
X485000D01*
X485967Y475959D01*
X486833Y476459D01*
X487541Y477167D01*
X488041Y478033D01*
X488300Y479000D01*
Y480000D01*
X488041Y480967D01*
X487541Y481833D01*
X486833Y482541D01*
X485967Y483041D01*
X485000Y483300D01*
D02*
G37*
G36*
X475000D02*
X474000D01*
X473033Y483041D01*
X472167Y482541D01*
X471459Y481833D01*
X470959Y480967D01*
X470700Y480000D01*
Y479000D01*
X470959Y478033D01*
X471459Y477167D01*
X472167Y476459D01*
X473033Y475959D01*
X474000Y475700D01*
X475000D01*
X475967Y475959D01*
X476833Y476459D01*
X477541Y477167D01*
X478041Y478033D01*
X478300Y479000D01*
Y480000D01*
X478041Y480967D01*
X477541Y481833D01*
X476833Y482541D01*
X475967Y483041D01*
X475000Y483300D01*
D02*
G37*
G36*
X383231Y488662D02*
X382399D01*
X381594Y488447D01*
X380873Y488030D01*
X380285Y487442D01*
X379868Y486721D01*
X379653Y485916D01*
Y485084D01*
X379868Y484279D01*
X380285Y483558D01*
X380725Y483118D01*
Y474795D01*
X380263Y474604D01*
X380226Y474641D01*
X379474Y475075D01*
X378635Y475300D01*
X377765D01*
X376926Y475075D01*
X376174Y474641D01*
X375559Y474026D01*
X375125Y473274D01*
X374900Y472435D01*
Y471565D01*
X375125Y470726D01*
X375559Y469974D01*
X376110Y469423D01*
Y421300D01*
X376110Y421300D01*
X376269Y420500D01*
X376722Y419822D01*
X396654Y399890D01*
X396396Y399441D01*
X395968Y399556D01*
X395032D01*
X394127Y399314D01*
X393317Y398845D01*
X392655Y398183D01*
X392186Y397373D01*
X391944Y396468D01*
Y395532D01*
X392186Y394627D01*
X392655Y393817D01*
X393317Y393155D01*
X394127Y392686D01*
X395032Y392444D01*
X395968D01*
X396072Y392472D01*
X398310Y390234D01*
Y353222D01*
X397848Y353031D01*
X397806Y353073D01*
X396950Y353567D01*
X396000Y353821D01*
Y350067D01*
Y346313D01*
X396950Y346567D01*
X397806Y347061D01*
X397848Y347103D01*
X398310Y346912D01*
Y320166D01*
X367207Y289063D01*
X366754Y288385D01*
X366595Y287585D01*
X366595Y287585D01*
Y272699D01*
X366133Y272508D01*
X347090Y291551D01*
Y296168D01*
X347183Y296222D01*
X347845Y296884D01*
X348314Y297694D01*
X348556Y298599D01*
Y299535D01*
X348314Y300440D01*
X347845Y301250D01*
X347183Y301912D01*
X346373Y302381D01*
X345468Y302623D01*
X344532D01*
X343628Y302381D01*
X342817Y301912D01*
X342155Y301250D01*
X341686Y300440D01*
X341444Y299535D01*
Y298599D01*
X341686Y297694D01*
X342155Y296884D01*
X342817Y296222D01*
X342910Y296168D01*
Y290685D01*
X342910Y290685D01*
X343069Y289885D01*
X343522Y289207D01*
X346527Y286202D01*
X346220Y285802D01*
X345574Y286175D01*
X344735Y286400D01*
X343865D01*
X343026Y286175D01*
X342274Y285741D01*
X341659Y285126D01*
X341225Y284374D01*
X341000Y283535D01*
Y282665D01*
X341225Y281826D01*
X341659Y281074D01*
X342210Y280523D01*
Y271700D01*
X342210Y271700D01*
X342369Y270900D01*
X342822Y270222D01*
X345838Y267206D01*
Y266584D01*
X346053Y265779D01*
X346470Y265058D01*
X347058Y264470D01*
X347779Y264053D01*
X348584Y263838D01*
X349416D01*
X350221Y264053D01*
X350942Y264470D01*
X351530Y265058D01*
X351947Y265779D01*
X352162Y266584D01*
Y267416D01*
X351947Y268221D01*
X351530Y268942D01*
X350942Y269530D01*
X350221Y269947D01*
X349416Y270162D01*
X348794D01*
X346390Y272566D01*
Y280523D01*
X346941Y281074D01*
X347375Y281826D01*
X347600Y282665D01*
Y283535D01*
X347375Y284374D01*
X347002Y285020D01*
X347402Y285327D01*
X365523Y267206D01*
Y266584D01*
X365738Y265779D01*
X366155Y265058D01*
X366743Y264470D01*
X367464Y264053D01*
X368269Y263838D01*
X369101D01*
X369906Y264053D01*
X370627Y264470D01*
X371215Y265058D01*
X371632Y265779D01*
X371847Y266584D01*
Y267416D01*
X371632Y268221D01*
X371215Y268942D01*
X370775Y269382D01*
Y286719D01*
X401148Y317092D01*
X401610Y316901D01*
Y301066D01*
X391206Y290662D01*
X390584D01*
X389779Y290447D01*
X389058Y290030D01*
X388470Y289442D01*
X388053Y288721D01*
X387838Y287916D01*
Y287084D01*
X388053Y286279D01*
X388470Y285558D01*
X389058Y284970D01*
X389779Y284553D01*
X390584Y284338D01*
X391416D01*
X392221Y284553D01*
X392942Y284970D01*
X393530Y285558D01*
X393947Y286279D01*
X394162Y287084D01*
Y287706D01*
X395885Y289429D01*
X396285Y289122D01*
X396053Y288721D01*
X395838Y287916D01*
Y287084D01*
X396053Y286279D01*
X396470Y285558D01*
X397058Y284970D01*
X397779Y284553D01*
X398584Y284338D01*
X399416D01*
X400221Y284553D01*
X400942Y284970D01*
X401530Y285558D01*
X401947Y286279D01*
X402162Y287084D01*
Y287916D01*
X401947Y288721D01*
X401530Y289442D01*
X400942Y290030D01*
X400221Y290447D01*
X399416Y290662D01*
X398584D01*
X397779Y290447D01*
X397378Y290215D01*
X397071Y290615D01*
X405178Y298722D01*
X405178Y298722D01*
X405631Y299400D01*
X405790Y300200D01*
Y395800D01*
X405790Y395800D01*
X405631Y396600D01*
X405178Y397278D01*
X405178Y397278D01*
X380290Y422166D01*
Y443807D01*
X380790Y443857D01*
X380884Y443385D01*
X381337Y442707D01*
X415972Y408072D01*
X415944Y407968D01*
Y407032D01*
X416186Y406128D01*
X416655Y405317D01*
X417317Y404655D01*
X417410Y404601D01*
Y372000D01*
X417410Y372000D01*
X417569Y371200D01*
X418022Y370522D01*
X423311Y365233D01*
X423247Y364994D01*
Y364006D01*
X423503Y363052D01*
X423997Y362196D01*
X424696Y361497D01*
X425552Y361003D01*
X426506Y360747D01*
X427494D01*
X428448Y361003D01*
X429304Y361497D01*
X430003Y362196D01*
X430497Y363052D01*
X430753Y364006D01*
Y364994D01*
X430497Y365949D01*
X430003Y366804D01*
X429304Y367503D01*
X428448Y367997D01*
X427494Y368253D01*
X426506D01*
X426267Y368189D01*
X424171Y370285D01*
X424362Y370747D01*
X430753D01*
Y378253D01*
X429090D01*
Y400323D01*
X429641Y400874D01*
X430075Y401626D01*
X430300Y402465D01*
Y403335D01*
X430075Y404174D01*
X429641Y404926D01*
X429026Y405541D01*
X428274Y405975D01*
X427434Y406200D01*
X426566D01*
X425726Y405975D01*
X424974Y405541D01*
X424359Y404926D01*
X423925Y404174D01*
X423700Y403335D01*
Y402465D01*
X423925Y401626D01*
X424359Y400874D01*
X424910Y400323D01*
Y378253D01*
X423247D01*
Y371862D01*
X422785Y371671D01*
X421590Y372866D01*
Y404601D01*
X421683Y404655D01*
X422345Y405317D01*
X422814Y406128D01*
X423056Y407032D01*
Y407968D01*
X422814Y408873D01*
X422345Y409683D01*
X421683Y410345D01*
X420872Y410814D01*
X419968Y411056D01*
X419032D01*
X418928Y411028D01*
X384905Y445051D01*
Y483118D01*
X385345Y483558D01*
X385762Y484279D01*
X385977Y485084D01*
Y485916D01*
X385762Y486721D01*
X385345Y487442D01*
X384757Y488030D01*
X384036Y488447D01*
X383231Y488662D01*
D02*
G37*
G36*
X219566Y482800D02*
X218434D01*
X217340Y482507D01*
X216360Y481941D01*
X215559Y481140D01*
X214993Y480160D01*
X214700Y479066D01*
Y477934D01*
X214993Y476840D01*
X215559Y475860D01*
X216360Y475059D01*
X217340Y474493D01*
X218434Y474200D01*
X219566D01*
X220660Y474493D01*
X221640Y475059D01*
X222441Y475860D01*
X223007Y476840D01*
X223300Y477934D01*
Y479066D01*
X223007Y480160D01*
X222441Y481140D01*
X221640Y481941D01*
X220660Y482507D01*
X219566Y482800D01*
D02*
G37*
G36*
X280916Y479662D02*
X280084D01*
X279279Y479447D01*
X278558Y479030D01*
X277970Y478442D01*
X277553Y477721D01*
X277338Y476916D01*
Y476084D01*
X277553Y475279D01*
X277970Y474558D01*
X278558Y473970D01*
X279279Y473553D01*
X280084Y473338D01*
X280916D01*
X281721Y473553D01*
X282442Y473970D01*
X283030Y474558D01*
X283447Y475279D01*
X283662Y476084D01*
Y476916D01*
X283447Y477721D01*
X283030Y478442D01*
X282442Y479030D01*
X281721Y479447D01*
X280916Y479662D01*
D02*
G37*
G36*
X199907Y463315D02*
X199815D01*
Y459315D01*
X203815D01*
Y459407D01*
X203508Y460552D01*
X202916Y461578D01*
X202078Y462416D01*
X201052Y463008D01*
X199907Y463315D01*
D02*
G37*
G36*
X198815D02*
X198723D01*
X197578Y463008D01*
X196552Y462416D01*
X195714Y461578D01*
X195122Y460552D01*
X194815Y459407D01*
Y459315D01*
X198815D01*
Y463315D01*
D02*
G37*
G36*
X239251Y463115D02*
X238119D01*
X237025Y462822D01*
X236045Y462256D01*
X235244Y461455D01*
X234678Y460475D01*
X234385Y459381D01*
Y458249D01*
X234678Y457155D01*
X235244Y456175D01*
X236045Y455374D01*
X237025Y454808D01*
X238119Y454515D01*
X239251D01*
X240345Y454808D01*
X241325Y455374D01*
X242126Y456175D01*
X242692Y457155D01*
X242985Y458249D01*
Y459381D01*
X242692Y460475D01*
X242126Y461455D01*
X241325Y462256D01*
X240345Y462822D01*
X239251Y463115D01*
D02*
G37*
G36*
X203815Y458315D02*
X199815D01*
Y454315D01*
X199907D01*
X201052Y454622D01*
X202078Y455214D01*
X202916Y456052D01*
X203508Y457078D01*
X203815Y458223D01*
Y458315D01*
D02*
G37*
G36*
X198815D02*
X194815D01*
Y458223D01*
X195122Y457078D01*
X195714Y456052D01*
X196552Y455214D01*
X197578Y454622D01*
X198723Y454315D01*
X198815D01*
Y458315D01*
D02*
G37*
G36*
X357968Y488056D02*
X357032D01*
X356128Y487814D01*
X355317Y487345D01*
X354655Y486683D01*
X354186Y485873D01*
X353944Y484968D01*
Y484032D01*
X354186Y483127D01*
X354655Y482317D01*
X355317Y481655D01*
X356128Y481186D01*
X357032Y480944D01*
X357968D01*
X358640Y481124D01*
X359056Y480746D01*
X359056Y480745D01*
X359000Y480535D01*
Y479756D01*
X336022Y456778D01*
X335569Y456100D01*
X335410Y455300D01*
X335410Y455300D01*
Y450215D01*
X335173Y450117D01*
X334910Y450049D01*
X334221Y450447D01*
X333416Y450662D01*
X332584D01*
X331779Y450447D01*
X331058Y450030D01*
X330470Y449442D01*
X330053Y448721D01*
X329838Y447916D01*
Y447084D01*
X330053Y446279D01*
X330470Y445558D01*
X331058Y444970D01*
X331779Y444553D01*
X332584Y444338D01*
X333416D01*
X334221Y444553D01*
X334910Y444951D01*
X335173Y444883D01*
X335410Y444784D01*
Y430531D01*
X335173Y430432D01*
X334910Y430364D01*
X334221Y430762D01*
X333416Y430977D01*
X332584D01*
X331779Y430762D01*
X331058Y430345D01*
X330470Y429757D01*
X330053Y429036D01*
X329838Y428231D01*
Y427399D01*
X330053Y426594D01*
X330470Y425873D01*
X331058Y425285D01*
X331779Y424868D01*
X332584Y424653D01*
X333416D01*
X334221Y424868D01*
X334910Y425266D01*
X335173Y425198D01*
X335410Y425100D01*
Y405366D01*
X307733Y377689D01*
X307494Y377753D01*
X306506D01*
X305552Y377497D01*
X304696Y377003D01*
X303997Y376304D01*
X303503Y375448D01*
X303247Y374494D01*
Y373506D01*
X303311Y373267D01*
X295522Y365478D01*
X295069Y364800D01*
X294910Y364000D01*
X294910Y364000D01*
Y321882D01*
X294470Y321442D01*
X294053Y320721D01*
X293838Y319916D01*
Y319084D01*
X294053Y318279D01*
X294470Y317558D01*
X295058Y316970D01*
X295779Y316553D01*
X296584Y316338D01*
X297416D01*
X298221Y316553D01*
X298942Y316970D01*
X299530Y317558D01*
X299947Y318279D01*
X300162Y319084D01*
Y319916D01*
X299947Y320721D01*
X299530Y321442D01*
X299090Y321882D01*
Y363134D01*
X306267Y370311D01*
X306506Y370247D01*
X307494D01*
X308449Y370503D01*
X309304Y370997D01*
X310003Y371696D01*
X310497Y372551D01*
X310753Y373506D01*
Y374494D01*
X310689Y374733D01*
X338248Y402292D01*
X338710Y402101D01*
Y399766D01*
X324122Y385178D01*
X323669Y384500D01*
X323510Y383700D01*
X323510Y383700D01*
Y340966D01*
X305206Y322662D01*
X304584D01*
X303779Y322447D01*
X303058Y322030D01*
X302470Y321442D01*
X302053Y320721D01*
X301838Y319916D01*
Y319084D01*
X302053Y318279D01*
X302470Y317558D01*
X303058Y316970D01*
X303779Y316553D01*
X304584Y316338D01*
X305416D01*
X306221Y316553D01*
X306942Y316970D01*
X307530Y317558D01*
X307947Y318279D01*
X308162Y319084D01*
Y319706D01*
X327078Y338622D01*
X327531Y339300D01*
X327690Y340100D01*
X327690Y340100D01*
Y375328D01*
X328190Y375583D01*
X328410Y375424D01*
Y329577D01*
X327859Y329026D01*
X327425Y328274D01*
X327200Y327434D01*
Y326566D01*
X327425Y325726D01*
X327859Y324974D01*
X328474Y324359D01*
X329226Y323925D01*
X330065Y323700D01*
X330935D01*
X331774Y323925D01*
X332526Y324359D01*
X333141Y324974D01*
X333575Y325726D01*
X333800Y326566D01*
Y327434D01*
X333575Y328274D01*
X333141Y329026D01*
X332590Y329577D01*
Y375601D01*
X332683Y375655D01*
X333345Y376317D01*
X333814Y377128D01*
X334056Y378032D01*
Y378968D01*
X334028Y379072D01*
X353793Y398837D01*
X354246Y399515D01*
X354405Y400315D01*
X354405Y400315D01*
Y406374D01*
X354610Y406527D01*
X355110Y406277D01*
Y358066D01*
X345572Y348528D01*
X345468Y348556D01*
X344532D01*
X343628Y348314D01*
X342817Y347845D01*
X342155Y347183D01*
X341686Y346373D01*
X341444Y345468D01*
Y344532D01*
X341686Y343628D01*
X342155Y342817D01*
X342817Y342155D01*
X342910Y342101D01*
Y341066D01*
X337244Y335400D01*
X336466D01*
X335626Y335175D01*
X334874Y334741D01*
X334259Y334126D01*
X333825Y333374D01*
X333600Y332535D01*
Y331665D01*
X333825Y330826D01*
X334259Y330074D01*
X334874Y329459D01*
X335626Y329025D01*
X336466Y328800D01*
X337334D01*
X338174Y329025D01*
X338926Y329459D01*
X339541Y330074D01*
X339975Y330826D01*
X340200Y331665D01*
Y332444D01*
X346478Y338722D01*
X346931Y339400D01*
X347090Y340200D01*
X347090Y340200D01*
Y342101D01*
X347183Y342155D01*
X347845Y342817D01*
X348314Y343628D01*
X348556Y344532D01*
Y345468D01*
X348528Y345572D01*
X358678Y355722D01*
X358678Y355722D01*
X359131Y356400D01*
X359290Y357200D01*
X359290Y357200D01*
Y431767D01*
X364495Y436972D01*
X364599Y436944D01*
X365535D01*
X366440Y437186D01*
X367250Y437655D01*
X367348Y437752D01*
X367810Y437561D01*
Y420066D01*
X364222Y416478D01*
X363769Y415800D01*
X363610Y415000D01*
X363610Y415000D01*
Y353366D01*
X314710Y304466D01*
X314114Y304500D01*
X314041Y304626D01*
X313426Y305241D01*
X312674Y305675D01*
X311835Y305900D01*
X310965D01*
X310126Y305675D01*
X309374Y305241D01*
X308759Y304626D01*
X308325Y303874D01*
X308100Y303034D01*
Y302166D01*
X308325Y301326D01*
X308759Y300574D01*
X309310Y300023D01*
Y205900D01*
X309310Y205900D01*
X309469Y205100D01*
X309922Y204422D01*
X318710Y195634D01*
Y190356D01*
X318253Y190253D01*
Y190253D01*
X313703D01*
X291590Y212366D01*
Y222101D01*
X291683Y222155D01*
X292345Y222817D01*
X292814Y223627D01*
X293056Y224532D01*
Y225468D01*
X292814Y226373D01*
X292345Y227183D01*
X291683Y227845D01*
X290873Y228314D01*
X289968Y228556D01*
X289032D01*
X288127Y228314D01*
X287317Y227845D01*
X287162Y227691D01*
X286700Y227882D01*
Y236134D01*
X287200Y236333D01*
X287674Y235859D01*
X288426Y235425D01*
X289265Y235200D01*
X290135D01*
X290974Y235425D01*
X291726Y235859D01*
X292341Y236474D01*
X292775Y237226D01*
X293000Y238066D01*
Y238934D01*
X292775Y239774D01*
X292341Y240526D01*
X292300Y240567D01*
Y365623D01*
X306924Y380247D01*
X307494D01*
X308449Y380503D01*
X309304Y380997D01*
X310003Y381696D01*
X310497Y382552D01*
X310753Y383506D01*
Y384494D01*
X310497Y385449D01*
X310003Y386304D01*
X309304Y387003D01*
X308449Y387497D01*
X307494Y387753D01*
X306506D01*
X305552Y387497D01*
X304696Y387003D01*
X303997Y386304D01*
X303503Y385449D01*
X303247Y384494D01*
Y383924D01*
X287861Y368538D01*
X287298Y367695D01*
X287100Y366700D01*
Y295648D01*
X286600Y295497D01*
X286438Y295739D01*
X282753Y299424D01*
Y299994D01*
X282752Y299998D01*
X282907Y300230D01*
X282924Y300318D01*
X282969Y300396D01*
X283023Y300813D01*
X283105Y301225D01*
Y302656D01*
X283087Y302745D01*
X283099Y302834D01*
X279868Y350157D01*
X279868Y350157D01*
X279779Y351471D01*
X280003Y351696D01*
X280497Y352552D01*
X280753Y353506D01*
Y354494D01*
X280497Y355449D01*
X280003Y356304D01*
X279304Y357003D01*
X278449Y357497D01*
X277494Y357753D01*
X276506D01*
X275552Y357497D01*
X274696Y357003D01*
X273997Y356304D01*
X273503Y355449D01*
X273247Y354494D01*
Y353506D01*
X273503Y352552D01*
X273997Y351696D01*
X274592Y351101D01*
X274680Y349803D01*
X274680Y349803D01*
X277870Y303082D01*
X277552Y302997D01*
X276696Y302503D01*
X275997Y301804D01*
X275503Y300949D01*
X275247Y299994D01*
Y299006D01*
X275503Y298052D01*
X275997Y297196D01*
X276696Y296497D01*
X277552Y296003D01*
X278506Y295747D01*
X279076D01*
X281674Y293149D01*
X281665Y293103D01*
X281104Y292849D01*
X280526Y293183D01*
X279520Y293453D01*
X279500D01*
Y289500D01*
Y285547D01*
X279520D01*
X280526Y285817D01*
X281427Y286337D01*
X281538Y286448D01*
X282000Y286257D01*
Y282460D01*
X281538Y282269D01*
X281304Y282503D01*
X280449Y282997D01*
X279494Y283253D01*
X278506D01*
X277552Y282997D01*
X276696Y282503D01*
X275997Y281804D01*
X275503Y280948D01*
X275247Y279994D01*
Y279006D01*
X275503Y278051D01*
X275997Y277196D01*
X276696Y276497D01*
X277552Y276003D01*
X278506Y275747D01*
X279494D01*
X280449Y276003D01*
X281304Y276497D01*
X281538Y276731D01*
X282000Y276540D01*
Y273253D01*
X275247D01*
Y265747D01*
X282000D01*
Y260934D01*
X281698Y260482D01*
X281500Y259487D01*
Y203500D01*
X281698Y202505D01*
X282261Y201662D01*
X304800Y179123D01*
Y163600D01*
X304998Y162605D01*
X305561Y161762D01*
X310747Y156576D01*
Y156006D01*
X311003Y155052D01*
X311497Y154196D01*
X312103Y153590D01*
X311971Y153090D01*
X288899D01*
X288845Y153183D01*
X288183Y153845D01*
X287372Y154314D01*
X286468Y154556D01*
X285532D01*
X284628Y154314D01*
X283817Y153845D01*
X283652Y153681D01*
X283190Y153872D01*
Y159600D01*
X283190Y159600D01*
X283031Y160400D01*
X282578Y161078D01*
X282578Y161078D01*
X275000Y168656D01*
Y169434D01*
X274775Y170274D01*
X274341Y171026D01*
X273726Y171641D01*
X272974Y172075D01*
X272134Y172300D01*
X271266D01*
X270426Y172075D01*
X269674Y171641D01*
X269059Y171026D01*
X268625Y170274D01*
X268400Y169434D01*
Y168566D01*
X268625Y167726D01*
X269059Y166974D01*
X269674Y166359D01*
X270426Y165925D01*
X271266Y165700D01*
X272044D01*
X279010Y158734D01*
Y118933D01*
X278686Y118372D01*
X278444Y117468D01*
Y116532D01*
X278686Y115628D01*
X279155Y114817D01*
X279817Y114155D01*
X280627Y113686D01*
X281532Y113444D01*
X282468D01*
X283372Y113686D01*
X284183Y114155D01*
X284845Y114817D01*
X285314Y115628D01*
X285556Y116532D01*
Y117468D01*
X285314Y118372D01*
X284845Y119183D01*
X284183Y119845D01*
X283372Y120314D01*
X283190Y120362D01*
Y148128D01*
X283652Y148319D01*
X283817Y148155D01*
X284628Y147686D01*
X285532Y147444D01*
X286468D01*
X287372Y147686D01*
X288183Y148155D01*
X288845Y148817D01*
X288899Y148910D01*
X318400D01*
X318400Y148910D01*
X318400Y148910D01*
X329000D01*
X329000Y148910D01*
X329800Y149069D01*
X330478Y149522D01*
X343767Y162811D01*
X344006Y162747D01*
X344994D01*
X345949Y163003D01*
X346804Y163497D01*
X347503Y164196D01*
X347997Y165051D01*
X348253Y166006D01*
Y166994D01*
X347997Y167948D01*
X347503Y168804D01*
X346804Y169503D01*
X345949Y169997D01*
X344994Y170253D01*
X344006D01*
X343052Y169997D01*
X342196Y169503D01*
X341497Y168804D01*
X341003Y167948D01*
X340747Y166994D01*
Y166006D01*
X340811Y165767D01*
X328134Y153090D01*
X323145D01*
X322890Y153400D01*
Y196500D01*
X322890Y196500D01*
X322731Y197300D01*
X322278Y197978D01*
X322278Y197978D01*
X313490Y206766D01*
Y220447D01*
X313990Y220496D01*
X314069Y220100D01*
X314522Y219422D01*
X337310Y196634D01*
Y181600D01*
X337310Y181600D01*
X337469Y180800D01*
X337922Y180122D01*
X340811Y177233D01*
X340747Y176994D01*
Y176006D01*
X341003Y175051D01*
X341497Y174196D01*
X342196Y173497D01*
X343052Y173003D01*
X344006Y172747D01*
X344994D01*
X345949Y173003D01*
X346804Y173497D01*
X347503Y174196D01*
X347997Y175051D01*
X348253Y176006D01*
Y176994D01*
X347997Y177948D01*
X347503Y178804D01*
X346804Y179503D01*
X345949Y179997D01*
X344994Y180253D01*
X344006D01*
X343767Y180189D01*
X341490Y182466D01*
Y183495D01*
X341990Y183703D01*
X342196Y183497D01*
X343052Y183003D01*
X344006Y182747D01*
X344994D01*
X345949Y183003D01*
X346804Y183497D01*
X347503Y184196D01*
X347997Y185052D01*
X348253Y186006D01*
Y186994D01*
X347997Y187949D01*
X347503Y188804D01*
X346804Y189503D01*
X345949Y189997D01*
X344994Y190253D01*
X344006D01*
X343052Y189997D01*
X342196Y189503D01*
X341990Y189297D01*
X341490Y189505D01*
Y197500D01*
X341490Y197500D01*
X341331Y198300D01*
X340878Y198978D01*
X340878Y198978D01*
X318090Y221766D01*
Y253600D01*
X318327Y253698D01*
X318590Y253766D01*
X319279Y253368D01*
X320084Y253153D01*
X320706D01*
X331673Y242186D01*
Y212471D01*
X331673Y212471D01*
X331832Y211671D01*
X332285Y210993D01*
X368477Y174801D01*
Y119399D01*
X368384Y119345D01*
X367722Y118683D01*
X367253Y117873D01*
X367011Y116968D01*
Y116032D01*
X367253Y115128D01*
X367722Y114317D01*
X368384Y113655D01*
X369195Y113186D01*
X370099Y112944D01*
X371035D01*
X371939Y113186D01*
X372750Y113655D01*
X373412Y114317D01*
X373881Y115128D01*
X374123Y116032D01*
Y116968D01*
X373881Y117873D01*
X373412Y118683D01*
X372750Y119345D01*
X372657Y119399D01*
Y175667D01*
X372657Y175667D01*
X372498Y176467D01*
X372045Y177145D01*
X335854Y213336D01*
Y243052D01*
X335854Y243052D01*
X335695Y243851D01*
X335241Y244530D01*
X323662Y256109D01*
Y256731D01*
X323517Y257272D01*
X323947Y257602D01*
X324426Y257325D01*
X325266Y257100D01*
X326134D01*
X326974Y257325D01*
X327726Y257759D01*
X328277Y258310D01*
X380834D01*
X390998Y248146D01*
Y232914D01*
X390498Y232864D01*
X390431Y233199D01*
X389978Y233877D01*
X387080Y236776D01*
X387162Y237084D01*
Y237916D01*
X386947Y238721D01*
X386530Y239442D01*
X385942Y240030D01*
X385221Y240447D01*
X384416Y240662D01*
X383584D01*
X382779Y240447D01*
X382058Y240030D01*
X381470Y239442D01*
X381053Y238721D01*
X380838Y237916D01*
Y237084D01*
X381053Y236279D01*
X381470Y235558D01*
X382058Y234970D01*
X382779Y234553D01*
X383584Y234338D01*
X383606D01*
X386410Y231534D01*
Y101077D01*
X385859Y100526D01*
X385425Y99774D01*
X385200Y98935D01*
Y98066D01*
X385425Y97226D01*
X385859Y96474D01*
X386474Y95859D01*
X387226Y95425D01*
X388066Y95200D01*
X388934D01*
X389774Y95425D01*
X390526Y95859D01*
X391141Y96474D01*
X391575Y97226D01*
X391800Y98066D01*
Y98935D01*
X391575Y99774D01*
X391141Y100526D01*
X390590Y101077D01*
Y139398D01*
X391090Y139447D01*
X391157Y139112D01*
X391610Y138434D01*
X412972Y117072D01*
X412944Y116968D01*
Y116032D01*
X413186Y115128D01*
X413655Y114317D01*
X414317Y113655D01*
X415128Y113186D01*
X416032Y112944D01*
X416968D01*
X417872Y113186D01*
X418683Y113655D01*
X419345Y114317D01*
X419814Y115128D01*
X420056Y116032D01*
Y116968D01*
X420028Y117072D01*
X454866Y151910D01*
X455118D01*
X455558Y151470D01*
X456279Y151053D01*
X457084Y150838D01*
X457916D01*
X458721Y151053D01*
X459442Y151470D01*
X460030Y152058D01*
X460447Y152779D01*
X460662Y153584D01*
Y154416D01*
X460447Y155221D01*
X460030Y155942D01*
X459442Y156530D01*
X458721Y156947D01*
X457916Y157162D01*
X457084D01*
X456279Y156947D01*
X455558Y156530D01*
X455118Y156090D01*
X454000D01*
X454000Y156090D01*
X453200Y155931D01*
X452522Y155478D01*
X417072Y120028D01*
X416968Y120056D01*
X416032D01*
X415928Y120028D01*
X395178Y140778D01*
Y158706D01*
X395678Y158901D01*
X396279Y158553D01*
X397084Y158338D01*
X397916D01*
X398721Y158553D01*
X399442Y158970D01*
X400030Y159558D01*
X400447Y160279D01*
X400662Y161084D01*
Y161916D01*
X400447Y162721D01*
X400030Y163442D01*
X399442Y164030D01*
X398721Y164447D01*
X397916Y164662D01*
X397084D01*
X396279Y164447D01*
X395678Y164099D01*
X395178Y164294D01*
Y249012D01*
X395178Y249012D01*
X395019Y249812D01*
X394566Y250490D01*
X394566Y250490D01*
X383178Y261878D01*
X382500Y262331D01*
X381700Y262490D01*
X381700Y262490D01*
X328277D01*
X327726Y263041D01*
X326974Y263475D01*
X326134Y263700D01*
X325266D01*
X324426Y263475D01*
X323674Y263041D01*
X323059Y262426D01*
X322625Y261674D01*
X322400Y260835D01*
Y259965D01*
X322564Y259352D01*
X322135Y259022D01*
X321721Y259262D01*
X320916Y259477D01*
X320084D01*
X319279Y259262D01*
X318590Y258864D01*
X318327Y258932D01*
X318090Y259031D01*
Y273285D01*
X318327Y273383D01*
X318590Y273451D01*
X319279Y273053D01*
X320084Y272838D01*
X320916D01*
X321721Y273053D01*
X322442Y273470D01*
X323030Y274058D01*
X323447Y274779D01*
X323662Y275584D01*
Y276416D01*
X323447Y277221D01*
X323030Y277942D01*
X322442Y278530D01*
X321721Y278947D01*
X320916Y279162D01*
X320084D01*
X319279Y278947D01*
X318590Y278549D01*
X318327Y278617D01*
X318090Y278715D01*
Y301934D01*
X367178Y351022D01*
X367178Y351022D01*
X367631Y351700D01*
X367790Y352500D01*
Y414134D01*
X371378Y417722D01*
X371378Y417722D01*
X371831Y418400D01*
X371990Y419200D01*
X371990Y419200D01*
Y464823D01*
X372541Y465374D01*
X372975Y466126D01*
X373200Y466965D01*
Y467835D01*
X372975Y468674D01*
X372541Y469426D01*
X371926Y470041D01*
X371174Y470475D01*
X370335Y470700D01*
X369465D01*
X368626Y470475D01*
X367874Y470041D01*
X367259Y469426D01*
X366825Y468674D01*
X366600Y467835D01*
Y466965D01*
X366825Y466126D01*
X367259Y465374D01*
X367810Y464823D01*
Y443439D01*
X367348Y443248D01*
X367250Y443345D01*
X366440Y443814D01*
X365535Y444056D01*
X364599D01*
X363695Y443814D01*
X362884Y443345D01*
X362222Y442683D01*
X361753Y441873D01*
X361511Y440968D01*
Y440032D01*
X361539Y439928D01*
X356080Y434469D01*
X355726Y434619D01*
X355615Y434711D01*
Y435534D01*
X355390Y436374D01*
X354956Y437126D01*
X354341Y437741D01*
X353589Y438175D01*
X352749Y438400D01*
X351881D01*
X351041Y438175D01*
X350289Y437741D01*
X349674Y437126D01*
X349240Y436374D01*
X349015Y435534D01*
Y434665D01*
X349240Y433826D01*
X349674Y433074D01*
X350225Y432523D01*
Y411382D01*
X349785Y410942D01*
X349368Y410221D01*
X349153Y409416D01*
Y408584D01*
X349368Y407779D01*
X349785Y407058D01*
X350225Y406618D01*
Y401181D01*
X331072Y382028D01*
X330968Y382056D01*
X330032D01*
X329128Y381814D01*
X328317Y381345D01*
X328152Y381181D01*
X327690Y381372D01*
Y382834D01*
X342278Y397422D01*
X342278Y397422D01*
X342731Y398100D01*
X342890Y398900D01*
X342890Y398900D01*
Y448934D01*
X353556Y459600D01*
X354334D01*
X355174Y459825D01*
X355926Y460259D01*
X356541Y460874D01*
X356975Y461626D01*
X357200Y462465D01*
Y463335D01*
X356975Y464174D01*
X356541Y464926D01*
X355926Y465541D01*
X355174Y465975D01*
X354334Y466200D01*
X353466D01*
X352626Y465975D01*
X351874Y465541D01*
X351259Y464926D01*
X350825Y464174D01*
X350600Y463335D01*
Y462556D01*
X340052Y452008D01*
X339590Y452199D01*
Y454434D01*
X361956Y476800D01*
X362735D01*
X363574Y477025D01*
X364326Y477459D01*
X364941Y478074D01*
X365375Y478826D01*
X365600Y479666D01*
Y480535D01*
X365375Y481374D01*
X364941Y482126D01*
X364326Y482741D01*
X363574Y483175D01*
X362735Y483400D01*
X361865D01*
X361369Y483267D01*
X360960Y483675D01*
X361056Y484032D01*
Y484968D01*
X360814Y485873D01*
X360345Y486683D01*
X359683Y487345D01*
X358873Y487814D01*
X357968Y488056D01*
D02*
G37*
G36*
X586968Y454989D02*
X586032D01*
X585127Y454747D01*
X584317Y454278D01*
X583655Y453616D01*
X583186Y452806D01*
X582944Y451901D01*
Y450965D01*
X583186Y450061D01*
X583655Y449250D01*
X584317Y448588D01*
X585127Y448119D01*
X586032Y447877D01*
X586968D01*
X587873Y448119D01*
X588683Y448588D01*
X589345Y449250D01*
X589814Y450061D01*
X590056Y450965D01*
Y451901D01*
X589814Y452806D01*
X589345Y453616D01*
X588683Y454278D01*
X587873Y454747D01*
X586968Y454989D01*
D02*
G37*
G36*
X303901Y452056D02*
X302965D01*
X302061Y451814D01*
X301250Y451345D01*
X300588Y450683D01*
X300119Y449872D01*
X299877Y448968D01*
Y448032D01*
X300119Y447127D01*
X300588Y446317D01*
X301250Y445655D01*
X302061Y445186D01*
X302965Y444944D01*
X303901D01*
X304805Y445186D01*
X305616Y445655D01*
X306278Y446317D01*
X306747Y447127D01*
X306989Y448032D01*
Y448968D01*
X306747Y449872D01*
X306278Y450683D01*
X305616Y451345D01*
X304805Y451814D01*
X303901Y452056D01*
D02*
G37*
G36*
X556253Y450753D02*
X548747D01*
Y443247D01*
X556253D01*
Y450753D01*
D02*
G37*
G36*
X542994D02*
X542006D01*
X541051Y450497D01*
X540196Y450003D01*
X539497Y449304D01*
X539003Y448449D01*
X538747Y447494D01*
Y446506D01*
X539003Y445551D01*
X539497Y444696D01*
X540196Y443997D01*
X541051Y443503D01*
X542006Y443247D01*
X542994D01*
X543949Y443503D01*
X544804Y443997D01*
X545503Y444696D01*
X545997Y445551D01*
X546253Y446506D01*
Y447494D01*
X545997Y448449D01*
X545503Y449304D01*
X544804Y450003D01*
X543949Y450497D01*
X542994Y450753D01*
D02*
G37*
G36*
X532994D02*
X532006D01*
X531051Y450497D01*
X530196Y450003D01*
X529497Y449304D01*
X529003Y448449D01*
X528747Y447494D01*
Y446506D01*
X529003Y445551D01*
X529497Y444696D01*
X530196Y443997D01*
X531051Y443503D01*
X532006Y443247D01*
X532994D01*
X533949Y443503D01*
X534804Y443997D01*
X535503Y444696D01*
X535997Y445551D01*
X536253Y446506D01*
Y447494D01*
X535997Y448449D01*
X535503Y449304D01*
X534804Y450003D01*
X533949Y450497D01*
X532994Y450753D01*
D02*
G37*
G36*
X638000Y483300D02*
X637000D01*
X636033Y483041D01*
X635167Y482541D01*
X634459Y481833D01*
X633959Y480967D01*
X633700Y480000D01*
Y479000D01*
X633773Y478729D01*
X626122Y471078D01*
X625669Y470400D01*
X625510Y469600D01*
X625510Y469600D01*
Y444677D01*
X624959Y444126D01*
X624525Y443374D01*
X624300Y442534D01*
Y441773D01*
X623870Y441496D01*
X591590Y473776D01*
Y476319D01*
X591833Y476459D01*
X592541Y477167D01*
X593041Y478033D01*
X593300Y479000D01*
Y480000D01*
X593041Y480967D01*
X592541Y481833D01*
X591833Y482541D01*
X590967Y483041D01*
X590000Y483300D01*
X589000D01*
X588033Y483041D01*
X587167Y482541D01*
X586459Y481833D01*
X585959Y480967D01*
X585700Y480000D01*
Y479000D01*
X585959Y478033D01*
X586459Y477167D01*
X587167Y476459D01*
X587410Y476319D01*
Y472910D01*
X587410Y472910D01*
X587569Y472110D01*
X588022Y471432D01*
X630410Y429044D01*
Y408899D01*
X630317Y408845D01*
X629655Y408183D01*
X629186Y407373D01*
X628944Y406468D01*
Y405532D01*
X629186Y404628D01*
X629655Y403817D01*
X630317Y403155D01*
X631128Y402686D01*
X632032Y402444D01*
X632968D01*
X633873Y402686D01*
X634683Y403155D01*
X635345Y403817D01*
X635814Y404628D01*
X636056Y405532D01*
Y406468D01*
X635814Y407373D01*
X635345Y408183D01*
X634683Y408845D01*
X634590Y408899D01*
Y429910D01*
X634431Y430710D01*
X633978Y431388D01*
X633978Y431388D01*
X626996Y438370D01*
X627273Y438800D01*
X628034D01*
X628874Y439025D01*
X629626Y439459D01*
X630241Y440074D01*
X630675Y440826D01*
X630900Y441666D01*
Y442534D01*
X630675Y443374D01*
X630241Y444126D01*
X629690Y444677D01*
Y449061D01*
X630152Y449252D01*
X630317Y449088D01*
X631128Y448619D01*
X632032Y448377D01*
X632968D01*
X633873Y448619D01*
X634683Y449088D01*
X635345Y449750D01*
X635814Y450561D01*
X636056Y451465D01*
Y452401D01*
X635814Y453305D01*
X635345Y454116D01*
X634683Y454778D01*
X633873Y455247D01*
X632968Y455489D01*
X632032D01*
X631128Y455247D01*
X630317Y454778D01*
X630152Y454614D01*
X629690Y454805D01*
Y468734D01*
X636729Y475773D01*
X637000Y475700D01*
X638000D01*
X638967Y475959D01*
X639833Y476459D01*
X640541Y477167D01*
X641041Y478033D01*
X641300Y479000D01*
Y480000D01*
X641041Y480967D01*
X640541Y481833D01*
X639833Y482541D01*
X638967Y483041D01*
X638000Y483300D01*
D02*
G37*
G36*
X436916Y446162D02*
X436084D01*
X435279Y445947D01*
X434558Y445530D01*
X433970Y444942D01*
X433553Y444221D01*
X433338Y443416D01*
Y442584D01*
X433553Y441779D01*
X433970Y441058D01*
X434558Y440470D01*
X435279Y440053D01*
X436084Y439838D01*
X436916D01*
X437721Y440053D01*
X438442Y440470D01*
X439030Y441058D01*
X439447Y441779D01*
X439662Y442584D01*
Y443416D01*
X439447Y444221D01*
X439030Y444942D01*
X438442Y445530D01*
X437721Y445947D01*
X436916Y446162D01*
D02*
G37*
G36*
X146500Y441754D02*
Y438500D01*
X149754D01*
X149500Y439450D01*
X149005Y440306D01*
X148306Y441006D01*
X147450Y441500D01*
X146500Y441754D01*
D02*
G37*
G36*
X145500D02*
X144550Y441500D01*
X143694Y441006D01*
X142994Y440306D01*
X142500Y439450D01*
X142246Y438500D01*
X145500D01*
Y441754D01*
D02*
G37*
G36*
X402916Y488662D02*
X402084D01*
X401279Y488447D01*
X400558Y488030D01*
X399970Y487442D01*
X399553Y486721D01*
X399338Y485916D01*
Y485084D01*
X399553Y484279D01*
X399970Y483558D01*
X400558Y482970D01*
X401279Y482553D01*
X402084Y482338D01*
X402706D01*
X408910Y476134D01*
Y443399D01*
X408817Y443345D01*
X408155Y442683D01*
X407686Y441873D01*
X407444Y440968D01*
Y440032D01*
X407686Y439127D01*
X408155Y438317D01*
X408817Y437655D01*
X409627Y437186D01*
X410532Y436944D01*
X411468D01*
X412372Y437186D01*
X413183Y437655D01*
X413845Y438317D01*
X414314Y439127D01*
X414556Y440032D01*
Y440968D01*
X414314Y441873D01*
X413845Y442683D01*
X413183Y443345D01*
X413090Y443399D01*
Y477000D01*
X413090Y477000D01*
X412931Y477800D01*
X412478Y478478D01*
X412478Y478478D01*
X405662Y485294D01*
Y485916D01*
X405447Y486721D01*
X405030Y487442D01*
X404442Y488030D01*
X403721Y488447D01*
X402916Y488662D01*
D02*
G37*
G36*
X149754Y437500D02*
X146500D01*
Y434246D01*
X147450Y434500D01*
X148306Y434995D01*
X149005Y435694D01*
X149500Y436550D01*
X149754Y437500D01*
D02*
G37*
G36*
X145500D02*
X142246D01*
X142500Y436550D01*
X142994Y435694D01*
X143694Y434995D01*
X144550Y434500D01*
X145500Y434246D01*
Y437500D01*
D02*
G37*
G36*
X168468Y441056D02*
X167532D01*
X166628Y440814D01*
X165817Y440345D01*
X165155Y439683D01*
X164686Y438872D01*
X164444Y437968D01*
Y437032D01*
X164686Y436128D01*
X165155Y435317D01*
X165817Y434655D01*
X166628Y434186D01*
X167532Y433944D01*
X168468D01*
X169372Y434186D01*
X170183Y434655D01*
X170845Y435317D01*
X171314Y436128D01*
X171556Y437032D01*
Y437968D01*
X171314Y438872D01*
X170845Y439683D01*
X170183Y440345D01*
X169372Y440814D01*
X168468Y441056D01*
D02*
G37*
G36*
X257968Y452056D02*
X257032D01*
X256128Y451814D01*
X255317Y451345D01*
X254655Y450683D01*
X254186Y449872D01*
X253944Y448968D01*
Y448032D01*
X254186Y447127D01*
X254655Y446317D01*
X255317Y445655D01*
X255410Y445601D01*
Y418122D01*
X254948Y417931D01*
X254873Y418006D01*
X254017Y418500D01*
X253067Y418754D01*
Y415000D01*
Y411246D01*
X254017Y411500D01*
X254873Y411995D01*
X254948Y412069D01*
X255410Y411878D01*
Y351551D01*
X253706Y349847D01*
X253084D01*
X252279Y349632D01*
X251558Y349215D01*
X250970Y348627D01*
X250553Y347906D01*
X250338Y347101D01*
Y346269D01*
X250553Y345464D01*
X250970Y344743D01*
X251558Y344155D01*
X252279Y343738D01*
X253084Y343523D01*
X253916D01*
X254721Y343738D01*
X255442Y344155D01*
X256030Y344743D01*
X256447Y345464D01*
X256662Y346269D01*
Y346891D01*
X258978Y349207D01*
X258978Y349207D01*
X259431Y349885D01*
X259590Y350685D01*
Y445601D01*
X259683Y445655D01*
X260345Y446317D01*
X260814Y447127D01*
X261056Y448032D01*
Y448968D01*
X260814Y449872D01*
X260345Y450683D01*
X259683Y451345D01*
X258873Y451814D01*
X257968Y452056D01*
D02*
G37*
G36*
X252067Y418754D02*
X251117Y418500D01*
X250261Y418006D01*
X249562Y417306D01*
X249067Y416450D01*
X248813Y415500D01*
X252067D01*
Y418754D01*
D02*
G37*
G36*
X552994Y420753D02*
X552006D01*
X551052Y420497D01*
X550196Y420003D01*
X549497Y419304D01*
X549003Y418448D01*
X548747Y417494D01*
Y416506D01*
X549003Y415552D01*
X549497Y414696D01*
X550196Y413997D01*
X551052Y413503D01*
X552006Y413247D01*
X552994D01*
X553948Y413503D01*
X554804Y413997D01*
X555503Y414696D01*
X555997Y415552D01*
X556253Y416506D01*
Y417494D01*
X555997Y418448D01*
X555503Y419304D01*
X554804Y420003D01*
X553948Y420497D01*
X552994Y420753D01*
D02*
G37*
G36*
X532994D02*
X532006D01*
X531051Y420497D01*
X530196Y420003D01*
X529497Y419304D01*
X529003Y418448D01*
X528747Y417494D01*
Y416506D01*
X529003Y415552D01*
X529497Y414696D01*
X530196Y413997D01*
X531051Y413503D01*
X532006Y413247D01*
X532994D01*
X533949Y413503D01*
X534804Y413997D01*
X535503Y414696D01*
X535997Y415552D01*
X536253Y416506D01*
Y417494D01*
X535997Y418448D01*
X535503Y419304D01*
X534804Y420003D01*
X533949Y420497D01*
X532994Y420753D01*
D02*
G37*
G36*
X122468Y441556D02*
X121532D01*
X120627Y441314D01*
X119817Y440845D01*
X119155Y440183D01*
X118686Y439372D01*
X118444Y438468D01*
Y437532D01*
X118686Y436627D01*
X119155Y435817D01*
X119817Y435155D01*
X120627Y434686D01*
X121532Y434444D01*
X122468D01*
X122572Y434472D01*
X123310Y433734D01*
Y412869D01*
X122810Y412662D01*
X122442Y413030D01*
X121721Y413447D01*
X120916Y413662D01*
X120084D01*
X119279Y413447D01*
X118558Y413030D01*
X117970Y412442D01*
X117553Y411721D01*
X117338Y410916D01*
Y410084D01*
X117553Y409279D01*
X117970Y408558D01*
X118558Y407970D01*
X119279Y407553D01*
X120084Y407338D01*
X120916D01*
X121721Y407553D01*
X122442Y407970D01*
X122810Y408338D01*
X123310Y408131D01*
Y396581D01*
X120706Y393977D01*
X120084D01*
X119279Y393762D01*
X118558Y393345D01*
X117970Y392757D01*
X117553Y392036D01*
X117338Y391231D01*
Y390399D01*
X117553Y389594D01*
X117970Y388873D01*
X118410Y388433D01*
Y360051D01*
X117521Y359162D01*
X116899D01*
X116094Y358947D01*
X115373Y358530D01*
X114785Y357942D01*
X114368Y357221D01*
X114153Y356416D01*
Y355584D01*
X114368Y354779D01*
X114785Y354058D01*
X115225Y353618D01*
Y338185D01*
X115225Y338185D01*
X115384Y337385D01*
X115837Y336707D01*
X117972Y334572D01*
X117944Y334468D01*
Y333532D01*
X118186Y332628D01*
X118655Y331817D01*
X119317Y331155D01*
X120127Y330686D01*
X121032Y330444D01*
X121968D01*
X122367Y330551D01*
X122626Y330103D01*
X114262Y321739D01*
X113698Y320895D01*
X113500Y319900D01*
Y261900D01*
X113698Y260905D01*
X114262Y260062D01*
X117200Y257123D01*
Y256500D01*
X117459Y255533D01*
X117959Y254667D01*
X118667Y253959D01*
X119533Y253459D01*
X120500Y253200D01*
X121500D01*
X122467Y253459D01*
X123333Y253959D01*
X124041Y254667D01*
X124541Y255533D01*
X124800Y256500D01*
Y257500D01*
X124541Y258467D01*
X124041Y259333D01*
X123333Y260041D01*
X122467Y260541D01*
X121500Y260800D01*
X120877D01*
X118700Y262977D01*
Y285185D01*
X119162Y285376D01*
X119317Y285222D01*
X120127Y284753D01*
X121032Y284511D01*
X121968D01*
X122872Y284753D01*
X123683Y285222D01*
X124345Y285884D01*
X124814Y286695D01*
X125056Y287599D01*
Y288535D01*
X125028Y288639D01*
X132937Y296548D01*
X132937Y296548D01*
X133390Y297226D01*
X133549Y298026D01*
X133549Y298026D01*
Y318093D01*
X176723Y361267D01*
X177501D01*
X178341Y361492D01*
X179093Y361926D01*
X179708Y362541D01*
X180142Y363293D01*
X180367Y364132D01*
Y365002D01*
X180142Y365841D01*
X179708Y366593D01*
X179093Y367208D01*
X178341Y367642D01*
X177501Y367867D01*
X176632D01*
X175793Y367642D01*
X175041Y367208D01*
X174426Y366593D01*
X173992Y365841D01*
X173767Y365002D01*
Y364223D01*
X134011Y324467D01*
X133549Y324659D01*
Y329293D01*
X182278Y378022D01*
X182731Y378700D01*
X182890Y379500D01*
X182890Y379500D01*
Y382700D01*
X182731Y383500D01*
X182278Y384178D01*
X182278Y384178D01*
X167253Y399203D01*
Y403753D01*
X159747D01*
Y396247D01*
X164297D01*
X178710Y381834D01*
Y380366D01*
X167684Y369340D01*
X167253Y369616D01*
Y370494D01*
X166997Y371448D01*
X166503Y372304D01*
X165804Y373003D01*
X164948Y373497D01*
X163994Y373753D01*
X163006D01*
X162051Y373497D01*
X161196Y373003D01*
X160497Y372304D01*
X160003Y371448D01*
X159747Y370494D01*
Y369924D01*
X125303Y335479D01*
X125211Y335459D01*
X124699Y335571D01*
X124345Y336183D01*
X123683Y336845D01*
X122872Y337314D01*
X121968Y337556D01*
X121032D01*
X120928Y337528D01*
X119405Y339051D01*
Y353618D01*
X119845Y354058D01*
X120262Y354779D01*
X120477Y355584D01*
Y356206D01*
X121978Y357707D01*
X122431Y358385D01*
X122590Y359185D01*
X122590Y359185D01*
Y388433D01*
X123030Y388873D01*
X123447Y389594D01*
X123662Y390399D01*
Y391021D01*
X126878Y394237D01*
X126878Y394237D01*
X127331Y394915D01*
X127490Y395715D01*
X127490Y395715D01*
Y434600D01*
X127490Y434600D01*
X127331Y435400D01*
X126878Y436078D01*
X126878Y436078D01*
X125528Y437428D01*
X125556Y437532D01*
Y438468D01*
X125314Y439372D01*
X124845Y440183D01*
X124183Y440845D01*
X123372Y441314D01*
X122468Y441556D01*
D02*
G37*
G36*
X298968Y418556D02*
X298032D01*
X297128Y418314D01*
X296317Y417845D01*
X295655Y417183D01*
X295186Y416372D01*
X294944Y415468D01*
Y414532D01*
X295186Y413627D01*
X295655Y412817D01*
X296317Y412155D01*
X297128Y411686D01*
X298032Y411444D01*
X298968D01*
X299872Y411686D01*
X300683Y412155D01*
X301345Y412817D01*
X301814Y413627D01*
X302056Y414532D01*
Y415468D01*
X301814Y416372D01*
X301345Y417183D01*
X300683Y417845D01*
X299872Y418314D01*
X298968Y418556D01*
D02*
G37*
G36*
X252067Y414500D02*
X248813D01*
X249067Y413550D01*
X249562Y412694D01*
X250261Y411995D01*
X251117Y411500D01*
X252067Y411246D01*
Y414500D01*
D02*
G37*
G36*
X225968Y414056D02*
X225032D01*
X224128Y413814D01*
X223317Y413345D01*
X222655Y412683D01*
X222186Y411872D01*
X221944Y410968D01*
Y410032D01*
X222186Y409128D01*
X222655Y408317D01*
X223317Y407655D01*
X224128Y407186D01*
X225032Y406944D01*
X225968D01*
X226872Y407186D01*
X227683Y407655D01*
X228345Y408317D01*
X228814Y409128D01*
X229056Y410032D01*
Y410968D01*
X228814Y411872D01*
X228345Y412683D01*
X227683Y413345D01*
X226872Y413814D01*
X225968Y414056D01*
D02*
G37*
G36*
X372416Y412162D02*
X371584D01*
X370779Y411947D01*
X370058Y411530D01*
X369470Y410942D01*
X369053Y410221D01*
X368838Y409416D01*
Y408584D01*
X369053Y407779D01*
X369470Y407058D01*
X370058Y406470D01*
X370779Y406053D01*
X371584Y405838D01*
X372416D01*
X373221Y406053D01*
X373942Y406470D01*
X374530Y407058D01*
X374947Y407779D01*
X375162Y408584D01*
Y409416D01*
X374947Y410221D01*
X374530Y410942D01*
X373942Y411530D01*
X373221Y411947D01*
X372416Y412162D01*
D02*
G37*
G36*
X465901Y411056D02*
X464965D01*
X464060Y410814D01*
X463250Y410345D01*
X462588Y409683D01*
X462119Y408873D01*
X461877Y407968D01*
Y407032D01*
X462119Y406128D01*
X462588Y405317D01*
X463250Y404655D01*
X464060Y404186D01*
X464965Y403944D01*
X465901D01*
X466806Y404186D01*
X467616Y404655D01*
X468278Y405317D01*
X468747Y406128D01*
X468989Y407032D01*
Y407968D01*
X468747Y408873D01*
X468278Y409683D01*
X467616Y410345D01*
X466806Y410814D01*
X465901Y411056D01*
D02*
G37*
G36*
X193994Y403753D02*
X193006D01*
X192051Y403497D01*
X191196Y403003D01*
X190497Y402304D01*
X190003Y401448D01*
X189747Y400494D01*
Y399506D01*
X190003Y398552D01*
X190497Y397696D01*
X191196Y396997D01*
X192051Y396503D01*
X193006Y396247D01*
X193994D01*
X194948Y396503D01*
X195804Y396997D01*
X196503Y397696D01*
X196997Y398552D01*
X197253Y399506D01*
Y400494D01*
X196997Y401448D01*
X196503Y402304D01*
X195804Y403003D01*
X194948Y403497D01*
X193994Y403753D01*
D02*
G37*
G36*
X272916Y479662D02*
X272084D01*
X271279Y479447D01*
X270558Y479030D01*
X269970Y478442D01*
X269553Y477721D01*
X269338Y476916D01*
Y476294D01*
X242822Y449778D01*
X242369Y449100D01*
X242210Y448300D01*
X242210Y448300D01*
Y441666D01*
X194233Y393689D01*
X193994Y393753D01*
X193006D01*
X192051Y393497D01*
X191196Y393003D01*
X190497Y392304D01*
X190003Y391448D01*
X189747Y390494D01*
Y389506D01*
X189811Y389267D01*
X184922Y384378D01*
X184469Y383700D01*
X184310Y382900D01*
X184310Y382900D01*
Y359266D01*
X163072Y338028D01*
X162968Y338056D01*
X162032D01*
X161127Y337814D01*
X160317Y337345D01*
X159655Y336683D01*
X159186Y335873D01*
X158944Y334968D01*
Y334032D01*
X159186Y333127D01*
X159655Y332317D01*
X160317Y331655D01*
X161127Y331186D01*
X162032Y330944D01*
X162968D01*
X163873Y331186D01*
X164683Y331655D01*
X165345Y332317D01*
X165814Y333127D01*
X166056Y334032D01*
Y334968D01*
X166028Y335072D01*
X187878Y356922D01*
X187878Y356922D01*
X188331Y357600D01*
X188490Y358400D01*
Y382034D01*
X192767Y386311D01*
X193006Y386247D01*
X193994D01*
X194948Y386503D01*
X195804Y386997D01*
X196503Y387696D01*
X196997Y388551D01*
X197253Y389506D01*
Y390494D01*
X197189Y390733D01*
X245778Y439322D01*
X246231Y440000D01*
X246390Y440800D01*
X246390Y440800D01*
Y447434D01*
X272294Y473338D01*
X272916D01*
X273721Y473553D01*
X274442Y473970D01*
X275030Y474558D01*
X275447Y475279D01*
X275662Y476084D01*
Y476916D01*
X275447Y477721D01*
X275030Y478442D01*
X274442Y479030D01*
X273721Y479447D01*
X272916Y479662D01*
D02*
G37*
G36*
X163994Y393753D02*
X163006D01*
X162051Y393497D01*
X161196Y393003D01*
X160497Y392304D01*
X160003Y391448D01*
X159747Y390494D01*
Y389506D01*
X160003Y388551D01*
X160497Y387696D01*
X161196Y386997D01*
X162051Y386503D01*
X163006Y386247D01*
X163994D01*
X164948Y386503D01*
X165804Y386997D01*
X166503Y387696D01*
X166997Y388551D01*
X167253Y389506D01*
Y390494D01*
X166997Y391448D01*
X166503Y392304D01*
X165804Y393003D01*
X164948Y393497D01*
X163994Y393753D01*
D02*
G37*
G36*
X522994Y450753D02*
X522006D01*
X521052Y450497D01*
X520196Y450003D01*
X519497Y449304D01*
X519003Y448449D01*
X518747Y447494D01*
Y446506D01*
X519003Y445551D01*
X519497Y444696D01*
X520196Y443997D01*
X521052Y443503D01*
X522006Y443247D01*
X522576D01*
X540661Y425162D01*
X541505Y424598D01*
X542500Y424400D01*
X567023D01*
X570200Y421223D01*
Y401700D01*
X570265Y401371D01*
X570286Y401037D01*
X570364Y400878D01*
X570398Y400705D01*
X570584Y400426D01*
X570731Y400125D01*
X570863Y400008D01*
X570962Y399862D01*
X571240Y399675D01*
X571491Y399453D01*
X571658Y399396D01*
X571805Y399298D01*
X572134Y399233D01*
X572451Y399124D01*
X583382Y397641D01*
X593203Y387820D01*
Y385109D01*
X592741Y384918D01*
X592678Y384981D01*
X592000Y385434D01*
X591200Y385593D01*
X591200Y385593D01*
X574503D01*
X573703Y385434D01*
X573025Y384981D01*
X573025Y384981D01*
X550522Y362478D01*
X550069Y361800D01*
X549910Y361000D01*
X549910Y361000D01*
Y338466D01*
X549817Y338412D01*
X549155Y337750D01*
X548686Y336940D01*
X548444Y336035D01*
Y335099D01*
X548686Y334194D01*
X549155Y333384D01*
X549817Y332722D01*
X550628Y332253D01*
X551532Y332011D01*
X552468D01*
X553372Y332253D01*
X554183Y332722D01*
X554845Y333384D01*
X555314Y334194D01*
X555556Y335099D01*
Y336035D01*
X555314Y336940D01*
X554845Y337750D01*
X554183Y338412D01*
X554090Y338466D01*
Y360134D01*
X575369Y381413D01*
X583247D01*
Y377703D01*
X570022Y364478D01*
X569569Y363800D01*
X569410Y363000D01*
X569410Y363000D01*
Y308899D01*
X569317Y308845D01*
X568655Y308183D01*
X568186Y307372D01*
X567944Y306468D01*
Y305532D01*
X567972Y305428D01*
X562422Y299878D01*
X561969Y299200D01*
X561810Y298400D01*
X561810Y298400D01*
Y246977D01*
X561259Y246426D01*
X560825Y245674D01*
X560600Y244834D01*
Y243966D01*
X560825Y243126D01*
X561259Y242374D01*
X561874Y241759D01*
X562626Y241325D01*
X563465Y241100D01*
X564334D01*
X565174Y241325D01*
X565926Y241759D01*
X566541Y242374D01*
X566975Y243126D01*
X567200Y243966D01*
Y244834D01*
X566975Y245674D01*
X566541Y246426D01*
X565990Y246977D01*
Y297534D01*
X570928Y302472D01*
X571032Y302444D01*
X571968D01*
X572872Y302686D01*
X573683Y303155D01*
X574345Y303817D01*
X574814Y304627D01*
X575056Y305532D01*
Y306468D01*
X574814Y307372D01*
X574345Y308183D01*
X573683Y308845D01*
X573590Y308899D01*
Y362134D01*
X586203Y374747D01*
X589620D01*
X589791Y374247D01*
X587733Y372189D01*
X587494Y372253D01*
X586506D01*
X585552Y371997D01*
X584696Y371503D01*
X583997Y370804D01*
X583503Y369949D01*
X583247Y368994D01*
Y368006D01*
X583503Y367052D01*
X583997Y366196D01*
X584696Y365497D01*
X585552Y365003D01*
X586506Y364747D01*
X587494D01*
X588448Y365003D01*
X589304Y365497D01*
X590003Y366196D01*
X590497Y367052D01*
X590753Y368006D01*
Y368994D01*
X590689Y369233D01*
X592741Y371285D01*
X593203Y371094D01*
Y358380D01*
X587076Y352253D01*
X586506D01*
X585552Y351997D01*
X584696Y351503D01*
X583997Y350804D01*
X583503Y349949D01*
X583247Y348994D01*
Y348006D01*
X583503Y347052D01*
X583997Y346196D01*
X584696Y345497D01*
X585552Y345003D01*
X586506Y344747D01*
X587494D01*
X588448Y345003D01*
X589304Y345497D01*
X590003Y346196D01*
X590497Y347052D01*
X590753Y348006D01*
Y348576D01*
X597641Y355464D01*
X598205Y356308D01*
X598403Y357303D01*
Y388897D01*
X598205Y389892D01*
X597641Y390736D01*
X586933Y401444D01*
X586945Y401619D01*
X587104Y401980D01*
X587873Y402186D01*
X588683Y402655D01*
X589345Y403317D01*
X589814Y404128D01*
X590056Y405032D01*
Y405968D01*
X589814Y406873D01*
X589345Y407683D01*
X588683Y408345D01*
X587873Y408814D01*
X586968Y409056D01*
X586032D01*
X585127Y408814D01*
X584317Y408345D01*
X583655Y407683D01*
X583186Y406873D01*
X582944Y405968D01*
Y405032D01*
X583186Y404128D01*
X583630Y403360D01*
X583534Y403073D01*
X583439Y402881D01*
X575400Y403971D01*
Y422300D01*
X575202Y423295D01*
X574639Y424138D01*
X569939Y428838D01*
X569095Y429402D01*
X568100Y429600D01*
X543577D01*
X526253Y446924D01*
Y447494D01*
X525997Y448449D01*
X525503Y449304D01*
X524804Y450003D01*
X523948Y450497D01*
X522994Y450753D01*
D02*
G37*
G36*
X164020Y383953D02*
X164000D01*
Y380500D01*
X167453D01*
Y380520D01*
X167183Y381526D01*
X166663Y382427D01*
X165927Y383163D01*
X165026Y383683D01*
X164020Y383953D01*
D02*
G37*
G36*
X163000D02*
X162980D01*
X161974Y383683D01*
X161073Y383163D01*
X160337Y382427D01*
X159817Y381526D01*
X159547Y380520D01*
Y380500D01*
X163000D01*
Y383953D01*
D02*
G37*
G36*
X552468Y385056D02*
X551532D01*
X550628Y384814D01*
X549817Y384345D01*
X549155Y383683D01*
X548686Y382873D01*
X548444Y381968D01*
Y381032D01*
X548686Y380128D01*
X549155Y379317D01*
X549817Y378655D01*
X550628Y378186D01*
X551532Y377944D01*
X552468D01*
X553372Y378186D01*
X554183Y378655D01*
X554845Y379317D01*
X555314Y380128D01*
X555556Y381032D01*
Y381968D01*
X555314Y382873D01*
X554845Y383683D01*
X554183Y384345D01*
X553372Y384814D01*
X552468Y385056D01*
D02*
G37*
G36*
X167453Y379500D02*
X164000D01*
Y376047D01*
X164020D01*
X165026Y376317D01*
X165927Y376837D01*
X166663Y377573D01*
X167183Y378474D01*
X167453Y379480D01*
Y379500D01*
D02*
G37*
G36*
X163000D02*
X159547D01*
Y379480D01*
X159817Y378474D01*
X160337Y377573D01*
X161073Y376837D01*
X161974Y376317D01*
X162980Y376047D01*
X163000D01*
Y379500D01*
D02*
G37*
G36*
X376901Y382056D02*
X375965D01*
X375061Y381814D01*
X374250Y381345D01*
X373588Y380683D01*
X373119Y379872D01*
X372877Y378968D01*
Y378032D01*
X373119Y377128D01*
X373588Y376317D01*
X374250Y375655D01*
X375061Y375186D01*
X375965Y374944D01*
X376901D01*
X377805Y375186D01*
X378616Y375655D01*
X379278Y376317D01*
X379747Y377128D01*
X379989Y378032D01*
Y378968D01*
X379747Y379872D01*
X379278Y380683D01*
X378616Y381345D01*
X377805Y381814D01*
X376901Y382056D01*
D02*
G37*
G36*
X617494Y382253D02*
X616506D01*
X615552Y381997D01*
X614696Y381503D01*
X613997Y380804D01*
X613503Y379948D01*
X613247Y378994D01*
Y378006D01*
X613503Y377051D01*
X613997Y376196D01*
X614696Y375497D01*
X615552Y375003D01*
X616506Y374747D01*
X617494D01*
X618448Y375003D01*
X619304Y375497D01*
X620003Y376196D01*
X620497Y377051D01*
X620753Y378006D01*
Y378994D01*
X620497Y379948D01*
X620003Y380804D01*
X619304Y381503D01*
X618448Y381997D01*
X617494Y382253D01*
D02*
G37*
G36*
X194020Y373953D02*
X194000D01*
Y370500D01*
X197453D01*
Y370520D01*
X197183Y371526D01*
X196663Y372427D01*
X195927Y373163D01*
X195026Y373683D01*
X194020Y373953D01*
D02*
G37*
G36*
X193000D02*
X192980D01*
X191974Y373683D01*
X191073Y373163D01*
X190337Y372427D01*
X189817Y371526D01*
X189547Y370520D01*
Y370500D01*
X193000D01*
Y373953D01*
D02*
G37*
G36*
X197453Y369500D02*
X194000D01*
Y366047D01*
X194020D01*
X195026Y366317D01*
X195927Y366837D01*
X196663Y367573D01*
X197183Y368474D01*
X197453Y369480D01*
Y369500D01*
D02*
G37*
G36*
X193000D02*
X189547D01*
Y369480D01*
X189817Y368474D01*
X190337Y367573D01*
X191073Y366837D01*
X191974Y366317D01*
X192980Y366047D01*
X193000D01*
Y369500D01*
D02*
G37*
G36*
X277520Y367953D02*
X277500D01*
Y364500D01*
X280953D01*
Y364520D01*
X280683Y365526D01*
X280163Y366427D01*
X279427Y367163D01*
X278526Y367683D01*
X277520Y367953D01*
D02*
G37*
G36*
X276500D02*
X276480D01*
X275474Y367683D01*
X274573Y367163D01*
X273837Y366427D01*
X273317Y365526D01*
X273047Y364520D01*
Y364500D01*
X276500D01*
Y367953D01*
D02*
G37*
G36*
X525916Y366662D02*
X525084D01*
X524279Y366447D01*
X523558Y366030D01*
X522970Y365442D01*
X522553Y364721D01*
X522338Y363916D01*
Y363084D01*
X522553Y362279D01*
X522970Y361558D01*
X523558Y360970D01*
X524279Y360553D01*
X525084Y360338D01*
X525916D01*
X526721Y360553D01*
X527442Y360970D01*
X528030Y361558D01*
X528447Y362279D01*
X528662Y363084D01*
Y363916D01*
X528447Y364721D01*
X528030Y365442D01*
X527442Y366030D01*
X526721Y366447D01*
X525916Y366662D01*
D02*
G37*
G36*
X307494Y367753D02*
X306506D01*
X305552Y367497D01*
X304696Y367003D01*
X303997Y366304D01*
X303503Y365448D01*
X303247Y364494D01*
Y363506D01*
X303503Y362551D01*
X303997Y361696D01*
X304696Y360997D01*
X305552Y360503D01*
X306506Y360247D01*
X307494D01*
X308449Y360503D01*
X309304Y360997D01*
X310003Y361696D01*
X310497Y362551D01*
X310753Y363506D01*
Y364494D01*
X310497Y365448D01*
X310003Y366304D01*
X309304Y367003D01*
X308449Y367497D01*
X307494Y367753D01*
D02*
G37*
G36*
X280953Y363500D02*
X277500D01*
Y360047D01*
X277520D01*
X278526Y360317D01*
X279427Y360837D01*
X280163Y361573D01*
X280683Y362474D01*
X280953Y363480D01*
Y363500D01*
D02*
G37*
G36*
X276500D02*
X273047D01*
Y363480D01*
X273317Y362474D01*
X273837Y361573D01*
X274573Y360837D01*
X275474Y360317D01*
X276480Y360047D01*
X276500D01*
Y363500D01*
D02*
G37*
G36*
X587520Y362453D02*
X587500D01*
Y359000D01*
X590953D01*
Y359020D01*
X590683Y360026D01*
X590163Y360927D01*
X589427Y361663D01*
X588526Y362183D01*
X587520Y362453D01*
D02*
G37*
G36*
X586500D02*
X586480D01*
X585474Y362183D01*
X584573Y361663D01*
X583837Y360927D01*
X583317Y360026D01*
X583047Y359020D01*
Y359000D01*
X586500D01*
Y362453D01*
D02*
G37*
G36*
X427520Y358453D02*
X427500D01*
Y355000D01*
X430953D01*
Y355020D01*
X430683Y356026D01*
X430163Y356927D01*
X429427Y357663D01*
X428526Y358183D01*
X427520Y358453D01*
D02*
G37*
G36*
X426500D02*
X426480D01*
X425474Y358183D01*
X424573Y357663D01*
X423837Y356927D01*
X423317Y356026D01*
X423047Y355020D01*
Y355000D01*
X426500D01*
Y358453D01*
D02*
G37*
G36*
X617494Y362253D02*
X616506D01*
X615552Y361997D01*
X614696Y361503D01*
X613997Y360804D01*
X613503Y359948D01*
X613247Y358994D01*
Y358006D01*
X613311Y357767D01*
X578122Y322578D01*
X577669Y321900D01*
X577510Y321100D01*
X577510Y321100D01*
Y287466D01*
X572572Y282528D01*
X572468Y282556D01*
X571532D01*
X570627Y282314D01*
X569817Y281845D01*
X569155Y281183D01*
X568686Y280373D01*
X568444Y279468D01*
Y278532D01*
X568686Y277627D01*
X569155Y276817D01*
X569817Y276155D01*
X570627Y275686D01*
X571532Y275444D01*
X572468D01*
X573373Y275686D01*
X574183Y276155D01*
X574845Y276817D01*
X575314Y277627D01*
X575556Y278532D01*
Y279468D01*
X575528Y279572D01*
X581078Y285122D01*
X581078Y285122D01*
X581531Y285800D01*
X581690Y286600D01*
Y320234D01*
X616267Y354811D01*
X616506Y354747D01*
X617494D01*
X618448Y355003D01*
X619304Y355497D01*
X620003Y356196D01*
X620497Y357051D01*
X620753Y358006D01*
Y358994D01*
X620497Y359948D01*
X620003Y360804D01*
X619304Y361503D01*
X618448Y361997D01*
X617494Y362253D01*
D02*
G37*
G36*
X590953Y358000D02*
X587500D01*
Y354547D01*
X587520D01*
X588526Y354817D01*
X589427Y355337D01*
X590163Y356073D01*
X590683Y356974D01*
X590953Y357980D01*
Y358000D01*
D02*
G37*
G36*
X586500D02*
X583047D01*
Y357980D01*
X583317Y356974D01*
X583837Y356073D01*
X584573Y355337D01*
X585474Y354817D01*
X586480Y354547D01*
X586500D01*
Y358000D01*
D02*
G37*
G36*
X307520Y357953D02*
X307500D01*
Y354500D01*
X310953D01*
Y354520D01*
X310683Y355526D01*
X310163Y356427D01*
X309427Y357163D01*
X308526Y357683D01*
X307520Y357953D01*
D02*
G37*
G36*
X306500D02*
X306480D01*
X305474Y357683D01*
X304573Y357163D01*
X303837Y356427D01*
X303317Y355526D01*
X303047Y354520D01*
Y354500D01*
X306500D01*
Y357953D01*
D02*
G37*
G36*
X137416Y359162D02*
X136584D01*
X135779Y358947D01*
X135058Y358530D01*
X134470Y357942D01*
X134053Y357221D01*
X133838Y356416D01*
Y355584D01*
X134053Y354779D01*
X134470Y354058D01*
X135058Y353470D01*
X135779Y353053D01*
X136584Y352838D01*
X137416D01*
X138221Y353053D01*
X138942Y353470D01*
X139530Y354058D01*
X139947Y354779D01*
X140162Y355584D01*
Y356416D01*
X139947Y357221D01*
X139530Y357942D01*
X138942Y358530D01*
X138221Y358947D01*
X137416Y359162D01*
D02*
G37*
G36*
X395000Y353821D02*
X394050Y353567D01*
X393194Y353073D01*
X392495Y352373D01*
X392000Y351517D01*
X391746Y350567D01*
X395000D01*
Y353821D01*
D02*
G37*
G36*
X430953Y354000D02*
X427500D01*
Y350547D01*
X427520D01*
X428526Y350817D01*
X429427Y351337D01*
X430163Y352073D01*
X430683Y352974D01*
X430953Y353980D01*
Y354000D01*
D02*
G37*
G36*
X426500D02*
X423047D01*
Y353980D01*
X423317Y352974D01*
X423837Y352073D01*
X424573Y351337D01*
X425474Y350817D01*
X426480Y350547D01*
X426500D01*
Y354000D01*
D02*
G37*
G36*
X310953Y353500D02*
X307500D01*
Y350047D01*
X307520D01*
X308526Y350317D01*
X309427Y350837D01*
X310163Y351573D01*
X310683Y352474D01*
X310953Y353480D01*
Y353500D01*
D02*
G37*
G36*
X306500D02*
X303047D01*
Y353480D01*
X303317Y352474D01*
X303837Y351573D01*
X304573Y350837D01*
X305474Y350317D01*
X306480Y350047D01*
X306500D01*
Y353500D01*
D02*
G37*
G36*
X617520Y352453D02*
X617500D01*
Y349000D01*
X620953D01*
Y349020D01*
X620683Y350026D01*
X620163Y350927D01*
X619427Y351663D01*
X618526Y352183D01*
X617520Y352453D01*
D02*
G37*
G36*
X616500D02*
X616480D01*
X615474Y352183D01*
X614573Y351663D01*
X613837Y350927D01*
X613317Y350026D01*
X613047Y349020D01*
Y349000D01*
X616500D01*
Y352453D01*
D02*
G37*
G36*
X395000Y349567D02*
X391746D01*
X392000Y348617D01*
X392495Y347761D01*
X393194Y347061D01*
X394050Y346567D01*
X395000Y346313D01*
Y349567D01*
D02*
G37*
G36*
X457520Y348453D02*
X457500D01*
Y345000D01*
X460953D01*
Y345020D01*
X460683Y346026D01*
X460163Y346927D01*
X459427Y347663D01*
X458526Y348183D01*
X457520Y348453D01*
D02*
G37*
G36*
X456500D02*
X456480D01*
X455474Y348183D01*
X454573Y347663D01*
X453837Y346927D01*
X453317Y346026D01*
X453047Y345020D01*
Y345000D01*
X456500D01*
Y348453D01*
D02*
G37*
G36*
X620953Y348000D02*
X617500D01*
Y344547D01*
X617520D01*
X618526Y344817D01*
X619427Y345337D01*
X620163Y346073D01*
X620683Y346974D01*
X620953Y347980D01*
Y348000D01*
D02*
G37*
G36*
X616500D02*
X613047D01*
Y347980D01*
X613317Y346974D01*
X613837Y346073D01*
X614573Y345337D01*
X615474Y344817D01*
X616480Y344547D01*
X616500D01*
Y348000D01*
D02*
G37*
G36*
X427494Y348253D02*
X426506D01*
X425552Y347997D01*
X424696Y347503D01*
X423997Y346804D01*
X423503Y345949D01*
X423247Y344994D01*
Y344006D01*
X423503Y343052D01*
X423997Y342196D01*
X424696Y341497D01*
X425552Y341003D01*
X426506Y340747D01*
X427494D01*
X428448Y341003D01*
X429304Y341497D01*
X430003Y342196D01*
X430497Y343052D01*
X430753Y344006D01*
Y344994D01*
X430497Y345949D01*
X430003Y346804D01*
X429304Y347503D01*
X428448Y347997D01*
X427494Y348253D01*
D02*
G37*
G36*
X460953Y344000D02*
X457500D01*
Y340547D01*
X457520D01*
X458526Y340817D01*
X459427Y341337D01*
X460163Y342073D01*
X460683Y342974D01*
X460953Y343980D01*
Y344000D01*
D02*
G37*
G36*
X456500D02*
X453047D01*
Y343980D01*
X453317Y342974D01*
X453837Y342073D01*
X454573Y341337D01*
X455474Y340817D01*
X456480Y340547D01*
X456500D01*
Y344000D01*
D02*
G37*
G36*
X193994Y383753D02*
X193006D01*
X192051Y383497D01*
X191196Y383003D01*
X190497Y382304D01*
X190003Y381449D01*
X189747Y380494D01*
Y379506D01*
X190003Y378552D01*
X190497Y377696D01*
X191196Y376997D01*
X192051Y376503D01*
X193006Y376247D01*
X193994D01*
X194233Y376311D01*
X206343Y364201D01*
Y337399D01*
X206250Y337345D01*
X205588Y336683D01*
X205119Y335873D01*
X204877Y334968D01*
Y334032D01*
X205119Y333127D01*
X205588Y332317D01*
X206250Y331655D01*
X207061Y331186D01*
X207965Y330944D01*
X208901D01*
X209805Y331186D01*
X210616Y331655D01*
X211278Y332317D01*
X211747Y333127D01*
X211989Y334032D01*
Y334968D01*
X211747Y335873D01*
X211278Y336683D01*
X210616Y337345D01*
X210523Y337399D01*
Y365067D01*
X210364Y365867D01*
X209911Y366545D01*
X197189Y379267D01*
X197253Y379506D01*
Y380494D01*
X196997Y381449D01*
X196503Y382304D01*
X195804Y383003D01*
X194948Y383497D01*
X193994Y383753D01*
D02*
G37*
G36*
X384000Y327754D02*
Y324500D01*
X387254D01*
X387000Y325450D01*
X386506Y326306D01*
X385806Y327006D01*
X384950Y327500D01*
X384000Y327754D01*
D02*
G37*
G36*
X383000D02*
X382050Y327500D01*
X381194Y327006D01*
X380494Y326306D01*
X380000Y325450D01*
X379746Y324500D01*
X383000D01*
Y327754D01*
D02*
G37*
G36*
X225968Y368123D02*
X225032D01*
X224128Y367881D01*
X223317Y367412D01*
X222655Y366750D01*
X222186Y365939D01*
X221944Y365035D01*
Y364099D01*
X222186Y363194D01*
X222655Y362384D01*
X223317Y361722D01*
X223410Y361668D01*
Y355000D01*
X223410Y355000D01*
X223569Y354200D01*
X224022Y353522D01*
X250338Y327206D01*
Y326584D01*
X250553Y325779D01*
X250970Y325058D01*
X251558Y324470D01*
X252279Y324053D01*
X253084Y323838D01*
X253916D01*
X254721Y324053D01*
X255442Y324470D01*
X256030Y325058D01*
X256447Y325779D01*
X256662Y326584D01*
Y327416D01*
X256447Y328221D01*
X256030Y328942D01*
X255442Y329530D01*
X254721Y329947D01*
X253916Y330162D01*
X253294D01*
X227590Y355866D01*
Y361668D01*
X227683Y361722D01*
X228345Y362384D01*
X228814Y363194D01*
X229056Y364099D01*
Y365035D01*
X228814Y365939D01*
X228345Y366750D01*
X227683Y367412D01*
X226872Y367881D01*
X225968Y368123D01*
D02*
G37*
G36*
X429901Y327556D02*
X428965D01*
X428060Y327314D01*
X427250Y326845D01*
X426588Y326183D01*
X426119Y325373D01*
X425877Y324468D01*
Y323532D01*
X426119Y322627D01*
X426588Y321817D01*
X427250Y321155D01*
X428060Y320686D01*
X428965Y320444D01*
X429901D01*
X430805Y320686D01*
X431616Y321155D01*
X432278Y321817D01*
X432747Y322627D01*
X432989Y323532D01*
Y324468D01*
X432747Y325373D01*
X432278Y326183D01*
X431616Y326845D01*
X430805Y327314D01*
X429901Y327556D01*
D02*
G37*
G36*
X387254Y323500D02*
X384000D01*
Y320246D01*
X384950Y320500D01*
X385806Y320994D01*
X386506Y321694D01*
X387000Y322550D01*
X387254Y323500D01*
D02*
G37*
G36*
X383000D02*
X379746D01*
X380000Y322550D01*
X380494Y321694D01*
X381194Y320994D01*
X382050Y320500D01*
X383000Y320246D01*
Y323500D01*
D02*
G37*
G36*
X617494Y372253D02*
X616506D01*
X615552Y371997D01*
X614696Y371503D01*
X613997Y370804D01*
X613503Y369949D01*
X613247Y368994D01*
Y368006D01*
X613503Y367052D01*
X613997Y366196D01*
X614696Y365497D01*
X615552Y365003D01*
X616506Y364747D01*
X617494D01*
X617733Y364811D01*
X623910Y358634D01*
Y310882D01*
X623470Y310442D01*
X623053Y309721D01*
X622838Y308916D01*
Y308084D01*
X623053Y307279D01*
X623470Y306558D01*
X624058Y305970D01*
X624779Y305553D01*
X625584Y305338D01*
X626416D01*
X627221Y305553D01*
X627942Y305970D01*
X628530Y306558D01*
X628947Y307279D01*
X629162Y308084D01*
Y308916D01*
X628947Y309721D01*
X628530Y310442D01*
X628090Y310882D01*
Y359500D01*
X627931Y360300D01*
X627478Y360978D01*
X627478Y360978D01*
X620689Y367767D01*
X620753Y368006D01*
Y368994D01*
X620497Y369949D01*
X620003Y370804D01*
X619304Y371503D01*
X618448Y371997D01*
X617494Y372253D01*
D02*
G37*
G36*
X594920Y311662D02*
X594088D01*
X593283Y311447D01*
X592562Y311030D01*
X591974Y310442D01*
X591557Y309721D01*
X591342Y308916D01*
Y308084D01*
X591557Y307279D01*
X591974Y306558D01*
X592562Y305970D01*
X593283Y305553D01*
X594088Y305338D01*
X594920D01*
X595725Y305553D01*
X596446Y305970D01*
X597034Y306558D01*
X597451Y307279D01*
X597666Y308084D01*
Y308916D01*
X597451Y309721D01*
X597034Y310442D01*
X596446Y311030D01*
X595725Y311447D01*
X594920Y311662D01*
D02*
G37*
G36*
X526035Y309556D02*
X525099D01*
X524194Y309314D01*
X523384Y308845D01*
X522722Y308183D01*
X522253Y307372D01*
X522011Y306468D01*
Y305532D01*
X522253Y304627D01*
X522722Y303817D01*
X523384Y303155D01*
X524194Y302686D01*
X525099Y302444D01*
X526035D01*
X526939Y302686D01*
X527750Y303155D01*
X528412Y303817D01*
X528881Y304627D01*
X529123Y305532D01*
Y306468D01*
X528881Y307372D01*
X528412Y308183D01*
X527750Y308845D01*
X526939Y309314D01*
X526035Y309556D01*
D02*
G37*
G36*
X249520Y303453D02*
X249500D01*
Y300000D01*
X252953D01*
Y300020D01*
X252683Y301026D01*
X252163Y301927D01*
X251427Y302663D01*
X250526Y303183D01*
X249520Y303453D01*
D02*
G37*
G36*
X248500D02*
X248480D01*
X247474Y303183D01*
X246573Y302663D01*
X245837Y301927D01*
X245317Y301026D01*
X245047Y300020D01*
Y300000D01*
X248500D01*
Y303453D01*
D02*
G37*
G36*
X252953Y299000D02*
X249500D01*
Y295547D01*
X249520D01*
X250526Y295817D01*
X251427Y296337D01*
X252163Y297073D01*
X252683Y297974D01*
X252953Y298980D01*
Y299000D01*
D02*
G37*
G36*
X248500D02*
X245047D01*
Y298980D01*
X245317Y297974D01*
X245837Y297073D01*
X246573Y296337D01*
X247474Y295817D01*
X248480Y295547D01*
X248500D01*
Y299000D01*
D02*
G37*
G36*
X488416Y301662D02*
X487584D01*
X486779Y301447D01*
X486058Y301030D01*
X485470Y300442D01*
X485053Y299721D01*
X484838Y298916D01*
Y298084D01*
X485053Y297279D01*
X485470Y296558D01*
X486058Y295970D01*
X486779Y295553D01*
X487584Y295338D01*
X488416D01*
X489221Y295553D01*
X489942Y295970D01*
X490530Y296558D01*
X490947Y297279D01*
X491162Y298084D01*
Y298916D01*
X490947Y299721D01*
X490530Y300442D01*
X489942Y301030D01*
X489221Y301447D01*
X488416Y301662D01*
D02*
G37*
G36*
X456920D02*
X456088D01*
X455283Y301447D01*
X454562Y301030D01*
X453974Y300442D01*
X453557Y299721D01*
X453342Y298916D01*
Y298084D01*
X453557Y297279D01*
X453974Y296558D01*
X454562Y295970D01*
X455283Y295553D01*
X456088Y295338D01*
X456920D01*
X457725Y295553D01*
X458446Y295970D01*
X459034Y296558D01*
X459451Y297279D01*
X459666Y298084D01*
Y298916D01*
X459451Y299721D01*
X459034Y300442D01*
X458446Y301030D01*
X457725Y301447D01*
X456920Y301662D01*
D02*
G37*
G36*
X161968Y299556D02*
X161032D01*
X160127Y299314D01*
X159317Y298845D01*
X158655Y298183D01*
X158186Y297373D01*
X157944Y296468D01*
Y295532D01*
X157972Y295428D01*
X138222Y275678D01*
X137769Y275000D01*
X137610Y274200D01*
X137610Y274200D01*
Y161800D01*
X137610Y161800D01*
X137769Y161000D01*
X138222Y160322D01*
X148829Y149715D01*
X148638Y149253D01*
X142247D01*
Y141747D01*
X149753D01*
Y148138D01*
X150215Y148329D01*
X152311Y146233D01*
X152247Y145994D01*
Y145006D01*
X152503Y144052D01*
X152997Y143196D01*
X153696Y142497D01*
X154551Y142003D01*
X155506Y141747D01*
X156494D01*
X157448Y142003D01*
X158304Y142497D01*
X159003Y143196D01*
X159497Y144052D01*
X159753Y145006D01*
Y145994D01*
X159497Y146949D01*
X159003Y147804D01*
X158304Y148503D01*
X157448Y148997D01*
X156494Y149253D01*
X155506D01*
X155267Y149189D01*
X141790Y162666D01*
Y174780D01*
X142290Y174846D01*
X142503Y174051D01*
X142997Y173196D01*
X143696Y172497D01*
X144552Y172003D01*
X145506Y171747D01*
X146494D01*
X147449Y172003D01*
X148304Y172497D01*
X149003Y173196D01*
X149497Y174051D01*
X149753Y175006D01*
Y175576D01*
X161938Y187762D01*
X162502Y188605D01*
X162700Y189600D01*
Y225333D01*
X162741Y225374D01*
X163175Y226126D01*
X163400Y226965D01*
Y227835D01*
X163175Y228674D01*
X162741Y229426D01*
X162126Y230041D01*
X161374Y230475D01*
X160534Y230700D01*
X159666D01*
X158826Y230475D01*
X158074Y230041D01*
X157459Y229426D01*
X157025Y228674D01*
X156800Y227835D01*
Y226965D01*
X157025Y226126D01*
X157459Y225374D01*
X157500Y225333D01*
Y190677D01*
X146076Y179253D01*
X145506D01*
X144552Y178997D01*
X143696Y178503D01*
X142997Y177804D01*
X142503Y176948D01*
X142290Y176154D01*
X141790Y176220D01*
Y214095D01*
X142252Y214286D01*
X142384Y214155D01*
X143194Y213686D01*
X144099Y213444D01*
X145035D01*
X145940Y213686D01*
X146750Y214155D01*
X147412Y214817D01*
X147881Y215628D01*
X148123Y216532D01*
Y217468D01*
X147881Y218373D01*
X147412Y219183D01*
X146750Y219845D01*
X146657Y219899D01*
Y232268D01*
X160928Y246539D01*
X161032Y246511D01*
X161968D01*
X162873Y246753D01*
X163683Y247222D01*
X164345Y247884D01*
X164814Y248694D01*
X165056Y249599D01*
Y250535D01*
X164814Y251439D01*
X164345Y252250D01*
X163683Y252912D01*
X162873Y253381D01*
X161968Y253623D01*
X161032D01*
X160127Y253381D01*
X159317Y252912D01*
X158655Y252250D01*
X158186Y251439D01*
X157944Y250535D01*
Y249599D01*
X157972Y249495D01*
X143089Y234612D01*
X142636Y233934D01*
X142477Y233134D01*
X142477Y233134D01*
Y220143D01*
X142290Y220010D01*
X141790Y220268D01*
Y273334D01*
X160928Y292472D01*
X161032Y292444D01*
X161968D01*
X162873Y292686D01*
X163683Y293155D01*
X164345Y293817D01*
X164814Y294627D01*
X165056Y295532D01*
Y296468D01*
X164814Y297373D01*
X164345Y298183D01*
X163683Y298845D01*
X162873Y299314D01*
X161968Y299556D01*
D02*
G37*
G36*
X278500Y293453D02*
X278480D01*
X277474Y293183D01*
X276573Y292663D01*
X275837Y291927D01*
X275317Y291026D01*
X275047Y290020D01*
Y290000D01*
X278500D01*
Y293453D01*
D02*
G37*
G36*
X137500Y291490D02*
Y288500D01*
X140489D01*
X140261Y289351D01*
X139801Y290149D01*
X139149Y290801D01*
X138351Y291262D01*
X137500Y291490D01*
D02*
G37*
G36*
X136500D02*
X135649Y291262D01*
X134851Y290801D01*
X134199Y290149D01*
X133739Y289351D01*
X133510Y288500D01*
X136500D01*
Y291490D01*
D02*
G37*
G36*
X249494Y293253D02*
X248506D01*
X247551Y292997D01*
X246696Y292503D01*
X245997Y291804D01*
X245503Y290949D01*
X245247Y289994D01*
Y289006D01*
X245503Y288052D01*
X245997Y287196D01*
X246696Y286497D01*
X247551Y286003D01*
X248506Y285747D01*
X249494D01*
X250448Y286003D01*
X251304Y286497D01*
X252003Y287196D01*
X252497Y288052D01*
X252753Y289006D01*
Y289994D01*
X252497Y290949D01*
X252003Y291804D01*
X251304Y292503D01*
X250448Y292997D01*
X249494Y293253D01*
D02*
G37*
G36*
X278500Y289000D02*
X275047D01*
Y288980D01*
X275317Y287974D01*
X275837Y287073D01*
X276573Y286337D01*
X277474Y285817D01*
X278480Y285547D01*
X278500D01*
Y289000D01*
D02*
G37*
G36*
X140489Y287500D02*
X137500D01*
Y284510D01*
X138351Y284738D01*
X139149Y285199D01*
X139801Y285851D01*
X140261Y286649D01*
X140489Y287500D01*
D02*
G37*
G36*
X136500D02*
X133510D01*
X133739Y286649D01*
X134199Y285851D01*
X134851Y285199D01*
X135649Y284738D01*
X136500Y284510D01*
Y287500D01*
D02*
G37*
G36*
X249494Y283253D02*
X248506D01*
X247551Y282997D01*
X246696Y282503D01*
X245997Y281804D01*
X245503Y280948D01*
X245247Y279994D01*
Y279006D01*
X245503Y278051D01*
X245997Y277196D01*
X246696Y276497D01*
X247551Y276003D01*
X248506Y275747D01*
X249494D01*
X250448Y276003D01*
X251304Y276497D01*
X252003Y277196D01*
X252497Y278051D01*
X252753Y279006D01*
Y279994D01*
X252497Y280948D01*
X252003Y281804D01*
X251304Y282503D01*
X250448Y282997D01*
X249494Y283253D01*
D02*
G37*
G36*
Y273253D02*
X248506D01*
X247551Y272997D01*
X246696Y272503D01*
X245997Y271804D01*
X245503Y270949D01*
X245247Y269994D01*
Y269006D01*
X245503Y268052D01*
X245997Y267196D01*
X246696Y266497D01*
X247551Y266003D01*
X248506Y265747D01*
X249494D01*
X250448Y266003D01*
X251304Y266497D01*
X252003Y267196D01*
X252497Y268052D01*
X252753Y269006D01*
Y269994D01*
X252497Y270949D01*
X252003Y271804D01*
X251304Y272503D01*
X250448Y272997D01*
X249494Y273253D01*
D02*
G37*
G36*
X603734Y332400D02*
X602866D01*
X602026Y332175D01*
X601274Y331741D01*
X600659Y331126D01*
X600225Y330374D01*
X600000Y329535D01*
Y328665D01*
X600225Y327826D01*
X600659Y327074D01*
X601210Y326523D01*
Y229966D01*
X591422Y220178D01*
X591157Y219782D01*
X590657Y219933D01*
Y226101D01*
X590750Y226155D01*
X591412Y226817D01*
X591881Y227627D01*
X592123Y228532D01*
Y229468D01*
X591881Y230373D01*
X591412Y231183D01*
X590750Y231845D01*
X589939Y232314D01*
X589035Y232556D01*
X588099D01*
X587194Y232314D01*
X586384Y231845D01*
X585722Y231183D01*
X585253Y230373D01*
X585011Y229468D01*
Y228532D01*
X585253Y227627D01*
X585722Y226817D01*
X586384Y226155D01*
X586477Y226101D01*
Y177433D01*
X586477Y177433D01*
X586636Y176633D01*
X587089Y175955D01*
X594311Y168733D01*
X594247Y168494D01*
Y167506D01*
X594503Y166551D01*
X594997Y165696D01*
X595696Y164997D01*
X596552Y164503D01*
X597506Y164247D01*
X598494D01*
X599448Y164503D01*
X600304Y164997D01*
X600510Y165203D01*
X601010Y164996D01*
Y161004D01*
X600510Y160797D01*
X600304Y161003D01*
X599448Y161497D01*
X598494Y161753D01*
X597506D01*
X596552Y161497D01*
X595696Y161003D01*
X594997Y160304D01*
X594503Y159449D01*
X594247Y158494D01*
Y157506D01*
X594503Y156552D01*
X594997Y155696D01*
X595696Y154997D01*
X596552Y154503D01*
X597506Y154247D01*
X598037D01*
X598244Y153747D01*
X562587Y118090D01*
X559832D01*
X559778Y118183D01*
X559116Y118845D01*
X558306Y119314D01*
X557401Y119556D01*
X556465D01*
X555560Y119314D01*
X554750Y118845D01*
X554088Y118183D01*
X553619Y117373D01*
X553377Y116468D01*
Y115532D01*
X553619Y114628D01*
X554088Y113817D01*
X554750Y113155D01*
X555560Y112686D01*
X556465Y112444D01*
X557401D01*
X558306Y112686D01*
X559116Y113155D01*
X559778Y113817D01*
X559832Y113910D01*
X563453D01*
X563453Y113910D01*
X564253Y114069D01*
X564931Y114522D01*
X604578Y154169D01*
X604578Y154169D01*
X605031Y154847D01*
X605190Y155647D01*
X605190Y155647D01*
Y182900D01*
X605190Y182900D01*
X605031Y183700D01*
X604578Y184378D01*
X601753Y187203D01*
Y191753D01*
X594990D01*
Y217834D01*
X604778Y227622D01*
X605231Y228300D01*
X605390Y229100D01*
Y266562D01*
X605890Y266696D01*
X605970Y266558D01*
X606558Y265970D01*
X607279Y265553D01*
X608084Y265338D01*
X608916D01*
X609721Y265553D01*
X610442Y265970D01*
X611030Y266558D01*
X611447Y267279D01*
X611662Y268084D01*
Y268916D01*
X611447Y269721D01*
X611030Y270442D01*
X610442Y271030D01*
X609721Y271447D01*
X608916Y271662D01*
X608084D01*
X607279Y271447D01*
X606558Y271030D01*
X605970Y270442D01*
X605890Y270304D01*
X605390Y270438D01*
Y326523D01*
X605941Y327074D01*
X606375Y327826D01*
X606600Y328665D01*
Y329535D01*
X606375Y330374D01*
X605941Y331126D01*
X605326Y331741D01*
X604574Y332175D01*
X603734Y332400D01*
D02*
G37*
G36*
X542994Y420753D02*
X542006D01*
X541051Y420497D01*
X540196Y420003D01*
X539497Y419304D01*
X539003Y418448D01*
X538747Y417494D01*
Y416506D01*
X539003Y415552D01*
X539497Y414696D01*
X540196Y413997D01*
X540410Y413873D01*
Y271077D01*
X539859Y270526D01*
X539425Y269774D01*
X539200Y268934D01*
Y268066D01*
X539425Y267226D01*
X539859Y266474D01*
X540474Y265859D01*
X541226Y265425D01*
X542065Y265200D01*
X542935D01*
X543774Y265425D01*
X544526Y265859D01*
X545141Y266474D01*
X545575Y267226D01*
X545800Y268066D01*
Y268934D01*
X545575Y269774D01*
X545141Y270526D01*
X544590Y271077D01*
Y413873D01*
X544804Y413997D01*
X545503Y414696D01*
X545997Y415552D01*
X546253Y416506D01*
Y417494D01*
X545997Y418448D01*
X545503Y419304D01*
X544804Y420003D01*
X543949Y420497D01*
X542994Y420753D01*
D02*
G37*
G36*
X433916Y271162D02*
X433084D01*
X432279Y270947D01*
X431558Y270530D01*
X430970Y269942D01*
X430553Y269221D01*
X430338Y268416D01*
Y267584D01*
X430553Y266779D01*
X430970Y266058D01*
X431558Y265470D01*
X432279Y265053D01*
X433084Y264838D01*
X433916D01*
X434721Y265053D01*
X435442Y265470D01*
X436030Y266058D01*
X436447Y266779D01*
X436662Y267584D01*
Y268416D01*
X436447Y269221D01*
X436030Y269942D01*
X435442Y270530D01*
X434721Y270947D01*
X433916Y271162D01*
D02*
G37*
G36*
X425916D02*
X425084D01*
X424279Y270947D01*
X423558Y270530D01*
X422970Y269942D01*
X422553Y269221D01*
X422338Y268416D01*
Y267584D01*
X422553Y266779D01*
X422970Y266058D01*
X423558Y265470D01*
X424279Y265053D01*
X425084Y264838D01*
X425916D01*
X426721Y265053D01*
X427442Y265470D01*
X428030Y266058D01*
X428447Y266779D01*
X428662Y267584D01*
Y268416D01*
X428447Y269221D01*
X428030Y269942D01*
X427442Y270530D01*
X426721Y270947D01*
X425916Y271162D01*
D02*
G37*
G36*
X456468Y271056D02*
X455532D01*
X454628Y270814D01*
X453817Y270345D01*
X453155Y269683D01*
X452686Y268872D01*
X452444Y267968D01*
Y267032D01*
X452472Y266928D01*
X441034Y255490D01*
X424400D01*
X423600Y255331D01*
X422922Y254878D01*
X409522Y241478D01*
X409069Y240800D01*
X408910Y240000D01*
X408910Y240000D01*
Y167866D01*
X405706Y164662D01*
X405084D01*
X404279Y164447D01*
X403558Y164030D01*
X402970Y163442D01*
X402553Y162721D01*
X402338Y161916D01*
Y161084D01*
X402553Y160279D01*
X402970Y159558D01*
X403558Y158970D01*
X404279Y158553D01*
X405084Y158338D01*
X405916D01*
X406721Y158553D01*
X407442Y158970D01*
X408030Y159558D01*
X408447Y160279D01*
X408662Y161084D01*
Y161706D01*
X412478Y165522D01*
X412478Y165522D01*
X412931Y166200D01*
X413090Y167000D01*
Y199795D01*
X413554Y200103D01*
X413590Y200099D01*
X414018Y199459D01*
X415405Y198072D01*
X415377Y197968D01*
Y197032D01*
X415619Y196127D01*
X416088Y195317D01*
X416750Y194655D01*
X417560Y194186D01*
X418465Y193944D01*
X419401D01*
X420305Y194186D01*
X421116Y194655D01*
X421778Y195317D01*
X422247Y196127D01*
X422489Y197032D01*
Y197968D01*
X422247Y198872D01*
X421778Y199683D01*
X421116Y200345D01*
X420305Y200814D01*
X419401Y201056D01*
X418465D01*
X418361Y201028D01*
X417586Y201803D01*
Y235118D01*
X418026Y235558D01*
X418443Y236279D01*
X418658Y237084D01*
Y237916D01*
X418443Y238721D01*
X418026Y239442D01*
X417438Y240030D01*
X416717Y240447D01*
X415912Y240662D01*
X415325D01*
X415118Y241162D01*
X425266Y251310D01*
X441900D01*
X441900Y251310D01*
X442700Y251469D01*
X443378Y251922D01*
X455428Y263972D01*
X455532Y263944D01*
X456468D01*
X457373Y264186D01*
X458183Y264655D01*
X458845Y265317D01*
X459314Y266127D01*
X459556Y267032D01*
Y267968D01*
X459314Y268872D01*
X458845Y269683D01*
X458183Y270345D01*
X457373Y270814D01*
X456468Y271056D01*
D02*
G37*
G36*
X229933Y264254D02*
Y261000D01*
X233187D01*
X232933Y261950D01*
X232438Y262806D01*
X231739Y263506D01*
X230883Y264000D01*
X229933Y264254D01*
D02*
G37*
G36*
X228933D02*
X227983Y264000D01*
X227127Y263506D01*
X226428Y262806D01*
X225933Y261950D01*
X225679Y261000D01*
X228933D01*
Y264254D01*
D02*
G37*
G36*
X183968Y264056D02*
X183032D01*
X182127Y263814D01*
X181317Y263345D01*
X180655Y262683D01*
X180186Y261873D01*
X179944Y260968D01*
Y260032D01*
X180186Y259127D01*
X180655Y258317D01*
X181317Y257655D01*
X182127Y257186D01*
X183032Y256944D01*
X183968D01*
X184872Y257186D01*
X185683Y257655D01*
X186345Y258317D01*
X186814Y259127D01*
X187056Y260032D01*
Y260968D01*
X186814Y261873D01*
X186345Y262683D01*
X185683Y263345D01*
X184872Y263814D01*
X183968Y264056D01*
D02*
G37*
G36*
X233187Y260000D02*
X229933D01*
Y256746D01*
X230883Y257000D01*
X231739Y257494D01*
X232438Y258194D01*
X232933Y259050D01*
X233187Y260000D01*
D02*
G37*
G36*
X228933D02*
X225679D01*
X225933Y259050D01*
X226428Y258194D01*
X227127Y257494D01*
X227983Y257000D01*
X228933Y256746D01*
Y260000D01*
D02*
G37*
G36*
X528067Y254254D02*
Y251000D01*
X531321D01*
X531067Y251950D01*
X530573Y252806D01*
X529873Y253505D01*
X529017Y254000D01*
X528067Y254254D01*
D02*
G37*
G36*
X527067D02*
X526117Y254000D01*
X525261Y253505D01*
X524562Y252806D01*
X524067Y251950D01*
X523813Y251000D01*
X527067D01*
Y254254D01*
D02*
G37*
G36*
X121527Y251000D02*
X121500D01*
Y247500D01*
X125000D01*
Y247527D01*
X124727Y248544D01*
X124201Y249456D01*
X123456Y250201D01*
X122544Y250727D01*
X121527Y251000D01*
D02*
G37*
G36*
X120500D02*
X120473D01*
X119456Y250727D01*
X118544Y250201D01*
X117799Y249456D01*
X117273Y248544D01*
X117000Y247527D01*
Y247500D01*
X120500D01*
Y251000D01*
D02*
G37*
G36*
X531321Y250000D02*
X528067D01*
Y246746D01*
X529017Y247000D01*
X529873Y247495D01*
X530573Y248194D01*
X531067Y249050D01*
X531321Y250000D01*
D02*
G37*
G36*
X527067D02*
X523813D01*
X524067Y249050D01*
X524562Y248194D01*
X525261Y247495D01*
X526117Y247000D01*
X527067Y246746D01*
Y250000D01*
D02*
G37*
G36*
X125000Y246500D02*
X121500D01*
Y243000D01*
X121527D01*
X122544Y243273D01*
X123456Y243799D01*
X124201Y244544D01*
X124727Y245456D01*
X125000Y246473D01*
Y246500D01*
D02*
G37*
G36*
X120500D02*
X117000D01*
Y246473D01*
X117273Y245456D01*
X117799Y244544D01*
X118544Y243799D01*
X119456Y243273D01*
X120473Y243000D01*
X120500D01*
Y246500D01*
D02*
G37*
G36*
X674000Y241347D02*
Y238500D01*
X676847D01*
X676633Y239298D01*
X676190Y240064D01*
X675564Y240690D01*
X674798Y241133D01*
X674000Y241347D01*
D02*
G37*
G36*
X673000D02*
X672202Y241133D01*
X671436Y240690D01*
X670810Y240064D01*
X670367Y239298D01*
X670153Y238500D01*
X673000D01*
Y241347D01*
D02*
G37*
G36*
X202916Y303162D02*
X202084D01*
X201279Y302947D01*
X200558Y302530D01*
X199970Y301942D01*
X199553Y301221D01*
X199338Y300416D01*
Y299584D01*
X199553Y298779D01*
X199970Y298058D01*
X200410Y297618D01*
Y244077D01*
X199859Y243526D01*
X199425Y242774D01*
X199200Y241934D01*
Y241066D01*
X199425Y240226D01*
X199859Y239474D01*
X200474Y238859D01*
X201226Y238425D01*
X202066Y238200D01*
X202934D01*
X203774Y238425D01*
X204526Y238859D01*
X205141Y239474D01*
X205575Y240226D01*
X205800Y241066D01*
Y241934D01*
X205575Y242774D01*
X205141Y243526D01*
X204590Y244077D01*
Y297618D01*
X205030Y298058D01*
X205447Y298779D01*
X205662Y299584D01*
Y300416D01*
X205447Y301221D01*
X205030Y301942D01*
X204442Y302530D01*
X203721Y302947D01*
X202916Y303162D01*
D02*
G37*
G36*
X676847Y237500D02*
X674000D01*
Y234653D01*
X674798Y234867D01*
X675564Y235310D01*
X676190Y235936D01*
X676633Y236702D01*
X676847Y237500D01*
D02*
G37*
G36*
X673000D02*
X670153D01*
X670367Y236702D01*
X670810Y235936D01*
X671436Y235310D01*
X672202Y234867D01*
X673000Y234653D01*
Y237500D01*
D02*
G37*
G36*
X121500Y240800D02*
X120500D01*
X119533Y240541D01*
X118667Y240041D01*
X117959Y239333D01*
X117459Y238467D01*
X117200Y237500D01*
Y236500D01*
X117459Y235533D01*
X117959Y234667D01*
X118667Y233959D01*
X119533Y233459D01*
X120500Y233200D01*
X121500D01*
X122467Y233459D01*
X123333Y233959D01*
X124041Y234667D01*
X124541Y235533D01*
X124800Y236500D01*
Y237500D01*
X124541Y238467D01*
X124041Y239333D01*
X123333Y240041D01*
X122467Y240541D01*
X121500Y240800D01*
D02*
G37*
G36*
X462416Y236662D02*
X461584D01*
X460779Y236447D01*
X460058Y236030D01*
X459470Y235442D01*
X459053Y234721D01*
X458838Y233916D01*
Y233084D01*
X459053Y232279D01*
X459470Y231558D01*
X460058Y230970D01*
X460779Y230553D01*
X461584Y230338D01*
X462416D01*
X463221Y230553D01*
X463942Y230970D01*
X464530Y231558D01*
X464947Y232279D01*
X465162Y233084D01*
Y233916D01*
X464947Y234721D01*
X464530Y235442D01*
X463942Y236030D01*
X463221Y236447D01*
X462416Y236662D01*
D02*
G37*
G36*
X442731D02*
X441899D01*
X441094Y236447D01*
X440373Y236030D01*
X439785Y235442D01*
X439368Y234721D01*
X439153Y233916D01*
Y233084D01*
X439368Y232279D01*
X439785Y231558D01*
X440373Y230970D01*
X441094Y230553D01*
X441899Y230338D01*
X442731D01*
X443536Y230553D01*
X444257Y230970D01*
X444845Y231558D01*
X445262Y232279D01*
X445477Y233084D01*
Y233916D01*
X445262Y234721D01*
X444845Y235442D01*
X444257Y236030D01*
X443536Y236447D01*
X442731Y236662D01*
D02*
G37*
G36*
X262000Y231847D02*
Y229000D01*
X264847D01*
X264633Y229798D01*
X264190Y230564D01*
X263564Y231190D01*
X262798Y231633D01*
X262000Y231847D01*
D02*
G37*
G36*
X261000D02*
X260202Y231633D01*
X259436Y231190D01*
X258810Y230564D01*
X258367Y229798D01*
X258153Y229000D01*
X261000D01*
Y231847D01*
D02*
G37*
G36*
X264847Y228000D02*
X262000D01*
Y225153D01*
X262798Y225367D01*
X263564Y225810D01*
X264190Y226436D01*
X264633Y227202D01*
X264847Y228000D01*
D02*
G37*
G36*
X261000D02*
X258153D01*
X258367Y227202D01*
X258810Y226436D01*
X259436Y225810D01*
X260202Y225367D01*
X261000Y225153D01*
Y228000D01*
D02*
G37*
G36*
X354416Y230662D02*
X353584D01*
X352779Y230447D01*
X352058Y230030D01*
X351470Y229442D01*
X351053Y228721D01*
X350838Y227916D01*
Y227084D01*
X351053Y226279D01*
X351470Y225558D01*
X352058Y224970D01*
X352779Y224553D01*
X353584Y224338D01*
X354416D01*
X355221Y224553D01*
X355942Y224970D01*
X356530Y225558D01*
X356947Y226279D01*
X357162Y227084D01*
Y227916D01*
X356947Y228721D01*
X356530Y229442D01*
X355942Y230030D01*
X355221Y230447D01*
X354416Y230662D01*
D02*
G37*
G36*
X322920D02*
X322088D01*
X321283Y230447D01*
X320562Y230030D01*
X319974Y229442D01*
X319557Y228721D01*
X319342Y227916D01*
Y227084D01*
X319557Y226279D01*
X319974Y225558D01*
X320562Y224970D01*
X321283Y224553D01*
X322088Y224338D01*
X322920D01*
X323725Y224553D01*
X324446Y224970D01*
X325034Y225558D01*
X325451Y226279D01*
X325666Y227084D01*
Y227916D01*
X325451Y228721D01*
X325034Y229442D01*
X324446Y230030D01*
X323725Y230447D01*
X322920Y230662D01*
D02*
G37*
G36*
X486520Y214953D02*
X486500D01*
Y211500D01*
X489953D01*
Y211520D01*
X489683Y212526D01*
X489163Y213427D01*
X488427Y214163D01*
X487526Y214683D01*
X486520Y214953D01*
D02*
G37*
G36*
X485500D02*
X485480D01*
X484474Y214683D01*
X483573Y214163D01*
X482837Y213427D01*
X482317Y212526D01*
X482047Y211520D01*
Y211500D01*
X485500D01*
Y214953D01*
D02*
G37*
G36*
X466494Y214753D02*
X465506D01*
X464551Y214497D01*
X463696Y214003D01*
X462997Y213304D01*
X462503Y212449D01*
X462247Y211494D01*
Y210506D01*
X462503Y209552D01*
X462997Y208696D01*
X463696Y207997D01*
X464551Y207503D01*
X465506Y207247D01*
X466494D01*
X467449Y207503D01*
X468304Y207997D01*
X469003Y208696D01*
X469497Y209552D01*
X469753Y210506D01*
Y211494D01*
X469497Y212449D01*
X469003Y213304D01*
X468304Y214003D01*
X467449Y214497D01*
X466494Y214753D01*
D02*
G37*
G36*
X456494D02*
X455506D01*
X454552Y214497D01*
X453696Y214003D01*
X452997Y213304D01*
X452503Y212449D01*
X452247Y211494D01*
Y210506D01*
X452503Y209552D01*
X452997Y208696D01*
X453696Y207997D01*
X454552Y207503D01*
X455506Y207247D01*
X456494D01*
X457448Y207503D01*
X458304Y207997D01*
X459003Y208696D01*
X459497Y209552D01*
X459753Y210506D01*
Y211494D01*
X459497Y212449D01*
X459003Y213304D01*
X458304Y214003D01*
X457448Y214497D01*
X456494Y214753D01*
D02*
G37*
G36*
X489953Y210500D02*
X486500D01*
Y207047D01*
X486520D01*
X487526Y207317D01*
X488427Y207837D01*
X489163Y208573D01*
X489683Y209474D01*
X489953Y210480D01*
Y210500D01*
D02*
G37*
G36*
X485500D02*
X482047D01*
Y210480D01*
X482317Y209474D01*
X482837Y208573D01*
X483573Y207837D01*
X484474Y207317D01*
X485480Y207047D01*
X485500D01*
Y210500D01*
D02*
G37*
G36*
X689867Y245900D02*
X688999D01*
X688159Y245675D01*
X687407Y245241D01*
X686792Y244626D01*
X686358Y243874D01*
X686133Y243035D01*
Y242165D01*
X686358Y241326D01*
X686792Y240574D01*
X687343Y240023D01*
Y200055D01*
X686881Y199864D01*
X686806Y199938D01*
X685950Y200433D01*
X685000Y200687D01*
Y196933D01*
Y193179D01*
X685950Y193433D01*
X686806Y193928D01*
X686881Y194002D01*
X687343Y193811D01*
Y153839D01*
X686881Y153648D01*
X686683Y153845D01*
X685873Y154314D01*
X684968Y154556D01*
X684032D01*
X683127Y154314D01*
X682317Y153845D01*
X681655Y153183D01*
X681186Y152373D01*
X680944Y151468D01*
Y150532D01*
X681186Y149627D01*
X681655Y148817D01*
X682317Y148155D01*
X683127Y147686D01*
X684032Y147444D01*
X684968D01*
X685873Y147686D01*
X686683Y148155D01*
X686881Y148352D01*
X687343Y148161D01*
Y120899D01*
X687250Y120845D01*
X686588Y120183D01*
X686119Y119372D01*
X685877Y118468D01*
Y117532D01*
X686119Y116628D01*
X686588Y115817D01*
X687250Y115155D01*
X688061Y114686D01*
X688965Y114444D01*
X689901D01*
X690805Y114686D01*
X691616Y115155D01*
X692278Y115817D01*
X692747Y116628D01*
X692989Y117532D01*
Y118468D01*
X692747Y119372D01*
X692278Y120183D01*
X691616Y120845D01*
X691523Y120899D01*
Y240023D01*
X692074Y240574D01*
X692508Y241326D01*
X692733Y242165D01*
Y243035D01*
X692508Y243874D01*
X692074Y244626D01*
X691459Y245241D01*
X690707Y245675D01*
X689867Y245900D01*
D02*
G37*
G36*
X656500Y201187D02*
Y197933D01*
X659754D01*
X659500Y198883D01*
X659005Y199739D01*
X658306Y200438D01*
X657450Y200933D01*
X656500Y201187D01*
D02*
G37*
G36*
X684000Y200687D02*
X683050Y200433D01*
X682194Y199938D01*
X681495Y199239D01*
X681000Y198383D01*
X680746Y197433D01*
X684000D01*
Y200687D01*
D02*
G37*
G36*
X373468Y201056D02*
X372532D01*
X371627Y200814D01*
X370817Y200345D01*
X370155Y199683D01*
X369686Y198872D01*
X369444Y197968D01*
Y197032D01*
X369686Y196127D01*
X370155Y195317D01*
X370817Y194655D01*
X371627Y194186D01*
X372532Y193944D01*
X373468D01*
X374373Y194186D01*
X375183Y194655D01*
X375845Y195317D01*
X376314Y196127D01*
X376556Y197032D01*
Y197968D01*
X376314Y198872D01*
X375845Y199683D01*
X375183Y200345D01*
X374373Y200814D01*
X373468Y201056D01*
D02*
G37*
G36*
X230968Y239056D02*
X230032D01*
X229128Y238814D01*
X228317Y238345D01*
X227655Y237683D01*
X227186Y236873D01*
X226944Y235968D01*
Y235032D01*
X227186Y234127D01*
X227655Y233317D01*
X228317Y232655D01*
X229128Y232186D01*
X230032Y231944D01*
X230968D01*
X231072Y231972D01*
X259410Y203634D01*
Y199386D01*
X258970Y198946D01*
X258553Y198225D01*
X258338Y197420D01*
Y196588D01*
X258553Y195783D01*
X258970Y195062D01*
X259558Y194474D01*
X260279Y194057D01*
X261084Y193842D01*
X261916D01*
X262721Y194057D01*
X263442Y194474D01*
X264030Y195062D01*
X264447Y195783D01*
X264662Y196588D01*
Y197420D01*
X264447Y198225D01*
X264030Y198946D01*
X263590Y199386D01*
Y204500D01*
X263431Y205300D01*
X262978Y205978D01*
X234028Y234928D01*
X234056Y235032D01*
Y235968D01*
X233814Y236873D01*
X233345Y237683D01*
X232683Y238345D01*
X231873Y238814D01*
X230968Y239056D01*
D02*
G37*
G36*
X659754Y196933D02*
X656500D01*
Y193679D01*
X657450Y193933D01*
X658306Y194428D01*
X659005Y195127D01*
X659500Y195983D01*
X659754Y196933D01*
D02*
G37*
G36*
X655500D02*
X652246D01*
X652500Y195983D01*
X652994Y195127D01*
X653694Y194428D01*
X654550Y193933D01*
X655500Y193679D01*
Y196933D01*
D02*
G37*
G36*
X684000Y196433D02*
X680746D01*
X681000Y195483D01*
X681495Y194627D01*
X682194Y193928D01*
X683050Y193433D01*
X684000Y193179D01*
Y196433D01*
D02*
G37*
G36*
X525468Y197056D02*
X524532D01*
X523628Y196814D01*
X522817Y196345D01*
X522155Y195683D01*
X521686Y194872D01*
X521444Y193968D01*
Y193032D01*
X521686Y192128D01*
X522155Y191317D01*
X522817Y190655D01*
X523628Y190186D01*
X524532Y189944D01*
X525468D01*
X526372Y190186D01*
X527183Y190655D01*
X527845Y191317D01*
X528314Y192128D01*
X528556Y193032D01*
Y193968D01*
X528314Y194872D01*
X527845Y195683D01*
X527183Y196345D01*
X526372Y196814D01*
X525468Y197056D01*
D02*
G37*
G36*
X121468Y196556D02*
X120532D01*
X119627Y196314D01*
X118817Y195845D01*
X118155Y195183D01*
X117686Y194372D01*
X117444Y193468D01*
Y192532D01*
X117686Y191628D01*
X118155Y190817D01*
X118817Y190155D01*
X119627Y189686D01*
X120532Y189444D01*
X121468D01*
X122372Y189686D01*
X123183Y190155D01*
X123845Y190817D01*
X124314Y191628D01*
X124556Y192532D01*
Y193468D01*
X124314Y194372D01*
X123845Y195183D01*
X123183Y195845D01*
X122372Y196314D01*
X121468Y196556D01*
D02*
G37*
G36*
X476520Y184953D02*
X476500D01*
Y181500D01*
X479953D01*
Y181520D01*
X479683Y182526D01*
X479163Y183427D01*
X478427Y184163D01*
X477526Y184683D01*
X476520Y184953D01*
D02*
G37*
G36*
X475500D02*
X475480D01*
X474474Y184683D01*
X473573Y184163D01*
X472837Y183427D01*
X472317Y182526D01*
X472047Y181520D01*
Y181500D01*
X475500D01*
Y184953D01*
D02*
G37*
G36*
X190934Y316500D02*
X190066D01*
X189226Y316275D01*
X188474Y315841D01*
X187859Y315226D01*
X187425Y314474D01*
X187200Y313634D01*
Y312766D01*
X187425Y311926D01*
X187859Y311174D01*
X188410Y310623D01*
Y219899D01*
X188317Y219845D01*
X187655Y219183D01*
X187186Y218373D01*
X186944Y217468D01*
Y216532D01*
X187186Y215628D01*
X187655Y214817D01*
X188317Y214155D01*
X189128Y213686D01*
X190032Y213444D01*
X190968D01*
X191072Y213472D01*
X198410Y206134D01*
Y124077D01*
X197859Y123526D01*
X197425Y122774D01*
X197200Y121934D01*
Y121066D01*
X197425Y120226D01*
X197859Y119474D01*
X198474Y118859D01*
X199226Y118425D01*
X200066Y118200D01*
X200934D01*
X201774Y118425D01*
X202526Y118859D01*
X203141Y119474D01*
X203575Y120226D01*
X203800Y121066D01*
Y121934D01*
X203575Y122774D01*
X203141Y123526D01*
X202590Y124077D01*
Y146789D01*
X202827Y146887D01*
X203090Y146955D01*
X203779Y146557D01*
X204584Y146342D01*
X205206D01*
X210406Y141142D01*
Y116382D01*
X209966Y115942D01*
X209549Y115221D01*
X209334Y114416D01*
Y113584D01*
X209549Y112779D01*
X209966Y112058D01*
X210554Y111470D01*
X211275Y111053D01*
X212080Y110838D01*
X212912D01*
X213717Y111053D01*
X214438Y111470D01*
X215026Y112058D01*
X215443Y112779D01*
X215658Y113584D01*
Y114416D01*
X215443Y115221D01*
X215026Y115942D01*
X214586Y116382D01*
Y142008D01*
X214427Y142808D01*
X213974Y143486D01*
X213974Y143486D01*
X208162Y149298D01*
Y149920D01*
X207947Y150725D01*
X207530Y151446D01*
X206942Y152034D01*
X206221Y152451D01*
X205416Y152666D01*
X204584D01*
X203779Y152451D01*
X203090Y152053D01*
X202827Y152121D01*
X202590Y152219D01*
Y178285D01*
X202827Y178383D01*
X203090Y178451D01*
X203779Y178053D01*
X204584Y177838D01*
X205416D01*
X206221Y178053D01*
X206942Y178470D01*
X207530Y179058D01*
X207947Y179779D01*
X208162Y180584D01*
Y181416D01*
X207947Y182221D01*
X207530Y182942D01*
X206942Y183530D01*
X206221Y183947D01*
X205416Y184162D01*
X204584D01*
X203779Y183947D01*
X203090Y183549D01*
X202827Y183617D01*
X202590Y183715D01*
Y207000D01*
X202590Y207000D01*
X202431Y207800D01*
X201978Y208478D01*
X201978Y208478D01*
X194028Y216428D01*
X194056Y216532D01*
Y217468D01*
X193814Y218373D01*
X193345Y219183D01*
X192683Y219845D01*
X192590Y219899D01*
Y310623D01*
X193141Y311174D01*
X193575Y311926D01*
X193800Y312766D01*
Y313634D01*
X193575Y314474D01*
X193141Y315226D01*
X192526Y315841D01*
X191774Y316275D01*
X190934Y316500D01*
D02*
G37*
G36*
X466494Y184753D02*
X465506D01*
X464551Y184497D01*
X463696Y184003D01*
X462997Y183304D01*
X462503Y182448D01*
X462247Y181494D01*
Y180506D01*
X462503Y179551D01*
X462997Y178696D01*
X463696Y177997D01*
X464551Y177503D01*
X465506Y177247D01*
X466494D01*
X467449Y177503D01*
X468304Y177997D01*
X469003Y178696D01*
X469497Y179551D01*
X469753Y180506D01*
Y181494D01*
X469497Y182448D01*
X469003Y183304D01*
X468304Y184003D01*
X467449Y184497D01*
X466494Y184753D01*
D02*
G37*
G36*
X459753D02*
X452247D01*
Y177247D01*
X459753D01*
Y184753D01*
D02*
G37*
G36*
X479953Y180500D02*
X476500D01*
Y177047D01*
X476520D01*
X477526Y177317D01*
X478427Y177837D01*
X479163Y178573D01*
X479683Y179474D01*
X479953Y180480D01*
Y180500D01*
D02*
G37*
G36*
X475500D02*
X472047D01*
Y180480D01*
X472317Y179474D01*
X472837Y178573D01*
X473573Y177837D01*
X474474Y177317D01*
X475480Y177047D01*
X475500D01*
Y180500D01*
D02*
G37*
G36*
X289968Y182623D02*
X289032D01*
X288127Y182381D01*
X287317Y181912D01*
X286655Y181250D01*
X286186Y180439D01*
X285944Y179535D01*
Y178599D01*
X286186Y177694D01*
X286655Y176884D01*
X287317Y176222D01*
X288127Y175753D01*
X289032Y175511D01*
X289968D01*
X290873Y175753D01*
X291683Y176222D01*
X292345Y176884D01*
X292814Y177694D01*
X293056Y178599D01*
Y179535D01*
X292814Y180439D01*
X292345Y181250D01*
X291683Y181912D01*
X290873Y182381D01*
X289968Y182623D01*
D02*
G37*
G36*
X176494Y179253D02*
X175506D01*
X174551Y178997D01*
X173696Y178503D01*
X172997Y177804D01*
X172503Y176948D01*
X172247Y175994D01*
Y175006D01*
X172503Y174051D01*
X172997Y173196D01*
X173696Y172497D01*
X174551Y172003D01*
X175506Y171747D01*
X176494D01*
X177448Y172003D01*
X178304Y172497D01*
X179003Y173196D01*
X179497Y174051D01*
X179753Y175006D01*
Y175994D01*
X179497Y176948D01*
X179003Y177804D01*
X178304Y178503D01*
X177448Y178997D01*
X176494Y179253D01*
D02*
G37*
G36*
X166494D02*
X165506D01*
X164551Y178997D01*
X163696Y178503D01*
X162997Y177804D01*
X162503Y176948D01*
X162247Y175994D01*
Y175006D01*
X162503Y174051D01*
X162997Y173196D01*
X163696Y172497D01*
X164551Y172003D01*
X165506Y171747D01*
X166494D01*
X167448Y172003D01*
X168304Y172497D01*
X169003Y173196D01*
X169497Y174051D01*
X169753Y175006D01*
Y175994D01*
X169497Y176948D01*
X169003Y177804D01*
X168304Y178503D01*
X167448Y178997D01*
X166494Y179253D01*
D02*
G37*
G36*
X156494D02*
X155506D01*
X154551Y178997D01*
X153696Y178503D01*
X152997Y177804D01*
X152503Y176948D01*
X152247Y175994D01*
Y175006D01*
X152503Y174051D01*
X152997Y173196D01*
X153696Y172497D01*
X154551Y172003D01*
X155506Y171747D01*
X156494D01*
X157448Y172003D01*
X158304Y172497D01*
X159003Y173196D01*
X159497Y174051D01*
X159753Y175006D01*
Y175994D01*
X159497Y176948D01*
X159003Y177804D01*
X158304Y178503D01*
X157448Y178997D01*
X156494Y179253D01*
D02*
G37*
G36*
X628520Y161953D02*
X628500D01*
Y158500D01*
X631953D01*
Y158520D01*
X631683Y159526D01*
X631163Y160427D01*
X630427Y161163D01*
X629526Y161683D01*
X628520Y161953D01*
D02*
G37*
G36*
X627500D02*
X627480D01*
X626474Y161683D01*
X625573Y161163D01*
X624837Y160427D01*
X624317Y159526D01*
X624047Y158520D01*
Y158500D01*
X627500D01*
Y161953D01*
D02*
G37*
G36*
X345020Y160453D02*
X345000D01*
Y157000D01*
X348453D01*
Y157020D01*
X348183Y158026D01*
X347663Y158927D01*
X346927Y159663D01*
X346026Y160183D01*
X345020Y160453D01*
D02*
G37*
G36*
X344000D02*
X343980D01*
X342974Y160183D01*
X342073Y159663D01*
X341337Y158927D01*
X340817Y158026D01*
X340547Y157020D01*
Y157000D01*
X344000D01*
Y160453D01*
D02*
G37*
G36*
X631953Y157500D02*
X628500D01*
Y154047D01*
X628520D01*
X629526Y154317D01*
X630427Y154837D01*
X631163Y155573D01*
X631683Y156474D01*
X631953Y157480D01*
Y157500D01*
D02*
G37*
G36*
X627500D02*
X624047D01*
Y157480D01*
X624317Y156474D01*
X624837Y155573D01*
X625573Y154837D01*
X626474Y154317D01*
X627480Y154047D01*
X627500D01*
Y157500D01*
D02*
G37*
G36*
X348453Y156000D02*
X345000D01*
Y152547D01*
X345020D01*
X346026Y152817D01*
X346927Y153337D01*
X347663Y154073D01*
X348183Y154974D01*
X348453Y155980D01*
Y156000D01*
D02*
G37*
G36*
X344000D02*
X340547D01*
Y155980D01*
X340817Y154974D01*
X341337Y154073D01*
X342073Y153337D01*
X342974Y152817D01*
X343980Y152547D01*
X344000D01*
Y156000D01*
D02*
G37*
G36*
X477601Y157162D02*
X476769D01*
X475964Y156947D01*
X475243Y156530D01*
X474655Y155942D01*
X474238Y155221D01*
X474023Y154416D01*
Y153584D01*
X474238Y152779D01*
X474655Y152058D01*
X475243Y151470D01*
X475964Y151053D01*
X476769Y150838D01*
X477601D01*
X478406Y151053D01*
X479127Y151470D01*
X479715Y152058D01*
X480132Y152779D01*
X480347Y153584D01*
Y154416D01*
X480132Y155221D01*
X479715Y155942D01*
X479127Y156530D01*
X478406Y156947D01*
X477601Y157162D01*
D02*
G37*
G36*
X656468Y155056D02*
X655532D01*
X654628Y154814D01*
X653817Y154345D01*
X653155Y153683D01*
X652686Y152873D01*
X652444Y151968D01*
Y151032D01*
X652686Y150127D01*
X653155Y149317D01*
X653817Y148655D01*
X654628Y148186D01*
X655532Y147944D01*
X656468D01*
X657373Y148186D01*
X658183Y148655D01*
X658845Y149317D01*
X659314Y150127D01*
X659556Y151032D01*
Y151968D01*
X659314Y152873D01*
X658845Y153683D01*
X658183Y154345D01*
X657373Y154814D01*
X656468Y155056D01*
D02*
G37*
G36*
X210916Y303162D02*
X210084D01*
X209279Y302947D01*
X208558Y302530D01*
X207970Y301942D01*
X207553Y301221D01*
X207338Y300416D01*
Y299584D01*
X207553Y298779D01*
X207970Y298058D01*
X208410Y297618D01*
Y236567D01*
X208410Y236567D01*
X208569Y235767D01*
X209022Y235089D01*
X237977Y206134D01*
Y153899D01*
X237884Y153845D01*
X237222Y153183D01*
X236753Y152373D01*
X236511Y151468D01*
Y150532D01*
X236753Y149627D01*
X237222Y148817D01*
X237884Y148155D01*
X238695Y147686D01*
X239599Y147444D01*
X240535D01*
X241440Y147686D01*
X242250Y148155D01*
X242912Y148817D01*
X243381Y149627D01*
X243623Y150532D01*
Y151468D01*
X243381Y152373D01*
X242912Y153183D01*
X242250Y153845D01*
X242157Y153899D01*
Y207000D01*
X241998Y207800D01*
X241545Y208478D01*
X241545Y208478D01*
X212590Y237433D01*
Y297618D01*
X213030Y298058D01*
X213447Y298779D01*
X213662Y299584D01*
Y300416D01*
X213447Y301221D01*
X213030Y301942D01*
X212442Y302530D01*
X211721Y302947D01*
X210916Y303162D01*
D02*
G37*
G36*
X166520Y149453D02*
X166500D01*
Y146000D01*
X169953D01*
Y146020D01*
X169683Y147026D01*
X169163Y147927D01*
X168427Y148663D01*
X167526Y149183D01*
X166520Y149453D01*
D02*
G37*
G36*
X165500D02*
X165480D01*
X164474Y149183D01*
X163573Y148663D01*
X162837Y147927D01*
X162317Y147026D01*
X162047Y146020D01*
Y146000D01*
X165500D01*
Y149453D01*
D02*
G37*
G36*
X525468Y151123D02*
X524532D01*
X523628Y150881D01*
X522817Y150412D01*
X522155Y149750D01*
X521686Y148940D01*
X521444Y148035D01*
Y147099D01*
X521686Y146195D01*
X522155Y145384D01*
X522817Y144722D01*
X523628Y144253D01*
X524532Y144011D01*
X525468D01*
X526372Y144253D01*
X527183Y144722D01*
X527845Y145384D01*
X528314Y146195D01*
X528556Y147099D01*
Y148035D01*
X528314Y148940D01*
X527845Y149750D01*
X527183Y150412D01*
X526372Y150881D01*
X525468Y151123D01*
D02*
G37*
G36*
X561468Y150056D02*
X560532D01*
X559627Y149814D01*
X558817Y149345D01*
X558155Y148683D01*
X557686Y147872D01*
X557444Y146968D01*
Y146032D01*
X557686Y145127D01*
X558155Y144317D01*
X558817Y143655D01*
X559627Y143186D01*
X560532Y142944D01*
X561468D01*
X562372Y143186D01*
X563183Y143655D01*
X563845Y144317D01*
X564314Y145127D01*
X564556Y146032D01*
Y146968D01*
X564314Y147872D01*
X563845Y148683D01*
X563183Y149345D01*
X562372Y149814D01*
X561468Y150056D01*
D02*
G37*
G36*
X176494Y149253D02*
X175506D01*
X174551Y148997D01*
X173696Y148503D01*
X172997Y147804D01*
X172503Y146949D01*
X172247Y145994D01*
Y145006D01*
X172503Y144052D01*
X172997Y143196D01*
X173696Y142497D01*
X174551Y142003D01*
X175506Y141747D01*
X176494D01*
X177448Y142003D01*
X178304Y142497D01*
X179003Y143196D01*
X179497Y144052D01*
X179753Y145006D01*
Y145994D01*
X179497Y146949D01*
X179003Y147804D01*
X178304Y148503D01*
X177448Y148997D01*
X176494Y149253D01*
D02*
G37*
G36*
X169953Y145000D02*
X166500D01*
Y141547D01*
X166520D01*
X167526Y141817D01*
X168427Y142337D01*
X169163Y143073D01*
X169683Y143974D01*
X169953Y144980D01*
Y145000D01*
D02*
G37*
G36*
X165500D02*
X162047D01*
Y144980D01*
X162317Y143974D01*
X162837Y143073D01*
X163573Y142337D01*
X164474Y141817D01*
X165480Y141547D01*
X165500D01*
Y145000D01*
D02*
G37*
G36*
X573968Y254056D02*
X573032D01*
X572127Y253814D01*
X571317Y253345D01*
X570655Y252683D01*
X570186Y251872D01*
X569944Y250968D01*
Y250032D01*
X570186Y249128D01*
X570655Y248317D01*
X571317Y247655D01*
X571410Y247601D01*
Y179366D01*
X511572Y119528D01*
X511468Y119556D01*
X510532D01*
X509627Y119314D01*
X508817Y118845D01*
X508155Y118183D01*
X507686Y117373D01*
X507444Y116468D01*
Y115532D01*
X507686Y114628D01*
X508155Y113817D01*
X508817Y113155D01*
X509627Y112686D01*
X510532Y112444D01*
X511468D01*
X512372Y112686D01*
X513183Y113155D01*
X513845Y113817D01*
X514314Y114628D01*
X514556Y115532D01*
Y116468D01*
X514528Y116572D01*
X574978Y177022D01*
X574978Y177022D01*
X575431Y177700D01*
X575590Y178500D01*
X575590Y178500D01*
Y247601D01*
X575683Y247655D01*
X576345Y248317D01*
X576814Y249128D01*
X577056Y250032D01*
Y250968D01*
X576814Y251872D01*
X576345Y252683D01*
X575683Y253345D01*
X574872Y253814D01*
X573968Y254056D01*
D02*
G37*
G36*
X121468Y150623D02*
X120532D01*
X119627Y150381D01*
X118817Y149912D01*
X118155Y149250D01*
X117686Y148440D01*
X117444Y147535D01*
Y146599D01*
X117686Y145694D01*
X118155Y144884D01*
X118817Y144222D01*
X118910Y144168D01*
Y120299D01*
X117639Y119028D01*
X117535Y119056D01*
X116599D01*
X115694Y118814D01*
X114884Y118345D01*
X114222Y117683D01*
X113753Y116873D01*
X113511Y115968D01*
Y115032D01*
X113753Y114128D01*
X114222Y113317D01*
X114884Y112655D01*
X115694Y112186D01*
X116599Y111944D01*
X117535D01*
X118439Y112186D01*
X119250Y112655D01*
X119912Y113317D01*
X120381Y114128D01*
X120623Y115032D01*
Y115968D01*
X120595Y116072D01*
X122478Y117955D01*
X122478Y117955D01*
X122931Y118633D01*
X123090Y119433D01*
Y144168D01*
X123183Y144222D01*
X123845Y144884D01*
X124314Y145694D01*
X124556Y146599D01*
Y147535D01*
X124314Y148440D01*
X123845Y149250D01*
X123183Y149912D01*
X122372Y150381D01*
X121468Y150623D01*
D02*
G37*
G36*
X328433Y120754D02*
Y117500D01*
X331687D01*
X331433Y118450D01*
X330939Y119306D01*
X330239Y120006D01*
X329383Y120500D01*
X328433Y120754D01*
D02*
G37*
G36*
X327433D02*
X326483Y120500D01*
X325627Y120006D01*
X324927Y119306D01*
X324433Y118450D01*
X324179Y117500D01*
X327433D01*
Y120754D01*
D02*
G37*
G36*
X475685Y118347D02*
Y115500D01*
X478532D01*
X478318Y116298D01*
X477875Y117064D01*
X477249Y117690D01*
X476483Y118133D01*
X475685Y118347D01*
D02*
G37*
G36*
X474685D02*
X473887Y118133D01*
X473121Y117690D01*
X472495Y117064D01*
X472052Y116298D01*
X471838Y115500D01*
X474685D01*
Y118347D01*
D02*
G37*
G36*
X331687Y116500D02*
X328433D01*
Y113246D01*
X329383Y113500D01*
X330239Y113995D01*
X330939Y114694D01*
X331433Y115550D01*
X331687Y116500D01*
D02*
G37*
G36*
X327433D02*
X324179D01*
X324433Y115550D01*
X324927Y114694D01*
X325627Y113995D01*
X326483Y113500D01*
X327433Y113246D01*
Y116500D01*
D02*
G37*
G36*
X628468Y119556D02*
X627532D01*
X626627Y119314D01*
X625817Y118845D01*
X625155Y118183D01*
X624686Y117373D01*
X624444Y116468D01*
Y115532D01*
X624686Y114628D01*
X625155Y113817D01*
X625817Y113155D01*
X626627Y112686D01*
X627532Y112444D01*
X628468D01*
X629373Y112686D01*
X630183Y113155D01*
X630845Y113817D01*
X631314Y114628D01*
X631556Y115532D01*
Y116468D01*
X631314Y117373D01*
X630845Y118183D01*
X630183Y118845D01*
X629373Y119314D01*
X628468Y119556D01*
D02*
G37*
G36*
X582535D02*
X581599D01*
X580694Y119314D01*
X579884Y118845D01*
X579222Y118183D01*
X578753Y117373D01*
X578511Y116468D01*
Y115532D01*
X578753Y114628D01*
X579222Y113817D01*
X579884Y113155D01*
X580694Y112686D01*
X581599Y112444D01*
X582535D01*
X583439Y112686D01*
X584250Y113155D01*
X584912Y113817D01*
X585381Y114628D01*
X585623Y115532D01*
Y116468D01*
X585381Y117373D01*
X584912Y118183D01*
X584250Y118845D01*
X583439Y119314D01*
X582535Y119556D01*
D02*
G37*
G36*
X163468Y119056D02*
X162532D01*
X161627Y118814D01*
X160817Y118345D01*
X160155Y117683D01*
X159686Y116873D01*
X159444Y115968D01*
Y115032D01*
X159686Y114128D01*
X160155Y113317D01*
X160817Y112655D01*
X161627Y112186D01*
X162532Y111944D01*
X163468D01*
X164373Y112186D01*
X165183Y112655D01*
X165845Y113317D01*
X166314Y114128D01*
X166556Y115032D01*
Y115968D01*
X166314Y116873D01*
X165845Y117683D01*
X165183Y118345D01*
X164373Y118814D01*
X163468Y119056D01*
D02*
G37*
G36*
X181416Y117162D02*
X180584D01*
X179779Y116947D01*
X179058Y116530D01*
X178470Y115942D01*
X178053Y115221D01*
X177838Y114416D01*
Y113584D01*
X178053Y112779D01*
X178470Y112058D01*
X179058Y111470D01*
X179779Y111053D01*
X180584Y110838D01*
X181416D01*
X182221Y111053D01*
X182942Y111470D01*
X183530Y112058D01*
X183947Y112779D01*
X184162Y113584D01*
Y114416D01*
X183947Y115221D01*
X183530Y115942D01*
X182942Y116530D01*
X182221Y116947D01*
X181416Y117162D01*
D02*
G37*
G36*
X258916Y116662D02*
X258084D01*
X257279Y116447D01*
X256558Y116030D01*
X255970Y115442D01*
X255553Y114721D01*
X255338Y113916D01*
Y113084D01*
X255553Y112279D01*
X255970Y111558D01*
X256558Y110970D01*
X257279Y110553D01*
X258084Y110338D01*
X258916D01*
X259721Y110553D01*
X260442Y110970D01*
X261030Y111558D01*
X261447Y112279D01*
X261662Y113084D01*
Y113916D01*
X261447Y114721D01*
X261030Y115442D01*
X260442Y116030D01*
X259721Y116447D01*
X258916Y116662D01*
D02*
G37*
G36*
X230968Y193123D02*
X230032D01*
X229128Y192881D01*
X228317Y192412D01*
X227655Y191750D01*
X227186Y190939D01*
X226944Y190035D01*
Y189099D01*
X227186Y188195D01*
X227655Y187384D01*
X228317Y186722D01*
X228410Y186668D01*
Y121815D01*
X228410Y121815D01*
X228569Y121015D01*
X229022Y120337D01*
X235653Y113706D01*
Y113084D01*
X235868Y112279D01*
X236285Y111558D01*
X236873Y110970D01*
X237594Y110553D01*
X238399Y110338D01*
X239231D01*
X240036Y110553D01*
X240757Y110970D01*
X241345Y111558D01*
X241762Y112279D01*
X241977Y113084D01*
Y113916D01*
X241762Y114721D01*
X241345Y115442D01*
X240757Y116030D01*
X240036Y116447D01*
X239231Y116662D01*
X238609D01*
X232590Y122681D01*
Y186668D01*
X232683Y186722D01*
X233345Y187384D01*
X233814Y188195D01*
X234056Y189099D01*
Y190035D01*
X233814Y190939D01*
X233345Y191750D01*
X232683Y192412D01*
X231873Y192881D01*
X230968Y193123D01*
D02*
G37*
%LPD*%
G36*
X287410Y221904D02*
Y211500D01*
X287410Y211500D01*
X287569Y210700D01*
X288022Y210022D01*
X310747Y187297D01*
Y182747D01*
X318253D01*
Y182747D01*
X318710Y182644D01*
Y177220D01*
X318210Y177154D01*
X317997Y177948D01*
X317503Y178804D01*
X316804Y179503D01*
X315949Y179997D01*
X314994Y180253D01*
X314006D01*
X313052Y179997D01*
X312196Y179503D01*
X311497Y178804D01*
X311003Y177948D01*
X310747Y176994D01*
Y176006D01*
X311003Y175051D01*
X311497Y174196D01*
X312196Y173497D01*
X313052Y173003D01*
X314006Y172747D01*
X314994D01*
X315949Y173003D01*
X316804Y173497D01*
X317503Y174196D01*
X317997Y175051D01*
X318210Y175846D01*
X318710Y175780D01*
Y167993D01*
X318210Y167927D01*
X318183Y168026D01*
X317663Y168927D01*
X316927Y169663D01*
X316026Y170183D01*
X315020Y170453D01*
X315000D01*
Y166500D01*
Y162547D01*
X315020D01*
X316026Y162817D01*
X316927Y163337D01*
X317663Y164073D01*
X318183Y164974D01*
X318210Y165073D01*
X318710Y165007D01*
Y157220D01*
X318210Y157154D01*
X317997Y157949D01*
X317503Y158804D01*
X316804Y159503D01*
X315949Y159997D01*
X314994Y160253D01*
X314424D01*
X310000Y164677D01*
Y180200D01*
X309802Y181195D01*
X309239Y182038D01*
X286700Y204577D01*
Y221799D01*
X287200Y222055D01*
X287410Y221904D01*
D02*
G37*
%LPC*%
G36*
X314000Y170453D02*
X313980D01*
X312974Y170183D01*
X312073Y169663D01*
X311337Y168927D01*
X310817Y168026D01*
X310547Y167020D01*
Y167000D01*
X314000D01*
Y170453D01*
D02*
G37*
G36*
Y166000D02*
X310547D01*
Y165980D01*
X310817Y164974D01*
X311337Y164073D01*
X312073Y163337D01*
X312974Y162817D01*
X313980Y162547D01*
X314000D01*
Y166000D01*
D02*
G37*
%LPD*%
D22*
X384000Y236899D02*
X388500Y232399D01*
X384000Y236899D02*
Y237500D01*
X381700Y260400D02*
X393088Y249012D01*
X388500Y98500D02*
Y232399D01*
X393088Y139912D02*
X416500Y116500D01*
X393088Y139912D02*
Y249012D01*
X281100Y117000D02*
Y159600D01*
X131459Y318959D02*
X177067Y364567D01*
X121500Y309000D02*
X131459Y318959D01*
Y330159D01*
Y298026D02*
Y318959D01*
X318400Y151000D02*
X329000D01*
X614700Y198900D02*
X639400Y223600D01*
X613300Y197500D02*
X614700Y198900D01*
X611200Y195400D02*
X613300Y197500D01*
Y200300D01*
Y140500D02*
Y197500D01*
X230500Y121815D02*
Y189567D01*
Y121815D02*
X238815Y113500D01*
X212496Y114000D02*
Y142008D01*
X205000Y149504D02*
X212496Y142008D01*
X289500Y211500D02*
X314500Y186500D01*
X289500Y211500D02*
Y225000D01*
X261500Y197004D02*
Y204500D01*
X230500Y235500D02*
X261500Y204500D01*
X144567Y217000D02*
Y233134D01*
X161500Y250067D01*
X339400Y181600D02*
X344500Y176500D01*
X339400Y181600D02*
Y197500D01*
X316000Y220900D02*
X339400Y197500D01*
X316000Y220900D02*
Y302800D01*
X365700Y352500D01*
Y415000D01*
X369900Y419200D01*
Y467400D01*
X325700Y260400D02*
X381700D01*
X415496Y200937D02*
Y237500D01*
Y200937D02*
X418933Y197500D01*
X627600Y469600D02*
X637500Y479500D01*
X627600Y442100D02*
Y469600D01*
X512950Y421550D02*
X520400Y429000D01*
X512950Y281750D02*
Y421550D01*
Y281750D02*
X513400Y281300D01*
Y231900D02*
Y281300D01*
X507500Y226000D02*
X513400Y231900D01*
X507500Y197300D02*
X510750Y200550D01*
Y222750D01*
X507500Y226000D02*
X510750Y222750D01*
X682500Y259300D02*
Y278500D01*
X681500Y238000D02*
X682500Y259300D01*
X499700Y217897D02*
Y233052D01*
X506800Y240152D01*
Y274250D01*
X506350Y274700D02*
X506800Y274250D01*
X506350Y274700D02*
Y456000D01*
X507950Y457600D01*
X539600D01*
X561500Y479500D01*
X689000Y390400D02*
Y459000D01*
X687100Y388500D02*
X689000Y390400D01*
X681000Y388500D02*
X687100D01*
X676500Y393000D02*
X681000Y388500D01*
X542500Y268500D02*
Y417000D01*
X616500Y247000D02*
X634500Y229000D01*
X616500Y247000D02*
Y268500D01*
X277000Y459600D02*
X289637Y472237D01*
X277000Y384000D02*
Y459600D01*
X378200Y421300D02*
Y472000D01*
Y421300D02*
X403700Y395800D01*
Y300200D02*
Y395800D01*
X391000Y287500D02*
X403700Y300200D01*
X395500Y396000D02*
X400400Y391100D01*
Y319300D02*
Y391100D01*
X368685Y287585D02*
X400400Y319300D01*
X368685Y267000D02*
Y287585D01*
X563900Y244400D02*
Y298400D01*
X571500Y306000D01*
X617000Y368500D02*
X626000Y359500D01*
Y308500D02*
Y359500D01*
X337500Y455300D02*
X362300Y480100D01*
X337500Y404500D02*
Y455300D01*
X307000Y374000D02*
X337500Y404500D01*
X340800Y449800D02*
X353900Y462900D01*
X340800Y398900D02*
Y449800D01*
X325600Y383700D02*
X340800Y398900D01*
X325600Y340100D02*
Y383700D01*
X305000Y319500D02*
X325600Y340100D01*
X411000Y440500D02*
Y477000D01*
X402500Y485500D02*
X411000Y477000D01*
X352315Y409000D02*
Y435100D01*
X433500Y480000D02*
X456185Y457315D01*
Y443000D02*
Y457315D01*
X467567Y354500D02*
X487500Y334567D01*
X457000Y354500D02*
X467567D01*
X257500Y350685D02*
Y448500D01*
X253500Y346685D02*
X257500Y350685D01*
X163500Y400000D02*
X180800Y382700D01*
Y379500D02*
Y382700D01*
X131459Y330159D02*
X180800Y379500D01*
X121500Y288067D02*
X131459Y298026D01*
X121500Y288067D02*
Y309000D01*
X120500Y390815D02*
X125400Y395715D01*
Y434600D01*
X122000Y438000D02*
X125400Y434600D01*
X120500Y359185D02*
Y390815D01*
X117315Y356000D02*
X120500Y359185D01*
X117315Y338185D02*
Y356000D01*
Y338185D02*
X121500Y334000D01*
X286000Y151000D02*
X318400D01*
X320800Y153400D01*
Y196500D01*
X311400Y205900D02*
X320800Y196500D01*
X311400Y205900D02*
Y302600D01*
X643300Y392700D02*
X654200Y403600D01*
Y488900D01*
X656000Y490700D01*
X664400D01*
X665500Y489600D01*
Y479500D02*
Y489600D01*
X638700Y470700D02*
X647500Y479500D01*
X638700Y244800D02*
Y470700D01*
X613300Y200300D02*
X614700Y198900D01*
X613300Y140500D02*
X635800Y118000D01*
X643500D01*
X652000Y229200D02*
Y278000D01*
X622900Y200100D02*
X652000Y229200D01*
X622900Y173100D02*
Y200100D01*
Y173100D02*
X628000Y168000D01*
X632500Y406000D02*
Y429910D01*
X589500Y472910D02*
X632500Y429910D01*
X589500Y472910D02*
Y479500D01*
X476000Y211000D02*
Y308400D01*
X492400Y324800D01*
Y460500D01*
X503200Y471300D01*
X543300D01*
X551500Y479500D01*
X487800Y406800D02*
Y472800D01*
X494500Y479500D01*
X286700Y384300D02*
Y433900D01*
X598000Y188000D02*
X603100Y182900D01*
Y155647D02*
Y182900D01*
X563453Y116000D02*
X603100Y155647D01*
X556933Y116000D02*
X563453D01*
X190500Y217000D02*
Y313200D01*
X336900Y332100D02*
X345000Y340200D01*
Y345000D01*
X357200Y432633D02*
X365067Y440500D01*
X357200Y357200D02*
Y432633D01*
X345000Y345000D02*
X357200Y357200D01*
X121000Y119433D02*
Y147067D01*
X117067Y115500D02*
X121000Y119433D01*
X603300Y229100D02*
Y329100D01*
X592900Y218700D02*
X603300Y229100D01*
X592900Y183100D02*
Y218700D01*
Y183100D02*
X598000Y178000D01*
X522500Y417000D02*
X525000Y419500D01*
Y432000D01*
X523400Y433600D02*
X525000Y432000D01*
X518000Y433600D02*
X523400D01*
X509650Y425250D02*
X518000Y433600D01*
X509650Y278000D02*
Y425250D01*
Y278000D02*
X510100Y277550D01*
Y237412D02*
Y277550D01*
X503088Y230400D02*
X510100Y237412D01*
X503088Y221588D02*
Y230400D01*
Y221588D02*
X505600Y219076D01*
Y215476D02*
Y219076D01*
X492200Y202076D02*
X505600Y215476D01*
X492200Y123100D02*
Y202076D01*
X479600Y110500D02*
X492200Y123100D01*
X460000Y110500D02*
X479600D01*
X455500Y115000D02*
X460000Y110500D01*
X190500Y217000D02*
X200500Y207000D01*
Y121500D02*
Y207000D01*
X450124Y371376D02*
X457000Y364500D01*
X450124Y371376D02*
Y436939D01*
X456185Y443000D01*
X472216Y380500D02*
X487500D01*
X456185Y396531D02*
X472216Y380500D01*
X456185Y396531D02*
Y443000D01*
X638700Y244800D02*
X639400Y244100D01*
Y223600D02*
Y244100D01*
X344300Y271700D02*
X349000Y267000D01*
X344300Y271700D02*
Y283100D01*
X370567Y116500D02*
Y175667D01*
X333763Y212471D02*
X370567Y175667D01*
X333763Y212471D02*
Y243052D01*
X320500Y256315D02*
X333763Y243052D01*
X330500Y327000D02*
Y378500D01*
X352315Y400315D02*
Y409000D01*
X330500Y378500D02*
X352315Y400315D01*
X277000Y374000D02*
X282100Y379100D01*
Y455033D01*
X311567Y484500D01*
X676500Y436500D02*
Y470900D01*
X678400Y472800D01*
X692400D01*
X694400Y470800D01*
Y297900D02*
Y470800D01*
X661300Y264800D02*
X694400Y297900D01*
X661300Y211300D02*
Y264800D01*
X628000Y178000D02*
X661300Y211300D01*
X689433Y118000D02*
Y242600D01*
X193500Y390000D02*
X244300Y440800D01*
Y448300D01*
X272500Y476500D01*
X440100Y371400D02*
X457000Y354500D01*
X440100Y371400D02*
Y397700D01*
X660400Y452600D02*
Y485300D01*
Y452600D02*
X676500Y436500D01*
X405500Y161500D02*
X411000Y167000D01*
Y240000D01*
X424400Y253400D01*
X441900D01*
X456000Y267500D01*
X573500Y178500D02*
Y250500D01*
X511000Y116000D02*
X573500Y178500D01*
X210500Y236567D02*
Y300000D01*
Y236567D02*
X240067Y207000D01*
Y151000D02*
Y207000D01*
X202500Y241500D02*
Y300000D01*
X281100Y117000D02*
X282000D01*
X271700Y169000D02*
X281100Y159600D01*
X617900Y157900D02*
X628000Y168000D01*
X617900Y146500D02*
Y157900D01*
X329000Y151000D02*
X344500Y166500D01*
X427000Y374500D02*
Y402900D01*
X552000Y335567D02*
Y361000D01*
X574503Y383503D01*
X591200D01*
X592003Y382700D01*
Y373503D02*
Y382700D01*
X587000Y368500D02*
X592003Y373503D01*
X679400Y398100D02*
X684500Y393000D01*
X670400Y398100D02*
X679400D01*
X643567Y371267D02*
X670400Y398100D01*
X643567Y357000D02*
Y371267D01*
X527433Y226000D02*
X561000Y192433D01*
X515500Y226000D02*
X527433D01*
X454000Y154000D02*
X457500D01*
X416500Y116500D02*
X454000Y154000D01*
X225500Y355000D02*
Y364567D01*
Y355000D02*
X253500Y327000D01*
X345000Y290685D02*
X368685Y267000D01*
X345000Y290685D02*
Y299067D01*
X579600Y321100D02*
X617000Y358500D01*
X579600Y286600D02*
Y321100D01*
X572000Y279000D02*
X579600Y286600D01*
X186400Y382900D02*
X193500Y390000D01*
X186400Y358400D02*
Y382900D01*
X162500Y334500D02*
X186400Y358400D01*
X689500Y315500D02*
Y357000D01*
X652000Y278000D02*
X689500Y315500D01*
X382815Y444185D02*
Y485500D01*
Y444185D02*
X419500Y407500D01*
X208433Y334500D02*
Y365067D01*
X193500Y380000D02*
X208433Y365067D01*
X571500Y363000D02*
X587000Y378500D01*
X571500Y306000D02*
Y363000D01*
X297000Y319500D02*
Y364000D01*
X307000Y374000D01*
X419500Y372000D02*
X427000Y364500D01*
X419500Y372000D02*
Y407500D01*
X588567Y177433D02*
Y229000D01*
Y177433D02*
X598000Y168000D01*
X517500Y287567D02*
Y363500D01*
Y287567D02*
X526067Y279000D01*
X139700Y161800D02*
X156000Y145500D01*
X139700Y161800D02*
Y274200D01*
X161500Y296000D01*
D23*
X279642Y300236D02*
X280505Y301225D01*
Y302656D01*
X277274Y349980D02*
X280505Y302656D01*
X277000Y354000D02*
X277274Y349980D01*
X279000Y299500D02*
X279642Y300236D01*
X289700Y238500D02*
Y366700D01*
X307000Y384000D01*
X522500Y447000D02*
X542500Y427000D01*
X568100D01*
X572800Y422300D01*
Y401700D02*
Y422300D01*
Y401700D02*
X584600Y400100D01*
X595803Y388897D01*
Y357303D02*
Y388897D01*
X587000Y348500D02*
X595803Y357303D01*
X160100Y189600D02*
Y227400D01*
X146000Y175500D02*
X160100Y189600D01*
X454700Y376800D02*
Y388900D01*
Y376800D02*
X457000Y374500D01*
X116100Y261900D02*
X121000Y257000D01*
X116100Y261900D02*
Y319900D01*
X126900Y330700D01*
Y333400D01*
X163500Y370000D01*
X307400Y163600D02*
X314500Y156500D01*
X307400Y163600D02*
Y180200D01*
X284100Y203500D02*
X307400Y180200D01*
X284100Y203500D02*
Y259487D01*
X284600Y259987D01*
Y293900D01*
X279000Y299500D02*
X284600Y293900D01*
D24*
X532500Y447000D02*
D03*
X542500D02*
D03*
X522500Y417000D02*
D03*
X156000Y145500D02*
D03*
X166000D02*
D03*
X176000D02*
D03*
X146000Y175500D02*
D03*
X156000D02*
D03*
X166000D02*
D03*
X176000D02*
D03*
X279000Y279500D02*
D03*
Y289500D02*
D03*
Y299500D02*
D03*
X249000Y269500D02*
D03*
Y279500D02*
D03*
Y289500D02*
D03*
Y299500D02*
D03*
X587000Y368500D02*
D03*
Y358500D02*
D03*
Y348500D02*
D03*
X617000Y378500D02*
D03*
Y368500D02*
D03*
Y358500D02*
D03*
Y348500D02*
D03*
X427000Y364500D02*
D03*
Y354500D02*
D03*
Y344500D02*
D03*
X457000Y374500D02*
D03*
Y364500D02*
D03*
Y354500D02*
D03*
Y344500D02*
D03*
X163500Y390000D02*
D03*
Y380000D02*
D03*
Y370000D02*
D03*
X193500Y400000D02*
D03*
Y390000D02*
D03*
Y380000D02*
D03*
Y370000D02*
D03*
X522500Y447000D02*
D03*
X552500Y417000D02*
D03*
X542500D02*
D03*
X532500D02*
D03*
X314500Y176500D02*
D03*
Y166500D02*
D03*
Y156500D02*
D03*
X344500Y186500D02*
D03*
Y176500D02*
D03*
Y166500D02*
D03*
Y156500D02*
D03*
X466000Y181000D02*
D03*
X476000D02*
D03*
X486000D02*
D03*
X456000Y211000D02*
D03*
X466000D02*
D03*
X476000D02*
D03*
X486000D02*
D03*
X277000Y374000D02*
D03*
Y364000D02*
D03*
Y354000D02*
D03*
X307000Y384000D02*
D03*
Y374000D02*
D03*
Y364000D02*
D03*
Y354000D02*
D03*
X598000Y178000D02*
D03*
Y168000D02*
D03*
Y158000D02*
D03*
X628000Y188000D02*
D03*
Y178000D02*
D03*
Y168000D02*
D03*
Y158000D02*
D03*
D25*
X552500Y447000D02*
D03*
X146000Y145500D02*
D03*
X456000Y181000D02*
D03*
D26*
X199315Y458815D02*
D03*
X238685D02*
D03*
X219000Y478500D02*
D03*
D27*
X279000Y269500D02*
D03*
X587000Y378500D02*
D03*
X427000Y374500D02*
D03*
X163500Y400000D02*
D03*
X314500Y186500D02*
D03*
X277000Y384000D02*
D03*
X598000Y188000D02*
D03*
D28*
X455500Y115000D02*
D03*
X475185D02*
D03*
X181000Y114000D02*
D03*
X212496D02*
D03*
X205000Y149504D02*
D03*
Y181000D02*
D03*
X261500Y228500D02*
D03*
Y197004D02*
D03*
X354000Y227500D02*
D03*
X322504D02*
D03*
X384000Y237500D02*
D03*
X415496D02*
D03*
X594504Y308500D02*
D03*
X626000D02*
D03*
X456504Y298500D02*
D03*
X488000D02*
D03*
X210500Y300000D02*
D03*
X202500D02*
D03*
X397500Y161500D02*
D03*
X405500D02*
D03*
X425500Y268000D02*
D03*
X433500D02*
D03*
X507500Y226000D02*
D03*
X515500D02*
D03*
X681500Y238000D02*
D03*
X673500D02*
D03*
X676500Y393000D02*
D03*
X684500D02*
D03*
X616500Y268500D02*
D03*
X608500D02*
D03*
X676500Y436500D02*
D03*
X684500D02*
D03*
X399000Y287500D02*
D03*
X391000D02*
D03*
X297000Y319500D02*
D03*
X305000D02*
D03*
X525500Y363500D02*
D03*
X517500D02*
D03*
X433500Y480000D02*
D03*
X425500D02*
D03*
X280500Y476500D02*
D03*
X272500D02*
D03*
X238815Y113500D02*
D03*
X258500D02*
D03*
X320500Y256315D02*
D03*
Y276000D02*
D03*
X457500Y154000D02*
D03*
X477185D02*
D03*
X462000Y233500D02*
D03*
X442315D02*
D03*
X349000Y267000D02*
D03*
X368685D02*
D03*
X483000Y422500D02*
D03*
Y442185D02*
D03*
X456185Y443000D02*
D03*
X436500D02*
D03*
X382815Y485500D02*
D03*
X402500D02*
D03*
X372000Y409000D02*
D03*
X352315D02*
D03*
X253500Y327000D02*
D03*
Y346685D02*
D03*
X137000Y356000D02*
D03*
X117315D02*
D03*
X333000Y427815D02*
D03*
Y447500D02*
D03*
X120500Y410500D02*
D03*
Y390815D02*
D03*
D29*
X121000Y257000D02*
D03*
Y247000D02*
D03*
Y237000D02*
D03*
X685500Y479500D02*
D03*
X675500D02*
D03*
X665500D02*
D03*
X627500D02*
D03*
X637500D02*
D03*
X647500D02*
D03*
X609500D02*
D03*
X599500D02*
D03*
X589500D02*
D03*
X571500D02*
D03*
X561500D02*
D03*
X551500D02*
D03*
X533000D02*
D03*
X523000D02*
D03*
X513000D02*
D03*
X474500D02*
D03*
X484500D02*
D03*
X494500D02*
D03*
X699500Y493000D02*
D03*
X697000Y94000D02*
D03*
X106000Y94500D02*
D03*
X105000Y494500D02*
D03*
D30*
X289500Y179067D02*
D03*
Y225000D02*
D03*
X230500Y235500D02*
D03*
Y189567D02*
D03*
X282000Y117000D02*
D03*
X327933D02*
D03*
X190500Y217000D02*
D03*
X144567D02*
D03*
X161500Y250067D02*
D03*
Y296000D02*
D03*
X121000Y147067D02*
D03*
Y193000D02*
D03*
X240067Y151000D02*
D03*
X286000D02*
D03*
X163000Y115500D02*
D03*
X117067D02*
D03*
X416500Y116500D02*
D03*
X370567D02*
D03*
X456000Y267500D02*
D03*
X501933D02*
D03*
X418933Y197500D02*
D03*
X373000D02*
D03*
X556933Y116000D02*
D03*
X511000D02*
D03*
X525000Y193500D02*
D03*
Y147567D02*
D03*
X582067Y116000D02*
D03*
X628000D02*
D03*
X689433Y118000D02*
D03*
X643500D02*
D03*
X527567Y250500D02*
D03*
X573500D02*
D03*
X561000Y192433D02*
D03*
Y146500D02*
D03*
X684500Y196933D02*
D03*
Y151000D02*
D03*
X682500Y278500D02*
D03*
Y324433D02*
D03*
X643567Y357000D02*
D03*
X689500D02*
D03*
X634500Y229000D02*
D03*
X588567D02*
D03*
X656000Y197433D02*
D03*
Y151500D02*
D03*
X652000Y323933D02*
D03*
Y278000D02*
D03*
X552000Y335567D02*
D03*
Y381500D02*
D03*
X632500Y451933D02*
D03*
Y406000D02*
D03*
X572000Y279000D02*
D03*
X526067D02*
D03*
X345000Y345000D02*
D03*
Y299067D02*
D03*
X571500Y306000D02*
D03*
X525567D02*
D03*
X586500Y405500D02*
D03*
Y451433D02*
D03*
X395500Y350067D02*
D03*
Y396000D02*
D03*
X383500Y324000D02*
D03*
X429433D02*
D03*
X419500Y407500D02*
D03*
X465433D02*
D03*
X487500Y334567D02*
D03*
Y380500D02*
D03*
X365067Y440500D02*
D03*
X411000D02*
D03*
X376433Y378500D02*
D03*
X330500D02*
D03*
X357500Y484500D02*
D03*
X311567D02*
D03*
X252567Y415000D02*
D03*
X298500D02*
D03*
X229433Y260500D02*
D03*
X183500D02*
D03*
X225500Y410500D02*
D03*
Y364567D02*
D03*
X208433Y334500D02*
D03*
X162500D02*
D03*
X303433Y448500D02*
D03*
X257500D02*
D03*
X121500Y288067D02*
D03*
Y334000D02*
D03*
X168000Y483433D02*
D03*
Y437500D02*
D03*
X146000Y438000D02*
D03*
Y483933D02*
D03*
X122000D02*
D03*
Y438000D02*
D03*
D31*
X137000Y288000D02*
D03*
X388500Y98500D02*
D03*
X369900Y467400D02*
D03*
X325700Y260400D02*
D03*
X627600Y442100D02*
D03*
X520400Y429000D02*
D03*
X507500Y197300D02*
D03*
X499700Y217897D02*
D03*
X689000Y459000D02*
D03*
X542500Y268500D02*
D03*
X289637Y472237D02*
D03*
X378200Y472000D02*
D03*
X563900Y244400D02*
D03*
X362300Y480100D02*
D03*
X353900Y462900D02*
D03*
X352315Y435100D02*
D03*
X177067Y364567D02*
D03*
X311400Y302600D02*
D03*
X643300Y392700D02*
D03*
X487800Y406800D02*
D03*
X286700Y384300D02*
D03*
Y433900D02*
D03*
X190500Y313200D02*
D03*
X336900Y332100D02*
D03*
X603300Y329100D02*
D03*
X160100Y227400D02*
D03*
X289700Y238500D02*
D03*
X200500Y121500D02*
D03*
X454700Y388900D02*
D03*
X611200Y195400D02*
D03*
X344300Y283100D02*
D03*
X330500Y327000D02*
D03*
X689433Y242600D02*
D03*
X440100Y397700D02*
D03*
X660400Y485300D02*
D03*
X202500Y241500D02*
D03*
X271700Y169000D02*
D03*
X617900Y146500D02*
D03*
X427000Y402900D02*
D03*
M02*
