M48
;Layer_Color=9474304
;FILE_FORMAT=2:3
INCH,LZ
;TYPE=PLATED
T1F00S00C0.028
T2F00S00C0.030
T3F00S00C0.031
T4F00S00C0.035
T5F00S00C0.040
T6F00S00C0.118
%
T01
X0181Y0114
X02005Y01215
X02125Y0114
X02388Y01135
X02585
X0205Y01495
X03885Y00985
X04555Y0115
X04575Y0154
X04772
X04752Y0115
X06179Y01465
X06735Y0238
X06815
X06894Y02426
X0626Y03085
X05945
X06085Y02685
X06165
X05425
X05639Y02444
X05155Y0226
X05075
X04997Y02179
X05075Y01973
X06112Y01954
X0488Y02985
X04565
X04335Y0268
X04255
X04155Y02375
X04423Y02335
X0462
X0384Y02375
X0354Y02275
X03225
X03205Y02563
X03257Y02604
X03205Y0276
X03443Y02831
X0349Y0267
X03687
X0391Y02875
X0399
X03975Y01615
X04055
X02717Y0169
X02615Y0197
Y02285
X02897Y02385
X03114Y03026
X02105Y03
X02025
Y02415
X01601Y02274
X0205Y0181
X0137Y0288
Y0356
X01173
X01205Y03908
Y04105
X01771Y03646
X01905Y03132
X02535Y0327
Y03467
X0297Y03195
X0305
X02867Y03843
Y04339
X0333Y04278
Y04475
X03523Y04351
Y0409
X0372
X03699Y04674
X03539Y04629
X04365Y0443
X04562
X04547Y03889
X04401Y03977
X0427Y04029
X03369Y03321
X03305Y0327
X05175Y03635
X05255
X05204Y0429
X0483Y04225
Y04422
X04878Y04068
X06033Y03291
X06433Y03927
X06765Y0393
X06845
Y04365
X06765
X0689Y0459
X06276Y04421
X06604Y04853
X04335Y048
X04255
X04025Y04855
X03828
X03782Y0472
X03623Y04801
X02896Y04722
X02805Y04765
X02725
T02
X0121Y0237
Y0247
Y0257
X06275Y04795
X06375
X06475
X06655
X06755
X06855
X06095
X05995
X05895
X05715
X05615
X05515
X0533
X0523
X0513
X04945
X04845
X04745
T03
X01171Y01155
X0121Y01471
X0163Y01155
X02401Y0151
X0286
X0282Y0117
X03279
X03706Y01165
X04165
X0511Y0116
X0525Y01476
X0561Y01465
X05569Y0116
X05821
X0628
X06435Y0118
X06894
X06845Y0151
X0656Y01515
Y01974
X06845Y01969
X06345Y0229
X0652Y0278
X06825Y02785
X0572Y0279
X05715Y0306
X05256
X05261Y0279
X05276Y02505
X05019Y02675
X05735Y02505
X05886Y0229
X0561Y01924
X0525Y01935
X04189Y01975
X0373
X0345Y02991
X0456Y02675
X02895Y0225
Y01791
X02305Y01896
Y02355
X02294Y02605
X01835
X01615Y02501
Y0296
X01905Y0217
X01446
X0121Y0193
X01215Y02881
Y0334
X0122Y0438
X0146
X0168Y04375
X02255Y04105
X02526Y0415
X02575Y04485
X03034
X02985Y0415
X02255Y03646
X02084Y03345
X01625
X0345Y0345
X03305Y03785
X03764
X03955Y0396
X04195Y04075
X0411Y04405
X03651
X03955Y03501
X03835Y0324
X04294
X04654Y04075
X04875Y03805
Y03346
X0552Y03356
Y03815
X05865Y04055
Y04514
X06325Y04519
Y0406
X06436Y0357
X0652Y03239
X06825Y03244
X06895Y0357
X03575Y04845
X03116
X0168Y04834
X0146Y04839
X0122
T04
X0146Y01455
X0156
X0166
X0176
X0628Y0158
Y0168
Y0178
Y0188
X0598
Y0178
Y0168
Y0158
X0486Y0181
X0476
Y0211
X0486
X0466
X0456
Y0181
X0466
X03445Y01765
Y01865
Y01665
Y01565
X03145
Y01665
Y01765
Y01865
X0279Y02695
Y02795
Y02895
Y02995
X0249
Y02895
Y02795
Y02695
X0176Y01755
X0166
X0156
X0146
X01635Y037
Y038
Y039
Y04
X01935
Y039
Y038
Y037
X0277Y0374
Y0384
Y0364
Y0354
X0307
Y0364
Y0374
Y0384
X0427Y03745
Y03645
Y03545
Y03445
X0457
Y03545
Y03645
Y03745
X05225Y0417
X05325
X05425
X05525
Y0447
X05425
X05325
X05225
X0587Y03785
Y03685
Y03585
Y03485
X0617
Y03585
Y03685
Y03785
T05
X01993Y04588
X02387
X0219Y04785
T06
X0106Y00945
X0697Y0094
X06995Y0493
X0105Y04945
M30
